<svg width="48" height="48" viewBox="0 0 48 48" fill="none" xmlns="http://www.w3.org/2000/svg">
<mask id="mask0_903_445" style="mask-type:alpha" maskUnits="userSpaceOnUse" x="0" y="0" width="48" height="48">
<rect width="48" height="48" fill="#D9D9D9"/>
</mask>
<g mask="url(#mask0_903_445)">
<path d="M18 12C19.1046 12 20 12.8954 20 14V16H10V38H32V28H34C35.1046 28 36 28.8954 36 30V40C36 40.5304 35.7893 41.0391 35.4142 41.4142C35.0391 41.7893 34.5304 42 34 42H8C7.46957 42 6.96086 41.7893 6.58579 41.4142C6.21071 41.0391 6 40.5304 6 40V14C6 13.4696 6.21071 12.9609 6.58579 12.5858C6.96086 12.2107 7.46957 12 8 12H18ZM42 6V20C42 21.1046 41.1046 22 40 22H38V12.826L23.828 26.9998C23.0471 27.7808 21.7809 27.7809 20.9999 26.9999V26.9999C20.219 26.219 20.219 24.9529 20.9998 24.172L35.17 10H26V8C26 6.89543 26.8954 6 28 6H42Z" fill="#262A2E"/>
</g>
</svg>
