<svg width="150" height="150" viewBox="0 0 150 150" fill="none" xmlns="http://www.w3.org/2000/svg">
<ellipse cx="74.9308" cy="75.054" rx="74.9308" ry="74.946" fill="#FDB910"/>
<path d="M54.6035 44.094C54.4129 44.094 54.2031 44.2773 54.1367 44.5013C53.9821 45.0232 52.5967 52.8256 52.5967 53.1745C52.5967 53.7361 53.391 53.2482 53.5512 52.5882C53.6444 52.2044 53.8457 51.1196 53.9985 50.1777C54.3538 47.9883 54.7286 47.5849 56.4081 47.5849C58.2315 47.5849 58.3435 47.8046 57.8695 50.4586C57.3991 53.0922 57.3932 53.4032 57.8172 53.4032C58.2035 53.4032 58.2417 53.2861 58.759 50.4941C59.3533 47.2868 58.8237 46.5336 56.0876 46.6949C54.8076 46.7704 54.8077 46.7704 54.879 45.4322C54.9356 44.3703 54.8785 44.094 54.6035 44.094ZM50.8708 46.7854C48.1314 46.8085 47.4501 47.5589 47.1039 50.9377C46.9601 52.3409 46.9885 52.471 47.5621 53.0445C48.1318 53.6143 48.2955 53.6511 49.9776 53.5877C51.3961 53.5343 51.7821 53.4449 51.7821 53.1705C51.7821 52.899 51.3687 52.7955 49.9226 52.705C47.7758 52.5707 47.7993 52.6024 48.0571 50.1954C48.2919 48.0031 48.7727 47.5849 51.0599 47.5849C52.0872 47.5849 52.8674 47.4789 52.9617 47.3263C53.2264 46.898 52.731 46.7697 50.8708 46.7854ZM44.3102 46.8868C42.8204 46.8868 42.342 46.9601 42.4138 47.1777C42.4738 47.3594 43.0675 47.495 43.9952 47.539C45.6929 47.6197 46.1329 47.8764 46.0339 48.7286C45.9678 49.2972 45.8741 49.3374 44.3348 49.4609C41.9458 49.6525 40.9602 50.3725 40.9602 51.9254C40.9602 53.1562 41.8095 53.6359 43.9884 53.6359C45.1857 53.6359 45.8752 53.5343 46.0425 53.3327C46.181 53.1659 46.4682 51.9102 46.6812 50.5427C47.0408 48.2336 47.0411 48.0149 46.6853 47.4718C46.3254 46.9225 46.1812 46.8868 44.3102 46.8868ZM44.1498 50.3777C45.8118 50.3777 45.9966 50.5507 45.673 51.8041C45.4704 52.5888 45.4702 52.5884 43.7966 52.6568C42.1983 52.7221 42.1111 52.6985 41.8525 52.1309C41.618 51.6162 41.6547 51.4591 42.1261 50.9572C42.5955 50.4576 42.8741 50.3777 44.1498 50.3777ZM86.8843 57.1078C82.7429 57.1275 78.4821 57.2584 77.5206 57.485C74.1687 58.2751 71.2194 60.6437 69.6605 63.7978C68.8871 65.3626 68.7808 65.795 68.7009 67.6847C68.6269 69.4362 68.6984 70.042 69.1064 71.1247C69.7616 72.8634 71.15 74.401 72.7942 75.2084C74.1241 75.8615 74.1242 75.8616 80.5243 75.9825C86.5456 76.0963 86.9813 76.1337 87.8907 76.6157C92.2576 78.9305 91.3187 85.2423 86.2507 87.6399C84.8296 88.3122 84.8296 88.3125 75.9624 88.3126C70.0734 88.3128 66.8469 88.3995 66.3555 88.5708C65.6292 88.824 64.9314 89.7803 64.9314 90.5227C64.9314 90.7269 65.1885 91.1508 65.5027 91.465C66.074 92.0362 66.0741 92.0363 74.8006 92.0363C80.2723 92.0363 83.9869 91.9403 84.7602 91.779C88.2447 91.0524 91.5226 88.4401 93.1385 85.1017C93.9883 83.3461 94.1018 82.9065 94.1967 81.0108C94.2859 79.2291 94.2222 78.6734 93.8012 77.5603C93.1071 75.7249 91.5993 74.1174 89.7871 73.2807C88.3208 72.6036 88.3207 72.6034 81.9206 72.487C75.7127 72.3742 75.4942 72.3541 74.6428 71.8247C70.7338 69.3944 71.7978 63.659 76.5679 61.4483C77.8479 60.855 77.8479 60.855 86.2261 60.8519C94.1423 60.8489 94.6457 60.8236 95.3544 60.3914C96.5869 59.6399 96.6874 57.927 95.5299 57.3996C95.0475 57.1798 91.0258 57.0881 86.8843 57.1078ZM50.8039 57.1787C47.701 57.2564 46.2371 57.6215 44.413 58.5423C41.8877 59.8171 39.3464 62.61 38.3134 65.2456C37.8735 66.3679 31.1855 103.917 31.1855 105.265C31.1855 106.672 33.0125 107.22 34.0956 106.136C34.742 105.49 34.7193 105.573 35.4783 101.113C35.7941 99.2568 36.3179 96.2196 36.6424 94.3636C36.9669 92.5076 37.2353 90.8843 37.2383 90.7563C37.2414 90.6283 37.3305 90.3866 37.4365 90.2195C37.5861 89.9837 37.8852 90.0735 38.7711 90.6195C40.7155 91.8178 42.0991 92.0365 47.7003 92.0327C54.8938 92.0278 56.8988 91.4227 60.0954 88.2904C62.7142 85.7242 63.0476 84.7882 64.8241 75.0166C65.6471 70.4894 66.3209 66.2615 66.3214 65.6215C66.3239 61.9064 64.0055 58.6853 60.5127 57.551C60.046 57.3994 57.4763 57.2431 54.5272 57.1869C53.0545 57.1588 51.8383 57.1528 50.8039 57.1787V57.1787ZM114.201 57.1828C110.005 57.2743 109.04 57.3643 107.754 57.7823C104.305 58.9032 101.073 61.9175 99.8686 65.136C99.6117 65.8225 98.7575 69.9828 97.9708 74.3811C96.8058 80.8947 96.5587 82.7078 96.6381 84.1558C96.8412 87.8645 99.1272 90.6381 102.866 91.7127C103.656 91.9395 106.124 92.0022 112.884 91.9668C121.012 91.9243 121.914 91.8816 122.481 91.51C123.677 90.7259 123.619 88.9996 122.382 88.5686C121.899 88.4001 118.684 88.3126 112.984 88.3126C103.605 88.3126 103.482 88.2983 101.953 87.0122C101.07 86.2689 100.373 84.9733 100.169 83.694C100.02 82.762 100.875 77.226 101.228 76.8407C101.321 76.7392 106.675 76.6503 113.126 76.643C125.528 76.6289 125.786 76.6077 126.351 75.5525C126.475 75.3211 126.907 73.3261 127.311 71.1193C128.507 64.5922 128.171 62.1722 125.732 59.7323C123.535 57.536 121.243 57.0292 114.201 57.1828V57.1828ZM118.273 60.8896C121.258 60.953 121.842 61.2856 122.959 62.4019C124.65 64.0933 124.861 66.0461 123.87 70.8579C123.463 72.8361 123.463 72.8361 112.699 72.8966C102.391 72.9545 101.935 72.9392 101.935 72.5302C101.935 72.2953 102.148 70.9067 102.407 69.4443C103.173 65.1234 104.551 62.9634 107.47 61.5124C108.52 60.9908 108.824 60.9637 114.381 60.8969C116.017 60.8772 117.278 60.8685 118.273 60.8897V60.8896ZM52.8294 60.9669C58.5817 60.9669 59.2658 61.0842 60.6595 62.3078C61.821 63.3277 62.3795 64.5614 62.3968 66.1465C62.4186 68.1459 59.8815 82.1239 59.2345 83.5694C58.4717 85.2734 57.2021 86.5639 55.4285 87.4376C53.8887 88.1963 53.8887 88.1963 48.5298 88.2504C44.4712 88.2913 42.9593 88.2274 42.2979 87.9867C40.0808 87.18 38.8656 85.4355 38.8661 83.0608C38.8665 81.3467 41.47 66.8844 42.0007 65.6488C42.6121 64.225 44.5025 62.3946 46.1448 61.636C47.5929 60.9671 47.593 60.9669 52.8294 60.9669Z" fill="white"/>
<path d="M72.1464 149.85C62.9678 149.109 57.6026 148.101 50.9679 145.87C37.7516 141.426 25.3939 132.79 16.6273 121.871C13.5697 118.062 8.61112 110.354 8.61112 109.409C8.61112 109.223 8.98281 108.852 9.43709 108.584C10.4899 107.963 11.0291 106.733 10.8695 105.317C10.7758 104.485 10.5733 104.107 9.88336 103.475C9.02197 102.686 9.00174 102.68 7.29905 102.809C5.2939 102.961 5.54235 103.217 4.29837 99.7164C3.68037 97.9774 3.41449 96.8203 3.37632 95.7037C3.3344 94.4772 3.19524 93.9421 2.73884 93.2524C1.84752 91.9055 1.0541 87.9137 0.359055 81.2792C-0.0724229 77.1606 -0.0942288 75.4672 0.2794 75.0936C0.488489 74.8845 3.23928 74.8143 11.225 74.8143C20.9653 74.8143 21.9043 74.848 22.0402 75.2022C22.134 75.4467 21.4217 77.1024 20.1128 79.6822C18.0367 83.7744 18.0367 83.7744 14.5293 83.8385C11.0218 83.9025 11.0218 83.9025 10.1933 83.0978C8.09276 81.0578 4.65472 82.3009 4.65472 85.1004C4.65472 87.0519 5.89312 88.3127 7.8101 88.3127C9.23897 88.3127 10.2661 87.6292 10.8164 86.3122C11.1428 85.531 11.1428 85.531 15.1312 85.4673C19.1196 85.4035 19.1196 85.4035 21.769 80.3029C23.2262 77.4975 24.5535 75.1166 24.7185 75.0118C24.8835 74.9071 26.9237 74.8199 29.2522 74.8179C31.5806 74.816 33.5298 74.7358 33.5837 74.6398C33.6375 74.5438 33.7504 74.1772 33.8346 73.8252C33.9875 73.1852 33.9875 73.1852 26.2124 73.1852C19.1434 73.1852 18.3943 73.1482 17.963 72.778C17.7021 72.5539 16.1674 70.7474 14.5525 68.7634C12.9376 66.7793 11.2511 64.7133 10.8046 64.1721C9.99288 63.1881 9.99288 63.1881 5.63651 63.1248C1.3879 63.063 1.27838 63.0492 1.20924 62.5644C1.17025 62.2909 1.41481 60.8247 1.7527 59.3061C2.25724 57.0385 2.48899 56.4176 3.04931 55.8318C3.91393 54.9278 4.21996 53.8625 4.04432 52.3681C3.9275 51.3741 4.04099 50.8281 4.77258 48.8642C5.24923 47.5846 5.73792 46.415 5.85856 46.265C6.00134 46.0874 6.50496 46.0363 7.30165 46.1185C8.78317 46.2715 9.81385 45.8191 10.4824 44.7227C11.3295 43.3333 10.8459 41.0681 9.5545 40.377C8.88843 40.0205 8.95074 39.595 9.92699 37.8327C12.7423 32.7505 17.3927 26.6972 22.1065 21.9786C33.7758 10.2977 48.9506 2.80358 65.1645 0.714377C72.534 -0.235203 77.0922 -0.237609 84.5974 0.704121C100.545 2.70523 115.408 9.88417 127.118 21.242C141.608 35.2955 149.878 54.8046 149.878 74.9307C149.878 91.4684 144.267 107.76 134.008 121.011C131.43 124.341 125.095 130.765 121.801 133.39C110.523 142.377 97.254 147.828 82.8519 149.389C79.5276 149.749 73.9002 149.991 72.1464 149.85ZM34.0961 106.137C34.7425 105.49 34.7196 105.573 35.4786 101.113C35.7945 99.2568 36.3184 96.2197 36.6429 94.3636C36.9674 92.5076 37.2354 90.8843 37.2385 90.7563C37.2415 90.6283 37.3308 90.3868 37.4368 90.2197C37.5863 89.9839 37.8855 90.0735 38.7714 90.6195C40.7158 91.8177 42.0993 92.0367 47.7004 92.0329C54.8939 92.028 56.8992 91.4225 60.0958 88.2902C62.7146 85.724 63.0481 84.788 64.8246 75.0164C65.6476 70.4892 66.3214 66.2615 66.3218 65.6215C66.3243 61.9064 64.0059 58.6853 60.5131 57.551C60.0464 57.3995 57.4769 57.2432 54.5277 57.1869C48.6372 57.0746 46.8455 57.3148 44.4134 58.5425C41.8881 59.8172 39.3466 62.6102 38.3136 65.2458C37.8737 66.3681 31.1859 103.917 31.1859 105.265C31.1859 106.672 33.013 107.22 34.0961 106.137ZM42.2983 87.9867C40.0811 87.18 38.8658 85.4357 38.8663 83.0609C38.8668 81.3469 41.4703 66.8844 42.0009 65.6488C42.6124 64.2251 44.5029 62.3944 46.1452 61.6358C47.5934 60.9669 47.5934 60.9669 52.8298 60.9669C58.5821 60.9669 59.2662 61.0841 60.6599 62.3077C61.8214 63.3276 62.3797 64.5613 62.397 66.1464C62.4189 68.1458 59.8819 82.1242 59.2349 83.5696C58.4721 85.2736 57.2026 86.5639 55.429 87.4377C53.8892 88.1963 53.8892 88.1963 48.5303 88.2504C44.4717 88.2913 42.9596 88.2273 42.2983 87.9867ZM15.824 97.9445C17.1136 97.4285 17.7771 96.4351 17.7771 95.0203C17.7771 91.8458 13.6951 90.6748 11.9442 93.3471C11.4163 94.1526 11.4242 95.9831 11.9591 96.7993C12.3419 97.3835 13.944 98.3032 14.5992 98.3149C14.7566 98.3177 15.3078 98.151 15.824 97.9445ZM84.7605 91.7792C88.245 91.0525 91.523 88.4399 93.1388 85.1015C93.9886 83.3459 94.1023 82.9067 94.1972 81.0109C94.2864 79.2292 94.2226 78.6734 93.8016 77.5602C93.1075 75.7249 91.5996 74.1172 89.7874 73.2805C88.3211 72.6034 88.3211 72.6034 81.921 72.487C75.713 72.3742 75.4946 72.3543 74.6432 71.825C70.7341 69.3946 71.7981 63.6591 76.5682 61.4483C77.8482 60.8551 77.8482 60.8551 86.2265 60.852C94.1427 60.849 94.6461 60.8236 95.3549 60.3914C96.5874 59.6399 96.6879 57.9269 95.5303 57.3995C94.5657 56.96 79.4437 57.032 77.5208 57.4852C74.1689 58.2753 71.2199 60.6439 69.661 63.7981C68.8877 65.3629 68.781 65.7949 68.7011 67.6846C68.6271 69.4361 68.6985 70.0422 69.1065 71.1249C69.7618 72.8635 71.1505 74.4011 72.7946 75.2085C74.1245 75.8616 74.1246 75.8616 80.5246 75.9825C86.546 76.0962 86.9819 76.1337 87.8913 76.6158C92.2582 78.9306 91.3192 85.2424 86.2512 87.64C84.8301 88.3123 84.8301 88.3123 75.9629 88.3125C70.074 88.3126 66.8472 88.3993 66.3558 88.5706C65.6295 88.8238 64.9317 89.7803 64.9317 90.5226C64.9317 90.7268 65.1888 91.1509 65.503 91.4651C66.0742 92.0363 66.0742 92.0363 74.8007 92.0363C80.2724 92.0363 83.9872 91.9404 84.7605 91.7792ZM122.481 91.5098C123.677 90.7257 123.619 88.9997 122.383 88.5687C121.899 88.4002 118.685 88.3127 112.984 88.3127C103.606 88.3127 103.482 88.2981 101.954 87.012C101.07 86.2687 100.374 84.9735 100.169 83.6942C100.02 82.7622 100.876 77.226 101.228 76.8407C101.321 76.7392 106.676 76.6502 113.127 76.6429C125.529 76.6288 125.786 76.6076 126.351 75.5524C126.475 75.3209 126.907 73.326 127.312 71.1191C128.508 64.5921 128.172 62.1724 125.732 59.7326C123.536 57.5362 121.243 57.0293 114.201 57.1829C110.006 57.2744 109.04 57.3642 107.754 57.7822C104.305 58.9031 101.073 61.9174 99.8687 65.136C99.6119 65.8225 98.758 69.9828 97.9713 74.3811C96.8063 80.8946 96.559 82.7078 96.6383 84.1558C96.8415 87.8645 99.1276 90.6383 102.867 91.7129C103.656 91.9397 106.124 92.0023 112.885 91.9669C121.013 91.9244 121.914 91.8814 122.481 91.5098ZM101.936 72.5301C101.936 72.2952 102.148 70.9065 102.407 69.4441C103.173 65.1232 104.552 62.9636 107.471 61.5125C108.52 60.9909 108.824 60.9638 114.381 60.897C120.928 60.8183 121.471 60.9136 122.959 62.4021C124.65 64.0934 124.861 66.0461 123.87 70.8579C123.463 72.8361 123.463 72.8361 112.7 72.8966C102.391 72.9546 101.936 72.9391 101.936 72.5301ZM15.824 56.2859C18.2657 55.3089 18.5411 52.1604 16.315 50.6733C13.863 49.0352 10.691 51.5853 11.6325 54.4379C11.932 55.3454 13.0438 56.3251 13.9639 56.4923C14.2839 56.5505 14.6222 56.6123 14.7156 56.6297C14.809 56.6472 15.3078 56.4924 15.824 56.2859ZM46.0427 53.3325C46.1812 53.1656 46.4688 51.9102 46.6818 50.5428C47.0414 48.2337 47.0417 48.0147 46.6858 47.4716C46.3259 46.9224 46.1813 46.8868 44.3104 46.8868C42.8205 46.8868 42.3424 46.9601 42.4142 47.1777C42.4742 47.3594 43.0678 47.4951 43.9956 47.5392C45.6933 47.6198 46.1333 47.8765 46.0342 48.7287C45.9681 49.2973 45.8745 49.3376 44.3351 49.4611C41.9461 49.6527 40.9606 50.3724 40.9606 51.9254C40.9606 53.1561 41.81 53.6359 43.9889 53.6359C45.1862 53.6359 45.8754 53.5341 46.0427 53.3325ZM41.8527 52.1311C41.6182 51.6164 41.6549 51.4591 42.1264 50.9572C42.5958 50.4576 42.8747 50.3777 44.1503 50.3777C45.8123 50.3777 45.9969 50.5505 45.6733 51.8039C45.4707 52.5886 45.4707 52.5886 43.7971 52.657C42.1988 52.7223 42.1114 52.6987 41.8527 52.1311ZM51.7825 53.1705C51.7825 52.899 51.369 52.7955 49.9229 52.705C47.7761 52.5707 47.7995 52.6022 48.0573 50.1952C48.2921 48.0029 48.7728 47.585 51.06 47.585C52.0873 47.585 52.8679 47.4788 52.9622 47.3262C53.2269 46.8979 52.7312 46.7696 50.871 46.7853C48.1316 46.8084 47.4506 47.5591 47.1045 50.9379C46.9607 52.3411 46.9889 52.4708 47.5625 53.0444C48.1322 53.6141 48.296 53.6509 49.9781 53.5875C51.3966 53.5341 51.7825 53.4449 51.7825 53.1705ZM53.5516 52.5883C53.6448 52.2045 53.8461 51.1198 53.9989 50.1779C54.3541 47.9884 54.7291 47.585 56.4086 47.585C58.232 47.585 58.3437 47.8046 57.8696 50.4585C57.3992 53.0921 57.3938 53.4032 57.8178 53.4032C58.2041 53.4032 58.242 53.2861 58.7594 50.4941C59.3537 47.2868 58.8241 46.5336 56.088 46.6949C54.808 46.7704 54.808 46.7704 54.8793 45.4322C54.9359 44.3703 54.8791 44.094 54.6041 44.094C54.4135 44.094 54.2032 44.2773 54.1369 44.5013C53.9823 45.0232 52.597 52.8255 52.597 53.1744C52.597 53.736 53.3914 53.2483 53.5516 52.5883ZM0.231746 72.7177C-0.0795288 72.1361 0.540519 65.6266 0.954736 65.1275C1.16042 64.8797 2.06648 64.807 4.94883 64.807C9.27894 64.807 8.4474 64.3023 12.3573 69.3033C13.6739 70.9873 14.6572 72.4572 14.6147 72.6779C14.5466 73.0321 13.8789 73.0747 7.51256 73.1304C0.64812 73.1906 0.479725 73.1811 0.231746 72.7177Z" fill="#123C68"/>
</svg>
