<svg width="48" height="48" viewBox="0 0 48 48" fill="none" xmlns="http://www.w3.org/2000/svg">
<path d="M14.25 10.5C12.18 10.5 10.5 12.18 10.5 14.25V33.75C10.5 35.82 12.18 37.5 14.25 37.5H33.75C35.82 37.5 37.5 35.82 37.5 33.75V29.25C37.5 28.6533 37.7371 28.081 38.159 27.659C38.581 27.2371 39.1533 27 39.75 27C40.3467 27 40.919 27.2371 41.341 27.659C41.7629 28.081 42 28.6533 42 29.25V33.75C42 35.938 41.1308 38.0365 39.5836 39.5836C38.0365 41.1308 35.938 42 33.75 42H14.25C12.062 42 9.96354 41.1308 8.41637 39.5836C6.86919 38.0365 6 35.938 6 33.75V14.25C6 12.062 6.86919 9.96354 8.41637 8.41637C9.96354 6.86919 12.062 6 14.25 6H18.75C19.3467 6 19.919 6.23705 20.341 6.65901C20.7629 7.08097 21 7.65326 21 8.25C21 8.84674 20.7629 9.41903 20.341 9.84099C19.919 10.2629 19.3467 10.5 18.75 10.5H14.25ZM24 8.25C24 7.65326 24.2371 7.08097 24.659 6.65901C25.081 6.23705 25.6533 6 26.25 6H39.75C40.3467 6 40.919 6.23705 41.341 6.65901C41.7629 7.08097 42 7.65326 42 8.25V21.75C42 22.3467 41.7629 22.919 41.341 23.341C40.919 23.7629 40.3467 24 39.75 24C39.1533 24 38.581 23.7629 38.159 23.341C37.7371 22.919 37.5 22.3467 37.5 21.75V13.683L27.84 23.343C27.6323 23.5578 27.384 23.7291 27.1094 23.8469C26.8349 23.9647 26.5396 24.0266 26.2408 24.029C25.9421 24.0315 25.6458 23.9744 25.3694 23.8612C25.0929 23.7479 24.8418 23.5807 24.6306 23.3694C24.4195 23.158 24.2525 22.9067 24.1395 22.6301C24.0265 22.3536 23.9697 22.0573 23.9724 21.7585C23.9752 21.4598 24.0374 21.1646 24.1554 20.8901C24.2735 20.6156 24.445 20.3675 24.66 20.16L34.32 10.5H26.25C25.6533 10.5 25.081 10.2629 24.659 9.84099C24.2371 9.41903 24 8.84674 24 8.25Z" fill="#2F353A"/>
</svg>
