<svg width="50" height="34" viewBox="0 0 50 34" fill="none" xmlns="http://www.w3.org/2000/svg">
<rect x="0.5" y="0.5" width="49" height="33" rx="5.5" fill="white" stroke="#D9D9D9"/>
<path fill-rule="evenodd" clip-rule="evenodd" d="M11.9231 12.655C12.5946 12.7112 13.2661 12.318 13.6858 11.8195C14.0985 11.3069 14.3713 10.6188 14.3013 9.91669C13.7068 9.94477 12.9723 10.3099 12.5526 10.8225C12.1679 11.2648 11.8392 11.981 11.9231 12.655ZM19.911 21.6986V10.7522H24.0029C26.1153 10.7522 27.5912 12.2127 27.5912 14.3472C27.5912 16.4817 26.0873 17.9562 23.9469 17.9562H21.6037V21.6986H19.911ZM14.2943 12.7884C13.7027 12.7543 13.1629 12.967 12.7269 13.1389C12.4463 13.2495 12.2087 13.3431 12.028 13.3431C11.8251 13.3431 11.5777 13.2445 11.3 13.1337C10.936 12.9886 10.5198 12.8226 10.0835 12.8306C9.08323 12.8446 8.15294 13.4134 7.64233 14.3191C6.59314 16.1306 7.36954 18.8128 8.38377 20.2873C8.88039 21.0176 9.47494 21.818 10.2583 21.7899C10.603 21.7769 10.8509 21.6713 11.1075 21.562C11.4029 21.4361 11.7097 21.3054 12.1889 21.3054C12.6514 21.3054 12.9448 21.4327 13.2265 21.5549C13.4943 21.6711 13.7515 21.7827 14.1334 21.7759C14.9448 21.7618 15.4554 21.0456 15.952 20.3154C16.4879 19.5317 16.7234 18.7668 16.7592 18.6507L16.7634 18.6373C16.763 18.6369 16.7615 18.6361 16.7589 18.6349L16.7442 18.628C16.565 18.5457 15.1957 17.9164 15.1826 16.2289C15.1694 14.8126 16.2687 14.0949 16.4418 13.982L16.4418 13.982C16.4523 13.9751 16.4594 13.9705 16.4626 13.968C15.7631 12.9289 14.672 12.8165 14.2943 12.7884ZM30.6829 21.7829C31.7461 21.7829 32.7323 21.2422 33.18 20.3856H33.2149V21.6986H34.7817V16.25C34.7817 14.6702 33.5227 13.6521 31.5852 13.6521C29.7876 13.6521 28.4586 14.6842 28.4096 16.1026H29.9344C30.0603 15.4285 30.6829 14.9862 31.5362 14.9862C32.5714 14.9862 33.152 15.4706 33.152 16.3624V16.9662L31.0396 17.0926C29.0741 17.2119 28.0109 18.0194 28.0109 19.4237C28.0109 20.842 29.1091 21.7829 30.6829 21.7829ZM31.1374 20.4839C30.2351 20.4839 29.6615 20.0486 29.6615 19.3816C29.6615 18.6935 30.2141 18.2933 31.2703 18.2301L33.1519 18.1107V18.7286C33.1519 19.7537 32.2845 20.4839 31.1374 20.4839ZM39.9787 22.1269C39.3002 24.0438 38.5238 24.6757 36.8731 24.6757C36.7472 24.6757 36.3275 24.6617 36.2296 24.6336V23.3206C36.3345 23.3346 36.5933 23.3487 36.7262 23.3487C37.4746 23.3487 37.8943 23.0327 38.1531 22.2112L38.307 21.7267L35.4392 13.7574H37.2088L39.2023 20.2241H39.2373L41.2307 13.7574H42.9514L39.9787 22.1269ZM21.6036 12.1846H23.5551C25.024 12.1846 25.8633 12.971 25.8633 14.3542C25.8633 15.7374 25.024 16.5309 23.5481 16.5309H21.6036V12.1846Z" fill="black"/>
</svg>
