<svg width="50" height="34" viewBox="0 0 50 34" fill="none" xmlns="http://www.w3.org/2000/svg">
<rect x="0.5" y="0.5" width="49" height="33" rx="5.5" fill="white" stroke="#D9D9D9"/>
<path fill-rule="evenodd" clip-rule="evenodd" d="M23.6145 22.3239V18.0443H25.8419C26.7546 18.0443 27.525 17.741 28.153 17.1428L28.3038 16.9912C29.451 15.7528 29.3756 13.8235 28.153 12.6778C27.5418 12.0712 26.7044 11.7427 25.8419 11.7595H22.2664V22.3239H23.6145ZM23.6147 16.7469V13.0569H25.8759C26.3617 13.0569 26.8223 13.2422 27.1657 13.5792C27.8943 14.2869 27.911 15.4663 27.2075 16.1993C26.8642 16.5615 26.3784 16.7637 25.8759 16.7469H23.6147ZM34.5924 15.6601C34.0146 15.1294 33.2275 14.8598 32.231 14.8598C30.9499 14.8598 29.9869 15.3316 29.3505 16.2667L30.5396 17.0165C30.975 16.3762 31.5695 16.0561 32.3231 16.0561C32.8004 16.0561 33.261 16.233 33.6211 16.5531C33.9728 16.8564 34.1737 17.2945 34.1737 17.7578V18.0695C33.6546 17.7831 33.0014 17.6315 32.1975 17.6315C31.2597 17.6315 30.5061 17.8505 29.945 18.297C29.384 18.7435 29.0993 19.3332 29.0993 20.083C29.0825 20.7654 29.3756 21.4141 29.8948 21.8522C30.4223 22.324 31.0922 22.5598 31.8793 22.5598C32.8088 22.5598 33.5457 22.147 34.1067 21.3214H34.1653V22.324H35.4549V17.8674C35.4549 16.9322 35.1702 16.1909 34.5924 15.6601ZM30.9334 20.9929C30.657 20.7907 30.4895 20.4621 30.4895 20.1083C30.4895 19.7123 30.6737 19.3838 31.0339 19.1226C31.4024 18.8615 31.863 18.7267 32.4074 18.7267C33.1611 18.7182 33.7473 18.8867 34.1661 19.2237C34.1661 19.7966 33.94 20.2936 33.4961 20.7149C33.0941 21.1192 32.5497 21.3467 31.9802 21.3467C31.6034 21.3551 31.2349 21.2288 30.9334 20.9929ZM38.3522 25.5L42.8572 15.0957H41.3918L39.3068 20.2852H39.2817L37.1464 15.0957H35.681L38.6369 21.8606L36.9622 25.5H38.3522Z" fill="#3C4043"/>
<path d="M18.96 17.1176C18.96 16.7048 18.9265 16.292 18.8595 15.8876H13.1738V18.2212H16.4312C16.2972 18.971 15.8618 19.6449 15.2254 20.0662V21.5826H17.1681C18.3069 20.5295 18.96 18.971 18.96 17.1176Z" fill="#4285F4"/>
<path d="M13.1741 23.0484C14.7985 23.0484 16.1718 22.5093 17.1683 21.5826L15.2256 20.0661C14.6813 20.4368 13.9863 20.6474 13.1741 20.6474C11.5998 20.6474 10.2684 19.5775 9.7911 18.1453H7.78979V19.7123C8.81138 21.7595 10.8964 23.0484 13.1741 23.0484Z" fill="#34A853"/>
<path d="M9.79141 18.1454C9.54016 17.3956 9.54016 16.5784 9.79141 15.8202V14.2617H7.78979C6.92717 15.9718 6.92717 17.9937 7.78979 19.7039L9.79141 18.1454Z" fill="#FBBC04"/>
<path d="M13.1741 13.3181C14.0365 13.3012 14.8655 13.6298 15.4852 14.2279L17.2102 12.4924C16.1132 11.4647 14.6729 10.9002 13.1741 10.9171C10.8964 10.9171 8.81138 12.2144 7.78979 14.2616L9.7911 15.8286C10.2684 14.388 11.5998 13.3181 13.1741 13.3181Z" fill="#EA4335"/>
</svg>
