<svg width="50" height="34" viewBox="0 0 50 34" fill="none" xmlns="http://www.w3.org/2000/svg">
<rect x="0.5" y="0.5" width="49" height="33" rx="5.5" fill="#035EA6" stroke="#D9D9D9"/>
<g clip-path="url(#clip0_1404_750)">
<path d="M20.0984 21.2888H17.7726C17.1316 21.301 16.5117 21.0672 16.0483 20.6385L15.2836 24.8493C15.2517 24.983 15.1761 25.1031 15.068 25.1918C14.9598 25.2806 14.825 25.3331 14.6835 25.3417C14.6201 25.3433 14.5572 25.3308 14.4996 25.3052C14.442 25.2797 14.3912 25.2416 14.3511 25.1941C14.3111 25.1465 14.2828 25.0907 14.2685 25.031C14.2542 24.9712 14.2543 24.9091 14.2686 24.8493L16.1395 14.5907C16.4161 13.0626 17.8998 11.833 19.479 11.833H21.8214C22.1724 11.8245 22.5209 11.8922 22.8413 12.0311C23.1617 12.1701 23.4458 12.3767 23.6729 12.6358C23.8908 12.9093 24.0457 13.2248 24.127 13.5611C24.2084 13.8974 24.2143 14.2466 24.1445 14.5853L23.4185 18.5204C23.1475 20.0538 21.6596 21.2888 20.0984 21.2888ZM23.1295 14.5987C23.3106 13.6152 22.622 12.8245 21.6236 12.8245H19.2937C18.2773 12.8245 17.3329 13.6152 17.1517 14.5987L16.4258 18.5338C16.2433 19.5173 16.9153 20.3081 17.9316 20.3081H20.2616C21.26 20.3081 22.2224 19.5173 22.4035 18.5338L23.1295 14.5987Z" fill="white"/>
<path d="M24.2551 21.2888C24.1937 21.2897 24.1329 21.2775 24.077 21.253C24.0211 21.2285 23.9715 21.1922 23.9319 21.1469C23.8922 21.1016 23.8634 21.0484 23.8475 20.991C23.8317 20.9336 23.8292 20.8735 23.8403 20.8151C23.8688 20.6847 23.9413 20.5673 24.0465 20.4812C24.1517 20.3952 24.2835 20.3456 24.4211 20.3401H29.0146C29.5107 20.3275 29.9876 20.152 30.3671 19.8425C30.7465 19.5329 31.0059 19.1078 31.1026 18.6368C31.2658 17.7002 30.6117 16.9322 29.6314 16.9322H27.087C25.6351 16.9322 24.6547 15.7908 24.9092 14.3899C25.1636 12.989 26.5616 11.8476 28.0135 11.8476H32.2794C32.3392 11.8444 32.399 11.8546 32.454 11.8774C32.5091 11.9003 32.5579 11.9352 32.5966 11.9795C32.6354 12.0237 32.663 12.076 32.6773 12.1323C32.6916 12.1886 32.6921 12.2474 32.679 12.3039C32.6547 12.4331 32.5858 12.5504 32.4835 12.6367C32.3813 12.723 32.2518 12.7732 32.1162 12.7789H27.8503C27.3809 12.7935 26.9302 12.9608 26.5711 13.2539C26.212 13.5469 25.9656 13.9486 25.8716 14.3939C25.8278 14.5926 25.8313 14.7983 25.8819 14.9954C25.9325 15.1925 26.0288 15.3759 26.1635 15.5317C26.2983 15.6875 26.4679 15.8115 26.6595 15.8944C26.8511 15.9773 27.0598 16.0169 27.2696 16.0102H29.8111C30.1516 15.9998 30.4901 16.0639 30.8014 16.1978C31.1127 16.3317 31.3887 16.532 31.6087 16.7836C32.0457 17.276 32.1895 17.9424 32.0637 18.6462C31.7899 20.0845 30.3559 21.2888 28.8487 21.2888H24.2551Z" fill="white"/>
<path d="M35.1844 21.2887C33.6052 21.2887 32.5336 20.0417 32.806 18.5137L33.5361 14.5906C33.8127 13.0625 35.3157 11.8329 36.8949 11.8329H39.2553C40.8344 11.8329 41.9061 13.0625 41.6337 14.5906L41.2479 16.6056C41.2262 16.7358 41.158 16.8546 41.0552 16.9411C40.9523 17.0277 40.8213 17.0766 40.6851 17.0793H34.0408L33.7643 18.503C33.5831 19.5038 34.2911 20.3294 35.3434 20.3294H39.937C39.9971 20.3288 40.0565 20.3417 40.1106 20.3671C40.1647 20.3925 40.2121 20.4296 40.2489 20.4756C40.2857 20.5216 40.311 20.5752 40.3229 20.6322C40.3347 20.6893 40.3328 20.7482 40.3172 20.8044C40.2959 20.9301 40.2297 21.0446 40.1302 21.1279C40.0307 21.2113 39.9041 21.2582 39.7724 21.2606L35.1844 21.2887ZM36.7276 12.7695C35.6739 12.7695 34.6755 13.5951 34.4944 14.5959L34.204 16.1413H40.3767L40.6671 14.5959C40.8482 13.5951 40.1403 12.7695 39.088 12.7695H36.7276Z" fill="white"/>
<path d="M4.56852 14.0635H8.14715L9.82999 16.2044H2.42383V16.7396H11.6815L10.4965 19.148H8.36977V19.6832H10.8629L12.4199 16.7396H14.9933L15.1233 16.2044H10.5767L8.50805 13.5283H4.68882L4.56852 14.0635Z" fill="#FCB813"/>
<path d="M1.83049 17.4608C2.37194 17.4608 2.81088 17.0361 2.81088 16.5121C2.81088 15.9882 2.37194 15.5635 1.83049 15.5635C1.28903 15.5635 0.850098 15.9882 0.850098 16.5121C0.850098 17.0361 1.28903 17.4608 1.83049 17.4608Z" fill="#FCB813"/>
<path d="M3.76652 14.6509C4.30798 14.6509 4.74691 14.2261 4.74691 13.7022C4.74691 13.1783 4.30798 12.7535 3.76652 12.7535C3.22507 12.7535 2.78613 13.1783 2.78613 13.7022C2.78613 14.2261 3.22507 14.6509 3.76652 14.6509Z" fill="#FCB813"/>
<path d="M3.76646 8.70727C4.19947 8.70727 4.55049 8.3676 4.55049 7.9486C4.55049 7.52961 4.19947 7.18994 3.76646 7.18994C3.33345 7.18994 2.98242 7.52961 2.98242 7.9486C2.98242 8.3676 3.33345 8.70727 3.76646 8.70727Z" fill="#FCB813"/>
<path d="M3.76646 20.2143C4.19947 20.2143 4.55049 19.8747 4.55049 19.4557C4.55049 19.0367 4.19947 18.697 3.76646 18.697C3.33345 18.697 2.98242 19.0367 2.98242 19.4557C2.98242 19.8747 3.33345 20.2143 3.76646 20.2143Z" fill="#FCB813"/>
<path d="M3.76646 25.8341C4.19947 25.8341 4.55049 25.4944 4.55049 25.0754C4.55049 24.6564 4.19947 24.3168 3.76646 24.3168C3.33345 24.3168 2.98242 24.6564 2.98242 25.0754C2.98242 25.4944 3.33345 25.8341 3.76646 25.8341Z" fill="#FCB813"/>
<path d="M5.70256 11.7071C6.24401 11.7071 6.68295 11.2824 6.68295 10.7585C6.68295 10.2345 6.24401 9.80981 5.70256 9.80981C5.1611 9.80981 4.72217 10.2345 4.72217 10.7585C4.72217 11.2824 5.1611 11.7071 5.70256 11.7071Z" fill="#FCB813"/>
<path d="M5.702 22.8905C6.13501 22.8905 6.48604 22.5508 6.48604 22.1318C6.48604 21.7128 6.13501 21.3732 5.702 21.3732C5.26899 21.3732 4.91797 21.7128 4.91797 22.1318C4.91797 22.5508 5.26899 22.8905 5.702 22.8905Z" fill="#FCB813"/>
<path d="M7.6381 8.89732C8.17956 8.89732 8.61849 8.47259 8.61849 7.94866C8.61849 7.42473 8.17956 7 7.6381 7C7.09665 7 6.65771 7.42473 6.65771 7.94866C6.65771 8.47259 7.09665 8.89732 7.6381 8.89732Z" fill="#FCB813"/>
<path d="M7.6381 20.4043C8.17956 20.4043 8.61849 19.9796 8.61849 19.4556C8.61849 18.9317 8.17956 18.507 7.6381 18.507C7.09665 18.507 6.65771 18.9317 6.65771 19.4556C6.65771 19.9796 7.09665 20.4043 7.6381 20.4043Z" fill="#FCB813"/>
<path d="M7.6381 26.024C8.17956 26.024 8.61849 25.5993 8.61849 25.0754C8.61849 24.5514 8.17956 24.1267 7.6381 24.1267C7.09665 24.1267 6.65771 24.5514 6.65771 25.0754C6.65771 25.5993 7.09665 26.024 7.6381 26.024Z" fill="#FCB813"/>
<path d="M9.57414 11.7071C10.1156 11.7071 10.5545 11.2824 10.5545 10.7585C10.5545 10.2345 10.1156 9.80981 9.57414 9.80981C9.03269 9.80981 8.59375 10.2345 8.59375 10.7585C8.59375 11.2824 9.03269 11.7071 9.57414 11.7071Z" fill="#FCB813"/>
<path d="M9.57414 23.0804C10.1156 23.0804 10.5545 22.6557 10.5545 22.1318C10.5545 21.6078 10.1156 21.1831 9.57414 21.1831C9.03269 21.1831 8.59375 21.6078 8.59375 22.1318C8.59375 22.6557 9.03269 23.0804 9.57414 23.0804Z" fill="#FCB813"/>
<path d="M1.83042 11.5172C2.26343 11.5172 2.61446 11.1775 2.61446 10.7585C2.61446 10.3395 2.26343 9.99988 1.83042 9.99988C1.39741 9.99988 1.04639 10.3395 1.04639 10.7585C1.04639 11.1775 1.39741 11.5172 1.83042 11.5172Z" fill="#FCB813"/>
<path d="M1.83036 22.7004C2.15492 22.7004 2.41804 22.4458 2.41804 22.1318C2.41804 21.8177 2.15492 21.5631 1.83036 21.5631C1.50579 21.5631 1.24268 21.8177 1.24268 22.1318C1.24268 22.4458 1.50579 22.7004 1.83036 22.7004Z" fill="#FCB813"/>
<path d="M17.5184 10.8107C17.449 10.8127 17.38 10.7995 17.3166 10.772C17.2532 10.7445 17.1971 10.7034 17.1525 10.6519C17.1079 10.6004 17.076 10.5397 17.0591 10.4745C17.0423 10.4093 17.0409 10.3413 17.0552 10.2755C17.0875 10.128 17.1698 9.99523 17.2891 9.89824C17.4083 9.80126 17.5577 9.74566 17.7134 9.74028H18.5043L18.5472 9.51816C18.5571 9.47468 18.5566 9.42959 18.5458 9.38632C18.535 9.34304 18.5141 9.30271 18.4848 9.26841C18.4555 9.2341 18.4185 9.2067 18.3766 9.18831C18.3347 9.16992 18.289 9.161 18.243 9.16225H17.4659C17.4541 9.16241 17.4425 9.15995 17.4319 9.15506C17.4214 9.15016 17.4121 9.14296 17.4049 9.13402C17.3976 9.12508 17.3926 9.11464 17.3903 9.10352C17.3879 9.0924 17.3882 9.0809 17.3912 9.06992C17.3954 9.04532 17.4083 9.0229 17.4277 9.00653C17.4472 8.99017 17.4719 8.98088 17.4977 8.98028H18.2748C18.3442 8.97781 18.4133 8.99079 18.4767 9.01824C18.5401 9.04568 18.5961 9.08685 18.6405 9.13856C18.6848 9.19027 18.7163 9.25115 18.7325 9.3165C18.7487 9.38185 18.7492 9.44993 18.7339 9.51549L18.5113 10.7197C18.5082 10.7448 18.4959 10.768 18.4766 10.785C18.4573 10.8019 18.4323 10.8116 18.4062 10.812L17.5184 10.8107ZM17.6816 9.91154C17.5774 9.91524 17.4775 9.95274 17.398 10.018C17.3185 10.0833 17.264 10.1726 17.2432 10.2715C17.2332 10.3151 17.2337 10.3604 17.2447 10.4038C17.2557 10.4473 17.2768 10.4877 17.3065 10.5219C17.3361 10.5562 17.3735 10.5834 17.4158 10.6015C17.4581 10.6195 17.5041 10.6279 17.5502 10.626H18.3426L18.4725 9.91154H17.6816Z" fill="white"/>
<path d="M20.1911 10.7184C20.1853 10.7437 20.1711 10.7665 20.1506 10.7832C20.1301 10.7999 20.1044 10.8096 20.0777 10.8107H19.2259C19.1575 10.8123 19.0896 10.7991 19.0271 10.772C18.9647 10.7449 18.9093 10.7046 18.865 10.6542C18.8214 10.6014 18.7903 10.54 18.7738 10.4744C18.7573 10.4087 18.7559 10.3404 18.7696 10.2742L18.9079 9.51149C18.9371 9.36315 19.0187 9.22927 19.1388 9.13283C19.2534 9.03432 19.4004 8.97837 19.5536 8.97494H20.4095C20.4213 8.97408 20.4331 8.97588 20.444 8.98018C20.4549 8.98448 20.4646 8.99118 20.4724 8.99974C20.4802 9.00831 20.4858 9.0185 20.4888 9.02952C20.4918 9.04054 20.4921 9.05209 20.4898 9.06325C20.4847 9.08868 20.4709 9.11168 20.4505 9.12847C20.4302 9.14526 20.4045 9.15482 20.3777 9.15558H19.5287C19.4256 9.15924 19.3267 9.19632 19.248 9.26086C19.1693 9.32541 19.1152 9.41367 19.0945 9.51149L18.9562 10.2742C18.9463 10.3179 18.9468 10.3632 18.9578 10.4067C18.9687 10.4502 18.9898 10.4906 19.0195 10.525C19.0491 10.5594 19.0865 10.5867 19.1287 10.6049C19.171 10.6231 19.217 10.6317 19.2632 10.6301H20.1109C20.1225 10.6295 20.1342 10.6315 20.145 10.6359C20.1557 10.6403 20.1653 10.647 20.1731 10.6554C20.1808 10.6639 20.1864 10.674 20.1895 10.6849C20.1926 10.6958 20.1932 10.7073 20.1911 10.7184Z" fill="white"/>
<path d="M22.1312 9.51411L21.9086 10.7183C21.9041 10.7445 21.8903 10.7683 21.8696 10.7856C21.8489 10.803 21.8226 10.8128 21.7952 10.8133C21.7829 10.8133 21.7708 10.8107 21.7597 10.8057C21.7485 10.8007 21.7386 10.7934 21.7306 10.7844C21.7227 10.7754 21.7167 10.7649 21.7133 10.7535C21.7099 10.7421 21.7091 10.7301 21.7108 10.7183L21.9335 9.51411C21.9434 9.47205 21.9433 9.42835 21.9331 9.38635C21.9228 9.34436 21.9028 9.30519 21.8745 9.27185C21.8462 9.23852 21.8104 9.21191 21.7698 9.19406C21.7292 9.17621 21.6849 9.1676 21.6403 9.1689H21.1882C21.089 9.17286 20.994 9.2091 20.9187 9.27174C20.8435 9.33439 20.7922 9.41978 20.7733 9.51411L20.5507 10.7183C20.546 10.7444 20.5321 10.768 20.5114 10.7853C20.4908 10.8026 20.4646 10.8125 20.4373 10.8133C20.425 10.8133 20.4129 10.8107 20.4018 10.8057C20.3907 10.8007 20.3808 10.7934 20.3728 10.7844C20.3648 10.7754 20.3589 10.7649 20.3554 10.7535C20.352 10.7421 20.3512 10.7301 20.353 10.7183L20.7982 8.28044C20.8042 8.25437 20.8187 8.23087 20.8397 8.21349C20.8606 8.19612 20.8868 8.1858 20.9144 8.18411C20.9268 8.18381 20.9391 8.18626 20.9504 8.19126C20.9617 8.19627 20.9716 8.2037 20.9795 8.21299C20.9874 8.22228 20.9929 8.23318 20.9958 8.24487C20.9986 8.25656 20.9987 8.26873 20.996 8.28044L20.848 9.10066C20.9566 9.02039 21.0889 8.97584 21.2255 8.97354H21.6777C21.7472 8.9717 21.8162 8.98537 21.8794 9.01347C21.9426 9.04158 21.9983 9.08338 22.0422 9.13563C22.086 9.18788 22.1168 9.2492 22.1323 9.31482C22.1477 9.38045 22.1474 9.44864 22.1312 9.51411Z" fill="white"/>
</g>
<defs>
<clipPath id="clip0_1404_750">
<rect width="42" height="19" fill="white" transform="translate(1 7)"/>
</clipPath>
</defs>
</svg>
