<svg width="50" height="34" viewBox="0 0 50 34" fill="none" xmlns="http://www.w3.org/2000/svg">
<rect x="0.5" y="0.5" width="49" height="33" rx="5.5" fill="white" stroke="#D9D9D9"/>
<path fill-rule="evenodd" clip-rule="evenodd" d="M15.1788 23.0325H12.1498L9.8784 14.4392C9.77059 14.0439 9.54168 13.6945 9.20496 13.5298C8.36462 13.1158 7.43864 12.7864 6.42847 12.6203V12.2895H11.308C11.9814 12.2895 12.4865 12.7864 12.5707 13.3636L13.7492 19.5623L16.7768 12.2895H19.7216L15.1788 23.0325ZM21.4053 23.0325H18.5446L20.9002 12.2895H23.7608L21.4053 23.0325ZM27.4618 15.2656C27.546 14.687 28.0511 14.3562 28.6404 14.3562C29.5664 14.2731 30.5751 14.4392 31.4169 14.8517L31.9219 12.5387C31.0801 12.2078 30.1542 12.0417 29.3138 12.0417C26.5373 12.0417 24.517 13.5298 24.517 15.595C24.517 17.1662 25.9481 17.9911 26.9582 18.4881C28.0511 18.9837 28.472 19.3145 28.3878 19.81C28.3878 20.5534 27.546 20.8842 26.7057 20.8842C25.6955 20.8842 24.6854 20.6364 23.7608 20.2225L23.2558 22.537C24.2659 22.9495 25.3588 23.1156 26.369 23.1156C29.4822 23.1972 31.4169 21.7106 31.4169 19.4792C31.4169 16.6692 27.4618 16.5045 27.4618 15.2656ZM41.4285 23.0325L39.1571 12.2895H36.7173C36.2122 12.2895 35.7071 12.6203 35.5388 13.1158L31.3327 23.0325H34.2775L34.8653 21.4628H38.4836L38.8203 23.0325H41.4285ZM37.1382 15.1826L37.9785 19.2314H35.6229L37.1382 15.1826Z" fill="#172B85"/>
</svg>
