<?xml version="1.0" encoding="UTF-8" standalone="no"?>
<!-- Created with Inkscape (http://www.inkscape.org/) -->

<svg
   version="1.1"
   id="svg6117"
   width="100"
   height="100"
   viewBox="0 0 100 100"
   xmlns="http://www.w3.org/2000/svg"
   xmlns:svg="http://www.w3.org/2000/svg">
   <defs
      id="defs6121" />
   <g
      id="g6123"
      transform="matrix(0.95389142,0,0,0.95389142,0.82995451,0.27380436)">
      <path
         fill="#2F353A"
         style="stroke:#2f353a;stroke-width:1;stroke-dasharray:none;stroke-opacity:1"
         d="M 48.962746,94.205647 C 30.67061,87.694698 19.546795,71.795422 19.546795,52.161408 c 0,-19.839781 11.237639,-35.716827 29.8004,-42.103353 7.789605,-2.6800168 21.250754,-2.5977333 28.662087,0.175202 4.947109,1.850951 5.537513,2.377498 5.537513,4.938587 0,2.40375 -1.009398,3.542201 -6.25,7.049077 -11.553351,7.731203 -16.684056,16.827117 -16.726265,29.652974 -0.04327,13.148677 5.756218,23.282791 17.726265,30.975144 4.349081,2.794866 5.25,3.871034 5.25,6.271249 0,2.598307 -0.571664,3.111309 -5.537513,4.969271 -7.24812,2.71187 -21.592772,2.7692 -29.046536,0.116088 z m 14.0241,-12.294239 c -2.609908,-2.8875 -6.139109,-8.175 -7.842669,-11.75 -2.906806,-6.100067 -3.097382,-7.207573 -3.097382,-18 0,-10.792427 0.190576,-11.899933 3.097382,-18 1.70356,-3.575 5.283093,-8.918481 7.954518,-11.874403 l 4.857136,-5.374403 -6.954518,0.412767 c -12.784061,0.758764 -23.94274,8.302983 -29.33955,19.836039 -3.627608,7.752249 -4.12109,19.279596 -1.162756,27.161008 5.086847,13.552061 17.75544,22.759865 31.390457,22.815257 l 5.84267,0.02373 z"
         id="path6244" />
   </g>
</svg>