<?xml version="1.0" encoding="UTF-8" standalone="no"?>
<!-- Created with Inkscape (http://www.inkscape.org/) -->

<svg
   version="1.1"
   id="svg2028"
   width="100"
   height="100"
   viewBox="0 0 100 100"
   sodipodi:docname="libra.png"
   xmlns:inkscape="http://www.inkscape.org/namespaces/inkscape"
   xmlns:sodipodi="http://sodipodi.sourceforge.net/DTD/sodipodi-0.dtd"
   xmlns="http://www.w3.org/2000/svg"
   xmlns:svg="http://www.w3.org/2000/svg">
  <defs
     id="defs2032" />
  <sodipodi:namedview
     id="namedview2030"
     pagecolor="#505050"
     bordercolor="#ffffff"
     borderopacity="1"
     inkscape:showpageshadow="0"
     inkscape:pageopacity="0"
     inkscape:pagecheckerboard="1"
     inkscape:deskcolor="#505050"
     showgrid="false" />
  <g
     inkscape:groupmode="layer"
     inkscape:label="Image"
     id="g2034">
    <path
       fill="#2F353A"
       style="stroke:#2f353a;stroke-width:2;stroke-dasharray:none;stroke-opacity:0"
       d="M 8.3302512,80.729019 C 8.075542,80.065257 7.9915362,78.644189 8.1435718,77.57109 L 8.42,75.62 H 50 91.58 v 2.94 2.94 L 50.186679,81.717929 C 14.836682,81.904041 8.7257463,81.759662 8.3302512,80.729019 Z M 22.7,66.830885 8.42,66.38 V 63.44 60.5 l 9.398831,-0.237032 9.398833,-0.237033 -2.040627,-4.382967 C 22.862483,50.671641 22.393095,42.121104 24.11859,36.361915 25.446881,31.928474 31.579202,25.245224 36.889618,22.443535 40.759953,20.40161 42.043516,20.18 50,20.18 c 7.999427,0 9.227675,0.214905 13.201923,2.309923 5.449812,2.872859 10.031625,7.381998 12.076689,11.885138 2.404826,5.295318 2.184096,15.598116 -0.455649,21.267907 l -2.040627,4.382967 9.398833,0.237033 L 91.58,60.5 v 2.94 2.94 l -14.7,0.42 c -8.085,0.231 -15.3615,0.1232 -16.17,-0.239555 -0.892469,-0.400429 -1.47,-1.582703 -1.47,-3.009264 0,-1.794201 0.74471,-2.829808 3.15,-4.380446 C 69.426964,54.63416 71.638019,43.064048 66.896714,35.587787 63.575663,30.351031 57.512322,27.32 50.357655,27.32 c -6.013709,0 -9.993865,1.444144 -14.229294,5.1629 -4.16866,3.660132 -5.451411,6.54823 -5.429913,12.225386 0.02201,5.811141 2.138894,10.978752 5.546022,13.538595 4.220546,3.170979 4.51553,3.537898 4.51553,5.616683 0,1.683837 -2.523598,4.266701 -3.514778,3.597321 C 37.099351,67.362372 30.554,67.078872 22.7,66.830885 Z"
       id="path2155" />
  </g>
</svg>
