<?xml version="1.0" encoding="UTF-8" standalone="no"?>
<!-- Created with Inkscape (http://www.inkscape.org/) -->

<svg
   version="1.1"
   id="svg2772"
   width="100"
   height="100"
   viewBox="0 0 100 100"
   sodipodi:docname="taurus.png"
   xmlns:inkscape="http://www.inkscape.org/namespaces/inkscape"
   xmlns:sodipodi="http://sodipodi.sourceforge.net/DTD/sodipodi-0.dtd"
   xmlns="http://www.w3.org/2000/svg"
   xmlns:svg="http://www.w3.org/2000/svg">
   <defs
      id="defs2776" />
   <sodipodi:namedview
      id="namedview2774"
      pagecolor="#505050"
      bordercolor="#ffffff"
      borderopacity="1"
      inkscape:showpageshadow="0"
      inkscape:pageopacity="0"
      inkscape:pagecheckerboard="1"
      inkscape:deskcolor="#505050"
      showgrid="false" />
   <g
      inkscape:groupmode="layer"
      inkscape:label="Image"
      id="g2778">
      <path
         fill="#2F353A"
         style="stroke:#2f353a;stroke-width:2;stroke-dasharray:none;stroke-opacity:0"
         d="M 41.6,91.261454 C 34.368989,88.892206 27.468466,82.978734 23.837846,76.04 22.126296,72.768937 21.86,71.072482 21.86,63.44 c 0,-8.20415 0.173755,-9.133693 2.488463,-13.312611 1.368655,-2.470937 4.277202,-6.100842 6.463438,-8.066456 l 3.974975,-3.573844 -2.529963,-1.870483 c -1.39148,-1.028765 -4.89774,-5.52586 -7.791689,-9.993544 -2.893949,-4.467684 -5.863482,-8.617753 -6.598964,-9.222376 -0.73548,-0.604623 -3.161768,-1.549623 -5.391749,-2.1 C 8.591391,14.342301 8.42,14.175721 8.42,11.36 c 0,-2.9057543 0.045864,-2.9429572 3.937455,-3.1938786 7.224783,-0.4658385 11.824281,3.0222366 18.416681,13.9664756 2.3026,3.822615 5.21568,7.395609 7.15555,8.776531 5.945139,4.232125 17.149237,4.48043 23.5541,0.522007 1.864903,-1.152574 4.758667,-4.597293 7.623079,-9.074472 2.539396,-3.969164 5.421694,-8.103949 6.405109,-9.18841 C 78.529878,9.8402577 83.273027,7.8843843 87.642545,8.1661214 91.534136,8.4170428 91.58,8.4542457 91.58,11.36 c 0,2.815721 -0.171391,2.982301 -4.054511,3.940686 -2.229982,0.550377 -4.642088,1.488331 -5.360238,2.084343 -0.718149,0.596011 -3.66127,4.713543 -6.540268,9.150071 -2.878999,4.436528 -6.395574,8.89314 -7.814611,9.903585 l -2.580067,1.83717 4.228682,3.955437 c 2.325775,2.175491 5.230457,5.852923 6.454848,8.172073 C 77.912988,54.190012 78.14,55.519413 78.14,63.44 78.14,73.569039 76.855135,77.027556 70.702154,83.460716 65.069531,89.349824 60.179389,91.424353 51.26,91.708598 47.102,91.841106 42.755,91.639892 41.6,91.261454 Z M 57.914213,83.261623 C 61.991043,81.558215 67.27298,76.48858 69.270918,72.36139 71.51127,67.733441 71.587772,59.351586 69.432844,54.62 67.636964,50.676777 61.982918,45.318391 57.753195,43.5511 53.8637,41.925965 45.965084,41.998519 41.888782,43.696824 37.673159,45.453176 32.558878,50.401082 30.598314,54.62 c -1.893926,4.07552 -2.11008,12.689131 -0.419937,16.734213 1.687206,4.038051 6.709987,9.29695 10.824964,11.333838 4.211663,2.084747 12.612202,2.369671 16.910872,0.573572 z"
         id="path2899" />
   </g>
</svg>