<svg width="48" height="48" viewBox="0 0 48 48" fill="none" xmlns="http://www.w3.org/2000/svg">
<mask id="mask0_749_4" style="mask-type:alpha" maskUnits="userSpaceOnUse" x="0" y="0" width="48" height="48">
<rect width="48" height="48" fill="#D9D9D9"/>
</mask>
<g mask="url(#mask0_749_4)">
<path d="M13.1429 17.3333H38.0322L38.925 13.8095H16.7143V11.2857C16.7143 10.7334 17.162 10.2857 17.7143 10.2857H41.2143C41.4858 10.2857 41.7536 10.3468 41.9976 10.4643C42.2415 10.5817 42.4551 10.7525 42.6221 10.9637C42.7891 11.1748 42.9051 11.4207 42.9613 11.6827C43.0175 11.9448 43.0124 12.216 42.9465 12.4758L38.4822 30.0948C38.3854 30.4758 38.1625 30.814 37.8486 31.0557C37.5348 31.2973 37.1481 31.4286 36.75 31.4286H11.3571C10.8835 31.4286 10.4293 31.2429 10.0945 30.9125C9.75957 30.5821 9.57143 30.134 9.57143 29.6667V8.52381H6V6C6 5.44771 6.44772 5 7 5H11.3571C11.8308 5 12.285 5.18563 12.6198 5.51605C12.9547 5.84647 13.1429 6.29462 13.1429 6.7619V17.3333ZM13.1429 42C12.1957 42 11.2873 41.6287 10.6175 40.9679C9.94771 40.3071 9.57143 39.4108 9.57143 38.4762C9.57143 37.5416 9.94771 36.6453 10.6175 35.9845C11.2873 35.3236 12.1957 34.9524 13.1429 34.9524C14.0901 34.9524 14.9985 35.3236 15.6683 35.9845C16.338 36.6453 16.7143 37.5416 16.7143 38.4762C16.7143 39.4108 16.338 40.3071 15.6683 40.9679C14.9985 41.6287 14.0901 42 13.1429 42ZM34.5715 42C33.6243 42 32.7159 41.6287 32.0461 40.9679C31.3763 40.3071 31 39.4108 31 38.4762C31 37.5416 31.3763 36.6453 32.0461 35.9845C32.7159 35.3236 33.6243 34.9524 34.5715 34.9524C35.5187 34.9524 36.4271 35.3236 37.0968 35.9845C37.7666 36.6453 38.1429 37.5416 38.1429 38.4762C38.1429 39.4108 37.7666 40.3071 37.0968 40.9679C36.4271 41.6287 35.5187 42 34.5715 42Z" fill="#2F353A"/>
</g>
</svg>
