<svg width="48" height="48" viewBox="0 0 48 48" fill="none" xmlns="http://www.w3.org/2000/svg">
<mask id="mask0_749_6" style="mask-type:alpha" maskUnits="userSpaceOnUse" x="0" y="0" width="48" height="48">
<rect width="48" height="48" fill="#D9D9D9"/>
</mask>
<g mask="url(#mask0_749_6)">
<path fill-rule="evenodd" clip-rule="evenodd" d="M40.9144 5V8.65715C40.9144 15.9567 39.2251 21.6043 36.3834 25.7149C34.8637 24.9645 33.1526 24.5429 31.343 24.5429C25.6274 24.5429 20.8942 28.7491 20.07 34.235C19.7061 34.2498 19.3398 34.2572 18.9715 34.2572H15.4935C15.8812 28.7496 17.5964 25.4161 22.0727 21.4554C24.2743 19.5079 24.0878 18.3834 23.0035 19.0288C15.5356 23.4723 11.8272 29.4773 11.6626 39.0664L11.6572 39.743H8C8 37.2506 8.21211 34.9887 8.63269 32.9187C8.21211 30.5525 8 27.3415 8 23.2858C8 13.1865 16.1865 5 26.2858 5C27.3931 5 28.5004 5.16763 29.7092 5.35063C32.4928 5.77203 35.8147 6.27493 40.9144 5ZM38.3704 34.1969C38.3704 31.732 36.6365 29.9714 34.497 29.9714C33.1871 29.9714 32.0322 30.6757 31.3279 31.3799C30.6237 30.6757 29.4687 29.9714 28.1588 29.9714C26.046 29.9714 24.2854 31.732 24.2854 34.1969C24.2854 38.8456 28.9822 41.6156 30.9941 42.8021C31.1157 42.8739 31.2275 42.9398 31.3279 43C31.4283 42.9398 31.5401 42.8739 31.6618 42.8021C33.6737 41.6156 38.3704 38.8456 38.3704 34.1969Z" fill="#2F353A"/>
</g>
</svg>
