<svg width="48" height="48" viewBox="0 0 48 48" fill="none" xmlns="http://www.w3.org/2000/svg">
<mask id="mask0_749_3" style="mask-type:alpha" maskUnits="userSpaceOnUse" x="0" y="0" width="48" height="48">
<rect width="48" height="48" fill="#D9D9D9"/>
</mask>
<g mask="url(#mask0_749_3)">
<path d="M42 6.9V10.7C42 14.2274 40.6026 17.6103 38.1153 20.1045C35.628 22.5988 32.2545 24 28.7368 24H26.8421V25.9H36.3158V39.2C36.3158 40.2078 35.9165 41.1744 35.2059 41.887C34.4952 42.5996 33.5313 43 32.5263 43H17.3684C16.3634 43 15.3995 42.5996 14.6889 41.887C13.9782 41.1744 13.5789 40.2078 13.5789 39.2V25.9H23.0526V20.2C23.0526 16.6726 24.45 13.2897 26.9373 10.7955C29.4246 8.30125 32.7982 6.9 36.3158 6.9H42ZM12.6316 5C14.9052 4.99816 17.146 5.54413 19.1653 6.59197C21.1846 7.6398 22.9233 9.15881 24.2349 11.0211C22.2329 13.6594 21.1517 16.8847 21.1579 20.2V22.1H20.2105C16.4417 22.1 12.8272 20.5987 10.1622 17.9263C7.49718 15.2539 6 11.6293 6 7.85V5H12.6316Z" fill="#2F353A"/>
</g>
</svg>
