<?xml version="1.0" encoding="UTF-8" standalone="no"?>
<!-- Created with Inkscape (http://www.inkscape.org/) -->

<svg
   version="1.1"
   id="svg2954"
   width="100"
   height="100"
   viewBox="0 0 100 100"
   sodipodi:docname="virgo.png"
   xmlns:inkscape="http://www.inkscape.org/namespaces/inkscape"
   xmlns:sodipodi="http://sodipodi.sourceforge.net/DTD/sodipodi-0.dtd"
   xmlns="http://www.w3.org/2000/svg"
   xmlns:svg="http://www.w3.org/2000/svg">
   <defs
      id="defs2958" />
   <sodipodi:namedview
      id="namedview2956"
      pagecolor="#505050"
      bordercolor="#ffffff"
      borderopacity="1"
      inkscape:showpageshadow="0"
      inkscape:pageopacity="0"
      inkscape:pagecheckerboard="1"
      inkscape:deskcolor="#505050"
      showgrid="false" />
   <g
      inkscape:groupmode="layer"
      inkscape:label="Image"
      id="g2960">
      <path
         fill="#2F353A"
         style="stroke:#2f353a;stroke-width:2;stroke-dasharray:none;stroke-opacity:1"
         d="M 71.4271,89.817707 C 70.489932,88.62629 69.493429,86.927685 69.212651,86.04303 68.59512,84.097363 68.206065,84.073722 64.219072,85.739594 c -1.717853,0.717765 -4.311857,1.189599 -5.764454,1.048521 -2.396524,-0.232754 -2.641085,-0.521736 -2.641085,-3.120802 0,-2.74269 0.231483,-2.956767 5.45231,-5.042319 l 5.45231,-2.178021 0.223063,-23.861054 0.223063,-23.861054 -2.091863,-4.229898 c -1.150524,-2.326444 -3.00648,-5.360278 -4.124345,-6.741854 -2.01064,-2.484957 -2.051398,-2.494838 -3.792294,-0.919348 -0.967896,0.875934 -2.892628,3.859575 -4.277183,6.630313 l -2.517372,5.037708 v 22.903976 c 0,22.045484 -0.06288,22.937629 -1.677634,23.801818 -1.191949,0.637912 -2.163318,0.637912 -3.355267,0 -1.614669,-0.864144 -1.677634,-1.756334 -1.677634,-23.771099 0,-22.691172 -0.0166,-22.906286 -2.085081,-27.022335 -1.146796,-2.281993 -3.036222,-5.28148 -4.198726,-6.665529 l -2.113645,-2.516451 -2.486089,2.873365 c -5.382774,6.221286 -5.449796,6.602767 -5.719878,32.556826 -0.234314,22.516768 -0.327537,23.730129 -1.887339,24.564909 -1.128536,0.603975 -2.144147,0.6088 -3.252824,0.01545 C 20.383551,74.427336 20.278146,73.010877 19.985489,49.419583 19.767801,31.871646 19.362869,23.726922 18.621941,21.993479 18.042292,20.637358 16.076013,17.909151 14.25243,15.930797 10.566249,11.931763 10.590739,11.993868 11.805155,9.7247111 13.373707,6.7938442 17.021788,7.655353 20.911521,11.875216 l 3.477825,3.772994 3.615164,-3.772994 c 3.199862,-3.3395605 4.034484,-3.7729938 7.265301,-3.7729938 3.2623,0 4.035155,0.4134442 7.273732,3.8911348 1.992977,2.140124 3.623595,4.285027 3.623595,4.76645 0,0.481424 1.996171,-1.269587 4.435936,-3.891134 4.086578,-4.3910617 4.724399,-4.7664508 8.098641,-4.7664508 3.190625,0 4.079998,0.4386676 6.900353,3.4034768 3.810917,4.006106 8.24603,12.37958 8.24603,15.568471 v 2.243449 l 2.105649,-2.272032 c 2.680145,-2.891925 6.654889,-2.735916 8.902594,0.349426 3.811667,5.232132 5.337443,21.662832 2.871864,30.926374 -1.757587,6.603513 -5.074115,12.884764 -9.263508,17.544378 l -3.695629,4.110428 1.580508,2.858299 c 0.869279,1.572065 2.038693,3.696424 2.598698,4.720798 2.338499,4.277633 -4.352757,6.290409 -7.521174,2.262417 z m 7.038781,-28.236131 c 2.596275,-5.686274 3.536477,-12.186763 2.802403,-19.375606 -0.668817,-6.549785 -1.197041,-7.507748 -2.874694,-5.213419 -3.316796,4.535987 -4.545492,10.39006 -4.545492,21.656798 0,12.302747 0.263063,12.469789 4.617783,2.932227 z"
         id="path3081" />
   </g>
</svg>