<?xml version="1.0" encoding="UTF-8" standalone="no"?>
<!-- Created with Inkscape (http://www.inkscape.org/) -->

<svg
   version="1.1"
   id="svg1284"
   width="100"
   height="100"
   viewBox="0 0 100 100"
   sodipodi:docname="cancer.png"
   xmlns:inkscape="http://www.inkscape.org/namespaces/inkscape"
   xmlns:sodipodi="http://sodipodi.sourceforge.net/DTD/sodipodi-0.dtd"
   xmlns="http://www.w3.org/2000/svg"
   xmlns:svg="http://www.w3.org/2000/svg">
  <defs
     id="defs1288" />
  <sodipodi:namedview
     id="namedview1286"
     pagecolor="#505050"
     bordercolor="#ffffff"
     borderopacity="1"
     inkscape:showpageshadow="0"
     inkscape:pageopacity="0"
     inkscape:pagecheckerboard="1"
     inkscape:deskcolor="#505050"
     showgrid="false" />
  <g
     inkscape:groupmode="layer"
     inkscape:label="Image"
     id="g1290">
    <path
       fill="#2F353A"
       style="stroke:#2f353a;stroke-width:2;stroke-dasharray:none;stroke-opacity:0"
       d="M 39.08,83.960368 C 32.566251,82.255698 21.866131,76.776879 16.258167,72.274826 10.316759,67.505087 8,63.028699 8,56.318592 8,46.446224 14.685974,39.92 24.8,39.92 c 10.05393,0 16.8,6.53356 16.8,16.27078 0,7.199959 -2.226976,11.245396 -8.786412,15.961048 -1.518572,1.091719 -1.098169,1.356814 5.414229,3.41408 14.87635,4.699436 30.971701,2.148635 45.5861,-7.224513 C 88.990086,65.021586 92,65.469454 92,69.559465 c 0,2.352163 -0.587317,3.111948 -4.268338,5.521754 -10.67604,6.989144 -21.88759,10.225832 -35.136031,10.1435 C 47.703034,85.194314 41.621,84.625356 39.08,83.960368 Z M 29.718179,64.762997 c 3.962151,-2.048909 5.494968,-7.909172 3.318286,-12.686468 -1.853109,-4.067131 -8.047063,-5.794998 -12.879936,-3.592994 -5.901369,2.688844 -6.095428,13.094335 -0.304069,16.304239 2.652862,1.47037 6.995515,1.459462 9.865719,-0.02478 z M 66.181541,57.931325 C 55.866175,51.748754 55.587389,35.151052 65.69399,28.904829 l 3.108856,-1.921378 -2.891423,-1.202428 C 56.90398,22.035189 43.834695,21.105037 34.46,23.542597 29.425042,24.851762 20.436981,28.909067 14.53281,32.53794 10.794129,34.83584 8.5595194,34.005248 8.1763804,30.175287 7.965255,28.06482 8.5065592,27.365499 12.234719,24.932242 22.686048,18.110974 34.141207,14.72 46.733022,14.72 c 10.780954,0 15.552166,1.059246 24.686978,5.480698 9.004776,4.358513 16.092436,9.96837 18.69,14.793067 4.298776,7.984511 1.548055,18.554445 -5.976126,22.963909 -5.120311,3.000702 -12.920925,2.989253 -17.952333,-0.02635 z M 80.118179,51.322997 C 82.762214,49.955713 84.44,46.833319 84.44,43.28 c 0,-7.217608 -7.002267,-11.371751 -13.883471,-8.236465 -5.901369,2.688844 -6.095428,13.094335 -0.304069,16.304239 2.652862,1.47037 6.995515,1.459462 9.865719,-0.02478 z"
       id="path1411" />
  </g>
</svg>
