<?xml version="1.0" encoding="UTF-8" standalone="no"?>
<!-- Created with Inkscape (http://www.inkscape.org/) -->

<svg
   version="1.1"
   id="svg2392"
   width="100"
   height="100"
   viewBox="0 0 100 100"
   sodipodi:docname="sagittarius.png"
   xmlns:inkscape="http://www.inkscape.org/namespaces/inkscape"
   xmlns:sodipodi="http://sodipodi.sourceforge.net/DTD/sodipodi-0.dtd"
   xmlns="http://www.w3.org/2000/svg"
   xmlns:svg="http://www.w3.org/2000/svg">
   <defs
      id="defs2396" />
   <sodipodi:namedview
      id="namedview2394"
      pagecolor="#505050"
      bordercolor="#ffffff"
      borderopacity="1"
      inkscape:showpageshadow="0"
      inkscape:pageopacity="0"
      inkscape:pagecheckerboard="1"
      inkscape:deskcolor="#505050"
      showgrid="false" />
   <g
      inkscape:groupmode="layer"
      inkscape:label="Image"
      id="g2398"
      transform="translate(5.48,4.7427769)">
      <path
         fill="#2F353A"
         style="stroke:#2f353a;stroke-width:2;stroke-dasharray:none;stroke-opacity:0"
         d="M 3.9393548,85.957376 C 3.1587097,85.176731 2.52,83.862703 2.52,83.037315 c 0,-0.825389 4.1577288,-5.672634 9.239398,-10.771656 l 9.239397,-9.270949 -6.981333,-7.022521 c -5.2391681,-5.270077 -6.981333,-7.629443 -6.981333,-9.45463 0,-2.153115 2.0557818,-4.302118 4.115498,-4.302118 0.341744,0 4.040967,3.337802 8.220495,7.417339 l 7.59914,7.417336 23.22379,-23.223788 23.22379,-23.22379 H 57.047758 c -13.591049,0 -16.565795,-0.234612 -17.517699,-1.3815873 C 38.659716,8.1722519 38.624892,7.3094428 39.385529,5.6400281 L 40.387613,3.4406921 61.873161,3.1829052 C 73.690213,3.0411223 84.07,3.2442575 84.939355,3.6343165 86.383497,4.2822688 86.52,6.2880782 86.52,26.860602 c 0,21.592676 -0.07416,22.556778 -1.806452,23.483871 -1.283474,0.686895 -2.329429,0.686895 -3.612903,0 -1.704937,-0.912455 -1.806451,-1.891195 -1.806451,-17.416684 v -16.4499 l -23.246975,23.246975 -23.246975,23.246975 7.560188,7.599667 c 6.592872,6.627299 7.485334,7.897909 6.975154,9.930625 -0.376501,1.500101 -1.415891,2.539492 -2.915992,2.915993 C 42.38698,83.928277 41.116829,83.0364 34.495956,76.44992 L 26.903277,68.896685 17.6317,78.136707 c -5.099367,5.082013 -9.9468946,9.240024 -10.7722834,9.240024 -0.8253888,0 -2.1394166,-0.63871 -2.9200618,-1.419355 z"
         id="path2519" />
   </g>
</svg>