<?xml version="1.0" encoding="UTF-8" standalone="no"?>
<!-- Created with Inkscape (http://www.inkscape.org/) -->

<svg
   version="1.1"
   id="svg214"
   width="100"
   height="100"
   viewBox="0 0 100 100"
   xmlns="http://www.w3.org/2000/svg"
   xmlns:svg="http://www.w3.org/2000/svg">
   <defs
      id="defs218" />
   <g
      id="g220">
      <path
         fill="#2f353a"
         d="M 46.619208,89.845317 C 46.16864,88.66024 45.796896,85.352739 45.793102,82.495317 45.778702,71.640377 42.691701,50.714694 39.388382,39.08 36.762646,29.831818 32.165669,20.45264 28.92017,17.721738 26.979198,16.088508 25.411159,15.56 22.506515,15.56 c -3.426914,0 -4.191622,0.375911 -7.039041,3.460223 -2.637529,2.856963 -3.566951,3.366741 -5.33097,2.923994 C 8.3712472,21.50117 8,20.911109 8,18.548445 8,7.8293294 27.113511,4.0793387 35.42256,13.168254 40.720673,18.963618 47.18293,34.466694 48.762073,45.17 49.085851,47.364502 49.64291,49.16 50,49.16 c 0.35709,0 0.914149,-1.795498 1.237927,-3.99 0.32377,-2.194502 1.868513,-7.963439 3.432749,-12.81987 C 60.219141,15.124033 66.85423,8 77.349595,8 85.48605,8 92,12.690109 92,18.548445 c 0,2.362664 -0.371239,2.952725 -2.136516,3.395772 -1.764026,0.442747 -2.69342,-0.06701 -5.330951,-2.923994 C 81.685107,15.935911 80.920399,15.56 77.493485,15.56 c -2.904644,0 -4.472683,0.528508 -6.413655,2.161738 C 67.834331,20.45264 63.237354,29.831818 60.611618,39.08 57.308299,50.714694 54.221298,71.640377 54.206898,82.495317 54.197243,89.769914 53.210175,92 50,92 48.023225,92 47.251389,91.50809 46.619208,89.845317 Z"
         id="path332"
         style="stroke:#2f353a;stroke-width:2;stroke-dasharray:none;stroke-opacity:1" />
   </g>
</svg>