<?xml version="1.0" encoding="UTF-8" standalone="no"?>
<!-- Created with Inkscape (http://www.inkscape.org/) -->

<svg
   version="1.1"
   id="svg2574"
   width="100"
   height="100"
   viewBox="0 0 100 100"
   sodipodi:docname="scorpio.png"
   xmlns:inkscape="http://www.inkscape.org/namespaces/inkscape"
   xmlns:sodipodi="http://sodipodi.sourceforge.net/DTD/sodipodi-0.dtd"
   xmlns="http://www.w3.org/2000/svg"
   xmlns:svg="http://www.w3.org/2000/svg">
   <defs
      id="defs2578" />
   <sodipodi:namedview
      id="namedview2576"
      pagecolor="#505050"
      bordercolor="#ffffff"
      borderopacity="1"
      inkscape:showpageshadow="0"
      inkscape:pageopacity="0"
      inkscape:pagecheckerboard="1"
      inkscape:deskcolor="#505050"
      showgrid="false" />
   <g
      inkscape:groupmode="layer"
      inkscape:label="Image"
      id="g2580">
      <path
         fill="#2F353A"
         style="stroke:#2f353a;stroke-width:2;stroke-dasharray:none;stroke-opacity:0"
         d="m 78.056446,89.866152 c -0.356709,-1.421242 -0.06852,-2.649923 0.862967,-3.679204 1.328101,-1.467535 1.253506,-1.572564 -1.481272,-2.085611 C 73.328299,83.330326 68.002424,79.175629 65.772816,75.001259 63.957131,71.601853 63.838672,70.289655 63.44,49.16 L 63.02,26.9 60.779231,23.088555 c -1.232423,-2.096293 -2.991866,-4.73901 -3.909874,-5.872702 -1.6457,-2.032354 -1.693774,-2.038933 -3.428309,-0.4692 -0.967562,0.875631 -2.893618,3.862222 -4.280126,6.636868 L 46.64,28.428334 v 22.936279 c 0,22.076576 -0.06297,22.969979 -1.68,23.835387 -1.193631,0.638812 -2.166369,0.638812 -3.36,0 -1.616945,-0.865363 -1.68,-1.758811 -1.68,-23.804625 0,-22.723174 -0.01662,-22.938592 -2.088022,-27.060446 -1.148412,-2.285211 -3.000965,-5.286903 -4.116785,-6.670427 -2.006979,-2.488486 -2.047687,-2.498372 -3.791056,-0.920645 -0.969261,0.87717 -2.896707,3.865018 -4.283215,6.639664 L 23.12,28.428334 V 51.364613 C 23.12,73.441189 23.05703,74.334592 21.44,75.2 20.283309,75.819042 19.2597,75.831357 18.153868,75.23953 16.636962,74.42771 16.531497,72.967794 16.255416,48.959978 15.933673,20.981375 15.859503,20.560516 10.366279,15.54323 8.4851252,13.825061 7.9354821,12.662101 8.1435616,10.840302 8.3736422,8.8258763 8.8533275,8.3776848 11.003997,8.1676681 c 2.144476,-0.2094117 3.183025,0.3975362 6.105748,3.5683149 l 3.521749,3.820648 3.620262,-3.778316 C 27.456131,8.4340446 28.29193,8 31.527305,8 c 3.2669,0 4.040845,0.4140273 7.28399,3.896623 1.995788,2.143142 3.628705,4.29107 3.628705,4.773172 0,0.482103 1.998987,-1.271377 4.442193,-3.896622 C 50.974534,8.3759185 51.613254,8 54.992255,8 c 3.195125,0 4.085753,0.4392863 6.910086,3.408276 1.783218,1.874553 4.323984,5.560053 5.646145,8.19 L 69.952417,24.38 70.324728,45.8 c 0.320485,18.438254 0.584039,21.862539 1.893297,24.599069 C 74.474238,75.114868 78.56,77.685703 78.56,74.389555 78.56,72.960185 80.743123,71 82.33506,71 c 0.289028,0 2.581879,1.944832 5.095223,4.321848 5.90252,5.582359 5.980035,7.372194 0.550864,12.719729 C 84.880324,91.095774 83.348923,92 81.277151,92 79.102191,92 78.49025,91.594564 78.056446,89.866152 Z"
         id="path2701" />
   </g>
</svg>