<?xml version="1.0" encoding="UTF-8" standalone="no"?>
<!-- Created with Inkscape (http://www.inkscape.org/) -->

<svg
   version="1.1"
   id="svg6302"
   width="100"
   height="100"
   viewBox="0 0 100 100"
   xmlns="http://www.w3.org/2000/svg"
   xmlns:svg="http://www.w3.org/2000/svg">
   <defs
      id="defs6306" />
   <g
      id="g6308">
      <path
         fill="#2F353A"
         style="stroke:#2f353a;stroke-width:1;stroke-dasharray:none;stroke-opacity:1"
         d="M 23.981494,88.611971 C 13.533678,83.203474 8,73.996201 8,62.020978 8,50.045756 13.533678,40.838483 23.981494,35.429985 c 5.491204,-2.842619 7.221712,-3.24584 13.89372,-3.237334 6.056948,0.0078 8.733525,0.527458 13.04016,2.53213 L 56.334272,37.247196 66.823214,26.758253 77.312156,16.269312 H 67.158268 c -9.135959,0 -10.260614,-0.199419 -11.218478,-1.989203 -0.756385,-1.413318 -0.756385,-2.565088 0,-3.978406 C 56.928207,8.4548284 58.087126,8.3040687 72.137058,8.1946574 89.837063,8.0568219 89.952617,8.0660406 91.248141,9.7193164 91.847064,10.483626 92.124966,17.37683 91.946694,27.046434 91.674897,41.788826 91.491571,43.189431 89.708841,44.14352 88.35186,44.869753 87.167937,44.862113 85.777833,44.11815 83.988049,43.160286 83.788631,42.035631 83.788631,32.899672 V 22.745786 l -10.538747,10.538747 -10.538746,10.538746 2.330536,4.374493 c 1.973785,3.704859 2.330535,5.820871 2.330535,13.823206 0,7.830243 -0.374708,10.150019 -2.187564,13.542961 -3.559351,6.661682 -6.969873,10.029412 -13.42197,13.253564 -5.217809,2.607369 -7.187304,3.041519 -13.797671,3.041519 -6.762814,0 -8.482381,-0.399294 -13.98351,-3.247051 z m 21.704108,-6.84578 c 4.170421,-1.265431 10.832316,-8.010103 12.29782,-12.450624 0.640204,-1.939839 0.975811,-6.128783 0.745792,-9.308764 C 57.246006,39.501652 30.04798,33.722665 19.526047,51.676985 c -7.060918,12.048548 -0.458389,27.159214 13.47703,30.843765 4.523943,1.196139 6.6756,1.068124 12.682525,-0.754559 z"
         id="path6429" />
   </g>
</svg>