<?xml version="1.0" encoding="UTF-8" standalone="no"?>
<!-- Created with Inkscape (http://www.inkscape.org/) -->

<svg
   version="1.1"
   id="svg4443"
   width="100"
   height="100"
   viewBox="0 0 100 100"
   xmlns="http://www.w3.org/2000/svg"
   xmlns:svg="http://www.w3.org/2000/svg">
   <defs
      id="defs4447" />
   <g
      id="g4449">
      <path
         fill="#2F353A"
         style="stroke:#2f353a;stroke-width:1;stroke-dasharray:none;stroke-opacity:1"
         d="m 48.088291,91.180864 c -1.230453,-0.716673 -1.486884,-2.104273 -1.486884,-8.04582 v -7.179791 h -8.041764 c -7.172187,0 -8.140103,-0.183749 -8.9512,-1.699296 -0.646148,-1.207341 -0.646148,-2.191252 0,-3.398593 0.811097,-1.515547 1.779013,-1.699296 8.9512,-1.699296 h 8.041764 v -5.097889 c 0,-4.383971 -0.218968,-5.097889 -1.563589,-5.097889 -2.708605,0 -11.864864,-5.080632 -14.252699,-7.908549 C 23.86289,42.855734 22.397649,31.175374 27.108802,21.74752 31.677813,12.60412 39.344202,7.9999999 50,7.9999999 c 10.655798,0 18.322186,4.6041201 22.891197,13.7475201 4.711154,9.427854 3.245912,21.108214 -3.676317,29.306221 -2.387835,2.827917 -11.544094,7.908549 -14.252699,7.908549 -1.344621,0 -1.563589,0.713918 -1.563589,5.097889 v 5.097889 h 8.041764 c 7.172187,0 8.140103,0.183749 8.9512,1.699296 0.646149,1.207341 0.646149,2.191252 0,3.398593 -0.811097,1.515547 -1.779013,1.699296 -8.9512,1.699296 h -8.041764 v 7.192116 c 0,6.241056 -0.217322,7.308423 -1.643439,8.071657 -1.955919,1.046776 -1.801375,1.048385 -3.666862,-0.03816 z M 60.306343,48.315982 c 5.414516,-3.813687 7.738682,-8.822355 7.363475,-15.868581 -0.371239,-6.971734 -3.334584,-11.786807 -9.173337,-14.905554 -3.192325,-1.705167 -4.76401,-1.992176 -9.521925,-1.738821 -6.971734,0.371239 -11.786807,3.334584 -14.905554,9.173337 -1.705167,3.192325 -1.992176,4.76401 -1.738821,9.521925 0.371239,6.971734 3.334584,11.786808 9.173337,14.905554 3.192325,1.705168 4.76401,1.992176 9.521925,1.738821 4.657741,-0.24802 6.352792,-0.764282 9.2809,-2.826681 z"
         id="path4570" />
   </g>
</svg>