<?xml version="1.0" encoding="UTF-8" standalone="no"?>
<!-- Created with Inkscape (http://www.inkscape.org/) -->

<svg
   version="1.1"
   id="svg4247"
   width="100"
   height="100"
   viewBox="0 0 100 100"
   xmlns="http://www.w3.org/2000/svg"
   xmlns:svg="http://www.w3.org/2000/svg">
   <defs
      id="defs4251" />
   <g
      id="g4253">
      <path
         fill="#2F353A"
         style="stroke:#2f353a;stroke-width:1;stroke-dasharray:none;stroke-opacity:1"
         d="m 48.15751,91.181026 c -1.128056,-0.657031 -1.486591,-1.982503 -1.486591,-5.49579 v -4.629931 h -4.642253 c -3.772849,0 -4.812541,-0.318183 -5.55151,-1.69896 -0.646022,-1.207102 -0.646022,-2.190819 0,-3.397921 0.738969,-1.380778 1.778661,-1.698961 5.55151,-1.698961 4.591739,0 4.642253,-0.02773 4.642253,-2.548441 0,-1.908392 -0.392622,-2.548441 -1.56328,-2.548441 -2.70807,0 -11.86252,-5.079628 -14.249883,-7.906986 -6.93837,-8.217123 -8.387219,-19.871626 -3.649118,-29.353405 1.703061,-3.408125 3.903419,-6.228254 6.268489,-8.034119 l 3.644282,-2.782616 -2.843967,-3.103305 c -4.897938,-5.344576 -4.655954,-9.9821497 0.520859,-9.9821497 1.796111,0 2.778872,0.7090565 4.110195,2.9654817 5.03121,8.527263 17.289479,8.527263 22.320688,0 1.331324,-2.2564252 2.314085,-2.9654817 4.110195,-2.9654817 5.16622,0 5.419574,4.6367267 0.544049,9.9568457 l -2.820778,3.078002 3.47843,2.653086 c 2.144101,1.63536 4.539803,4.703386 6.245299,7.997963 2.425317,4.685082 2.76687,6.15787 2.76687,11.930815 0,5.645856 -0.370803,7.327984 -2.597734,11.784469 -1.428755,2.85919 -3.817918,6.228824 -5.309252,7.488076 -3.087675,2.607169 -10.473372,6.252636 -12.692911,6.265026 -1.083603,0.006 -1.48659,0.699134 -1.48659,2.556739 0,2.520711 0.05052,2.548441 4.642253,2.548441 3.772849,0 4.81254,0.318183 5.55151,1.698961 0.646021,1.207102 0.646021,2.190819 0,3.397921 -0.73897,1.380777 -1.778661,1.69896 -5.55151,1.69896 h -4.642253 v 4.642254 c 0,3.720255 -0.32634,4.816906 -1.643115,5.521622 -1.955533,1.046569 -1.801019,1.048177 -3.666137,-0.03816 z M 60.373148,58.518377 c 5.413445,-3.812934 7.737152,-8.820612 7.36202,-15.865446 -0.371166,-6.970356 -3.333926,-11.784478 -9.171525,-14.902608 -3.191694,-1.704831 -4.763069,-1.991783 -9.520044,-1.738478 -6.970356,0.371166 -11.784478,3.333926 -14.902608,9.171524 -1.704831,3.191695 -1.991783,4.76307 -1.738478,9.520045 0.371166,6.970356 3.333926,11.784478 9.171524,14.902608 3.191695,1.704831 4.76307,1.991783 9.520044,1.738478 4.656821,-0.247972 6.351537,-0.764132 9.279067,-2.826123 z"
         id="path4374" />
   </g>
</svg>