<?xml version="1.0" encoding="UTF-8" standalone="no"?>
<!-- Created with Inkscape (http://www.inkscape.org/) -->

<svg
   version="1.1"
   id="svg214"
   width="100"
   height="100"
   viewBox="0 0 100 100"
   sodipodi:docname="heart.svg"
   inkscape:version="1.2.2 (b0a8486541, 2022-12-01, custom)"
   inkscape:export-filename="../160fe66f/heart.sg.svg"
   inkscape:export-xdpi="96"
   inkscape:export-ydpi="96"
   xmlns:inkscape="http://www.inkscape.org/namespaces/inkscape"
   xmlns:sodipodi="http://sodipodi.sourceforge.net/DTD/sodipodi-0.dtd"
   xmlns="http://www.w3.org/2000/svg"
   xmlns:svg="http://www.w3.org/2000/svg">
  <sodipodi:namedview
     id="namedview22925"
     pagecolor="#505050"
     bordercolor="#ffffff"
     borderopacity="1"
     inkscape:showpageshadow="0"
     inkscape:pageopacity="0"
     inkscape:pagecheckerboard="1"
     inkscape:deskcolor="#505050"
     showgrid="false"
     inkscape:zoom="7.08521"
     inkscape:cx="46.081909"
     inkscape:cy="45.093935"
     inkscape:window-width="1366"
     inkscape:window-height="704"
     inkscape:window-x="0"
     inkscape:window-y="0"
     inkscape:window-maximized="1"
     inkscape:current-layer="svg214" />
  <defs
     id="defs218" />
  <g
     id="g8466"
     style="display:none"
     sodipodi:insensitive="true">
    <path
       style="display:inline;fill:#c9e60c;fill-opacity:1;fill-rule:nonzero;stroke:none;stroke-width:1.03637"
       d="m 49.374024,8.942385 c 0,0 -5.800689,2.90948 -10.466797,7.283203 -0.07559,0.07086 -0.147686,0.145175 -0.222656,0.216797 -6.214394,-0.846126 -12.40625,0.03906 -12.40625,0.03906 0,0 -2.409634,4.570637 -3.824219,10.007812 -5.918385,2.515295 -10.962891,6.703125 -10.962891,6.703125 0,0 0.317109,4.902455 1.853516,10.130859 -2.727589,3.655202 -4.4121097,7.00586 -4.4121097,7.00586 0,0 1.9601917,3.794768 5.0644537,7.691406 -1.148037,5.204033 -1.16211,9.947266 -1.16211,9.947266 0,0 4.601412,3.366461 10.138672,5.560547 1.32606,5.527717 3.712891,10.222656 3.712891,10.222656 0,0 7.056818,1.117205 13.6875,0.04297 4.795284,4.387571 10.837891,7.263671 10.837891,7.263671 0,0 5.582925,-3.039991 10.078125,-7.492187 6.03027,0.945918 11.949218,0.302734 11.949218,0.302734 0,0 2.791723,-4.881897 4.361328,-10.578125 5.276797,-2.19106 9.566407,-5.322265 9.566407,-5.322265 0,0 -0.01295,-4.926817 -1.228516,-10.248047 3.128793,-3.782413 5.128906,-7.451172 5.128906,-7.451172 0,0 -1.642653,-3.455245 -4.335937,-7.212891 1.469086,-5.126546 1.777344,-9.863281 1.777344,-9.863281 0,0 -5.244794,-4.352308 -11.3125,-6.847656 -1.497962,-5.607771 -4.134766,-10.382813 -4.134766,-10.382813 0,0 -6.856332,-0.851726 -13.353516,0.351563 -0.273465,-0.26172 -0.550132,-0.520284 -0.830078,-0.771485 -4.434819,-3.979434 -9.503906,-6.599609 -9.503906,-6.599609 z"
       id="path15356" />
    <path
       id="path8060"
       style="color:#000000;fill:#121628;stroke-linecap:round;stroke-linejoin:round;stroke-miterlimit:10;-inkscape-stroke:none"
       d="m 49.378959,8.009677 a 0.93282329,0.93282329 0 0 0 -0.423828,0.099609 c 0,0 -5.813655,2.903264 -10.59375,7.351563 -1.356514,-0.167719 -2.702342,-0.263044 -3.976562,-0.300782 -0.572041,-0.01694 -1.129818,-0.02311 -1.667969,-0.02148 -3.767067,0.01141 -6.572266,0.419922 -6.572266,0.419922 a 0.93282329,0.93282329 0 0 0 -0.691406,0.488281 c 0,0 -2.323035,4.389404 -3.783203,9.765625 -5.898472,2.599085 -10.775391,6.662109 -10.775391,6.662109 a 0.93282329,0.93282329 0 0 0 -0.333984,0.77734 c 0,0 0.297687,4.702326 1.761719,9.886719 -2.6294239,3.589838 -4.2226563,6.771484 -4.2226563,6.771484 -0.1345634,0.266863 -0.1331133,0.582046 0.00391,0.847656 0,0 1.8720815,3.630589 4.8886723,7.490235 -1.08603,5.159161 -1.091797,9.71875 -1.091797,9.71875 a 0.93282329,0.93282329 0 0 0 0.382812,0.753906 c 0,0 4.42643,3.243394 9.908203,5.492188 1.376391,5.456812 3.664063,9.960937 3.664063,9.960937 0.135578,0.266216 0.390462,0.451388 0.685547,0.498047 0,0 6.496874,1.046331 13.015625,0.189453 0.170255,-0.02238 0.339621,-0.05829 0.509765,-0.08398 4.872613,4.344311 10.744141,7.123047 10.744141,7.123047 a 0.93282329,0.93282329 0 0 0 0.845703,-0.02344 c 0,0 5.398737,-2.929422 9.953125,-7.324219 6.024686,0.869666 11.730469,0.242188 11.730469,0.242188 a 0.93282329,0.93282329 0 0 0 0.708984,-0.464844 c 0,0 2.695257,-4.699799 4.322266,-10.349609 5.220304,-2.232998 9.345703,-5.259766 9.345703,-5.259766 a 0.93282329,0.93282329 0 0 0 0.382812,-0.753906 c 0,0 -0.0068,-4.72984 -1.154297,-10.005859 3.037192,-3.742237 4.941407,-7.246094 4.941407,-7.246094 a 0.93282329,0.93282329 0 0 0 0.02344,-0.845703 c 0,0 -1.562804,-3.295818 -4.167968,-6.998047 1.397603,-5.074515 1.697265,-9.619141 1.697265,-9.619141 a 0.93282329,0.93282329 0 0 0 -0.333984,-0.777344 c 0,0 -5.054502,-4.216566 -11.097657,-6.80664 -0.01228,-0.0053 -0.02482,-0.01037 -0.03711,-0.01563 -1.551549,-5.552023 -4.09375,-10.142578 -4.09375,-10.142578 -0.143936,-0.26076 -0.403741,-0.437109 -0.699219,-0.47461 0,0 -1.634022,-0.206743 -4.078125,-0.279297 -0.611024,-0.01814 -1.273107,-0.02749 -1.972656,-0.02344 -2.09865,0.01215 -4.537544,0.147702 -6.970703,0.550781 -0.05218,0.0086 -0.104117,0.02018 -0.15625,0.0293 C 55.3342,10.966996 49.802787,8.1151458 49.802787,8.1151458 A 0.93282329,0.93282329 0 0 0 49.378959,8.009677 Z m -0.01172,2.011718 c 0.636024,0.337481 5.534425,2.967228 9.740234,7.007813 2.242008,2.153932 4.15648,4.638498 4.947266,7.152344 0.105396,0.335048 0.191028,0.670683 0.257812,1.005859 -0.52116,0.324816 -1.023291,0.700181 -1.496094,1.142578 -3.811774,-2.069479 -8.178051,-3.246094 -12.816406,-3.246094 -4.637419,0 -9.003217,1.175437 -12.814453,3.244141 -0.862271,-0.806582 -1.818566,-1.402331 -2.826172,-1.826172 0.04588,-0.168759 0.09704,-0.337286 0.152344,-0.505859 0.821369,-2.503666 2.765612,-4.966296 5.033203,-7.091797 4.254237,-3.987661 9.183233,-6.553837 9.822266,-6.882813 z m 17.84375,6.580078 c 0.6334,-0.003 1.234851,0.0054 1.792968,0.02148 2.06269,0.05949 3.119521,0.19248 3.453125,0.230469 0.273096,0.506827 2.000529,3.759295 3.322266,7.958984 -1.980753,-0.67315 -4.02495,-1.115344 -6.023438,-1.109375 -0.394146,0.0012 -0.786149,0.0192 -1.175781,0.05664 -0.871854,0.08377 -1.72704,0.280362 -2.550781,0.585937 -0.05766,-0.243462 -0.120079,-0.48545 -0.195313,-0.724609 -0.770547,-2.449511 -2.341588,-4.682028 -4.1875,-6.664063 1.945427,-0.252899 3.869931,-0.347444 5.564454,-0.355469 z m -34.253907,0.40625 c 1.168265,0.0021 2.426478,0.04726 3.708985,0.154297 -1.72184,1.868727 -3.174314,3.961361 -3.925782,6.251953 -0.05777,0.176093 -0.11018,0.352624 -0.158203,0.53125 -0.383862,-0.08095 -0.770614,-0.147932 -1.162109,-0.185546 -0.389632,-0.03744 -0.781633,-0.05546 -1.175781,-0.05664 -2.120937,-0.0063 -4.2935,0.490385 -6.386719,1.234375 1.226334,-4.007871 2.786756,-7.080487 3.041016,-7.574219 0.333074,-0.04423 1.387163,-0.19708 3.447265,-0.294922 0.793713,-0.03769 1.673968,-0.06226 2.611328,-0.06055 z m 15.751953,7.97461 c 0.0013,-6.6e-5 0.0026,6.5e-5 0.0039,0 L 42.578178,35.769442 H 29.377006 c 4.290698,-6.206958 11.308693,-10.38109 19.332031,-10.787109 z m 2.75,0.01172 c 7.952935,0.455596 14.903499,4.612027 19.164063,10.77539 H 57.562553 Z m -21.220703,0.576171 c 0.339497,3.5e-5 0.674113,0.01538 1.001953,0.04688 1.590827,0.152845 3.03124,0.659041 4.289063,1.699218 -7.481582,4.784712 -12.451172,13.158532 -12.451172,22.689453 0,1.590872 0.146864,3.146634 0.412109,4.66211 -1.510219,-0.238442 -2.789771,-0.919309 -3.93164,-1.916016 -1.985299,-1.732907 -3.492999,-4.482541 -4.566406,-7.400391 -2.013615,-5.473605 -2.455821,-11.014392 -2.509766,-11.732421 0.558655,-0.454091 4.887326,-3.939579 10.246094,-6.236329 2.499588,-1.071313 5.133287,-1.81274 7.509765,-1.8125 z m 39.523438,0 c 2.376472,-2.38e-4 5.010183,0.741191 7.509765,1.8125 5.358758,2.296746 9.687441,5.782238 10.246094,6.236329 -0.05392,0.718026 -0.496278,6.258841 -2.509766,11.732421 -1.073338,2.917839 -2.58107,5.667491 -4.566406,7.400391 -1.142298,0.997056 -2.421131,1.6775 -3.93164,1.916016 0.265243,-1.515473 0.412109,-3.071242 0.412109,-4.66211 0,-9.530892 -4.969605,-17.904748 -12.451172,-22.689453 1.257516,-1.040682 2.698286,-1.546379 4.289063,-1.699218 0.327838,-0.0315 0.662456,-0.04684 1.001953,-0.04688 z m -19.681641,0.779297 5.335938,9.419922 H 44.722709 Z M 29.658256,37.634677 h 11.859375 l -5.941406,10.445312 z m 14.003906,0 h 12.8125 L 63.4356,49.921786 56.419975,62.257723 h -12.8125 L 36.646537,49.970614 Z m 14.957032,0 h 11.802734 l -5.912109,10.396484 z m -30.753907,0.61914 6.636719,11.716797 -6.669922,11.726563 c -0.854545,-1.618715 -1.528585,-3.346051 -2.015625,-5.150391 0.276384,-0.02684 0.55568,-0.06051 0.839844,-0.109375 -0.328252,-0.110502 -0.596495,-0.243494 -1.017578,-0.582031 -0.449303,-1.877109 -0.695313,-3.833729 -0.695313,-5.84961 0,-4.249254 1.05927,-8.247567 2.921875,-11.751953 z m 44.308594,0.07422 c 1.838223,3.486664 2.882813,7.458339 2.882813,11.677734 0,4.193381 -1.032507,8.141902 -2.84961,11.613282 L 65.580131,49.921786 Z m 14.865234,6.826172 c 1.69734,2.572597 2.754446,4.680644 2.951172,5.083984 -0.234173,0.419216 -1.544304,2.725089 -3.613281,5.433594 -0.05475,-0.195206 -0.105765,-0.39107 -0.164062,-0.585937 -0.447758,-1.496723 -1.009263,-2.979193 -1.707032,-4.363282 0.910189,-1.468386 1.650144,-3.08526 2.253907,-4.726562 0.102997,-0.279996 0.183824,-0.560809 0.279296,-0.841797 z m -74.017578,0.214844 c 0.07251,0.209144 0.142047,0.418451 0.21875,0.626953 0.603483,1.640445 1.342427,3.256829 2.251954,4.724609 -0.697932,1.384734 -1.257184,2.867918 -1.705079,4.365235 -0.0824,0.27546 -0.157063,0.552156 -0.232421,0.828124 -2.044589,-2.791135 -3.318422,-5.164399 -3.544922,-5.591796 0.204454,-0.396694 1.281862,-2.446291 3.011718,-4.953125 z m 51.484375,6.443358 5.917969,10.445312 H 58.564506 Z m -28.933593,0.04687 5.890625,10.398437 H 29.660209 Z m 47.699218,0.619141 c 0.446741,1.001074 0.831006,2.059931 1.154297,3.140625 1.670717,5.584819 1.769874,11.140136 1.779297,11.861328 -0.584249,0.417635 -5.123533,3.631611 -10.617187,5.59375 -2.927967,1.045766 -6.006717,1.650049 -8.609375,1.236328 -1.172143,-0.186327 -2.249678,-0.55785 -3.214844,-1.193359 6.057681,-3.619869 10.589329,-9.533409 12.349609,-16.554688 2.165181,-0.192617 4.034679,-1.077556 5.554688,-2.404297 0.579566,-0.505875 1.111502,-1.071492 1.603515,-1.679687 z m -66.542968,0.002 c 0.491774,0.607801 1.024289,1.172145 1.603515,1.677734 1.519476,1.326304 3.390065,2.208442 5.554688,2.400391 1.7582,7.017198 6.27213,12.945526 12.324219,16.566406 -0.960041,0.626753 -2.028182,1.000632 -3.191407,1.185547 -2.602563,0.413721 -5.679578,-0.190562 -8.607422,-1.236328 -5.493574,-1.962194 -10.033184,-5.176267 -10.617187,-5.59375 0.0094,-0.721193 0.108693,-6.276482 1.779297,-11.861328 0.323051,-1.079969 0.707863,-2.138206 1.154297,-3.138672 z M 29.291069,64.123 h 13.228515 l 6.179688,10.908203 c -3.322282,-0.169437 -6.466958,-0.993918 -9.322266,-2.332031 0.05093,-0.06203 0.102385,-0.121766 0.152344,-0.185547 -0.0166,0.0086 -0.03161,0.01687 -0.04883,0.02539 -0.111405,0.03512 -0.185478,0.05706 -0.269531,0.08398 -4.010793,-1.915559 -7.434937,-4.859004 -9.919922,-8.5 z m 15.375,0 h 10.693359 l -5.357422,9.419922 z m 12.83789,0 H 70.709037 C 66.428054,70.395449 59.372699,74.619494 51.300834,75.031161 Z m 9.826172,8.542969 c -0.01939,0.140568 0.04388,0.237536 0.177734,0.298828 -0.0068,-0.09846 -0.02567,-0.194843 -0.04492,-0.291016 -0.04381,-0.0013 -0.08837,-0.0051 -0.132813,-0.0078 z m -0.40039,0.798828 c 0.02226,0.0049 0.04583,0.0082 0.06836,0.01172 0.0033,1.26e-4 0.0065,-1e-4 0.0098,0 -0.01805,-0.0035 -0.03652,-0.007 -0.05469,-0.0098 -0.0078,-0.0012 -0.03114,-0.0037 -0.02344,-0.002 z m -4.919922,0.613281 c 1.042506,0.852394 2.209901,1.440101 3.443359,1.792969 -0.80225,2.409284 -2.589591,4.799695 -4.681641,6.896484 -4.119828,4.129159 -8.962096,6.862594 -9.589843,7.212891 -0.646206,-0.315529 -5.629236,-2.779344 -9.966797,-6.675781 -2.312096,-2.076957 -4.307492,-4.496759 -5.181641,-6.982422 -0.103302,-0.293744 -0.189491,-0.587846 -0.261719,-0.882813 0.780097,-0.339045 1.522658,-0.784772 2.210938,-1.345703 3.618958,1.811127 7.698903,2.835938 12.017578,2.835938 4.319339,0 8.390808,-1.03968 12.009766,-2.851563 z m 14.148437,0.771484 c -1.392892,4.279175 -3.223681,7.602691 -3.509765,8.115235 -0.606908,0.05996 -4.691973,0.440951 -9.423829,-0.08008 1.793152,-1.991093 3.31706,-4.224339 4.070313,-6.652344 2.900074,0.314044 5.984973,-0.360257 8.863281,-1.382813 z m -51.830078,0.164063 c 2.942092,0.996007 6.070511,1.60188 8.984375,1.138672 0.229744,-0.03652 0.457193,-0.08731 0.683594,-0.138672 0.07761,0.312955 0.17012,0.622842 0.277344,0.927734 0.799885,2.274498 2.297037,4.337419 4.058593,6.169922 -5.405388,0.556111 -10.339697,-0.134934 -11.011719,-0.234375 -0.25227,-0.508403 -1.81773,-3.723057 -2.992187,-7.863281 z" />
  </g>
  <g
     id="g697">
    <path
       id="path693"
       style="display:inline;fill:#c9e60c;fill-opacity:1;fill-rule:nonzero;stroke:none;stroke-width:1.03637"
       d="M 49.367188 10.021484 C 48.728155 10.35046 43.799155 12.91664 39.544922 16.904297 C 37.277333 19.029796 35.333087 21.49243 34.511719 23.996094 C 34.456415 24.164667 34.405255 24.333194 34.359375 24.501953 C 35.36698 24.925794 36.323277 25.521544 37.185547 26.328125 C 40.996779 24.259423 45.362586 23.083984 50 23.083984 C 54.63835 23.083984 59.004636 24.260601 62.816406 26.330078 C 63.289209 25.887682 63.791341 25.512316 64.3125 25.1875 C 64.245716 24.852324 64.160083 24.516688 64.054688 24.181641 C 63.263902 21.667797 61.349428 19.183227 59.107422 17.029297 C 54.901617 12.988716 50.003211 10.358965 49.367188 10.021484 z M 67.210938 16.601562 C 65.516416 16.609587 63.591909 16.704133 61.646484 16.957031 C 63.492395 18.939064 65.063438 21.171585 65.833984 23.621094 C 65.909218 23.860253 65.971637 24.102241 66.029297 24.345703 C 66.853037 24.040128 67.708225 23.843536 68.580078 23.759766 C 68.96971 23.722326 69.361714 23.704325 69.755859 23.703125 C 71.754345 23.697156 73.798546 24.139351 75.779297 24.8125 C 74.457561 20.612815 72.730127 17.360342 72.457031 16.853516 C 72.123428 16.815527 71.066594 16.682537 69.003906 16.623047 C 68.44579 16.606967 67.844337 16.598563 67.210938 16.601562 z M 32.957031 17.007812 C 32.019672 17.006103 31.139415 17.030669 30.345703 17.068359 C 28.285603 17.166201 27.231511 17.319051 26.898438 17.363281 C 26.644178 17.857013 25.083755 20.929633 23.857422 24.9375 C 25.950639 24.193511 28.123206 23.696825 30.244141 23.703125 C 30.638288 23.704305 31.03029 23.722326 31.419922 23.759766 C 31.811416 23.79738 32.19817 23.864363 32.582031 23.945312 C 32.630054 23.766687 32.682464 23.590155 32.740234 23.414062 C 33.491702 21.123473 34.944177 19.030835 36.666016 17.162109 C 35.38351 17.055072 34.125295 17.009912 32.957031 17.007812 z M 48.708984 24.982422 C 40.685654 25.38844 33.667647 29.562579 29.376953 35.769531 L 42.578125 35.769531 L 48.712891 24.982422 C 48.711591 24.982487 48.710284 24.982356 48.708984 24.982422 z M 51.458984 24.994141 L 57.5625 35.769531 L 70.623047 35.769531 C 66.362487 29.606174 59.411911 25.449736 51.458984 24.994141 z M 30.238281 25.570312 C 27.861806 25.570073 25.228101 26.311501 22.728516 27.382812 C 17.369753 29.67956 13.041076 33.16505 12.482422 33.619141 C 12.536367 34.337169 12.978575 39.877963 14.992188 45.351562 C 16.065593 48.26941 17.573297 51.019048 19.558594 52.751953 C 20.700462 53.748659 21.980017 54.429527 23.490234 54.667969 C 23.22499 53.152494 23.078125 51.59673 23.078125 50.005859 C 23.078125 40.474948 28.047722 32.101113 35.529297 27.316406 C 34.271475 26.27623 32.83106 25.770032 31.240234 25.617188 C 30.912395 25.585688 30.577778 25.570347 30.238281 25.570312 z M 69.761719 25.570312 C 69.422222 25.570352 69.087603 25.585688 68.759766 25.617188 C 67.16899 25.770026 65.728218 26.275725 64.470703 27.316406 C 71.952263 32.101106 76.921875 40.474977 76.921875 50.005859 C 76.921875 51.596726 76.775008 53.152497 76.509766 54.667969 C 78.020273 54.429453 79.299109 53.749008 80.441406 52.751953 C 82.42674 51.019055 83.934476 48.269399 85.007812 45.351562 C 87.021298 39.877988 87.463658 34.337166 87.517578 33.619141 C 86.958926 33.16505 82.630237 29.679556 77.271484 27.382812 C 74.771905 26.311505 72.138188 25.570075 69.761719 25.570312 z M 50.080078 26.349609 L 44.722656 35.769531 L 55.416016 35.769531 L 50.080078 26.349609 z M 29.658203 37.634766 L 35.576172 48.080078 L 41.517578 37.634766 L 29.658203 37.634766 z M 43.662109 37.634766 L 36.646484 49.970703 L 43.607422 62.257812 L 56.419922 62.257812 L 63.435547 49.921875 L 56.474609 37.634766 L 43.662109 37.634766 z M 58.619141 37.634766 L 64.509766 48.03125 L 70.421875 37.634766 L 58.619141 37.634766 z M 27.865234 38.253906 C 26.002631 41.758289 24.943359 45.75661 24.943359 50.005859 C 24.943359 52.021738 25.189369 53.978362 25.638672 55.855469 C 26.059754 56.194005 26.327998 56.326998 26.65625 56.4375 C 26.372086 56.486365 26.09279 56.520035 25.816406 56.546875 C 26.303446 58.351213 26.977487 60.078552 27.832031 61.697266 L 34.501953 49.970703 L 27.865234 38.253906 z M 72.173828 38.328125 L 65.580078 49.921875 L 72.207031 61.619141 C 74.024132 58.147764 75.056641 54.199236 75.056641 50.005859 C 75.056641 45.786469 74.012049 41.814786 72.173828 38.328125 z M 87.039062 45.154297 C 86.943591 45.435285 86.862763 45.716098 86.759766 45.996094 C 86.156003 47.637394 85.416047 49.254272 84.505859 50.722656 C 85.203628 52.106744 85.765133 53.589216 86.212891 55.085938 C 86.271188 55.280804 86.322203 55.476669 86.376953 55.671875 C 88.445928 52.963373 89.756062 50.657497 89.990234 50.238281 C 89.793509 49.834942 88.736401 47.726891 87.039062 45.154297 z M 13.021484 45.369141 C 11.29163 47.875972 10.214219 49.925572 10.009766 50.322266 C 10.236265 50.749662 11.510101 53.12293 13.554688 55.914062 C 13.630045 55.638095 13.704709 55.361397 13.787109 55.085938 C 14.235004 53.588622 14.794256 52.105436 15.492188 50.720703 C 14.582661 49.252925 13.843717 47.636537 13.240234 45.996094 C 13.163531 45.787592 13.093994 45.578284 13.021484 45.369141 z M 64.505859 51.8125 L 58.564453 62.257812 L 70.423828 62.257812 L 64.505859 51.8125 z M 35.572266 51.859375 L 29.660156 62.257812 L 41.462891 62.257812 L 35.572266 51.859375 z M 83.271484 52.478516 C 82.779472 53.08671 82.247534 53.652329 81.667969 54.158203 C 80.147961 55.484943 78.27846 56.369883 76.113281 56.5625 C 74.353003 63.583772 69.821347 69.497322 63.763672 73.117188 C 64.728837 73.752696 65.806374 74.12422 66.978516 74.310547 C 69.581171 74.724267 72.659927 74.119984 75.587891 73.074219 C 81.081539 71.112082 85.62083 67.898103 86.205078 67.480469 C 86.195655 66.759277 86.096497 61.203954 84.425781 55.619141 C 84.102491 54.538448 83.718225 53.479589 83.271484 52.478516 z M 16.728516 52.480469 C 16.282082 53.480934 15.897269 54.539173 15.574219 55.619141 C 13.903616 61.203981 13.804322 66.759276 13.794922 67.480469 C 14.378924 67.897951 18.918541 71.112027 24.412109 73.074219 C 27.33995 74.119984 30.416971 74.724267 33.019531 74.310547 C 34.182755 74.125632 35.250897 73.751752 36.210938 73.125 C 30.158855 69.504124 25.644917 63.575785 23.886719 56.558594 C 21.722098 56.366645 19.851506 55.484506 18.332031 54.158203 C 17.752806 53.652615 17.220289 53.088269 16.728516 52.480469 z M 29.291016 64.123047 C 31.775998 67.764039 35.200149 70.70749 39.210938 72.623047 C 39.29499 72.596127 39.369064 72.574182 39.480469 72.539062 C 39.497689 72.530543 39.512697 72.522272 39.529297 72.513672 C 39.479338 72.577453 39.427883 72.637189 39.376953 72.699219 C 42.232258 74.03733 45.37694 74.861813 48.699219 75.03125 L 42.519531 64.123047 L 29.291016 64.123047 z M 44.666016 64.123047 L 50.001953 73.542969 L 55.359375 64.123047 L 44.666016 64.123047 z M 57.503906 64.123047 L 51.300781 75.03125 C 59.372638 74.619583 66.428006 70.39549 70.708984 64.123047 L 57.503906 64.123047 z M 67.330078 72.666016 C 67.374521 72.668716 67.419081 72.672528 67.462891 72.673828 C 67.482141 72.770001 67.501013 72.866384 67.507812 72.964844 C 67.373959 72.903552 67.310688 72.806583 67.330078 72.666016 z M 66.929688 73.464844 C 66.921988 73.463144 66.945325 73.465597 66.953125 73.466797 C 66.971295 73.469597 66.989763 73.473063 67.007812 73.476562 C 67.004513 73.476463 67.001347 73.476688 66.998047 73.476562 C 66.975517 73.473043 66.951947 73.469744 66.929688 73.464844 z M 62.009766 74.078125 C 58.390811 75.890006 54.319335 76.929688 50 76.929688 C 45.681329 76.929688 41.601376 75.904875 37.982422 74.09375 C 37.294143 74.65468 36.551581 75.100408 35.771484 75.439453 C 35.843712 75.73442 35.929901 76.028522 36.033203 76.322266 C 36.907351 78.807926 38.90275 81.227733 41.214844 83.304688 C 45.5524 87.201121 50.535435 89.66494 51.181641 89.980469 C 51.809387 89.630172 56.65166 86.896733 60.771484 82.767578 C 62.863532 80.670791 64.650876 78.280375 65.453125 75.871094 C 64.219668 75.518226 63.052271 74.930518 62.009766 74.078125 z M 76.158203 74.849609 C 73.279898 75.872164 70.194993 76.546466 67.294922 76.232422 C 66.54167 78.660424 65.01776 80.893675 63.224609 82.884766 C 67.956461 83.405796 72.04153 83.024804 72.648438 82.964844 C 72.934521 82.4523 74.765313 79.12878 76.158203 74.849609 z M 24.328125 75.013672 C 25.502581 79.153892 27.068043 82.368551 27.320312 82.876953 C 27.992334 82.976394 32.926649 83.667439 38.332031 83.111328 C 36.570477 81.278827 35.073322 79.215902 34.273438 76.941406 C 34.166214 76.636515 34.073704 76.326627 33.996094 76.013672 C 33.769693 76.065034 33.542244 76.115824 33.3125 76.152344 C 30.398639 76.615551 27.270214 76.009678 24.328125 75.013672 z " />
  </g>
</svg>
