<?xml version="1.0" encoding="UTF-8" standalone="no"?>
<!-- Created with Inkscape (http://www.inkscape.org/) -->

<svg
   version="1.1"
   id="svg214"
   width="100"
   height="100"
   viewBox="0 0 100 100"
   sodipodi:docname="root.svg"
   inkscape:version="1.2.2 (b0a8486541, 2022-12-01, custom)"
   xmlns:inkscape="http://www.inkscape.org/namespaces/inkscape"
   xmlns:sodipodi="http://sodipodi.sourceforge.net/DTD/sodipodi-0.dtd"
   xmlns="http://www.w3.org/2000/svg"
   xmlns:svg="http://www.w3.org/2000/svg">
  <sodipodi:namedview
     id="namedview1606"
     pagecolor="#505050"
     bordercolor="#ffffff"
     borderopacity="1"
     inkscape:showpageshadow="0"
     inkscape:pageopacity="0"
     inkscape:pagecheckerboard="1"
     inkscape:deskcolor="#505050"
     showgrid="false"
     inkscape:zoom="6.7316566"
     inkscape:cx="45.53114"
     inkscape:cy="58.752255"
     inkscape:window-width="1366"
     inkscape:window-height="704"
     inkscape:window-x="0"
     inkscape:window-y="0"
     inkscape:window-maximized="1"
     inkscape:current-layer="svg214" />
  <defs
     id="defs218" />
  <g
     id="g460"
     transform="matrix(1.073057,0,0,-1.073057,-43.908838,435.39125)"
     style="display:none"
     sodipodi:insensitive="true">
    <path
       id="path452"
       style="display:inline;fill:#d60c31;fill-opacity:1;fill-rule:nonzero;stroke:none"
       d="M -44.229523,2.4954945 C -50.790254,2.3833979 -57.445634,6.8441285e-5 -57.445634,6.8441285e-5 c 0,0 -5.817411,-19.836324441285 3.807754,-24.440978441285 -0.105225,-0.93281 -0.163813,-1.880316 -0.163813,-2.841254 0,-0.906991 0.04991,-1.800817 0.143792,-2.682902 -9.274668,-4.617304 -4.264612,-24.126092 -4.264612,-24.126092 0,0 19.940797,-7.893136 24.974282,2.093173 1.374373,-0.233335 2.783754,-0.36221 4.224568,-0.36221 1.561385,0 3.087991,0.149206 4.570398,0.422275 4.982318,-10.078916 25.00340407,-2.153238 25.00340407,-2.153238 0,0 5.14908373,20.022528 -4.62136157,24.304467 0.081793,0.824312 0.1255904,1.658697 0.1255904,2.504527 0,0.960955 -0.058585,1.908427 -0.1638135,2.841254 C 5.8172047,-19.837587 1.2889129e-4,6.8441285e-5 1.2889129e-4,6.8441285e-5 c 0,0 -6.65720039129,2.383329458715 -13.21793089129,2.495426058715 -4.721743,0.080676 -9.390236,-1.0176042 -11.494249,-5.0236148 -1.306273,0.2100143 -2.646118,0.3239868 -4.011612,0.3239868 -1.365493,0 -2.703518,-0.1139725 -4.009791,-0.3239868 -2.104372,4.0060106 -6.774327,5.1042905 -11.496069,5.0236148 z"
       transform="translate(116.2389,386.4348)" />
    <path
       id="path454"
       style="color:#000000;display:inline;fill:#121628;stroke-linecap:round;stroke-linejoin:round;stroke-miterlimit:10;-inkscape-stroke:none"
       d="m -44.245904,3.3964689 c -0.398329,-0.00714 -0.796179,-0.021725 -1.192199,-0.043684 -6.33629,-0.3513306 -12.311496,-2.50634698 -12.311496,-2.50634698 a 0.90008998,0.90008998 0 0 1 -0.560607,-0.59154884 c 0,0 -1.801203,-6.09116048 -1.781927,-12.43526608 0.0096,-3.172054 0.461632,-6.434534 1.920259,-9.08073 0.825468,-1.49754 2.020813,-2.764705 3.583876,-3.656682 -0.07043,-0.778826 -0.11285,-1.565523 -0.11285,-2.362555 0,-0.743183 0.03879,-1.476743 0.100109,-2.204202 -1.41496,-0.828809 -2.52838,-1.975552 -3.334516,-3.329055 -1.546382,-2.596381 -2.1048,-5.840715 -2.220583,-9.011564 -0.231566,-6.341698 1.363293,-12.491691 1.363293,-12.491691 a 0.90008998,0.90008998 0 0 1 0.538764,-0.611571 c 0,0 5.899497,-2.352509 12.218669,-2.91588 1.579792,-0.140843 3.192662,-0.17329 4.756053,-0.02002 1.563388,0.153262 3.078472,0.492825 4.463008,1.09755 1.758305,0.767979 3.2814,2.012327 4.341059,3.780453 1.225506,-0.177709 2.476945,-0.273023 3.751329,-0.273023 1.283187,0 2.543203,0.09654 3.776812,0.276663 1.055685,-1.764569 2.561825,-3.01806 4.315576,-3.784093 1.384476,-0.604731 2.901487,-0.944288 4.464829,-1.09755 1.563345,-0.153262 3.17447,-0.120814 4.754233,0.02002 6.3190478,0.563371 12.22048862,2.91588 12.22048862,2.91588 a 0.90008998,0.90008998 0 0 1 0.53876448,0.611571 c 0,0 1.5930375,6.149994 1.3614724,12.491691 -0.1157826,3.170849 -0.6741994,6.415187 -2.22058333,9.011564 -0.80610949,1.35346 -1.91806217,2.501936 -3.33269517,3.330875 0.061224,0.726856 0.1001083,1.45983 0.1001083,2.202382 0,0.800713 -0.041771,1.591145 -0.1128493,2.373476 1.5623696,0.888868 2.75791406,2.150472 3.5820557,3.645761 1.4584739,2.646197 1.9106889,5.908682 1.9202585,9.08073 C 2.6639552,-5.8362834 0.86288012,0.25488948 0.86288012,0.25488948 A 0.90008998,0.90008998 0 0 1 0.30227384,0.84643832 c 0,0 -5.97520354,2.15501598 -12.31149684,2.50634698 -0.396017,0.021958 -0.793869,0.036545 -1.192198,0.043684 -0.348538,0.00625 -0.698159,0.0068 -1.046587,0 -2.438989,-0.047598 -4.853878,-0.4341054 -6.942053,-1.4306382 -1.599138,-0.7631518 -2.981114,-1.92836304 -3.971568,-3.5201706 -1.165463,0.1602348 -2.352878,0.2493606 -3.562034,0.2493606 -1.211008,0 -2.40034,-0.088643 -3.567494,-0.2493606 -0.989929,1.59007515 -2.368787,2.757887 -3.966108,3.5201706 -2.386482,1.1388945 -5.200345,1.4806091 -7.988639,1.4306378 z m 0.03094,-1.803769 c 2.614984,0.042349 5.174242,-0.2921375 7.182313,-1.25044321 1.129398,-0.53897841 2.093114,-1.25348633 2.843075,-2.22786389 -10.335417,-2.2174746 -18.393013,-10.5901858 -20.149064,-21.0882608 -0.943613,0.676117 -1.683722,1.540974 -2.256986,2.580973 -1.227298,2.226526 -1.685448,5.219062 -1.69456,8.217978 -0.01709,5.6252148 1.411385,10.7922174 1.599912,11.46148653 0.655354,0.22663432 5.732539,1.95448727 11.352278,2.26608707 0.374413,0.02076 0.749465,0.033993 1.123032,0.040043 z m 30.982598,0 c 0.37357,-0.00605 0.748617,-0.019282 1.123033,-0.040043 C -6.489595,1.2410571 -1.4105862,-0.48680085 -0.75523548,-0.71343017 -0.56670896,-1.3827 0.86165434,-6.5496915 0.84467662,-12.174917 c -0.009051,-2.998922 -0.46921127,-5.991453 -1.69638006,-8.217978 -0.57510856,-1.043456 -1.30426066,-1.924989 -2.25152586,-2.602815 -1.747988,10.504629 -9.8060647,18.8837713 -20.1436027,21.1064627 0.748243,0.97391188 1.706598,1.69349006 2.833973,2.23150429 2.008071,0.95830571 4.565512,1.29279241 7.180493,1.25044291 z m -15.491299,-4.6959877 c 6.531014,0 12.449483,-2.5863846 16.798167,-6.7873404 H -45.52183 c 4.348329,4.2009558 10.267154,6.7873404 16.798167,6.7873404 z M -25.755,-7.8648009 c 0.02074,-0.00308 0.04145,-0.00715 0.06189,-0.010921 0.01698,-0.00308 0.06613,-0.00465 0.05096,0.00364 -0.02072,0.011183 -0.04569,0.00504 -0.06917,0.00728 -0.01455,-1.501e-4 -0.02914,1.528e-4 -0.04368,0 z m -20.884404,-3.8277761 h 35.831479 v -31.179174 h -35.831479 z m -1.798308,-1.590811 V -41.2773 c -2.218134,3.120701 -3.712927,6.790746 -4.244591,10.768009 0.06849,0.02671 0.131859,0.05864 0.202037,0.08373 -0.06352,0.05419 -0.127499,0.100088 -0.191116,0.160174 -0.02076,0.02189 -0.03443,0.04869 -0.0546,0.07099 -0.114853,0.955012 -0.174735,1.927726 -0.174735,2.914061 0,5.220345 1.655296,10.04745 4.463009,13.996956 z m 39.4299152,0 c 2.8079871,-3.949506 4.4630084,-8.776611 4.4630084,-13.996956 0,-5.219915 -1.6554413,-10.04736 -4.4630084,-13.996956 z M -39.098519,-18.14501 a 0.90008998,0.90008998 0 0 1 -0.779025,-1.350551 l 5.187429,-8.986082 5.187428,-8.986082 a 0.90008998,0.90008998 0 0 1 0.779024,-0.447757 0.90008998,0.90008998 0 0 1 0.779025,0.447757 l 5.189248,8.986082 5.185608,8.986082 a 0.90008998,0.90008998 0 0 1 -0.779024,1.350551 h -10.374857 z m 1.559868,-1.801948 h 8.814988 8.816808 l -4.408404,-7.635531 -4.408404,-7.63553 -4.408404,7.63553 z m -11.601637,-4.992673 c -0.01587,-0.01769 -0.03204,-0.03459 -0.04732,-0.05278 -0.0094,-0.01118 -0.0356,-0.04693 -0.02548,-0.0364 0.02315,0.02408 0.04219,0.0509 0.0637,0.07645 0.0038,0.0036 0.0056,0.0089 0.0091,0.01274 z m -1.08663,-0.285763 c -0.0054,-0.02909 0.0047,-0.06088 0.0055,-0.09101 -3.52e-4,0.0051 0.0023,0.0095 0.0018,0.01456 -0.0024,0.02538 -0.0026,0.101509 -0.0073,0.07645 z m 47.1473526,-6.203072 c 0.819945,-0.616369 1.4784042,-1.394354 2.0203668,-2.304311 1.30116457,-2.184658 1.8599363,-5.160042 1.96940263,-8.157913 0.20538007,-5.62459 -1.04852304,-10.841007 -1.21404024,-11.514271 -0.64644644,-0.248189 -5.66385879,-2.146815 -11.26855079,-2.646498 -1.493534,-0.133156 -2.995977,-0.152219 -4.415684,-0.01274 -1.419709,0.139472 -2.757519,0.437653 -3.922424,0.946479 -1.279162,0.558731 -2.356917,1.348939 -3.174342,2.480864 10.304249,2.285805 18.3139188,10.694412 20.0052716,21.208392 z m -51.2863746,-0.0073 c 1.694015,-10.512452 9.704632,-18.919467 20.008912,-21.202931 -0.817267,-1.133669 -1.899565,-1.919873 -3.179802,-2.479044 -1.164982,-0.508832 -2.502666,-0.807006 -3.922424,-0.946479 -1.419761,-0.139469 -2.922116,-0.120406 -4.415685,0.01274 -5.604809,0.499683 -10.622105,2.398309 -11.26855,2.646498 -0.165518,0.673264 -1.41942,5.889681 -1.21404,11.514271 0.109464,2.997871 0.668237,5.973255 1.969402,8.157913 0.541129,0.908557 1.202129,1.68293 2.022187,2.29703 z m 8.845931,-13.236133 h 33.592693 c -4.348557,-4.200466 -10.2661,-6.78734 -16.796347,-6.78734 -6.530246,0 -12.44815,2.586874 -16.796346,6.78734 z m 13.603803,-3.181623 c -0.03044,-0.0012 0.06055,-0.0077 0.09101,-0.0073 -0.0031,9.22e-4 -0.0059,0.0029 -0.0091,0.0036 -0.02669,0.0062 -0.05454,0.0048 -0.08191,0.0036 z"
       transform="translate(116.2389,386.4348)" />
  </g>
  <g
     id="g559"
     transform="matrix(1.073057,0,0,-1.073057,-43.908838,435.39125)">
    <path
       id="path555"
       style="display:inline;fill:#d60c31;fill-opacity:1;fill-rule:nonzero;stroke:none"
       d="M -44.214962 1.5926999 C -44.588528 1.5866496 -44.963582 1.5734166 -45.337994 1.5526566 C -50.957728 1.2410571 -56.034918 -0.48679638 -56.690272 -0.71343047 C -56.878799 -1.3826989 -58.307274 -6.5497076 -58.290184 -12.174917 C -58.281072 -15.17383 -57.822921 -18.166372 -56.595624 -20.392895 C -56.022361 -21.432893 -55.28225 -22.297752 -54.338638 -22.973868 C -52.582588 -12.475804 -44.524981 -4.1030796 -34.189574 -1.8856072 C -34.939534 -0.91123066 -35.903252 -0.19672118 -37.032649 0.34225669 C -39.040718 1.3005614 -41.59998 1.6350489 -44.214962 1.5926999 z M -13.232364 1.5926999 C -15.847342 1.6350494 -18.404788 1.3005614 -20.412857 0.34225669 C -21.54023 -0.195757 -22.498588 -0.91533664 -23.24683 -1.8892476 C -12.909303 -4.1119367 -4.8512136 -12.491092 -3.1032273 -22.99571 C -2.1559631 -22.317885 -1.4268094 -21.43635 -0.85170144 -20.392895 C 0.37546612 -18.166373 0.83562763 -15.173836 0.84467862 -12.174917 C 0.86165632 -6.5496969 -0.56670714 -1.3826996 -0.75523348 -0.71343047 C -1.4105835 -0.48680138 -6.4895985 1.2410571 -12.109331 1.5526566 C -12.483747 1.5734176 -12.858794 1.5866499 -13.232364 1.5926999 z M -28.723663 -3.1032878 C -35.254669 -3.1032878 -41.173505 -5.6896766 -45.52183 -9.8906282 L -11.925496 -9.8906282 C -16.274175 -5.6896766 -22.192655 -3.1032878 -28.723663 -3.1032878 z M -25.754998 -7.8648009 C -25.740458 -7.8646481 -25.725864 -7.864951 -25.711314 -7.8648009 C -25.687834 -7.8670409 -25.662868 -7.8608985 -25.642148 -7.8720815 C -25.626978 -7.8803715 -25.676132 -7.8788018 -25.693112 -7.8757218 C -25.713552 -7.8719508 -25.734258 -7.8678809 -25.754998 -7.8648009 z M -46.639402 -11.692577 L -46.639402 -42.871751 L -10.807923 -42.871751 L -10.807923 -11.692577 L -46.639402 -11.692577 z M -48.43771 -13.283388 C -51.245421 -17.23289 -52.900719 -22.060004 -52.900719 -27.280344 C -52.900719 -28.266678 -52.840837 -29.239394 -52.725984 -30.194405 C -52.705814 -30.216705 -52.69214 -30.2435 -52.67138 -30.26539 C -52.607763 -30.325476 -52.543784 -30.371374 -52.480264 -30.425564 C -52.550442 -30.450654 -52.613811 -30.482581 -52.682301 -30.509291 C -52.150637 -34.48655 -50.655842 -38.156602 -48.43771 -41.2773 L -48.43771 -13.283388 z M -9.0077948 -13.283388 L -9.0077948 -41.2773 C -6.2002306 -37.327708 -4.5447864 -32.500254 -4.5447864 -27.280344 C -4.5447864 -22.060004 -6.1998106 -17.23289 -9.0077948 -13.283388 z M -39.098519 -18.14501 L -28.723663 -18.14501 L -18.348806 -18.14501 A 0.90008998 0.90008998 0 0 0 -17.569782 -19.495561 L -22.75539 -28.481643 L -27.944638 -37.467725 A 0.90008998 0.90008998 0 0 0 -28.723663 -37.915482 A 0.90008998 0.90008998 0 0 0 -29.502687 -37.467725 L -34.690115 -28.481643 L -39.877544 -19.495561 A 0.90008998 0.90008998 0 0 0 -39.098519 -18.14501 z M -37.538651 -19.946958 L -33.132067 -27.582489 L -28.723663 -35.218019 L -24.315259 -27.582489 L -19.906855 -19.946958 L -28.723663 -19.946958 L -37.538651 -19.946958 z M -49.140288 -24.939631 C -49.143788 -24.943471 -49.145589 -24.948772 -49.149389 -24.952372 C -49.170899 -24.977922 -49.189944 -25.004738 -49.213094 -25.028818 C -49.223214 -25.039348 -49.197012 -25.003595 -49.187612 -24.992415 C -49.172332 -24.974225 -49.156158 -24.957321 -49.140288 -24.939631 z M -50.226918 -25.225394 C -50.222218 -25.200335 -50.222038 -25.276461 -50.219638 -25.301841 C -50.219138 -25.306901 -50.22181 -25.311302 -50.221458 -25.316402 C -50.222258 -25.286272 -50.232318 -25.254484 -50.226918 -25.225394 z M -3.0795654 -31.428466 C -4.7709165 -41.942436 -12.780598 -50.351055 -23.084837 -52.636858 C -22.267413 -53.768781 -21.189656 -54.558992 -19.910495 -55.117722 C -18.745591 -55.626548 -17.407779 -55.924729 -15.988071 -56.064201 C -14.568366 -56.203679 -13.065919 -56.184615 -11.572387 -56.051459 C -5.9677002 -55.551777 -0.950282 -53.65315 -0.30383621 -53.404961 C -0.13831917 -52.731698 1.1155839 -47.515275 0.91020403 -41.89069 C 0.80073781 -38.892822 0.2419647 -35.917433 -1.0591986 -33.732777 C -1.6011606 -32.822821 -2.2596212 -32.044835 -3.0795654 -31.428466 z M -54.36594 -31.435747 C -55.185997 -32.049846 -55.846998 -32.824221 -56.388127 -33.732777 C -57.689291 -35.917433 -58.248066 -38.892822 -58.357529 -41.89069 C -58.562909 -47.515275 -57.309007 -52.731698 -57.143489 -53.404961 C -56.497045 -53.65315 -51.479742 -55.551777 -45.874939 -56.051459 C -44.381371 -56.184605 -42.879014 -56.203669 -41.459254 -56.064201 C -40.039498 -55.924728 -38.701811 -55.626554 -37.53683 -55.117722 C -36.256595 -54.558552 -35.174294 -53.772346 -34.357028 -52.638678 C -44.661298 -50.355216 -52.671927 -41.948189 -54.36594 -31.435747 z M -45.520009 -44.67188 C -41.171818 -48.872342 -35.253902 -51.45922 -28.723663 -51.45922 C -22.193422 -51.45922 -16.275869 -48.872342 -11.927316 -44.67188 L -45.520009 -44.67188 z M -31.916206 -47.853503 C -31.888836 -47.852303 -31.860989 -47.850943 -31.8343 -47.857143 C -31.8311 -47.857843 -31.828299 -47.859861 -31.825199 -47.860783 C -31.855659 -47.861183 -31.946646 -47.854703 -31.916206 -47.853503 z "
       transform="translate(116.2389,386.4348)" />
  </g>
</svg>
