<svg width="13" height="12" viewBox="0 0 13 12" fill="none" xmlns="http://www.w3.org/2000/svg">
<path d="M12.1809 7.63298L7.83739 11.9675C7.82039 11.985 7.79439 11.9935 7.77689 11.985L1.84389 10.395C1.81789 10.3865 1.80039 10.369 1.80039 10.352L0.202393 4.42798C0.193393 4.40148 0.202393 4.38448 0.219893 4.36698L4.56289 0.0324828C4.58039 0.0149828 4.60639 0.00648275 4.62339 0.0149828L10.5564 1.60498C10.5824 1.61348 10.5999 1.63098 10.5999 1.64798L12.1899 7.57198C12.2069 7.59848 12.1979 7.61548 12.1809 7.63298ZM6.36089 2.91648L0.532393 4.47148C0.523893 4.47148 0.514893 4.48848 0.523893 4.49748L4.78889 8.75348C4.79739 8.76198 4.81489 8.76198 4.81489 8.74498L6.37839 2.92498C6.38689 2.92498 6.36939 2.90748 6.36089 2.91648Z" fill="#2F353A"/>
</svg>
