<svg width="48" height="48" viewBox="0 0 48 48" fill="none" xmlns="http://www.w3.org/2000/svg">
<mask id="mask0_922_442" style="mask-type:alpha" maskUnits="userSpaceOnUse" x="0" y="0" width="48" height="48">
<rect width="48" height="48" fill="#D9D9D9"/>
</mask>
<g mask="url(#mask0_922_442)">
<path fill-rule="evenodd" clip-rule="evenodd" d="M43.3917 25.0547C43.4123 24.6649 43.3263 24.2768 43.1429 23.9322C42.9596 23.5877 42.6857 23.2996 42.351 23.0991C42.0162 22.8986 41.6331 22.7932 41.243 22.7943C40.8528 22.7954 40.4703 22.9029 40.1367 23.1052C37.9256 24.4437 35.3599 25.0779 32.7801 24.9239C30.2002 24.7698 27.7279 23.8347 25.6912 22.2426C23.6545 20.6504 22.1496 18.4765 21.3761 16.0092C20.6026 13.5418 20.597 10.8975 21.36 8.42706C21.4755 8.05421 21.4872 7.6569 21.3939 7.27786C21.3006 6.89883 21.1057 6.55242 20.8303 6.27591C20.5548 5.9994 20.2093 5.80325 19.8307 5.70858C19.4522 5.6139 19.0551 5.62428 18.682 5.7386C14.1077 7.13843 10.2242 10.2032 7.79824 14.3279C5.37223 18.4527 4.57993 23.3377 5.57773 28.0187C6.57553 32.6998 9.29093 36.8368 13.188 39.6131C17.085 42.3894 21.8804 43.6034 26.6278 43.0153C35.9768 41.8674 42.914 34.1502 43.3917 25.0547V25.0547ZM38.4991 28.4543C37.4865 31.7013 35.3927 34.5031 32.5663 36.3931C29.7399 38.2831 26.3516 39.1473 22.9656 38.8418C19.5795 38.5363 16.4001 37.0794 13.9568 34.7139C11.5135 32.3483 9.9537 29.2169 9.5372 25.8409C9.18793 22.9984 9.66578 20.1155 10.9134 17.5382C12.1611 14.9609 14.1255 12.7986 16.571 11.3107C16.4303 14.0385 16.9484 16.7601 18.0816 19.2453C19.2147 21.7305 20.9296 23.9061 23.081 25.5878C25.2324 27.2696 27.757 28.4082 30.4411 28.9071C33.1253 29.406 35.89 29.2506 38.5012 28.454L38.4991 28.4543Z" fill="#2F353A"/>
</g>
</svg>
