<svg width="48" height="48" viewBox="0 0 48 48" fill="none" xmlns="http://www.w3.org/2000/svg">
<mask id="mask0_945_480" style="mask-type:alpha" maskUnits="userSpaceOnUse" x="0" y="0" width="48" height="48">
<rect width="48" height="48" fill="#D9D9D9"/>
</mask>
<g mask="url(#mask0_945_480)">
<path fill-rule="evenodd" clip-rule="evenodd" d="M25.4603 8.52554C25.073 8.91284 24.5477 9.13043 24 9.13043C23.4523 9.13043 22.927 8.91284 22.5397 8.52554C22.1524 8.13824 21.9348 7.61295 21.9348 7.06522C21.9348 6.51749 22.1524 5.99219 22.5397 5.60489C22.927 5.21759 23.4523 5 24 5C24.5477 5 25.073 5.21759 25.4603 5.60489C25.8476 5.99219 26.0652 6.51749 26.0652 7.06522C26.0652 7.61295 25.8476 8.13824 25.4603 8.52554ZM37.4386 13.4821C37.0513 13.8694 36.526 14.0869 35.9783 14.0869C35.4305 14.0869 34.9052 13.8694 34.5179 13.4821C34.1306 13.0948 33.913 12.5695 33.913 12.0217C33.913 11.474 34.1306 10.9487 34.5179 10.5614C34.9052 10.1741 35.4305 9.95651 35.9783 9.95651C36.526 9.95651 37.0513 10.1741 37.4386 10.5614C37.8259 10.9487 38.0435 11.474 38.0435 12.0217C38.0435 12.5695 37.8259 13.0948 37.4386 13.4821ZM42.3951 25.4603C42.0078 25.8476 41.4825 26.0652 40.9348 26.0652C40.3871 26.0652 39.8618 25.8476 39.4745 25.4603C39.0871 25.073 38.8696 24.5477 38.8696 24C38.8696 23.4523 39.0871 22.927 39.4745 22.5397C39.8618 22.1524 40.3871 21.9348 40.9348 21.9348C41.4825 21.9348 42.0078 22.1524 42.3951 22.5397C42.7824 22.927 43 23.4523 43 24C43 24.5477 42.7824 25.073 42.3951 25.4603ZM37.4386 37.4386C37.0513 37.8259 36.526 38.0435 35.9783 38.0435C35.4305 38.0435 34.9052 37.8259 34.5179 37.4386C34.1306 37.0513 33.913 36.526 33.913 35.9783C33.913 35.4305 34.1306 34.9052 34.5179 34.5179C34.9052 34.1306 35.4305 33.9131 35.9783 33.9131C36.526 33.9131 37.0513 34.1306 37.4386 34.5179C37.8259 34.9052 38.0435 35.4305 38.0435 35.9783C38.0435 36.526 37.8259 37.0513 37.4386 37.4386ZM25.4603 42.3951C25.073 42.7824 24.5477 43 24 43C23.4523 43 22.927 42.7824 22.5397 42.3951C22.1524 42.0078 21.9348 41.4825 21.9348 40.9348C21.9348 40.3871 22.1524 39.8618 22.5397 39.4745C22.927 39.0872 23.4523 38.8696 24 38.8696C24.5477 38.8696 25.073 39.0872 25.4603 39.4745C25.8476 39.8618 26.0652 40.3871 26.0652 40.9348C26.0652 41.4825 25.8476 42.0078 25.4603 42.3951ZM13.4821 37.4386C13.0948 37.8259 12.5695 38.0435 12.0217 38.0435C11.474 38.0435 10.9487 37.8259 10.5614 37.4386C10.1741 37.0513 9.95653 36.526 9.95653 35.9783C9.95653 35.4305 10.1741 34.9052 10.5614 34.5179C10.9487 34.1306 11.474 33.9131 12.0217 33.9131C12.5695 33.9131 13.0948 34.1306 13.4821 34.5179C13.8694 34.9052 14.087 35.4305 14.087 35.9783C14.087 36.526 13.8694 37.0513 13.4821 37.4386ZM8.52554 25.4603C8.13824 25.8476 7.61295 26.0652 7.06522 26.0652C6.51749 26.0652 5.99219 25.8476 5.60489 25.4603C5.21759 25.073 5 24.5477 5 24C5 23.4523 5.21759 22.927 5.60489 22.5397C5.99219 22.1524 6.51749 21.9348 7.06522 21.9348C7.61295 21.9348 8.13824 22.1524 8.52554 22.5397C8.91286 22.927 9.13043 23.4523 9.13043 24C9.13043 24.5477 8.91286 25.073 8.52554 25.4603ZM13.4821 13.4821C13.0948 13.8694 12.5695 14.0869 12.0217 14.0869C11.474 14.0869 10.9487 13.8694 10.5614 13.4821C10.1741 13.0948 9.95653 12.5695 9.95653 12.0217C9.95653 11.474 10.1741 10.9487 10.5614 10.5614C10.9487 10.1741 11.474 9.95651 12.0217 9.95651C12.5695 9.95651 13.0948 10.1741 13.4821 10.5614C13.8694 10.9487 14.087 11.474 14.087 12.0217C14.087 12.5695 13.8694 13.0948 13.4821 13.4821ZM37 24C37 31.18 31.18 37 24 37C16.82 37 11 31.18 11 24C11 16.82 16.82 11 24 11C31.18 11 37 16.82 37 24Z" fill="#2F353A"/>
</g>
</svg>
