<svg width="48" height="48" viewBox="0 0 48 48" fill="none" xmlns="http://www.w3.org/2000/svg">
<path d="M22.7837 40.8137C22.7837 40.8137 42.9286 40.534 42.9998 22.8685C43.0711 5.20308 22.8931 22.9067 22.7837 40.8137Z" fill="#2F353A"/>
<path d="M9.23337 15.5776C6.74012 15.5077 4.97903 17.6343 5.00019 22.8787C5.04986 35.194 14.8493 39.057 20.7841 40.269C21.1597 36.2926 22.2653 32.693 23.0817 30.4629C19.8074 22.1678 13.4709 15.6965 9.23337 15.5776Z" fill="#2F353A"/>
<path d="M23.9142 7.00001C20.3583 10.6509 10.5251 13.6589 15.2742 16.5454C20.8309 19.9227 23.9273 28.5868 23.9273 28.5868C23.9273 28.5868 27.0238 19.9227 32.5804 16.5454C37.3296 13.6589 27.4636 10.708 23.9404 7.00001C23.9404 7.00001 23.923 6.99999 23.9142 7.00001H23.9142Z" fill="#2F353A"/>
</svg>
