<?xml version="1.0" encoding="UTF-8" standalone="no"?>
<!-- Created with Inkscape (http://www.inkscape.org/) -->

<svg
   version="1.1"
   id="svg214"
   width="100"
   height="100"
   viewBox="0 0 100 100"
   sodipodi:docname="third_eye.svg"
   inkscape:version="1.2.2 (b0a8486541, 2022-12-01, custom)"
   inkscape:export-filename="../65434191/throat.svg"
   inkscape:export-xdpi="96"
   inkscape:export-ydpi="96"
   xmlns:inkscape="http://www.inkscape.org/namespaces/inkscape"
   xmlns:sodipodi="http://sodipodi.sourceforge.net/DTD/sodipodi-0.dtd"
   xmlns="http://www.w3.org/2000/svg"
   xmlns:svg="http://www.w3.org/2000/svg">
  <sodipodi:namedview
     id="namedview22925"
     pagecolor="#505050"
     bordercolor="#ffffff"
     borderopacity="1"
     inkscape:showpageshadow="0"
     inkscape:pageopacity="0"
     inkscape:pagecheckerboard="1"
     inkscape:deskcolor="#505050"
     showgrid="false"
     inkscape:zoom="5.01"
     inkscape:cx="51.996008"
     inkscape:cy="47.205589"
     inkscape:window-width="1366"
     inkscape:window-height="704"
     inkscape:window-x="0"
     inkscape:window-y="0"
     inkscape:window-maximized="1"
     inkscape:current-layer="svg214" />
  <defs
     id="defs218">
    <clipPath
       clipPathUnits="userSpaceOnUse"
       id="clipPath18869">
      <g
         id="g18873"
         transform="translate(-521.6754,-359.382)">
        <path
           d="M 0,500 H 750 V 0 H 0 Z"
           id="path18871" />
      </g>
    </clipPath>
    <clipPath
       clipPathUnits="userSpaceOnUse"
       id="clipPath18863">
      <g
         id="g18867"
         transform="translate(-521.6754,-359.382)">
        <path
           d="M 0,500 H 750 V 0 H 0 Z"
           id="path18865" />
      </g>
    </clipPath>
    <clipPath
       clipPathUnits="userSpaceOnUse"
       id="clipPath18857">
      <g
         id="g18861"
         transform="translate(-601.0201,-359.1696)">
        <path
           d="M 0,500 H 750 V 0 H 0 Z"
           id="path18859" />
      </g>
    </clipPath>
    <clipPath
       clipPathUnits="userSpaceOnUse"
       id="clipPath18851">
      <g
         id="g18855"
         transform="translate(-601.0201,-359.1696)">
        <path
           d="M 0,500 H 750 V 0 H 0 Z"
           id="path18853" />
      </g>
    </clipPath>
    <clipPath
       clipPathUnits="userSpaceOnUse"
       id="clipPath18845">
      <g
         id="g18849"
         transform="translate(-561.4303,-334.0837)">
        <path
           d="M 0,500 H 750 V 0 H 0 Z"
           id="path18847" />
      </g>
    </clipPath>
    <clipPath
       clipPathUnits="userSpaceOnUse"
       id="clipPath18839">
      <g
         id="g18843"
         transform="translate(-540.2174,-371.4377)">
        <path
           d="M 0,500 H 750 V 0 H 0 Z"
           id="path18841" />
      </g>
    </clipPath>
    <clipPath
       clipPathUnits="userSpaceOnUse"
       id="clipPath18833">
      <g
         id="g18837"
         transform="translate(-561.4303,-334.0837)">
        <path
           d="M 0,500 H 750 V 0 H 0 Z"
           id="path18835" />
      </g>
    </clipPath>
  </defs>
  <g
     id="g22707"
     transform="matrix(1.035188,0,0,-1.035188,-531.10045,421.79113)"
     style="display:none">
    <path
       id="path16660"
       style="display:inline;fill:#773ffd;fill-opacity:1;fill-rule:nonzero;stroke:none"
       d="m 39.755362,24.857269 c -8.035517,0 -15.183367,-3.783744 -19.772979,-9.661968 -0.945718,0.373362 -1.883578,0.561493 -2.807461,0.583001 C 7.8793015,15.994701 -2.2556482e-5,-4.5952136e-4 -2.2556482e-5,-4.5952136e-4 c 0,0 9.466503756482,-17.99909347864 19.493741556482,-14.99010647864 4.561182,-6.246082 11.93532,-10.307231 20.261643,-10.307231 8.098453,0 15.295535,3.842406 19.880522,9.7997 10.350212,-3.68897 19.70883,15.28632321 19.70883,15.28632321 0,0 -7.993924,15.20746879 -17.071175,15.33726579 -0.799411,0.01143 -1.60732,-0.102304 -2.418794,-0.345273 -4.573107,6.117598 -11.874065,10.07705 -20.099383,10.07705 z"
       transform="translate(521.6754,359.382)" />
    <path
       id="path393"
       style="color:#000000;fill:#121628;stroke-linecap:round;stroke-linejoin:round;stroke-miterlimit:10;-inkscape-stroke:none"
       d="m 39.755362,25.759128 c -8.090756,0 -15.321833,-3.70915 -20.088063,-9.516689 -0.827873,0.26421 -1.655455,0.416833 -2.471623,0.435835 C 12.026203,16.798619 7.594184,12.585838 4.3941823,8.5275808 1.1941807,4.4693248 -0.80754496,0.39575474 -0.80754496,0.39575474 a 0.90008998,0.90008998 0 0 1 0.0113204,-0.81506934 c 0,0 2.94355885,-5.6291795 7.37147205,-10.1751594 2.2139565,-2.272993 4.8088125,-4.303429 7.6978775,-5.190407 0.722262,-0.221747 1.464249,-0.365965 2.218799,-0.418855 0.865155,-0.06065 1.745547,0.02028 2.628222,0.220748 4.726778,-6.174213 12.154872,-10.172648 20.514465,-10.211008 a 0.90008998,0.90008998 0 0 1 0.07924,-0.02264 0.90008998,0.90008998 0 0 1 0.0717,0.01887 c 8.146589,0.0093 15.416353,3.781073 20.174853,9.665741 1.120574,-0.312159 2.237645,-0.408486 3.324426,-0.303764 0.752832,0.07254 1.491347,0.236891 2.207479,0.477344 2.864539,0.961805 5.403053,3.059106 7.556372,5.388514 4.306639,4.6588071 7.103556,10.36005921 7.103556,10.36005921 a 0.90008998,0.90008998 0 0 1 -0.01132,0.81695607 c 0,0 -2.032013,3.87199852 -5.231915,7.77145972 -3.19991,3.899461 -7.584999,7.974893 -12.622255,8.046923 -0.691036,0.0099 -1.389976,-0.07028 -2.090502,-0.232068 -4.757785,6.062686 -12.145157,9.965732 -20.440882,9.965732 z m 0,-1.801832 c 8.500049,0 15.962574,-4.378088 20.272963,-11.001549 H 19.480512 c 4.310388,6.623461 11.7748,11.001549 20.27485,11.001549 z M 17.154168,14.878329 c 0.447078,-0.01041 0.897957,-0.06983 1.352789,-0.169806 -2.975778,-4.225644 -4.730044,-9.3723442 -4.730044,-14.92784373 0,-5.22961957 1.55465,-10.09736127 4.218739,-14.17503727 -1.072085,-0.119432 -2.132574,0.0042 -3.194242,0.330179 -2.430956,0.746335 -4.8424581,2.577277 -6.9356361,4.72627 C 3.934952,-5.302258 1.3626072,-0.58227644 1.0376815,0.02029456 1.3346476,0.60656926 3.0070784,3.8588151 5.8092332,7.4125207 8.8727404,11.297672 13.028146,14.974381 17.154168,14.878329 Z m 45.106164,-0.65281 c 4.039923,-0.05777 8.191837,-3.651801 11.258145,-7.3884524 2.795765,-3.4069679 4.480498,-6.48253219 4.790419,-7.05638733 -0.308462,-0.60974155 -2.759322,-5.39374497 -6.582817,-9.52989637 -2.035794,-2.2022719 -4.395183,-4.0943449 -6.805451,-4.9036229 -1.205138,-0.40464 -2.413587,-0.565603 -3.650832,-0.373574 -0.05196,0.0081 -0.104493,0.02419 -0.156599,0.03396 2.909765,4.196285 4.620613,9.2854876 4.620613,14.77313227 0,5.32334003 -1.608001,10.27349773 -4.360243,14.39578473 0.296187,0.03396 0.592108,0.05327 0.886765,0.04906 z M 20.086154,11.155802 H 59.420796 L 39.71574,-23.490305 Z m 41.196849,-0.367913 c 1.69008,-3.3017671 2.648976,-7.0397525 2.648976,-11.00720973 0,-12.84330027 -9.989003,-23.32661027 -22.629495,-24.12378827 z m -43.057169,-0.0019 19.901276,-35.123451 c -6.949612,0.461557 -13.087338,3.855224 -17.199473,8.952556 0.04202,0.01885 0.08442,0.02954 0.126412,0.04905 -0.05573,-0.0064 -0.106232,-0.0038 -0.160373,-0.0075 -3.324308,4.139458 -5.316818,9.3951349 -5.316818,15.12406427 0,3.96655103 0.959619,7.70410863 2.648976,11.00532273 z"
       transform="translate(521.6754,359.382)" />
  </g>
  <g
     id="g295"
     transform="matrix(1.035188,0,0,-1.035188,-531.10045,421.79113)">
    <path
       id="path291"
       style="display:inline;fill:#773ffd;fill-opacity:1;fill-rule:nonzero;stroke:none"
       d="M 39.755362 23.957296 C 31.25532 23.957296 23.790896 19.579201 19.480512 12.955747 L 60.028325 12.955747 C 55.71794 19.579201 48.255402 23.957296 39.755362 23.957296 z M 17.154168 14.878329 C 13.02815 14.974381 8.8727374 11.297668 5.8092332 7.4125207 C 3.0070812 3.8588186 1.3346473 0.60656867 1.0376815 0.020294559 C 1.3626068 -0.58227584 3.934956 -5.302262 7.8657739 -9.337909 C 9.9589498 -11.4869 12.370457 -13.317845 14.80141 -14.064179 C 15.863077 -14.390126 16.923568 -14.51379 17.995652 -14.394358 C 15.331566 -10.316686 13.776913 -5.4489351 13.776913 -0.21932073 C 13.776913 5.3361732 15.531182 10.482884 18.506957 14.708523 C 18.052125 14.808497 17.601246 14.867922 17.154168 14.878329 z M 62.260332 14.225519 C 61.965675 14.229732 61.669753 14.210421 61.373567 14.176464 C 64.125806 10.054181 65.73381 5.104014 65.73381 -0.21932073 C 65.73381 -5.7069599 64.022959 -10.796172 61.113197 -14.992453 C 61.165303 -15.002226 61.217835 -15.018349 61.269796 -15.026414 C 62.50704 -15.218443 63.715491 -15.05748 64.920628 -14.65284 C 67.330893 -13.843563 69.690287 -11.951487 71.726079 -9.7492171 C 75.549571 -5.6130699 78.000435 -0.82906167 78.308896 -0.21932073 C 77.998976 0.35453383 76.314239 3.4301021 73.518477 6.8370666 C 70.452172 10.573714 66.300251 14.167749 62.260332 14.225519 z M 20.086154 11.155802 L 39.71574 -23.490305 L 59.420796 11.155802 L 20.086154 11.155802 z M 61.283003 10.787889 L 41.302484 -24.343109 C 53.942964 -23.545932 63.931979 -13.062608 63.931979 -0.21932073 C 63.931979 3.7481325 62.973082 7.486125 61.283003 10.787889 z M 18.225834 10.786002 C 16.536478 7.4847913 15.576858 3.7472263 15.576858 -0.21932073 C 15.576858 -5.9482444 17.569372 -11.203931 20.893676 -15.343385 C 20.947817 -15.339605 20.998319 -15.342219 21.054049 -15.335838 C 21.012056 -15.355355 20.969661 -15.366048 20.927637 -15.384893 C 25.039768 -20.48222 31.177505 -23.875892 38.12711 -24.337449 L 18.225834 10.786002 z "
       transform="translate(521.6754,359.382)" />
  </g>
</svg>
