<svg width="48" height="48" viewBox="0 0 48 48" fill="none" xmlns="http://www.w3.org/2000/svg">
<mask id="mask0_903_442" style="mask-type:alpha" maskUnits="userSpaceOnUse" x="0" y="0" width="48" height="48">
<rect width="48" height="48" fill="#D9D9D9"/>
</mask>
<g mask="url(#mask0_903_442)">
<path d="M38.8214 23.7041L41.8048 28.872C42.4033 29.9087 42.7185 31.0847 42.7186 32.2817C42.7187 33.4788 42.4037 34.6547 41.8054 35.6915C41.207 36.7283 40.3463 37.5893 39.3098 38.1881C38.2732 38.7868 37.0973 39.1023 35.9003 39.1026H31.8802V43L22.1367 36.1796L31.8802 29.3592V33.2566H35.8984C36.0548 33.2575 36.2091 33.2206 36.3482 33.149C36.4873 33.0774 36.607 32.9732 36.6972 32.8454C36.7873 32.7175 36.8452 32.5698 36.8659 32.4147C36.8867 32.2597 36.8696 32.1019 36.8162 31.9549L36.7421 31.7951L33.7587 26.6271L38.8214 23.7041V23.7041ZM15.7782 18.4154L16.811 30.2634L13.4398 28.3147L11.4287 31.7951C11.3497 31.9301 11.3044 32.0822 11.2969 32.2385C11.2893 32.3948 11.3196 32.5506 11.3853 32.6926C11.4509 32.8346 11.55 32.9586 11.6739 33.0541C11.7978 33.1496 11.943 33.2137 12.0971 33.241L12.2725 33.2566H18.2394V39.1026H12.2725C11.0753 39.1026 9.89916 38.7874 8.86235 38.1888C7.82555 37.5902 6.96458 36.7292 6.36598 35.6924C5.76739 34.6555 5.45226 33.4794 5.45227 32.2822C5.45228 31.085 5.76742 29.9089 6.36603 28.872L8.37512 25.3917L5 23.443L15.7762 18.4154H15.7782ZM27.4956 5.91457C28.5323 6.51282 29.3936 7.37414 29.9919 8.41084L31.999 11.8912L35.3761 9.9425L34.3433 21.7905L23.5632 16.7629L26.9383 14.8142L24.9292 11.3339C24.8516 11.1981 24.7424 11.083 24.6107 10.9985C24.4791 10.914 24.329 10.8626 24.1732 10.8486C24.0174 10.8347 23.8606 10.8586 23.716 10.9183C23.5715 10.978 23.4435 11.0718 23.343 11.1916L23.2416 11.3339L20.2602 16.5018L15.1955 13.5788L18.177 8.41084C18.6249 7.63495 19.2212 6.95489 19.9319 6.4095C20.6426 5.86412 21.4538 5.4641 22.3192 5.23229C23.1845 5.00047 24.0871 4.94142 24.9753 5.05848C25.8635 5.17555 26.7199 5.46646 27.4956 5.91457V5.91457Z" fill="#2F353A"/>
</g>
</svg>
