<svg width="48" height="48" viewBox="0 0 48 48" fill="none" xmlns="http://www.w3.org/2000/svg">
<mask id="mask0_903_443" style="mask-type:alpha" maskUnits="userSpaceOnUse" x="0" y="0" width="48" height="48">
<rect width="48" height="48" fill="#D9D9D9"/>
</mask>
<g mask="url(#mask0_903_443)">
<path d="M18.1797 38.7161H43V40.9383C43 42.0429 42.1046 42.9383 41 42.9383H5V33.9809L25.9 13.0809L34.8553 22.0404L18.1776 38.7161H18.1797ZM28.883 10.0979L33.3628 5.61811C33.7587 5.22233 34.2955 5 34.8553 5C35.4151 5 35.952 5.22233 36.3479 5.61811L42.3202 11.5904C42.716 11.9863 42.9383 12.5232 42.9383 13.083C42.9383 13.6428 42.716 14.1797 42.3202 14.5756L37.8404 19.0532L28.8851 10.0979H28.883Z" fill="#2F353A"/>
</g>
</svg>
