<svg width="48" height="48" viewBox="0 0 48 48" fill="none" xmlns="http://www.w3.org/2000/svg">
<mask id="mask0_752_11" style="mask-type:alpha" maskUnits="userSpaceOnUse" x="0" y="0" width="48" height="48">
<rect width="48" height="48" fill="#2F353A"/>
</mask>
<g mask="url(#mask0_752_11)">
<path d="M23.05 40.3C22.005 40.3 21.0474 40.0384 20.1772 39.5153C19.3057 38.9934 18.6167 38.305 18.11 37.45C17.7617 36.8167 17.73 36.1833 18.015 35.55C18.3 34.9167 18.8383 34.6 19.63 34.6C19.9467 34.6 20.2633 34.695 20.58 34.885C20.8967 35.075 21.2292 35.3917 21.5775 35.835C21.7358 36.0567 21.9493 36.2232 22.2178 36.3347C22.4876 36.4449 22.765 36.5 23.05 36.5C23.5883 36.5 24.0399 36.3176 24.4047 35.9528C24.7682 35.5893 24.95 35.1383 24.95 34.6C24.95 34.0617 24.7682 33.6107 24.4047 33.2472C24.0399 32.8824 23.5883 32.7 23.05 32.7H6.9C6.36167 32.7 5.91073 32.5176 5.5472 32.1528C5.1824 31.7893 5 31.3383 5 30.8C5 30.2617 5.1824 29.8101 5.5472 29.4453C5.91073 29.0818 6.36167 28.9 6.9 28.9H23.05C24.6333 28.9 25.9792 29.4542 27.0875 30.5625C28.1958 31.6708 28.75 33.0167 28.75 34.6C28.75 36.1833 28.1958 37.5292 27.0875 38.6375C25.9792 39.7458 24.6333 40.3 23.05 40.3ZM6.9 21.3C6.36167 21.3 5.91073 21.1176 5.5472 20.7528C5.1824 20.3893 5 19.9383 5 19.4C5 18.8617 5.1824 18.4101 5.5472 18.0453C5.91073 17.6818 6.36167 17.5 6.9 17.5H30.65C31.4733 17.5 32.1542 17.2308 32.6925 16.6925C33.2308 16.1542 33.5 15.4733 33.5 14.65C33.5 13.8267 33.2308 13.1458 32.6925 12.6075C32.1542 12.0692 31.4733 11.8 30.65 11.8C30.1117 11.8 29.6291 11.9191 29.2022 12.1572C28.7741 12.3941 28.4333 12.7342 28.18 13.1775C27.9267 13.6525 27.6258 14.0167 27.2775 14.27C26.9292 14.5233 26.5808 14.65 26.2325 14.65C25.5675 14.65 25.045 14.4125 24.665 13.9375C24.285 13.4625 24.19 12.9558 24.38 12.4175C24.8233 11.0875 25.6074 10.0184 26.7322 9.2103C27.8557 8.40343 29.1617 8 30.65 8C32.5183 8 34.0941 8.64093 35.3772 9.9228C36.6591 11.2059 37.3 12.7817 37.3 14.65C37.3 16.5183 36.6591 18.0934 35.3772 19.3753C34.0941 20.6584 32.5183 21.3 30.65 21.3H6.9ZM39.105 35.93C38.44 36.215 37.8143 36.1916 37.2278 35.8597C36.6426 35.5266 36.35 34.98 36.35 34.22C36.35 33.8717 36.4767 33.5309 36.73 33.1978C36.9833 32.8659 37.3475 32.5733 37.8225 32.32C38.2658 32.0667 38.6059 31.7259 38.8428 31.2978C39.0809 30.8709 39.2 30.3883 39.2 29.85C39.2 29.0267 38.9308 28.3458 38.3925 27.8075C37.8542 27.2692 37.1733 27 36.35 27H6.9C6.36167 27 5.91073 26.8176 5.5472 26.4528C5.1824 26.0893 5 25.6383 5 25.1C5 24.5617 5.1824 24.1101 5.5472 23.7453C5.91073 23.3818 6.36167 23.2 6.9 23.2H36.35C38.2183 23.2 39.7941 23.8409 41.0772 25.1228C42.3591 26.4059 43 27.9817 43 29.85C43 31.2117 42.6441 32.4308 41.9322 33.5075C41.2191 34.5842 40.2767 35.3917 39.105 35.93Z" fill="#2F353A"/>
</g>
</svg>
