<svg width="48" height="48" viewBox="0 0 48 48" fill="none" xmlns="http://www.w3.org/2000/svg">
<mask id="mask0_752_10" style="mask-type:alpha" maskUnits="userSpaceOnUse" x="0" y="0" width="48" height="48">
<rect width="48" height="48" fill="#2F353A"/>
</mask>
<g mask="url(#mask0_752_10)">
<path d="M24 7C24.9277 7 25.7887 7.475 26.2785 8.26172L42.3617 33.8969C42.7773 34.5574 43 35.3219 43 36.1012C43 38.3945 41.1445 40.25 38.8512 40.25H9.14883C6.85547 40.25 5 38.3945 5 36.1012C5 35.3219 5.22266 34.5574 5.63828 33.8969L21.7141 8.26172C22.2039 7.475 23.0723 7 24 7ZM28.8242 21.25L24 13.5609L18.1293 22.9199L20.4375 26L24 21.25H28.8242Z" fill="#2F353A"/>
</g>
</svg>
