<svg width="33" height="26" viewBox="0 0 33 26" fill="none" xmlns="http://www.w3.org/2000/svg">
<path d="M3.14542 25.3979C-0.521418 23.4392 0.0227414 18.3559 4.18097 15.7243C7.31984 13.7378 8.78333 12.5014 9.85166 10.9336C10.4439 10.0645 11.043 8.98989 11.1831 8.54553C11.4187 7.79862 11.4277 7.82187 11.3031 8.8534C11.1003 10.5324 9.78469 12.7738 8.21565 14.1134C4.50341 17.2829 4.14016 17.7111 3.61715 19.5348C3.34694 20.4769 3.75245 21.8439 4.40591 22.1936C5.10187 22.5661 5.15644 22.5202 5.15644 21.5632C5.15644 19.7641 7.19453 18.9973 8.44335 20.3266C8.91524 20.8289 9.05275 21.2502 9.05275 22.1935C9.05275 25.1136 5.85767 26.8467 3.14542 25.3979ZM24.1912 19.4069C22.684 19.1659 21.1669 18.2836 19.1637 16.4831C17.329 14.8339 15.0264 13.286 13.8118 12.8851C13.1364 12.6622 12.6829 12.6796 11.7066 12.9658L10.4622 13.3306L11.1915 12.4194C12.3519 10.9697 12.7434 9.71543 13.1056 6.28647C13.4708 2.82983 13.7622 1.99701 14.9584 0.990394C16.5228 -0.325911 18.4381 -0.216221 21.0086 1.33689C23.1612 2.63752 24.7306 3.13364 25.7592 2.83865C26.4682 2.63529 26.5032 2.65503 26.2553 3.11833C25.8634 3.85065 24.507 4.59338 23.5597 4.59446C22.6934 4.59517 21.5483 4.09035 19.5648 2.83241C18.8945 2.40735 18.0365 2.08164 17.587 2.08164C15.7111 2.08164 14.7131 4.47191 16.1252 5.58265C17.0181 6.28504 18.4724 6.25692 21.7004 5.47488C26.0634 4.41786 28.3656 4.7422 30.3241 6.6898C33.5229 9.87085 33.4861 14.5818 30.2389 17.575C28.5653 19.1177 26.4291 19.7647 24.1912 19.4069Z" fill="white"/>
</svg>
