<svg width="33" height="32" viewBox="0 0 33 32" fill="none" xmlns="http://www.w3.org/2000/svg">
<path d="M15.2779 31.3303C15.6834 30.8843 15.9307 30.0653 16.0181 28.8786C16.1396 27.2296 16.0792 27.0276 15.2101 26.1742C14.287 25.2678 12.4963 24.546 11.0208 24.4854L10.2721 24.4546L11.0572 24.2077C12.5022 23.7533 14.8185 23.8933 17.19 24.5784C19.2557 25.1752 19.7784 25.2173 21.5017 24.9263C26.8066 24.0302 30.3609 20.6745 32.0841 14.9352L32.6796 12.9519L32.6982 14.8022C32.7869 23.6538 25.7816 31.2712 17.0244 31.8455L14.669 32L15.2779 31.3303ZM0.783452 23.6857C0.428271 22.7769 1.25942 17.0019 2.05523 14.8492C3.06931 12.106 4.13939 10.5782 5.86156 9.41474C10.7158 6.1354 16.123 7.30788 17.6448 11.9698C18.1117 13.4001 17.8607 14.9218 16.9756 16.0266L16.3151 16.8511L15.7722 15.2764C15.1145 13.3688 14.1642 12.3131 12.8771 12.0604C11.4981 11.7896 9.53191 12.3977 8.49508 13.4158C7.36976 14.5207 7.30238 16.3104 8.2745 19.2741C8.87228 21.0966 8.89825 21.4225 8.50969 22.2256C7.84443 23.6006 6.29115 24.2067 3.4313 24.2073C1.42476 24.2076 0.95095 24.1143 0.783452 23.6857ZM15.6111 22.8659C12.068 21.8615 9.96404 19.4952 9.59196 16.0962L9.41654 14.4938L10.258 15.7301C11.7344 17.8994 14.0507 18.9603 17.3179 18.9636C21.998 18.968 24.6464 15.095 22.6843 11.1152C21.9141 9.55311 20.648 8.7888 18.8305 8.7888C17.8273 8.7888 17.2737 8.61288 16.8582 8.16208C14.8086 5.93829 10.8834 5.25775 7.13141 6.47568C6.78594 6.58782 7.53854 5.69948 8.80385 4.5016C10.3646 3.02401 11.8743 1.95003 13.4985 1.16183C15.8097 0.0402559 16.0074 0 19.2066 0C22.2605 0 22.6807 0.0747393 24.562 0.953001C27.2867 2.22501 28.3485 3.16168 29.5274 5.33349C33.0323 11.7903 30.3242 20.3494 24.0468 22.6556C22.1028 23.3697 17.7696 23.4778 15.6111 22.8659Z" fill="white"/>
</svg>
