<svg width="33" height="22" viewBox="0 0 33 22" fill="none" xmlns="http://www.w3.org/2000/svg">
<path d="M11.1218 21.5863C8.65734 21.057 5.94146 19.571 4.17829 17.7872C3.33756 16.9366 2.46102 15.9057 2.23044 15.4963L1.81118 14.752L2.57861 15.2039C3.03521 15.4728 4.22819 15.7687 5.52413 15.9345C8.00256 16.2516 8.6505 16.6551 9.96114 18.6975C10.7679 19.9548 11.6942 20.6344 13.662 21.413L14.9517 21.9233L13.7911 21.9167C13.1528 21.9135 11.9516 21.7646 11.1218 21.5863ZM19.723 21.413C21.6909 20.6344 22.6171 19.9548 23.4239 18.6975C24.7346 16.6551 25.3825 16.2516 27.861 15.9345C29.1569 15.7687 30.3499 15.4728 30.8065 15.2039L31.5739 14.752L31.1546 15.4963C30.924 15.9057 30.0475 16.9366 29.2068 17.7872C26.7907 20.2315 22.7421 21.9561 19.4779 21.9313L18.4334 21.9233L19.723 21.413ZM15.1838 20.9344C11.5511 19.7476 9.03993 17.2023 9.03496 14.7018C9.02969 12.1737 11.57 10.924 16.6925 10.9343C20.3154 10.9416 22.1314 11.4066 23.4556 12.6663C24.2276 13.4007 24.3523 13.6593 24.3523 14.5265C24.3523 16.6376 22.3867 19.0583 19.6458 20.3227C17.8797 21.1374 16.4184 21.3377 15.1838 20.9344ZM2.74202 14.4526C1.5004 13.6163 0.845173 12.1933 0.721997 10.0655C0.492145 6.09499 1.99633 2.46292 4.65437 0.570233L5.35912 0.0684204L4.90344 0.968938C4.18923 2.38029 3.9013 4.11141 4.15673 5.45827C4.41295 6.80937 4.7634 7.53959 6.17297 9.65938C7.28172 11.3268 7.58175 12.424 7.20043 13.417C6.63176 14.8978 4.2309 15.4555 2.74202 14.4526ZM27.1899 14.5187C25.6352 13.5708 25.6423 12.0202 27.2121 9.65938C28.6217 7.53959 28.9721 6.80937 29.2284 5.45827C29.4838 4.11141 29.1959 2.38029 28.4817 0.968938L28.026 0.0684204L28.7307 0.570233C29.7766 1.31493 31.0243 2.85943 31.6484 4.18195C32.8949 6.82311 33.0597 10.9724 31.9949 12.9014C30.9161 14.8555 28.8712 15.5438 27.1899 14.5187ZM8.10789 11.1462C8.10592 11.0142 7.73103 10.3353 7.27476 9.63743L6.44521 8.36864L6.59781 6.09439C6.72392 4.21523 6.68567 3.72127 6.37754 3.251C5.88346 2.49694 6.20338 2.53227 7.34267 3.35756C9.61676 5.0049 10.2536 7.4946 9.01038 9.87738C8.43489 10.9804 8.11216 11.4341 8.10789 11.1462ZM24.5407 10.1812C23.1162 7.51616 23.65 5.09059 26.0424 3.35756C27.0706 2.61273 27.6039 2.4674 27.108 3.06718C26.878 3.34547 26.7895 4.21023 26.7895 6.1807C26.7895 8.63917 26.7406 8.96251 26.2954 9.45117C26.0237 9.74941 25.652 10.2869 25.4694 10.6455L25.1373 11.2975L24.5407 10.1812Z" fill="white"/>
</svg>
