<svg width="32" height="32" viewBox="0 0 32 32" fill="none" xmlns="http://www.w3.org/2000/svg">
<path d="M17.61 30.7149C19.1047 28.4561 18.8806 24.7139 17.1571 23.1542C16.6047 22.6542 16.6728 22.5457 18.9684 20.2701C22.2698 16.9975 23.6159 14.276 23.82 10.4619C23.8998 8.97078 23.8288 7.16224 23.6613 6.44294C23.4942 5.72365 23.4702 5.13513 23.6079 5.13513C23.7456 5.13513 24.6735 5.95036 25.6699 6.94673C30.466 11.7428 31.4016 18.4438 28.1365 24.6113C26.3176 28.047 21.7992 31.3092 18.1706 31.8066L16.7596 32L17.61 30.7149ZM7.07239 29.4187C5.68282 28.7309 5.17007 27.8384 5.75765 27.1304C6.30541 26.4704 8.08613 26.2402 9.17019 26.6892C10.2046 27.1177 11.7778 29.214 11.4559 29.7349C11.1108 30.2934 8.45196 30.1016 7.07239 29.4187ZM2.05948 26.2734C1.30163 26.015 0.817263 25.5681 0.424923 24.7654C-0.127306 23.6355 -0.124869 23.6031 0.678662 21.3805C1.12487 20.1462 1.82832 17.7074 2.24193 15.9608C3.18902 11.9616 4.07648 10.2078 6.05195 8.43169C9.86154 5.00654 14.9347 5.41285 17.965 9.3858C20.3508 12.5138 19.9818 16.3198 16.9493 19.8626C15.6015 21.4372 14.3694 22.0908 11.0788 22.977C9.00723 23.5349 8.31089 23.8898 7.16615 24.9711C5.3992 26.6401 4.10364 26.9705 2.05948 26.2734ZM20.0933 10.1769C19.7725 9.39692 19.0555 8.30432 18.5001 7.74888L17.4902 6.73898L18.1602 6.12691C19.0211 5.34044 20.4663 4.61381 21.4458 4.47492C22.2102 4.36653 22.2149 4.38059 22.182 6.67701C22.1575 8.39027 21.9767 9.32565 21.4833 10.2927C21.1173 11.0102 20.786 11.5967 20.7471 11.5961C20.7082 11.5954 20.414 10.9568 20.0933 10.1769ZM14.8144 5.51044C14.3452 5.26465 12.9798 4.97444 11.78 4.86554L9.59861 4.66751L11.1372 3.52309C14.8213 0.782799 19.8829 -0.489852 24.4635 0.172431C26.7665 0.505413 30.694 1.7339 31.3523 2.32722C31.4697 2.43298 30.0635 2.54955 28.2274 2.58625C23.8624 2.67351 20.9068 3.30493 18.018 4.76732C15.8052 5.88754 15.6173 5.93113 14.8144 5.51044Z" fill="white"/>
</svg>
