<svg width="31" height="32" viewBox="0 0 31 32" fill="none" xmlns="http://www.w3.org/2000/svg">
<path d="M15.1 30.242C15.1833 28.6339 15.1237 28.4114 14.4037 27.6414C13.9707 27.1783 13.4283 26.716 13.1985 26.6142C12.858 26.4632 12.8507 26.397 13.1595 26.2563C14.1312 25.8132 16.4917 23.6276 17.3096 22.4134C17.809 21.6721 18.4841 20.1885 18.8097 19.1165C19.3138 17.4568 19.3799 16.7092 19.2554 14.0805C19.0876 10.5413 19.2038 10.5381 20.8811 14.0346C22.0808 16.5355 22.5375 19.3442 22.1194 21.6498C21.2829 26.2626 19.0532 30.1606 16.5087 31.4588C15.9259 31.7561 15.35 31.9997 15.229 32C15.108 32.0003 15.0499 31.2092 15.1 30.242ZM19.56 30.1655C21.9908 27.4497 23.5039 23.6545 23.5039 20.2731C23.5039 18.1504 22.756 15.3126 21.5791 12.9699L20.5178 10.8575L21.3842 11.3049C22.8575 12.0657 25.3399 14.8495 26.3196 16.8396C27.1186 18.4626 27.2572 19.0622 27.3562 21.3269C27.4648 23.8106 27.4267 24.03 26.5911 25.7273C26.056 26.8143 25.1976 27.9709 24.3989 28.6814C23.0933 29.8427 20.4979 31.2299 18.9146 31.6126C18.1098 31.8072 18.1288 31.7644 19.56 30.1655ZM1.68364 27.1293C0.727276 26.173 0.371879 21.8445 1.04286 19.3252C2.01555 15.673 3.65892 13.5846 6.66821 12.1763C8.44925 11.3429 12.7322 10.4042 13.2615 10.7312C13.6944 10.9988 13.3128 13.415 12.6245 14.7642C12.2919 15.4162 11.4057 16.7508 10.6551 17.7301L9.2905 19.5106L9.36447 22.1101C9.44924 25.0884 9.12529 25.8017 7.18407 26.9118C5.84166 27.6794 2.37099 27.8167 1.68364 27.1293ZM10.8775 25.4077C10.5366 25.0668 10.6866 21.7747 11.0866 20.8172C11.6363 19.5015 12.2944 18.9851 14.3893 18.2252C16.3887 17.5 17.5166 16.8458 17.955 16.1569C18.4256 15.4176 17.9581 18.2656 17.3356 19.9289C16.6078 21.874 14.6576 23.9972 12.7848 24.8831C11.1149 25.6731 11.1369 25.6671 10.8775 25.4077ZM28.7166 22.1118C28.9871 18.3688 27.9275 15.1583 25.548 12.5117C23.8818 10.6585 22.3783 9.80835 19.9577 9.35064C18.017 8.98368 16.5408 8.29787 16.5408 7.76319C16.5408 7.30546 18.7435 5.86795 20.3998 5.24471C22.5939 4.41914 24.7604 4.58415 26.3356 5.6968C29.9061 8.21881 31.5809 14.0909 30.2411 19.3895C29.9249 20.6398 29.4208 22.2024 29.121 22.8621L28.5757 24.0615L28.7166 22.1118ZM13.4786 16.0539C13.481 14.6143 14.026 13.0285 14.9702 11.7131C15.4511 11.0431 16.0483 10.1865 16.2974 9.80949L16.7502 9.12401L17.3345 9.86681C18.9533 11.9248 18.0545 15.3108 15.5926 16.4289C13.8878 17.2031 13.4768 17.1302 13.4786 16.0539ZM2.38856 10.451C2.54466 7.47694 3.63828 5.05936 5.64269 3.25721C9.88252 -0.554749 15.9996 -1.05081 22.0417 1.92734C23.3055 2.55026 24.3395 3.16103 24.3395 3.28457C24.3395 3.40812 23.4661 3.58243 22.3987 3.67192C20.0296 3.87053 18.4266 4.55028 16.3629 6.23138C13.9043 8.23419 12.5885 8.88246 8.69417 10.0099C6.63149 10.6071 4.46455 11.4352 3.66697 11.931L2.26515 12.8024L2.38856 10.451Z" fill="white"/>
</svg>
