<svg width="33" height="22" viewBox="0 0 33 22" fill="none" xmlns="http://www.w3.org/2000/svg">
<path d="M14.0412 21.8117C14.0412 21.7587 14.4929 18.8434 15.0449 15.3333C15.5969 11.8232 16.1606 8.17881 16.2976 7.23474C16.4345 6.29065 16.6088 5.51823 16.6848 5.51823C16.7963 5.51823 17.5766 10.2057 19.3119 21.299L19.4072 21.9081H16.7242C15.2486 21.9081 14.0412 21.8647 14.0412 21.8117ZM3.90679 17.0274C2.6559 16.4023 1.3053 15.1897 0.792218 14.2311C0.594527 13.8617 0.660054 13.8307 1.49756 13.8975C2.14292 13.9489 2.9381 13.7656 4.13931 13.2884C6.32942 12.4184 7.96243 12.3844 10.1652 13.1631C11.0179 13.4646 12.1454 13.7117 12.6707 13.7122L13.6258 13.7128L12.9063 14.7147C11.4172 16.7882 9.64799 17.6876 7.04444 17.6947C5.48627 17.6991 5.07704 17.6122 3.90679 17.0274ZM23.619 17.2623C22.2856 16.657 21.3238 15.8736 20.4918 14.715L19.7723 13.7132L20.7274 13.7125C21.2527 13.7121 22.3801 13.4649 23.2328 13.1635C25.4356 12.3848 27.0687 12.4187 29.2588 13.2887C30.46 13.7659 31.2551 13.9492 31.9005 13.8978C32.738 13.8311 32.8035 13.8621 32.6059 14.2314C32.0928 15.1901 30.7422 16.4027 29.4913 17.0277C28.321 17.6125 27.9118 17.6996 26.3536 17.6954C25.064 17.6916 24.2975 17.5702 23.619 17.2623ZM5.14185 11.7067C6.02242 10.3648 6.70471 8.92436 6.98265 7.82054L7.25315 6.74631L7.54075 8.01265C7.87173 9.47 8.45578 10.7007 9.28284 11.6836L9.86129 12.3711L9.17447 12.1316C8.43972 11.8755 5.79947 11.9723 5.07789 12.2818C4.66866 12.4574 4.67261 12.4219 5.14185 11.7067ZM24.1152 11.6836C24.9423 10.7007 25.5263 9.47002 25.8573 8.01267L26.1449 6.74633L26.4149 7.81863C26.6843 8.88831 27.6477 10.9018 28.3823 11.9303C28.7591 12.4578 28.7576 12.4677 28.327 12.2839C27.5979 11.9726 24.9606 11.8748 24.2236 12.1317L23.5368 12.3711L24.1152 11.6836ZM6.10026 5.28012C4.84779 5.03387 3.43339 4.19455 2.5224 3.15698C1.75488 2.28283 0.847317 0.476523 1.06583 0.258013C1.13692 0.186923 1.19508 0.249289 1.19508 0.396654C1.19508 0.879174 3.26767 2.89309 4.30544 3.41897C6.58364 4.57342 8.6769 4.57148 11.2976 3.4125C14.8657 1.8345 18.8491 1.80144 21.8356 3.32502C22.2999 3.56189 23.2745 3.90804 24.0014 4.09427C26.935 4.84584 30.0922 3.498 32.0797 0.64557L32.4655 0.0918579L32.306 0.64557C31.8547 2.21188 30.5329 3.79826 29.0096 4.60165C26.9948 5.6643 23.073 5.77539 19.9154 4.85925C17.819 4.25101 15.7061 4.2826 12.8925 4.96424C10.5157 5.54008 8.0141 5.65641 6.10026 5.28012Z" fill="white"/>
</svg>
