<svg width="31" height="32" viewBox="0 0 31 32" fill="none" xmlns="http://www.w3.org/2000/svg">
<path d="M13.3165 31.7237C9.86964 31.1482 6.15443 29.2078 3.99854 26.8571C1.69879 24.3495 0.37938 20.138 0.709223 16.3578C0.928633 13.8434 1.37712 12.4577 1.41097 14.1897C1.44633 15.9976 2.21304 18.7855 3.16732 20.5759C4.79282 23.6257 7.87657 25.5696 11.089 25.5696H12.5837V27.0514C12.5837 28.7452 13.0726 29.8549 14.383 31.1361C14.8871 31.629 15.1807 32.0175 15.0355 31.9994C14.8902 31.9813 14.1167 31.8573 13.3165 31.7237ZM17.5812 31.004C15.92 30.5519 14.0881 28.1519 14.0767 26.4126C14.0611 24.0366 16.1366 21.2725 18.4587 20.5768C20.0361 20.1042 22.8805 20.1424 24.898 20.6632C26.6511 21.1158 30.0851 22.6019 30.0851 22.9081C30.0851 23.3837 27.9225 26.2528 26.5013 27.6627C24.4752 29.6727 22.0055 30.9214 19.7886 31.0566C18.8836 31.1118 17.8903 31.0881 17.5812 31.004ZM8.37898 24.4042C7.79945 24.2418 7.3253 23.9754 7.3253 23.8123C7.3253 23.1964 9.60835 21.367 10.768 21.0536C12.0432 20.7089 14.8169 20.8664 15.2591 21.3086C15.6743 21.7239 14.7062 22.9729 13.3554 23.7645C11.9827 24.569 9.91492 24.8348 8.37898 24.4042ZM4.80668 21.3934C3.27342 19.7602 2.30615 17.5935 2.09397 15.3167L1.96274 13.9087L2.50033 15.2193C3.58153 17.8551 5.17625 19.4082 7.66754 20.2516C9.0451 20.718 9.06744 20.7426 8.4171 21.0779C8.04842 21.268 7.39751 21.7493 6.97061 22.1475L6.19444 22.8715L4.80668 21.3934ZM23.4819 19.4979C19.9603 18.1119 17.303 17.9277 15.3471 18.9339C14.582 19.3276 13.9221 19.6158 13.8807 19.5743C13.6057 19.2994 16.5749 16.4997 17.7766 15.9009C20.387 14.6001 22.5505 15.0485 26.2721 17.6616C27.1885 18.3051 28.4509 18.9696 29.0773 19.1383L30.2164 19.445L29.5577 19.9784C28.5068 20.8293 26.4518 20.6668 23.4819 19.4979ZM30.0987 17.5615C30.0866 16.9434 29.8899 15.6449 29.6614 14.6761C28.4766 9.65049 25.2891 6.64035 20.7494 6.25976C18.8274 6.09862 18.7988 6.0845 18.9419 5.36615C19.1794 4.17416 18.5728 2.35848 17.5301 1.14039L16.554 0H17.4043C18.7531 0 22.4839 1.29195 24.3249 2.39656C27.3342 4.20217 28.9588 6.213 30.1073 9.55348C30.5999 10.9862 30.736 12.0158 30.739 14.3302C30.7406 15.9529 30.6027 17.5967 30.4317 17.983C30.1374 18.6476 30.1195 18.6249 30.0987 17.5615ZM29.0327 16.6905C28.4603 14.8058 26.9394 13.0822 24.9887 12.1074C24.0333 11.63 23.0506 11.2389 22.8048 11.2383C22.538 11.2377 22.6976 11.0275 23.2009 10.7166C23.6646 10.4302 24.279 9.93133 24.5663 9.60795L25.0886 9.02001L25.8803 9.6053C27.6997 10.9504 29.6616 14.9753 29.468 16.9653L29.3826 17.8425L29.0327 16.6905ZM8.29097 16.0472C7.66302 15.762 6.52504 15.0849 5.76212 14.5426C3.96874 13.2679 2.72537 12.6443 1.97713 12.6443C1.21246 12.6443 1.38805 12.0548 2.28976 11.5948C3.43399 11.0109 4.75713 11.19 8.29058 12.4068C12.4411 13.836 14.218 13.927 16.3525 12.8196L17.752 12.0935L17.1865 12.8877C16.3325 14.087 14.4048 15.7409 13.3445 16.1839C12.0331 16.7319 9.65684 16.6676 8.29097 16.0472ZM7.95261 11.5042C6.5592 11.2579 2.59709 9.85296 1.73316 9.29877C0.717844 8.64746 5.04562 3.50415 7.88023 1.99332C11.2154 0.215694 14.0906 0.246419 15.9234 2.07928C18.4503 4.60619 17.4694 9.10441 14.0266 10.777C12.3006 11.6156 10.0844 11.8809 7.95261 11.5042ZM16.5275 10.7647C15.7682 10.5663 15.936 10.046 17.1376 8.87262C18.5258 7.51713 20.3982 6.96728 22.3709 7.33582C23.1238 7.47646 23.8469 7.6987 23.9779 7.82968C24.3273 8.17906 22.8767 9.77344 21.6314 10.4088C20.6021 10.9338 17.8967 11.1225 16.5275 10.7647Z" fill="white"/>
</svg>
