<svg width="27" height="32" viewBox="0 0 27 32" fill="none" xmlns="http://www.w3.org/2000/svg">
<path d="M18.2015 31.6091C16.8048 30.9566 15.8804 29.527 15.5291 27.4762C15.2869 26.0625 15.3214 25.5799 15.801 23.6676C16.2181 22.0045 16.3502 20.7191 16.3502 18.3237C16.3502 15.0103 16.5491 14.3744 17.5851 14.3744C19.8269 14.3744 20.0049 19.6443 17.9344 24.7163C17.0402 26.9069 17.011 28.5173 17.8493 29.4097C18.228 29.8129 18.7363 30.0627 19.1777 30.0627C19.8859 30.0627 20.1276 29.7317 19.6397 29.4301C19.5005 29.3441 19.3867 29.1614 19.3867 29.0241C19.3867 28.5704 20.6192 27.5323 21.1579 27.5323C21.9508 27.5323 22.9292 28.6419 22.9292 29.5411C22.9292 31.5309 20.4011 32.6368 18.2015 31.6091ZM9.58702 27.596C6.21518 25.9777 3.48666 24.6233 3.52364 24.5863C3.56058 24.5494 6.21437 25.5528 9.42086 26.8162C14.7081 28.8995 15.2764 29.1811 15.5255 29.8411C15.6766 30.2413 15.7816 30.5619 15.7589 30.5536C15.7362 30.5453 12.9589 29.2144 9.58702 27.596ZM2.9393 24.3694C2.9393 24.2998 2.99626 24.2428 3.06582 24.2428C3.1354 24.2428 3.19234 24.2998 3.19234 24.3694C3.19234 24.4389 3.13539 24.4959 3.06582 24.4959C2.99625 24.4959 2.9393 24.4389 2.9393 24.3694ZM1.21097 22.6831C1.44333 22.4972 5.85251 19.4415 11.0091 15.8927C16.1658 12.3438 20.388 9.31592 20.3918 9.16399C20.3954 9.01206 19.9323 8.74797 19.362 8.57712C18.7918 8.40627 18.366 8.22579 18.4157 8.17604C18.6083 7.98346 25.7219 6.27728 26.3323 6.27728C26.7853 6.27728 26.9778 6.41317 26.9778 6.73296C26.9778 7.16097 22.5381 12.8519 21.8933 13.2504C21.6721 13.3872 21.6423 13.1241 21.7771 12.2246C21.9297 11.207 21.8983 11.038 21.5791 11.1605C21.1852 11.3117 13.2955 15.805 6.48182 19.7588C1.47964 22.6615 0.691913 23.0985 1.21097 22.6831ZM0.447779 13.3623L0.420166 6.15076L0.925469 6.78336C1.48503 7.48386 1.47061 8.54202 0.789296 16.7783L0.475327 20.5738L0.447779 13.3623ZM11.7956 10.9474C10.5776 10.3192 8.82166 9.6604 7.747 9.42847C5.02169 8.8403 4.42181 8.6296 3.11714 7.80221C0.810475 6.33936 -0.105704 3.63046 0.998229 1.53713C2.03982 -0.437971 4.75699 -0.531408 5.48479 1.38284C5.78632 2.17592 5.20984 3.37046 4.42675 3.57524C3.80597 3.73758 2.9393 3.37208 2.9393 2.94793C2.9393 2.76753 2.80865 2.78125 2.55976 2.9878C2.351 3.16105 2.18021 3.67077 2.18021 4.12051C2.18021 5.73003 3.90453 6.77885 6.55574 6.78194C10.5426 6.78624 15.8442 9.07665 15.8442 10.7942C15.8442 12.4249 14.7411 12.4667 11.7956 10.9474Z" fill="white"/>
</svg>
