<svg width="23" height="32" viewBox="0 0 23 32" fill="none" xmlns="http://www.w3.org/2000/svg">
<path d="M5.06143 30.3162C5.21869 28.2369 5.61491 27.2575 6.83385 25.9351C8.448 24.1839 10.1332 23.7245 11.6192 24.6306C12.0307 24.8815 12.3674 25.1241 12.3674 25.1698C12.3674 25.2155 11.9057 25.2429 11.3414 25.2307C10.1369 25.2048 9.71228 25.6215 9.48739 27.0504C9.16448 29.1019 8.94503 29.459 7.62201 30.0854C6.93587 30.4103 6.12383 30.974 5.81748 31.3381C5.51114 31.7021 5.18705 32 5.09729 32C5.00753 32 4.9914 31.2423 5.06143 30.3162ZM9.26278 31.1238C9.59899 30.629 9.83733 29.9475 9.84055 29.4717C9.84912 28.2077 10.2309 26.8612 10.6722 26.5385C11.2348 26.1272 12.289 26.1686 12.4579 26.6088C13.1529 28.4198 11.5332 31.1507 9.40153 31.7621L8.6905 31.966L9.26278 31.1238ZM1.04798 27.0595C1.96924 26.0103 2.72689 24.6719 3.5958 22.559C5.10774 18.8825 6.93023 17.6355 13.5185 15.7698C17.8934 14.5309 20.1853 13.5456 21.5407 12.3211C22.0666 11.846 22.4969 11.5797 22.4969 11.7294C22.4969 12.4985 20.7987 15.5437 19.7536 16.6487C18.2484 18.2403 16.7903 19.0172 14.2795 19.5655C10.3606 20.4212 9.07205 21.1558 7.27505 23.5586C5.6719 25.7021 4.55193 26.5641 2.47981 27.2489C1.46931 27.5829 0.576389 27.8561 0.495543 27.8561C0.414698 27.8561 0.663294 27.4976 1.04798 27.0595ZM13.2879 26.0855C13.2872 24.1858 11.9242 22.6921 10.1825 22.6821C9.22342 22.6769 9.18355 22.6509 9.46764 22.2216C9.95464 21.4856 11.6398 20.7194 12.7717 20.7194C15.0232 20.7194 15.9178 23.3008 14.4619 25.5965C13.5424 27.0463 13.2884 27.1521 13.2879 26.0855ZM19.8652 11.9137C20.2129 11.5022 20.7601 10.5957 21.0812 9.89934C21.5701 8.83887 21.6645 8.29654 21.6621 6.56123C21.6591 4.39564 21.3014 3.20147 20.1542 1.5276C19.7042 0.870967 19.7471 0.888936 20.629 1.72671C23.753 4.69433 23.6647 9.84123 20.4516 12.0679C19.2983 12.8671 19.1029 12.8158 19.8652 11.9137ZM5.788 8.10072C6.00549 5.4724 6.88407 3.7937 8.46399 2.98768C9.59955 2.40836 10.4033 2.41002 10.9861 2.9929C12.0508 4.05752 11.1986 5.75339 9.05688 6.83229C7.39061 7.67168 6.63531 8.24421 6.10758 9.06794L5.64868 9.78424L5.788 8.10072ZM19.2739 2.05496C17.8988 0.87917 17.071 0.764327 15.0362 1.46704C13.8076 1.89129 12.8206 2.07051 11.7323 2.06692L10.1804 2.0617L10.7559 1.61501C11.7413 0.850249 14.3601 0 15.7301 0C17.4413 0 19.2582 1.00585 19.9924 2.3597C20.2805 2.89087 20.223 2.86657 19.2739 2.05496Z" fill="white"/>
</svg>
