<svg width="33" height="32" viewBox="0 0 33 32" fill="none" xmlns="http://www.w3.org/2000/svg">
<path d="M3.61717 31.9557C2.9861 31.9033 2.46979 31.7395 2.46979 31.5918C2.46979 31.0887 4.56806 28.2411 5.67059 27.2481C7.07468 25.9835 8.68178 25.1877 12.0538 24.0876C14.9306 23.149 17.6657 21.9133 18.5052 21.173C18.7868 20.9246 19.3795 20.237 19.8223 19.6448L20.6275 18.5682L20.4691 20.5717C20.1456 24.662 17.8 27.6459 13.1688 29.8584C9.806 31.4648 6.48415 32.1943 3.61717 31.9557ZM1.11688 31.0781C0.67959 30.2635 0.904395 27.0712 1.52398 25.297C2.70887 21.9041 5.04698 18.0911 7.27236 15.9226L8.60633 14.6227L8.74305 16.0412C8.85414 17.1938 9.03608 17.5989 9.71379 18.2026C11.9682 20.2108 16.7749 19.7748 19.1406 17.3476C20.1475 16.3146 20.2311 16.4286 19.5009 17.8388C18.3724 20.0183 16.038 21.5795 12.1888 22.729C7.28248 24.1942 3.84108 26.7102 2.27408 29.9775C1.48353 31.6258 1.43544 31.6715 1.11688 31.0781ZM12.6322 17.9016C10.0647 17.0885 9.67151 14.3316 11.8101 12.1363C13.6221 10.2762 15.1963 9.78886 21.4084 9.16502C23.676 8.93731 26.0373 8.53514 26.9428 8.22243C30.0361 7.15417 30.8326 5.03686 29.8597 0.467979C29.7118 -0.22706 29.7692 -0.200355 30.798 0.904426C32.4944 2.72618 32.9613 5.41602 32.0539 8.13964C31.0597 11.1236 28.5919 12.794 23.3927 14.0024C20.8223 14.5997 20.2177 14.8509 18.8963 15.8701C18.0566 16.5177 16.9957 17.2404 16.5387 17.476C15.4888 18.0173 13.6353 18.2192 12.6322 17.9016Z" fill="white"/>
</svg>
