<svg width="33" height="22" viewBox="0 0 33 22" fill="none" xmlns="http://www.w3.org/2000/svg">
<path d="M2.38214 20.8643C2.09174 20.1535 2.19219 15.8464 2.5215 14.8885L2.8235 14.0101L3.92517 14.1563C5.21601 14.3275 7.5836 13.7922 8.7651 13.062C10.0453 12.2708 10.5912 10.7009 9.98186 9.56243C9.65408 8.94996 9.81246 8.82092 10.6628 9.00767C11.4783 9.18679 12.6036 10.1982 13.1888 11.2782C13.8546 12.5068 13.7436 15.2182 12.9658 16.7269C11.6407 19.2967 8.72161 20.8322 4.5515 21.1527C2.73747 21.2922 2.54657 21.2668 2.38214 20.8643ZM12.3065 19.475C14.5768 17.3731 15.5376 14.629 15.0959 11.508C14.7242 8.88162 13.3869 7.16081 11.2531 6.56338C8.33329 5.74589 4.8809 7.7916 5.19065 10.1556C5.33936 11.2906 5.98111 11.9488 7.13088 12.1458L8.0219 12.2984L6.77531 12.7209C5.22623 13.2458 3.26809 13.1356 2.38116 12.4734C1.18538 11.5806 0.825172 10.849 0.727149 9.11426C0.644594 7.6533 0.711642 7.32586 1.36495 5.99878C1.76647 5.18316 2.48092 4.177 2.9526 3.76286C5.32731 1.67784 9.51867 0.978122 13.7256 1.96439C15.3119 2.33629 17.158 3.39335 19.2044 5.10147C20.2196 5.94891 21.4712 6.83351 21.9858 7.06724C23.1544 7.59813 24.928 7.62152 25.9849 7.11998C27.8535 6.2333 28.584 3.56736 27.3081 2.29142C26.9679 1.95127 26.4179 1.61353 26.0858 1.54091C25.7538 1.46828 25.3773 1.37987 25.2493 1.34442C25.1213 1.30898 25.4871 1.15011 26.0624 0.991386C28.5404 0.307663 30.668 1.22628 31.9764 3.5448C32.6518 4.7416 32.699 4.97805 32.699 7.16532C32.699 9.41796 32.6649 9.57439 31.787 11.3506C30.1112 14.7414 26.2387 17.9338 21.955 19.4556C19.4429 20.3482 16.7797 20.7722 13.6866 20.7722H10.9054L12.3065 19.475Z" fill="white"/>
</svg>
