<svg width="48" height="48" viewBox="0 0 48 48" fill="none" xmlns="http://www.w3.org/2000/svg">
<mask id="mask0_752_14" style="mask-type:alpha" maskUnits="userSpaceOnUse" x="0" y="0" width="48" height="48">
<rect width="48" height="48" fill="#2F353A"/>
</mask>
<g mask="url(#mask0_752_14)">
<path d="M32.55 6C38.3222 6 43 10.75 43 17.4C43 30.7 28.75 38.3 24 41.15C19.25 38.3 5 30.7 5 17.4C5 10.75 9.75 6 15.45 6C18.984 6 22.1 7.9 24 9.8C25.9 7.9 29.016 6 32.55 6ZM25.7746 35.6476C27.3653 34.6553 28.9002 33.5764 30.3726 32.4157C36.0365 27.9127 39.2 22.9917 39.2 17.4C39.2 12.916 36.2797 9.8 32.55 9.8C30.5056 9.8 28.294 10.883 26.6866 12.4866L24 15.1732L21.3134 12.4866C19.706 10.883 17.4944 9.8 15.45 9.8C11.764 9.8 8.8 12.9464 8.8 17.4C8.8 22.9936 11.9654 27.9127 17.6255 32.4157C19.041 33.5405 20.5515 34.5912 22.2254 35.6457C22.7935 36.0048 23.3559 36.3487 24 36.7325C24.6441 36.3487 25.2065 36.0048 25.7746 35.6476V35.6476Z" fill="#2F353A"/>
</g>
</svg>
