<svg width="48" height="48" viewBox="0 0 48 48" fill="none" xmlns="http://www.w3.org/2000/svg">
<mask id="mask0_752_17" style="mask-type:alpha" maskUnits="userSpaceOnUse" x="0" y="0" width="48" height="48">
<rect width="48" height="48" fill="#2F353A"/>
</mask>
<g mask="url(#mask0_752_17)">
<path d="M38.9282 24.9997C38.0866 25.0009 37.266 25.2624 36.5788 25.7483C35.8917 26.2342 35.3717 26.9208 35.0901 27.7139H31.7634L29.3588 20.4991C29.2671 20.2242 29.0898 19.9859 28.8528 19.819C28.6159 19.6521 28.3318 19.5655 28.0421 19.5717C27.7523 19.578 27.4722 19.6768 27.2427 19.8538C27.0132 20.0307 26.8464 20.2765 26.7666 20.5551L22.9913 33.7667L18.5526 7.13308C18.5011 6.82557 18.3454 6.54516 18.1115 6.33901C17.8776 6.13285 17.5798 6.01352 17.2683 6.00108C16.9567 5.98864 16.6504 6.08385 16.4008 6.27069C16.1512 6.45754 15.9736 6.72463 15.8977 7.02705L10.7262 27.7139H6.35713C5.9972 27.7139 5.652 27.8569 5.39749 28.1114C5.14298 28.3659 5 28.7111 5 29.0711C5 29.431 5.14298 29.7762 5.39749 30.0307C5.652 30.2852 5.9972 30.4282 6.35713 30.4282H11.7856C12.0883 30.4281 12.3822 30.3269 12.6207 30.1407C12.8592 29.9544 13.0287 29.6938 13.1021 29.4002L16.9478 14.0163L21.3042 40.1512C21.3544 40.4555 21.5068 40.7336 21.7362 40.9398C21.9656 41.1459 22.2584 41.2677 22.5663 41.2852H22.6435C22.9382 41.285 23.2248 41.1888 23.4599 41.0113C23.6951 40.8338 23.8662 40.5846 23.9472 40.3013L28.1713 25.5188L29.4979 29.5002C29.5879 29.7705 29.7608 30.0055 29.9919 30.1721C30.2229 30.3386 30.5006 30.4282 30.7854 30.4282H35.0901C35.3389 31.1319 35.7764 31.7537 36.3547 32.2256C36.9331 32.6975 37.63 33.0013 38.3694 33.1038C39.1087 33.2064 39.862 33.1037 40.547 32.807C41.2319 32.5103 41.8221 32.031 42.253 31.4215C42.6839 30.812 42.939 30.0958 42.9904 29.3511C43.0417 28.6065 42.8873 27.862 42.5442 27.1992C42.201 26.5363 41.6822 25.9805 41.0444 25.5926C40.4067 25.2047 39.6746 24.9996 38.9282 24.9997Z" fill="#2F353A" stroke="#2F353A" stroke-width="0.3"/>
</g>
</svg>
