<?xml version="1.0" encoding="UTF-8" standalone="no"?>
<!-- Created with Inkscape (http://www.inkscape.org/) -->

<svg
   version="1.1"
   id="svg2210"
   width="100"
   height="100"
   viewBox="0 0 100 100"
   sodipodi:docname="pisces.png"
   xmlns:inkscape="http://www.inkscape.org/namespaces/inkscape"
   xmlns:sodipodi="http://sodipodi.sourceforge.net/DTD/sodipodi-0.dtd"
   xmlns="http://www.w3.org/2000/svg"
   xmlns:svg="http://www.w3.org/2000/svg">
  <defs
     id="defs2214" />
  <sodipodi:namedview
     id="namedview2212"
     pagecolor="#505050"
     bordercolor="#ffffff"
     borderopacity="1"
     inkscape:showpageshadow="0"
     inkscape:pageopacity="0"
     inkscape:pagecheckerboard="1"
     inkscape:deskcolor="#505050"
     showgrid="false" />
  <g
     inkscape:groupmode="layer"
     inkscape:label="Image"
     id="g2216">
    <path
       fill="#2F353A"
       style="stroke:#2f353a;stroke-width:2;stroke-dasharray:none;stroke-opacity:0"
       d="m 22.243305,90.251434 c -0.766494,-1.432206 -0.561852,-2.313646 1.131085,-4.871847 5.43384,-8.211085 8.507208,-16.585542 9.688824,-26.400554 L 33.739681,53.36 h -6.120287 c -5.260583,0 -6.246581,-0.235986 -7.019394,-1.68 -0.638812,-1.193631 -0.638812,-2.166369 0,-3.36 0.772813,-1.444014 1.758811,-1.68 7.019394,-1.68 h 6.120287 L 33.058407,40.981042 C 31.984066,32.0571 28.212304,21.622406 23.794346,15.351737 c -0.923035,-1.310119 -1.511262,-3.30791 -1.360308,-4.62 C 22.666949,8.7072814 23.060315,8.42 25.599431,8.42 c 2.436887,0 3.268693,0.5360189 5.214129,3.36 4.563026,6.623657 8.869835,19.326087 9.825782,28.98 l 0.540658,5.46 8.066688,0.23893 8.066687,0.238932 0.534001,-5.698932 C 58.818509,30.634842 63.326328,17.840898 68.676694,10.263514 69.997593,8.3928079 70.884765,7.9599011 72.9803,8.1635137 c 3.832835,0.3724172 3.897319,3.3421253 0.207889,9.5740693 -3.652338,6.169294 -7.016506,16.372948 -7.746104,23.494238 L 64.888,46.64 h 5.966446 c 5.106743,0 6.095997,0.24207 6.865554,1.68 0.638812,1.193631 0.638812,2.166369 0,3.36 -0.769557,1.43793 -1.758811,1.68 -6.865554,1.68 H 64.888 l 0.564048,5.505424 c 0.789736,7.708279 4.048998,17.448085 8.069276,24.113795 2.811684,4.661835 3.25716,5.96091 2.517828,7.342366 C 74.634168,92.946823 70.656373,92.536432 68.527423,89.5466 63.30881,82.217733 58.812595,69.360654 57.845426,59.00107 L 57.313375,53.302138 49.246688,53.54107 41.18,53.78 40.956059,57.14 C 40.302565,66.944959 35.671145,80.965621 30.698189,88.193564 28.602035,91.240219 27.590243,92 25.6292,92 24.006787,92 22.86298,91.409308 22.243305,90.251434 Z"
       id="path2337" />
  </g>
</svg>
