<svg width="48" height="48" viewBox="0 0 48 48" fill="none" xmlns="http://www.w3.org/2000/svg">
<mask id="mask0_749_7" style="mask-type:alpha" maskUnits="userSpaceOnUse" x="0" y="0" width="48" height="48">
<rect width="48" height="48" fill="#D9D9D9"/>
</mask>
<g mask="url(#mask0_749_7)">
<path d="M11.3366 9.8794C13.2871 8.13723 15.578 6.8164 18.0654 6C18.7766 6.88844 19.6795 7.60561 20.707 8.09819C21.7344 8.59076 22.86 8.84608 24.0001 8.84515C25.1402 8.84608 26.2658 8.59076 27.2932 8.09819C28.3207 7.60561 29.2236 6.88844 29.9348 6C32.4222 6.8164 34.7131 8.13723 36.6636 9.8794C36.2486 10.9372 36.0778 12.0747 36.1639 13.2074C36.2501 14.34 36.591 15.4388 37.1614 16.4221C37.7305 17.4073 38.5151 18.2518 39.4567 18.893C40.3984 19.5341 41.4729 19.9554 42.6003 20.1253C43.1332 22.6805 43.1332 25.3176 42.6003 27.8728C40.3966 28.2099 38.3639 29.5018 37.1614 31.576C36.5907 32.5595 36.2497 33.6586 36.1635 34.7917C36.0773 35.9247 36.2483 37.0625 36.6636 38.1206C34.713 39.8621 32.422 41.1823 29.9348 41.9981C29.2234 41.11 28.3204 40.3932 27.293 39.901C26.2655 39.4087 25.14 39.1537 24.0001 39.1549C22.86 39.1539 21.7344 39.4092 20.707 39.9018C19.6795 40.3944 18.7766 41.1116 18.0654 42C15.5782 41.1842 13.2872 39.864 11.3366 38.1225C11.7519 37.0644 11.9229 35.9266 11.8367 34.7936C11.7505 33.6605 11.4095 32.5614 10.8388 31.5779C10.2695 30.5931 9.48479 29.7489 8.54317 29.1081C7.60154 28.4673 6.52717 28.0463 5.39992 27.8766C4.86669 25.3208 4.86669 22.683 5.39992 20.1272C6.52734 19.9572 7.60182 19.536 8.54346 18.8949C9.4851 18.2537 10.2697 17.4092 10.8388 16.424C11.4092 15.4407 11.7501 14.3419 11.8363 13.2093C11.9224 12.0766 11.7516 10.9391 11.3366 9.88129V9.8794ZM26.8497 28.9203C27.5031 28.5499 28.0765 28.0542 28.537 27.462C28.9975 26.8697 29.336 26.1924 29.5329 25.4691C29.7298 24.7459 29.7813 23.9909 29.6845 23.2477C29.5876 22.5045 29.3442 21.7878 28.9684 21.1388C28.5926 20.4898 28.0918 19.9213 27.4947 19.466C26.8977 19.0108 26.2162 18.6778 25.4896 18.4863C24.7629 18.2947 24.0055 18.2484 23.2608 18.3499C22.5161 18.4514 21.7989 18.6988 21.1505 19.0778C19.8522 19.8368 18.9077 21.0769 18.523 22.5277C18.1383 23.9785 18.3448 25.5221 19.0972 26.8216C19.8497 28.1212 21.0872 29.0712 22.5396 29.4644C23.992 29.8576 25.5414 29.662 26.8497 28.9203V28.9203Z" fill="#2F353A"/>
</g>
</svg>
