<svg width="573" height="150" viewBox="0 0 573 150" fill="none" xmlns="http://www.w3.org/2000/svg">
<path d="M288.146 0C293.146 0 298.173 0.96369 301.459 3.09021L298.408 16.1197C294.013 15.1458 290.65 14.5934 288.082 14.5934C279.686 14.592 279.743 20.4962 279.743 36.911H300.164L294.897 49.9419L279.743 50.0378V111.4C278.221 111.583 274.81 111.721 271.444 111.721C268.065 111.721 264.73 111.582 263.389 111.211V50.1265L255.164 49.9419L250.083 37.0054L263.389 36.9095L263.573 20.4599C263.389 14.6429 268.655 5.58592 275.863 2.25879C279.038 0.803804 283.581 0 288.146 0ZM90.8997 0.626471C132.442 0.626471 159.747 34.0373 151.88 75.3132C144.013 116.591 103.919 150 62.3766 150C20.788 150 -6.51432 116.591 1.34967 75.3132C9.26162 34.0373 49.3111 0.626471 90.8997 0.626471ZM40.7684 139.693C26.3935 130.921 12.6522 119.213 11.5652 92.7658C12.2424 71.1547 20.2895 54.2458 33.9857 40.8631C43.4338 31.5954 53.9676 23.6373 67.799 19.6139V25.085C56.5894 26.665 45.8754 35.3441 43.8873 46.7862C41.2204 62.2925 49.6279 75.3118 64.6801 81.7335C70.9643 84.7597 84.8408 89.7323 87.7358 95.7935C89.4071 99.5014 88.5482 102.438 84.9774 104.611C82.2437 105.894 79.1611 106.433 75.9987 106.433C70.585 106.433 64.9417 104.85 60.4335 102.709C56.5618 100.815 54.6158 98.7601 50.8923 98.7601C50.702 98.7601 50.5072 98.766 50.3081 98.7761C46.8724 99.0915 44.7477 105.829 44.4323 108.724C44.3858 110.306 44.162 114.373 45.9234 115.234C49.766 117.721 53.6086 119.89 57.4047 121.381C60.9305 122.466 64.5014 123.283 68.1187 123.642C68.4355 123.732 68.7073 123.957 68.6623 124.682C68.5256 129.563 68.3454 134.494 68.2088 139.373C68.3018 141.727 68.3454 143.311 71.1475 143.398C106.408 139.692 138.863 110.621 145.599 75.3118C151.386 45.0202 136.469 19.2971 110.745 10.2983C135.607 21.6939 144.016 43.3937 141.441 66.4496C140.265 74.6766 137.825 81.687 134.661 88.0156C130.003 99.3634 121.144 108.133 111.65 116.499C104.327 121.787 96.822 126.623 88.2793 129.383C88.0715 129.434 87.8797 129.486 87.6922 129.486C87.5541 129.486 87.4204 129.459 87.2867 129.383C87.4219 126.94 87.512 124.546 87.6471 122.104C91.6249 121.472 95.4661 119.66 99.3101 117.63C102.021 116.181 104.554 114.147 106.859 111.525C109.616 108.901 111.425 104.743 112.916 99.9491C114.181 94.074 113.684 88.2875 111.514 82.5911C108.532 76.8482 103.875 72.1009 97.367 68.4409C89.817 64.3725 82.2669 60.2576 74.7183 56.1891C72.0979 54.5597 69.7014 52.66 68.2539 49.7689C66.5825 45.8822 68.2539 43.3952 71.7797 41.7236C73.7882 40.8108 75.7952 40.4285 77.8168 40.43C78.7992 40.43 79.7861 40.5201 80.7772 40.6829C83.2624 41.2701 95.2423 44.5711 95.1042 45.0682C95.4995 45.2775 95.9791 45.3821 96.5154 45.3821C100.03 45.3821 105.932 40.8747 105.775 31.7771C100.303 27.1214 93.523 25.0865 86.3362 23.6388C86.6531 19.0718 86.9234 14.5048 87.2417 9.9407C86.4729 7.99442 86.3813 7.85924 84.9352 7.0002C48.5423 9.39853 14.5488 39.0578 7.63388 75.3132C1.98187 104.926 16.085 130.152 40.7684 139.693ZM468.426 14.8246V36.9095C475.386 36.9095 482.263 36.8688 489.088 36.8688C492.501 36.8688 495.9 36.879 499.288 36.9095C510.098 37.0054 515.184 40.5143 518.694 48.6497C521.281 54.6528 535.326 89.8631 537.173 91.8966L555.375 36.908H572.561L546.69 108.436C542.07 121.009 537.819 132.281 530.427 140.319C525.175 146.041 517.308 148.959 508.636 148.959C503.578 148.959 498.249 147.967 493.005 145.958L496.701 132.651C500.397 133.472 504.385 135.239 508.599 135.239C512.922 135.239 517.479 133.38 522.204 126.735C523.497 124.982 529.504 114.354 528.95 111.676L501.969 50.125L468.429 50.0363V85.9822C468.429 91.8064 468.06 97.7238 473.051 99.1991C474.176 99.5494 475.267 99.6977 476.322 99.6977C480.541 99.6977 484.193 97.3313 487.373 96.1481L492.732 107.332C487.097 110.989 479.585 113.204 472.554 113.204C464.479 113.204 457.042 110.281 453.83 103.265C453.001 101.512 452.447 99.109 452.078 94.856L451.89 50.4055L438.678 50.0378L438.586 36.8208L451.89 36.6348V20.0936C454.563 18.7084 464.821 15.6574 468.426 14.8246ZM412.485 34.924C419.568 34.924 425.168 37.0258 432.113 39.7788V54.0088C430.172 53.1774 428.419 51.9797 426.015 50.8663C422.507 49.3764 418.403 48.5872 414.361 48.5872C410.626 48.5872 406.943 49.2616 403.84 50.6803C387.114 58.3491 385.912 89.1232 402.452 97.2572C406.112 99.0727 409.53 99.7791 412.798 99.7791C419.019 99.7791 424.697 97.2165 430.451 94.853C431.56 95.9592 434.792 104.188 435.257 106.035C430.577 110.276 421.286 113.291 411.303 113.291C393.878 113.291 374.364 104.095 373.717 76.1854C373.348 57.5177 384.161 40.4227 402.823 36.0824C406.423 35.2772 409.578 34.924 412.485 34.924ZM333.037 35.0621C333.197 35.0621 333.359 35.0621 333.521 35.065C358.655 35.2496 365.215 56.5976 365.215 78.4049L317.351 78.4979C317.627 88.8442 323.173 95.7789 331.12 98.6439C334.183 99.7049 337.023 100.122 339.665 100.122C347.387 100.122 353.423 96.5537 358.378 95.0391L363 106.68C358.656 108.163 355.885 110.377 350.062 111.766C345.734 112.785 341.543 113.282 337.543 113.282C317.217 113.282 302.002 100.387 300.536 77.2959C299.248 55.631 308.812 35.0621 333.037 35.0621ZM317.166 66.5761H348.121C348.029 56.6877 342.947 48.0029 332.965 48.0029C322.618 48.093 317.998 56.506 317.166 66.5761ZM216.011 35.0868C219.507 35.0868 223.012 35.5926 226.246 36.6333C244.911 42.4576 247.867 61.6777 247.867 78.4049H200.096C200.336 92.9068 210.364 99.9753 222.601 99.9753C224.48 99.9753 226.413 99.8081 228.369 99.4753C234.007 98.4593 236.686 96.3327 241.029 95.1336L245.648 106.035C240.567 110.656 229.478 113.059 220.791 113.15C220.579 113.153 220.373 113.153 220.161 113.153C175.418 113.153 174.251 54.5786 200.001 39.1276C204.443 36.4793 210.213 35.0868 216.011 35.0868ZM231.05 66.5761C230.594 56.4319 225.797 47.9999 215.763 47.9999C215.654 47.9999 215.543 48.0014 215.433 48.0029C204.806 48.186 201.02 56.4101 199.817 66.3944L231.05 66.5761Z" fill="black"/>
</svg>
