<svg width="761" height="150" viewBox="0 0 761 150" fill="none" xmlns="http://www.w3.org/2000/svg">
<path d="M344.11 105.074V77.2802C344.11 66.6237 337.602 59.6769 326.447 59.6769C320.87 59.6769 314.828 61.5297 310.645 67.5522C307.393 62.456 302.746 59.6769 295.774 59.6769C291.125 59.6769 286.48 61.0654 282.76 66.1615V60.6033H273V105.074H282.76V80.5215C282.76 72.6483 286.943 68.9407 293.451 68.9407C299.955 68.9407 303.211 73.1105 303.211 80.5215V105.074H312.971V80.5215C312.971 72.6483 317.616 68.9407 323.659 68.9407C330.167 68.9407 333.419 73.1105 333.419 80.5215V105.074H344.11ZM488.648 60.6033H472.848V47.1698H463.088V60.6033H454.258V69.4028H463.086V89.7873C463.086 99.9796 467.27 106 478.425 106C482.608 106 487.253 104.611 490.509 102.759L487.719 94.4192C484.931 96.272 481.679 96.7362 479.354 96.7362C474.707 96.7362 472.848 93.9571 472.848 89.3231V69.4028H488.648V60.6033ZM571.377 59.6748C565.801 59.6748 562.083 62.456 559.759 66.1615V60.6033H549.999V105.074H559.759V80.0593C559.759 72.6483 563.01 68.4786 569.053 68.4786C570.912 68.4786 573.236 68.9428 575.095 69.4049L577.883 60.1412C576.024 59.6769 573.236 59.6769 571.377 59.6769V59.6748ZM446.357 64.3088C441.708 61.0654 435.202 59.6769 428.23 59.6769C417.077 59.6769 409.642 65.2352 409.642 74.0368C409.642 81.4499 415.218 85.6176 424.978 87.0082L429.625 87.4725C434.738 88.3967 437.526 89.7874 437.526 92.1044C437.526 95.3456 433.809 97.6626 427.3 97.6626C420.795 97.6626 415.682 95.3456 412.428 93.0307L407.781 100.442C412.893 104.147 419.865 106 426.835 106C439.849 106 447.286 99.9796 447.286 91.6401C447.286 83.7648 441.244 79.5951 431.948 78.2066L427.3 77.7423C423.117 77.2781 419.865 76.3538 419.865 73.5747C419.865 70.3313 423.117 68.4786 428.23 68.4786C433.809 68.4786 439.385 70.7934 442.173 72.1841L446.357 64.3088ZM705.694 59.6769C700.116 59.6769 696.398 62.456 694.073 66.1615V60.6033H684.313V105.074H694.073V80.0593C694.073 72.6483 697.327 68.4786 703.368 68.4786C705.229 68.4786 707.553 68.9428 709.412 69.4049L712.2 60.1412C710.341 59.6769 707.553 59.6769 705.694 59.6769ZM581.137 82.8385C581.137 96.272 590.431 106 604.841 106C611.347 106 615.994 104.611 620.641 100.906L615.994 93.0307C612.276 95.8099 608.558 97.1984 604.375 97.1984C596.474 97.1984 590.897 91.6401 590.897 82.8385C590.897 74.5011 596.474 68.9407 604.375 68.4786C608.558 68.4786 612.276 69.8671 615.994 72.6483L620.641 64.773C615.994 61.0654 611.347 59.6769 604.841 59.6769C590.431 59.6769 581.137 69.4049 581.137 82.8385ZM671.302 82.8385V60.6033H661.542V66.1615C658.288 61.9939 653.64 59.6769 647.598 59.6769C635.05 59.6769 625.29 69.4049 625.29 82.8385C625.29 96.272 635.05 106 647.598 106C654.104 106 658.753 103.685 661.542 99.5154V105.074H671.302V82.8385ZM635.514 82.8385C635.514 74.9632 640.626 68.4786 648.991 68.4786C656.892 68.4786 662.471 74.5011 662.471 82.8385C662.471 90.7137 656.892 97.1984 648.991 97.1984C640.626 96.7341 635.514 90.7137 635.514 82.8385ZM518.86 59.6769C505.846 59.6769 496.55 68.9407 496.55 82.8385C496.55 96.7362 505.844 106 519.324 106C525.829 106 532.338 104.147 537.45 99.9796L532.801 93.0307C529.083 95.8099 524.436 97.6626 519.789 97.6626C513.747 97.6626 507.705 94.8835 506.31 87.0061H539.309V83.3027C539.775 68.9407 531.408 59.6769 518.858 59.6769H518.86ZM518.86 68.0143C524.9 68.0143 529.086 71.7219 530.013 78.6708H506.775C507.705 72.6483 511.888 68.0143 518.86 68.0143ZM761 82.8385V43H751.24V66.1615C747.986 61.9939 743.339 59.6769 737.297 59.6769C724.748 59.6769 714.988 69.4049 714.988 82.8385C714.988 96.272 724.748 106 737.297 106C743.805 106 748.452 103.685 751.24 99.5154V105.074H761V82.8385ZM725.214 82.8385C725.214 74.9632 730.325 68.4786 738.692 68.4786C746.593 68.4786 752.169 74.5011 752.169 82.8385C752.169 90.7137 746.593 97.1984 738.692 97.1984C730.325 96.7341 725.214 90.7137 725.214 82.8385ZM398.95 82.8385V60.6033H389.19V66.1615C385.936 61.9939 381.289 59.6769 375.247 59.6769C362.698 59.6769 352.938 69.4049 352.938 82.8385C352.938 96.272 362.698 106 375.247 106C381.755 106 386.402 103.685 389.19 99.5154V105.074H398.95V82.8385ZM362.698 82.8385C362.698 74.9632 367.811 68.4786 376.176 68.4786C384.077 68.4786 389.656 74.5011 389.656 82.8385C389.656 90.7137 384.077 97.1984 376.176 97.1984C367.811 96.7341 362.698 90.7137 362.698 82.8385Z" fill="black"/>
<path d="M89.0718 16H155.088V133.917H89.0718V16Z" fill="#FF5F00"/>
<path d="M93.2626 75C93.2626 51.042 104.579 29.7916 121.974 16.0413C109.191 6.04145 93.0535 0 75.449 0C33.7416 0 0 33.5412 0 75C0 116.458 33.7416 150 75.4481 150C93.0525 150 109.19 143.959 121.974 133.958C104.579 120.416 93.2626 98.958 93.2626 75Z" fill="#EB001B"/>
<path d="M244.157 75C244.157 116.458 210.415 150 168.709 150C151.104 150 134.967 143.959 122.183 133.958C139.788 120.208 150.895 98.958 150.895 75C150.895 51.042 139.578 29.7916 122.183 16.0413C134.966 6.04145 151.104 0 168.709 0C210.415 0 244.158 33.75 244.158 75H244.157Z" fill="#F79E1B"/>
</svg>
