<svg width="50" height="34" viewBox="0 0 50 34" fill="none" xmlns="http://www.w3.org/2000/svg">
<rect x="0.5" y="0.5" width="49" height="33" rx="5.5" fill="white" stroke="#D9D9D9"/>
<path fill-rule="evenodd" clip-rule="evenodd" d="M25.3571 24.3056C23.6548 25.7624 21.4467 26.6418 19.0339 26.6418C13.6501 26.6418 9.28564 22.2635 9.28564 16.8625C9.28564 11.4616 13.6501 7.08331 19.0339 7.08331C21.4467 7.08331 23.6548 7.96271 25.3571 9.41944C27.0593 7.96271 29.2674 7.08331 31.6803 7.08331C37.0641 7.08331 41.4285 11.4616 41.4285 16.8625C41.4285 22.2635 37.0641 26.6418 31.6803 26.6418C29.2674 26.6418 27.0593 25.7624 25.3571 24.3056Z" fill="#ED0006"/>
<path fill-rule="evenodd" clip-rule="evenodd" d="M25.3572 24.3056C27.4532 22.512 28.7822 19.843 28.7822 16.8625C28.7822 13.8821 27.4532 11.2131 25.3572 9.41944C27.0594 7.96271 29.2675 7.08331 31.6804 7.08331C37.0642 7.08331 41.4286 11.4616 41.4286 16.8625C41.4286 22.2635 37.0642 26.6418 31.6804 26.6418C29.2675 26.6418 27.0594 25.7624 25.3572 24.3056Z" fill="#F9A000"/>
<path fill-rule="evenodd" clip-rule="evenodd" d="M25.3571 9.41949C27.4531 11.2132 28.7822 13.8822 28.7822 16.8626C28.7822 19.843 27.4531 22.5119 25.3571 24.3056C23.2612 22.5119 21.9321 19.8429 21.9321 16.8626C21.9321 13.8822 23.2612 11.2132 25.3571 9.41949Z" fill="#FF5E00"/>
</svg>
