<svg width="643" height="150" viewBox="0 0 643 150" fill="none" xmlns="http://www.w3.org/2000/svg">
<path d="M30.0257 27.4904C30.8663 26.7994 31.7184 26.1199 32.559 25.4289C33.2269 25.3944 33.8718 25.3483 33.7796 24.4039L33.7221 24.473C44.604 20.1428 54.5877 14.0736 64.7211 8.30381L66.1605 8.26926C80.3472 15.0295 94.8449 21.0411 109.55 26.5575C110.195 27.0067 110.851 27.4443 111.496 27.8935C119.545 38.2468 128.17 48.0935 136.933 57.8365L137.106 58.919C132.615 72.5201 129.287 86.4436 125.844 100.344C125.475 101.035 125.118 101.715 124.75 102.406C113.845 114.371 102.929 126.337 92.0237 138.303C91.3328 138.026 90.6073 137.796 89.951 137.462C74.6011 129.492 59.2628 121.511 43.9246 113.531C43.1645 112.955 42.4161 112.379 41.6561 111.803C41.6215 111.066 41.2991 110.605 40.493 110.617L40.5391 110.663C40.4585 108.786 38.996 107.669 38.0518 106.287C27.9069 91.3496 16.5874 77.2419 7.11035 61.8442C9.5631 58.2396 12.108 54.704 14.434 51.0187C19.4547 43.0608 26.1335 36.1969 30.0257 27.4904Z" fill="#231C46"/>
<path d="M490.751 76.9309C490.923 87.9408 487.446 97.6722 480.341 105.976C478.245 108.429 478.406 109.811 480.698 111.849C483.554 114.383 486.191 117.193 488.689 120.095C490.866 122.629 490.186 124.345 486.709 124.391C480.836 124.483 474.618 125.531 470.726 119.312C469.033 116.594 467.11 117.676 464.899 118.782C442.721 129.826 418.02 123.446 404.168 103.177C391.167 84.1518 394.288 56.0745 411.238 39.4446C427.244 23.736 451.99 21.64 470.081 34.861C484.222 45.2028 490.59 59.6216 490.751 76.9309ZM459.706 105.907C454.017 100.793 448.996 96.3478 444.056 91.8103C442.778 90.6356 441.696 89.1615 442.629 87.2383C443.515 85.4071 445.208 85.3956 446.993 85.1998C452.347 84.6125 456.643 85.9714 460.097 90.4283C462.423 93.4226 465.452 95.8757 468.169 98.559C480.065 86.3975 480.018 64.4585 468.089 50.9266C456.815 38.1432 437.47 35.9666 423.893 45.9629C409.603 56.4775 405.48 79.9943 415.245 95.1847C424.734 109.926 442.882 114.913 459.706 105.907ZM261.356 93.9639C261.356 72.2552 261.54 52.3085 261.229 32.3619C261.148 26.8685 263.394 26.0508 268.069 26.189C272.549 26.3157 275.554 26.2811 275.485 32.431C275.174 61.0035 275.358 89.5876 275.324 118.16C275.324 120.348 276.13 123.066 273.297 124.172C270.407 125.3 268.714 123.158 267.033 121.27C249.414 101.53 231.785 81.7909 214.155 62.0516C212.416 60.1053 210.631 58.1935 208.754 56.1436C207.061 58.2972 207.787 60.2665 207.787 62.0631C207.752 80.478 207.649 98.893 207.948 117.296C208.029 122.652 206.693 124.736 200.912 124.609C195.581 124.483 193.496 123.331 193.554 117.527C193.83 89.3343 193.658 61.1417 193.715 32.9492C193.715 30.6344 192.61 27.548 195.915 26.5345C199.104 25.5556 201.661 26.7533 203.975 29.3676C220.707 48.3584 237.554 67.2455 254.366 86.1672C256.347 88.4129 258.362 90.6241 261.356 93.9639Z" fill="#251D48"/>
<path d="M522.153 62.017C522.153 51.8594 522.429 41.6788 522.049 31.5327C521.807 25.0949 525.976 26.4309 529.649 26.2466C533.656 26.0393 536.627 26.189 536.57 31.763C536.351 51.5024 536.247 71.2648 536.72 91.0042C537.088 106.367 552.541 115.2 565.853 108.129C571.645 105.054 575.065 100.194 575.848 93.6299C577.357 81.0193 576.309 68.3511 576.551 55.7059C576.7 47.6559 576.746 39.5943 576.516 31.5557C576.401 27.6516 577.53 26.1545 581.675 26.1775C590.726 26.2351 590.737 26.0163 590.726 35.2641C590.714 53.0917 590.853 70.9308 590.622 88.7584C590.392 106.862 579.556 120.13 562.525 123.723C544.089 127.604 524.387 113.611 522.89 94.7701C522.026 83.9215 522.729 72.9347 522.729 62.017C522.544 62.0285 522.349 62.0285 522.153 62.017Z" fill="#2A1F4B"/>
<path d="M313.024 75.3877C313.013 61.0151 313.139 46.6309 312.944 32.2583C312.886 28.0317 313.727 26.0739 318.598 26.2005C332.209 26.523 345.831 26.5576 359.431 26.2005C365.062 26.0508 365.085 29.0451 365.073 33.0529C365.062 37.1758 365.223 40.6653 359.258 40.4235C350.069 40.055 340.857 40.4811 331.656 40.2623C328.282 40.1816 326.866 40.8381 327.096 44.5925C327.441 50.3277 327.395 56.0975 327.107 61.8328C326.935 65.2532 328.224 65.9326 331.356 65.8635C340.361 65.6793 349.389 66.1054 358.383 65.7023C363.91 65.449 365.292 67.5795 365.154 72.7159C365.027 77.4031 364.659 80.2708 358.682 79.9368C349.504 79.4185 340.281 79.9137 331.08 79.741C328.109 79.6834 327.038 80.4896 327.119 83.576C327.315 91.2345 327.372 98.9161 327.107 106.575C326.981 110.145 328.524 110.571 331.506 110.525C340.903 110.375 350.299 110.721 359.684 110.375C364.889 110.179 365.223 112.955 365.05 116.824C364.877 120.602 365.937 124.656 359.638 124.529C345.843 124.252 332.024 124.322 318.229 124.517C314.107 124.575 312.944 122.997 312.978 119.116C313.128 104.525 313.036 89.9562 313.024 75.3877Z" fill="#251D48"/>
<path d="M628.208 74.9501C628.219 60.5659 628.484 46.1818 628.093 31.8091C627.908 25.0834 632.111 26.3963 635.992 26.189C640.184 25.9587 642.694 26.523 642.648 31.9588C642.394 60.9114 642.383 89.864 642.659 118.817C642.717 124.379 640.011 124.575 635.923 124.483C631.8 124.391 627.92 125.162 628.081 118.667C628.45 104.099 628.208 89.5186 628.208 74.9501Z" fill="#231C46"/>
<path d="M7.11037 61.8443C16.5874 77.2419 27.9184 91.3497 38.0633 106.275C39.0076 107.669 40.47 108.774 40.5506 110.651C28.3905 105.791 16.4953 100.206 6.13158 92.2134C-0.812109 86.8583 -1.73333 75.4223 2.73458 67.6026C3.86308 65.6217 5.2449 63.7906 6.51158 61.8904C6.70734 61.8789 6.9031 61.8673 7.11037 61.8443Z" fill="#40BACD"/>
<path d="M43.936 113.531C59.2743 121.512 74.6126 129.493 89.9624 137.462C90.6188 137.807 91.3443 138.026 92.0352 138.303C92.0927 138.568 92.1273 138.821 92.1503 139.086C89.7552 141.516 87.4636 144.072 84.9303 146.364C79.5411 151.247 70.8471 151.385 66.4713 145.719C58.4567 135.366 50.4537 124.955 43.936 113.531Z" fill="#E73B7B"/>
<path d="M92.1391 139.097C92.1276 138.832 92.0815 138.568 92.0239 138.314C102.929 126.348 113.834 114.383 124.75 102.417C122.896 113.277 119.776 123.826 116.482 134.295C114.099 141.873 106.441 144.936 98.864 142.184C96.5609 141.332 94.3845 140.134 92.1391 139.097Z" fill="#40BACD"/>
<path d="M109.562 26.5691C94.8453 21.0526 80.3477 15.041 66.1609 8.28077C70.0415 5.09069 74.6706 3.22501 79.104 1.05989C83.4107 -1.04764 87.3835 0.0694705 90.4465 3.68567C96.872 11.2636 103.194 18.9336 109.562 26.5691ZM125.844 100.356C129.287 86.4666 132.615 72.5431 137.106 58.9306C140.319 61.1187 142.449 64.3549 144.672 67.3837C147.677 71.4951 147.677 76.1133 144.269 80.0404C138.269 86.9388 132.005 93.5954 125.844 100.356ZM7.11076 61.8443C6.915 61.8558 6.70773 61.8788 6.51197 61.8903C2.41254 48.105 5.64832 40.2047 18.2921 33.4214C22.1497 31.3484 26.1109 29.4597 30.0261 27.4904C26.1339 36.1969 19.4551 43.0608 14.4344 51.0187C12.1084 54.704 9.55199 58.2396 7.11076 61.8443Z" fill="#E73B7B"/>
<path d="M136.945 57.848C128.182 48.105 119.557 38.2584 111.508 27.905C118.382 30.715 125.314 33.4214 132.131 36.3696C138.58 39.1567 140.733 43.4869 139.213 50.1895C138.614 52.7692 137.705 55.2913 136.945 57.848ZM64.7212 8.31533C54.5878 14.0851 44.6041 20.1543 33.7222 24.4846C36.7622 17.7128 41.5065 12.0582 46.1126 6.39207C48.4617 3.51293 52.1926 2.66071 55.9696 4.36516C58.8945 5.68956 61.8078 7.00245 64.7212 8.31533Z" fill="#40BACD"/>
<path d="M33.7797 24.4155C33.8833 25.3598 33.227 25.4059 32.5591 25.4404C32.6512 24.7149 33.0312 24.3579 33.7797 24.4155ZM40.5046 110.617C41.2991 110.617 41.6331 111.066 41.6676 111.803C40.9652 111.711 40.401 111.492 40.5046 110.617Z" fill="#40BACD"/>
</svg>
