<svg width="50" height="34" viewBox="0 0 50 34" fill="none" xmlns="http://www.w3.org/2000/svg">
<rect x="0.5" y="0.5" width="49" height="33" rx="5.5" fill="white" stroke="#D9D9D9"/>
<path fill-rule="evenodd" clip-rule="evenodd" d="M20.7242 7.61877C20.1158 7.92932 19.4805 8.25318 18.7066 8.65246C17.8073 9.11384 17.3108 10.6045 17.8745 11.372C17.8923 11.3942 17.9058 11.4163 17.9237 11.4385C18.6171 10.4936 19.1629 9.74825 19.8295 8.84322C20.1202 8.44395 20.4245 8.02692 20.7242 7.61877Z" fill="#FD2B72"/>
<path fill-rule="evenodd" clip-rule="evenodd" d="M20.7198 15.2361C19.6909 13.8386 18.8901 12.7517 17.9193 11.4385C17.7448 11.6781 17.5569 11.931 17.3601 12.2016C16.7964 12.9691 17.4227 14.4864 18.1877 14.8679C19.5612 15.5555 20.4783 16.0125 21.789 16.6691C21.4267 16.1811 21.0643 15.7019 20.7198 15.2361Z" fill="#2FC8D6"/>
<path fill-rule="evenodd" clip-rule="evenodd" d="M27.2694 19.4019C25.6097 18.5723 23.9947 17.7649 22.4244 16.9797C22.2052 16.8687 21.9949 16.7667 21.7981 16.6647C22.5855 17.6984 23.4086 18.7631 24.187 19.8234C24.876 20.7595 25.9944 20.7639 26.7684 19.9343C26.9384 19.7569 27.1039 19.5794 27.2694 19.4019Z" fill="#FD2B72"/>
<path fill-rule="evenodd" clip-rule="evenodd" d="M30.1638 16.3009C29.2691 17.2591 28.3073 18.2884 27.2649 19.4019C27.4259 19.4818 27.587 19.5616 27.7481 19.6415C28.6741 20.1029 29.6673 19.6858 29.9312 18.7498C30.2444 17.6407 30.5396 16.5937 30.8215 15.5999C30.6067 15.8306 30.3875 16.0657 30.1638 16.3009Z" fill="#2FC8D6"/>
<path fill-rule="evenodd" clip-rule="evenodd" d="M31.3047 13.8919C31.1481 14.442 30.9871 15.0143 30.8215 15.5999C31.5284 14.8457 32.1905 14.1359 32.8168 13.466C33.2686 12.9824 33.4163 12.3702 32.866 11.758C32.7631 11.6426 32.6557 11.5228 32.5529 11.4075C32.4186 11.2566 32.28 11.1014 32.1368 10.9417C31.8773 11.8644 31.6 12.8493 31.3047 13.8919Z" fill="#FD2B72"/>
<path fill-rule="evenodd" clip-rule="evenodd" d="M29.9089 8.45286C30.5621 9.18487 31.4031 10.121 32.1368 10.9373C32.2173 10.6578 32.2934 10.3871 32.3694 10.1165C32.5215 9.57527 32.3605 9.03403 31.676 8.75897C31.5239 8.7013 31.3763 8.63919 31.2242 8.58152C30.6426 8.35082 29.9984 8.09351 29.3586 7.84064C29.551 8.05802 29.7344 8.2621 29.9089 8.45286Z" fill="#2FC8D6"/>
<path fill-rule="evenodd" clip-rule="evenodd" d="M27.3856 7.0598C27.9896 7.29936 28.6696 7.56999 29.3585 7.84504C28.7099 7.11747 27.9896 6.31892 27.417 5.68007C27.323 5.5736 27.2291 5.46713 27.1306 5.36509C26.6564 4.83272 26.0614 4.88596 25.5112 5.16545C25.0996 5.37396 24.6791 5.59135 24.2451 5.81317C25.2696 6.21688 26.3746 6.65609 27.3856 7.0598Z" fill="#FD2B72"/>
<path fill-rule="evenodd" clip-rule="evenodd" d="M29.3587 7.84505C28.6697 7.56999 27.9852 7.29937 27.3858 7.0598C26.3747 6.65609 25.2697 6.21688 24.2497 5.81317C23.6279 6.13259 22.9837 6.46089 22.3126 6.80693C21.7489 7.09529 21.2434 7.35261 20.7244 7.61879C20.4247 8.02694 20.1205 8.44396 19.8252 8.84324C19.1586 9.74827 18.6129 10.498 17.9194 11.4385C18.8858 12.7517 19.6865 13.8386 20.72 15.2361C21.0644 15.7019 21.4268 16.1811 21.7936 16.6691C21.9905 16.7667 22.2008 16.8731 22.42 16.984C23.9902 17.7693 25.6052 18.5767 27.265 19.4063C28.3073 18.2928 29.2692 17.2635 30.1639 16.3053C30.3876 16.0657 30.6068 15.835 30.8216 15.6043C30.9871 15.0143 31.1481 14.4464 31.3047 13.8963C31.6 12.8538 31.8773 11.8733 32.1368 10.9461C31.4031 10.1254 30.5621 9.18928 29.9089 8.46171C29.7344 8.26207 29.551 8.05799 29.3587 7.84505Z" fill="#200049"/>
<path fill-rule="evenodd" clip-rule="evenodd" d="M22.3124 6.80695C22.9834 6.46091 23.6276 6.13262 24.2495 5.8132C24.0392 5.72891 23.8289 5.64461 23.6276 5.56476C23.5739 5.54258 23.5203 5.52039 23.4666 5.50265C22.8716 5.26752 22.4197 5.30301 22.1066 5.73334C22.0663 5.79102 22.0216 5.84869 21.9813 5.90636C21.6055 6.42099 21.1671 7.01546 20.7197 7.62325C21.2431 7.35263 21.7487 7.09532 22.3124 6.80695Z" fill="#2FC8D6"/>
<path d="M10.7144 29.652V24.2642C10.7144 24.2114 10.7621 24.1662 10.8178 24.1662C10.9928 24.1662 11.2236 24.1361 11.2793 24.2039L15.0267 28.1223V24.2642C15.0267 24.2114 15.0745 24.1662 15.1302 24.1662H15.7269C15.7826 24.1662 15.8303 24.2114 15.8303 24.2642V29.6445C15.8303 29.7801 15.5598 29.7575 15.5121 29.7048L11.5339 25.5527V29.6369C11.5339 29.6897 11.4861 29.7349 11.4304 29.7349H10.8178C10.7621 29.75 10.7144 29.7048 10.7144 29.652ZM38.5856 24.1737H39.1824C39.238 24.1737 39.2858 24.219 39.2858 24.2717V29.652C39.2858 29.7048 39.238 29.75 39.1824 29.75H38.5856C38.5299 29.75 38.4822 29.7048 38.4822 29.652V24.2717C38.4822 24.219 38.5299 24.1737 38.5856 24.1737ZM31.7829 24.1737H32.3796C32.4353 24.1737 32.4831 24.219 32.4831 24.2717C32.4831 24.5731 32.4671 27.8058 32.499 28.0244C32.5785 28.5443 32.9048 28.8231 33.4458 28.9362C33.6367 28.9814 33.7561 28.9738 33.947 28.9738C34.504 28.9738 34.9734 28.6573 35.1246 28.1299C35.1723 27.9565 35.1882 27.4667 35.1882 27.2181V24.2642C35.1882 24.2114 35.236 24.1662 35.2917 24.1662H35.8884C35.9441 24.1662 35.9918 24.2114 35.9918 24.2642V27.2181C35.9918 27.7983 35.9361 28.4991 35.5701 28.9512C35.1803 29.4335 34.6154 29.6822 33.9709 29.6822C33.4219 29.6822 32.9843 29.6445 32.5069 29.3581C31.6556 28.8382 31.6715 28.1374 31.6715 27.2256V24.2717C31.6715 24.219 31.7192 24.1737 31.7829 24.1737ZM26.5635 24.0833C28.2662 24.0833 29.579 25.289 29.579 26.9016C29.579 27.6777 29.2925 28.3484 28.7197 28.8909L29.4358 29.5691C29.4994 29.6294 29.4517 29.7349 29.3642 29.7349H28.7515C28.7197 29.7349 28.6879 29.7198 28.6719 29.6972L28.2264 29.2677C27.4228 29.7651 26.3248 29.8404 25.4496 29.5013C24.3516 29.0793 23.6196 28.062 23.6196 26.9091C23.6196 25.3568 24.9006 24.0833 26.5635 24.0833ZM26.6272 27.5195H27.2398C27.2716 27.5195 27.3034 27.5346 27.3194 27.5572L28.1946 28.3861C29.1334 27.4743 29.03 25.7939 27.7013 25.0705C26.2293 24.2717 24.3834 25.2362 24.3834 26.9166C24.3834 28.5669 26.2134 29.5013 27.6694 28.7478L26.5476 27.6853C26.4919 27.625 26.5396 27.5195 26.6272 27.5195ZM18.448 24.1737H21.4475C21.5032 24.1737 21.551 24.219 21.551 24.2717V24.7992C21.551 24.8519 21.5032 24.8971 21.4475 24.8971H19.1481V26.3816H21.4237C21.4794 26.3816 21.5271 26.4268 21.5271 26.4796V27.0071C21.5271 27.0598 21.4794 27.105 21.4237 27.105H19.1481V29.0266H21.4237C21.4794 29.0266 21.5271 29.0718 21.5271 29.1245V29.652C21.5271 29.7048 21.4794 29.75 21.4237 29.75H18.448C18.3923 29.75 18.3445 29.7048 18.3445 29.652V24.2717C18.3445 24.219 18.3923 24.1737 18.448 24.1737Z" fill="#200049"/>
</svg>
