<svg width="50" height="34" viewBox="0 0 50 34" fill="none" xmlns="http://www.w3.org/2000/svg">
<rect x="0.5" y="0.5" width="49" height="33" rx="5.5" fill="#820AD1" stroke="#D9D9D9"/>
<g clip-path="url(#clip0_1404_749)">
<path d="M16.6934 11.3355C17.5156 10.4924 18.6062 10 19.8875 10C22.3835 10 24.0384 11.7786 24.355 14.4431C24.4577 15.3084 24.4567 16.5284 24.4557 17.9414C24.4555 18.0863 24.4555 18.2332 24.4555 18.382V23.6754H21.023V19.7602C21.023 19.7602 21.016 16.4094 20.995 15.7832C20.9029 13.0557 19.2484 11.3419 16.6931 11.3401C15.9221 12.135 15.509 13.107 15.4481 14.5932C15.4397 14.8005 15.4418 15.5352 15.4446 16.5036C15.446 17.0053 15.4477 17.5698 15.4481 18.1561C15.4506 20.708 15.4481 23.6759 15.4481 23.6759H12.0155V17.6506C12.0155 17.4441 12.0117 17.2359 12.0078 17.0269C12 16.6064 11.9922 16.1827 12.0155 15.7631C12.0543 15.0637 12.1783 14.3761 12.5127 13.7374C13.2782 12.274 14.8466 11.3319 16.5187 11.3319C16.5771 11.3319 16.6356 11.3333 16.6934 11.3355Z" fill="white"/>
<path d="M37.9845 18.2369C38.0079 17.8173 38.0001 17.3936 37.9923 16.9731C37.9884 16.7641 37.9845 16.5559 37.9845 16.3494V10.3241H34.5521C34.5521 10.3241 34.5495 13.292 34.5521 15.8439C34.5524 16.4302 34.5541 16.9946 34.5555 17.4963C34.5583 18.4648 34.5604 19.1995 34.5521 19.4068C34.4911 20.893 34.078 21.865 33.3071 22.66C30.7517 22.6582 29.0973 20.9443 29.0052 18.2168C28.9842 17.5906 28.9753 16.0365 28.9753 14.2366V10.3215L25.5453 10.3246V15.6179C25.5453 15.7667 25.5451 15.9137 25.5451 16.0586C25.5441 17.4716 25.5432 18.6915 25.6458 19.5568C25.9618 22.2213 27.6167 24 30.1127 24C31.394 24 32.4846 23.5075 33.3068 22.6645C33.3646 22.6667 33.423 22.668 33.4814 22.668C35.1535 22.668 36.722 21.7258 37.4874 20.2625C37.8219 19.6237 37.9458 18.9362 37.9846 18.2367L37.9845 18.2369Z" fill="white"/>
</g>
<defs>
<clipPath id="clip0_1404_749">
<rect width="26" height="14" fill="white" transform="translate(12 10)"/>
</clipPath>
</defs>
</svg>
