<svg width="601" height="150" viewBox="0 0 601 150" fill="none" xmlns="http://www.w3.org/2000/svg">
<path d="M465.519 64.1645C463.7 76.1091 454.578 76.1091 445.754 76.1091H440.733L444.254 53.8074C444.468 52.4589 445.63 51.4668 446.995 51.4668H449.295C455.303 51.4668 460.976 51.4668 463.901 54.8876C465.65 56.9358 466.181 59.9708 465.519 64.1645ZM461.679 33H428.402C426.126 33 424.189 34.6557 423.835 36.9032L410.379 122.231C410.113 123.914 411.415 125.437 413.118 125.437H430.192C431.784 125.437 433.141 124.278 433.389 122.705L437.205 98.5149C437.559 96.2668 439.496 94.6116 441.772 94.6116H452.302C474.221 94.6116 486.87 84.0037 490.177 62.9785C491.666 53.7837 490.237 46.5587 485.932 41.5009C481.199 35.9402 472.811 33 461.679 33Z" fill="#459ADB"/>
<path d="M228.175 64.1645C226.356 76.1091 217.234 76.1091 208.41 76.1091H203.39L206.911 53.8074C207.124 52.4589 208.286 51.4668 209.651 51.4668H211.952C217.959 51.4668 223.633 51.4668 226.557 54.8876C228.307 56.9359 228.836 59.9708 228.175 64.1645ZM224.335 33H191.058C188.782 33 186.845 34.6557 186.491 36.9032L173.035 122.231C172.769 123.914 174.07 125.437 175.775 125.437H191.663C193.938 125.437 195.876 123.782 196.23 121.533L199.862 98.5149C200.215 96.2668 202.153 94.6116 204.428 94.6116H214.958C236.877 94.6116 249.527 84.0037 252.833 62.9785C254.322 53.7837 252.893 46.5588 248.588 41.5009C243.855 35.9402 235.468 33 224.335 33Z" fill="#253B7D"/>
<path d="M301.59 94.797C300.051 103.902 292.823 110.014 283.604 110.014C278.983 110.014 275.283 108.527 272.905 105.712C270.547 102.922 269.66 98.9471 270.408 94.5204C271.843 85.4972 279.186 79.1881 288.265 79.1881C292.79 79.1881 296.464 80.688 298.888 83.5292C301.33 86.3902 302.289 90.3925 301.59 94.797ZM323.796 63.7822H307.863C306.497 63.7822 305.335 64.775 305.122 66.1245L304.421 70.5798L303.307 68.9656C299.856 63.9555 292.166 62.2829 284.486 62.2829C266.883 62.2829 251.844 75.6237 248.917 94.3332C247.394 103.669 249.557 112.588 254.849 118.814C259.712 124.534 266.651 126.916 274.918 126.916C289.107 126.916 296.978 117.8 296.978 117.8L296.266 122.23C296 123.912 297.301 125.437 299.006 125.437H313.356C315.631 125.437 317.568 123.783 317.922 121.535L326.537 66.9868C326.803 65.304 325.501 63.7822 323.796 63.7822Z" fill="#253B7D"/>
<path d="M538.932 94.797C537.394 103.902 530.166 110.014 520.948 110.014C516.326 110.014 512.627 108.527 510.247 105.712C507.89 102.922 507.003 98.9471 507.751 94.5204C509.185 85.4972 516.53 79.1881 525.609 79.1881C530.133 79.1881 533.806 80.688 536.232 83.5291C538.672 86.3902 539.631 90.3925 538.932 94.797ZM561.14 63.7822H545.205C543.84 63.7822 542.678 64.775 542.466 66.1245L541.764 70.5798L540.651 68.9656C537.199 63.9555 529.509 62.2829 521.829 62.2829C504.225 62.2829 489.187 75.6237 486.259 94.3332C484.736 103.669 486.899 112.588 492.192 118.814C497.054 124.534 503.993 126.916 512.26 126.916C526.449 126.916 534.321 117.8 534.321 117.8L533.608 122.23C533.342 123.912 534.644 125.437 536.349 125.437H550.699C552.973 125.437 554.91 123.783 555.266 121.535L563.879 66.9868C564.145 65.304 562.843 63.7822 561.14 63.7822Z" fill="#459ADB"/>
<path d="M408.664 63.7822H392.648C391.116 63.7822 389.683 64.5431 388.824 65.8093L366.73 98.3476L357.367 67.0798C356.781 65.1246 354.98 63.7822 352.938 63.7822H337.194C335.293 63.7822 333.955 65.653 334.568 67.4524L352.204 119.217L335.616 142.622C334.314 144.458 335.628 147 337.879 147H353.88C355.396 147 356.817 146.257 357.679 145.01L410.945 68.1372C412.218 66.2978 410.903 63.7822 408.664 63.7822Z" fill="#253B7D"/>
<path d="M579.921 35.3435L566.263 122.233C565.999 123.916 567.3 125.437 569.004 125.437H582.739C585.014 125.437 586.951 123.782 587.305 121.533L600.773 36.2076C601.039 34.5229 599.737 33 598.032 33H582.662C581.295 33 580.133 33.994 579.921 35.3435Z" fill="#459ADB"/>
<path d="M114.557 38.1093C116.387 26.4408 114.545 18.5012 108.234 11.3098C101.285 3.39203 88.7322 0 72.6715 0H26.0516C22.7688 0 19.9741 2.38846 19.4627 5.63098L0.0497937 128.731C-0.333415 131.16 1.544 133.356 4.00282 133.356H32.7835L30.7974 145.954C30.4623 148.078 32.1041 150 34.2557 150H58.5147C61.386 150 63.8308 147.91 64.2784 145.074L64.5161 143.841L69.0863 114.862L69.3811 113.26C69.8279 110.424 72.2726 108.335 75.1439 108.335H78.7736C102.275 108.335 120.677 98.7861 126.055 71.1729C128.301 59.6346 127.14 50.0027 121.198 43.2321C119.401 41.1838 117.165 39.4908 114.557 38.1093Z" fill="#459ADB"/>
<path d="M114.557 38.1092C116.387 26.4408 114.545 18.5012 108.234 11.3098C101.285 3.39201 88.7322 0 72.6715 0H26.0516C22.7688 0 19.9741 2.38844 19.4627 5.63097L0.0497937 128.731C-0.333415 131.16 1.544 133.356 4.00282 133.356H32.7835L40.0135 87.5124L39.7893 88.9493C40.3007 85.7076 43.0721 83.3192 46.3542 83.3192H60.0331C86.898 83.3192 107.934 72.4049 114.08 40.8395C114.263 39.9048 114.418 38.9995 114.557 38.1092Z" fill="#232D62"/>
<path d="M47.7802 38.2638C48.0875 36.3137 49.3389 34.7172 51.0244 33.9093C51.7903 33.5423 52.6461 33.3382 53.5438 33.3382H90.0877C94.4169 33.3382 98.4531 33.6213 102.144 34.2158C103.199 34.3863 104.225 34.5812 105.222 34.802C106.219 35.0237 107.186 35.2707 108.124 35.5453C108.592 35.6813 109.052 35.825 109.506 35.9753C111.317 36.5774 113.005 37.2871 114.557 38.1092C116.387 26.4408 114.545 18.5012 108.234 11.3098C101.285 3.39201 88.7322 0 72.6715 0H26.0516C22.7688 0 19.9741 2.38844 19.4627 5.63097L0.0497937 128.731C-0.333415 131.16 1.544 133.356 4.00282 133.356H32.7835L40.0135 87.5124L47.7802 38.2638Z" fill="#253B7D"/>
</svg>
