<svg width="290" height="145" viewBox="0 0 290 145" fill="none" xmlns="http://www.w3.org/2000/svg">
<g clip-path="url(#clip0_904_488)">
<path d="M261.176 56.9377C259.222 56.932 257.642 55.3467 257.642 53.3933V37.8018H256.343C248.256 37.8018 245.252 39.1323 245.252 46.5018V63.7044C245.252 63.7044 245.252 63.7771 245.252 63.8083V67.5503C245.252 67.675 245.252 67.7997 245.252 67.9349V92.008C245.373 94.496 244.77 96.9658 243.516 99.1177C241.312 102.506 236.947 104.055 230.003 104.065C223.06 104.076 218.653 102.506 216.491 99.1177C215.236 96.9658 214.633 94.496 214.755 92.008V67.9764C214.755 67.8413 214.755 67.7166 214.755 67.5919V63.8083C214.755 63.8083 214.755 63.7356 214.755 63.7044V46.4707C214.755 39.1011 211.751 37.7706 203.664 37.7706H201.003C192.927 37.7706 189.913 39.1011 189.913 46.4707V92.0496C189.913 99.388 191.565 105.562 194.767 110.603C200.941 120.301 212.894 125.467 229.889 125.467H230.014C247.008 125.467 258.962 120.27 265.126 110.603C268.327 105.593 269.98 99.388 269.98 92.0496V56.9377H261.176Z" fill="#A6C307"/>
<path d="M298.553 13.0322H285.259C283.806 13.0322 282.629 14.2096 282.629 15.662V29.1226C282.629 30.575 283.806 31.7523 285.259 31.7523H298.553C300.005 31.7523 301.183 30.575 301.183 29.1226V15.662C301.183 14.2096 300.005 13.0322 298.553 13.0322Z" fill="#A6C307"/>
<path d="M280.831 0.320007H271.809C270.821 0.320007 270.021 1.12044 270.021 2.10783V11.2444C270.021 12.2318 270.821 13.0322 271.809 13.0322H280.831C281.818 13.0322 282.619 12.2318 282.619 11.2444V2.10783C282.619 1.12044 281.818 0.320007 280.831 0.320007Z" fill="#A6C307"/>
<path d="M34.8502 37.7498H15.5064C5.1745 37.7498 0.569824 42.3649 0.569824 52.6968V119.085C0.569824 123.077 1.84832 124.355 5.83973 124.355H7.14941C11.1408 124.355 12.4193 123.077 12.4193 119.085V93.2553H34.8502C54.7657 93.2553 64.0374 84.441 64.0374 65.5026C64.0374 46.5642 54.7657 37.7498 34.8502 37.7498ZM52.1879 65.4714C52.1879 76.2918 49.423 82.1542 34.8502 82.1542H12.4505V54.2663C12.4505 50.3997 13.8953 48.9549 17.762 48.9549H34.8814C45.8266 48.9549 52.1879 51.6678 52.1879 65.4714Z" fill="#A6C307"/>
<path d="M88.952 56.7922C84.1552 56.7376 79.3656 57.18 74.6599 58.1123C71.4273 58.8191 70.0864 59.7026 70.0864 63.3718V64.4112C70.0062 65.4928 70.237 66.5748 70.7516 67.5295C71.322 68.3621 72.2917 68.8291 73.2982 68.756C73.9729 68.7412 74.6432 68.6434 75.2939 68.465C79.9598 67.5146 84.7101 67.041 89.4718 67.0514C101.041 67.0514 105.76 70.2632 105.76 78.1213V85.127H91.2076C72.4979 85.127 63.7251 91.4572 63.7251 105.032C63.7251 118.212 72.7473 125.467 89.1184 125.467C108.587 125.467 117.266 118.846 117.266 103.993V78.1421C117.225 63.7772 107.974 56.7922 88.952 56.7922ZM105.76 94.5755V103.67C105.76 111.092 103.005 115.385 88.952 115.385C79.6595 115.385 75.1484 112.027 75.1484 105.105C75.1484 97.5274 79.6699 94.5755 91.3012 94.5755H105.76Z" fill="#A6C307"/>
<path d="M181.368 59.8793C180.547 58.8398 178.977 58.7047 177.418 58.7047H176.233C172.336 58.7047 170.808 59.9105 169.945 63.6524L159.093 108.732C157.742 114.273 155.84 115.281 152.586 115.281C148.595 115.281 147.005 114.335 145.414 108.712L133.128 63.6316C132.089 59.8585 130.613 58.7047 126.715 58.7047H125.676C124.096 58.7047 122.557 58.8502 121.726 59.9001C120.894 60.9499 121.196 62.5194 121.611 64.0578L134.064 109.533C136.392 118.243 139.157 125.446 149.499 125.446C151.261 125.467 153.016 125.207 154.696 124.677C151.578 134.541 148.366 138.886 138.959 139.853C137.047 140.019 135.841 140.29 135.114 141.215C134.526 142.311 134.417 143.601 134.812 144.78L135.072 145.954C135.633 148.647 136.59 150.32 139.614 150.32C139.937 150.32 140.28 150.32 140.654 150.32C154.707 149.405 162.232 141.838 166.639 124.21L181.67 64.089C181.981 62.4882 182.189 60.9187 181.368 59.8793Z" fill="#A6C307"/>
<path d="M279.085 31.7419H261.186C259.232 31.7476 257.652 33.3329 257.652 35.2864V37.781H258.899C266.986 37.781 269.99 39.1115 269.99 46.481V56.9481H279.095C281.047 56.9481 282.629 55.3658 282.629 53.414V35.3279C282.643 34.3799 282.276 33.466 281.609 32.7916C280.943 32.1173 280.033 31.739 279.085 31.7419Z" fill="#A6C307"/>
</g>
<defs>
<clipPath id="clip0_904_488">
<rect width="290" height="145" fill="white"/>
</clipPath>
</defs>
</svg>
