<svg width="467" height="150" viewBox="0 0 467 150" fill="none" xmlns="http://www.w3.org/2000/svg">
<path d="M241.082 47.9533C240.816 68.8489 259.77 80.5088 274.047 87.4419C288.716 94.5547 293.644 99.1163 293.585 105.478C293.476 115.213 281.884 119.509 271.037 119.676C252.113 119.968 241.109 114.585 232.361 110.513L225.544 142.301C234.321 146.331 250.572 149.846 267.425 150C306.984 150 332.864 130.541 333.004 100.372C333.159 62.0827 279.856 59.9633 280.22 42.8491C280.346 37.6597 285.315 32.1219 296.204 30.7138C301.594 30.0025 316.472 29.4582 333.341 37.1988L339.962 6.44324C330.89 3.15176 319.231 0 304.715 0C267.481 0 241.293 19.7235 241.082 47.9533ZM403.581 2.64914C396.357 2.64914 390.27 6.84785 387.553 13.2911L331.045 147.741H370.575L378.441 126.078H426.746L431.309 147.741H466.15L435.747 2.64914H403.581ZM409.111 41.8439L420.519 96.3275H389.276L409.111 41.8439ZM193.154 2.65096L161.995 147.739H199.663L230.808 2.64734L193.154 2.65096ZM137.429 2.64734L98.2211 101.404L82.3611 17.4354C80.5001 8.06177 73.151 2.64914 64.9897 2.64914H0.897703L0 6.86238C13.1578 9.70749 28.1074 14.2963 37.1646 19.2063C42.7074 22.2057 44.2879 24.8276 46.1088 31.9549L76.1482 147.741H115.955L176.984 2.64914L137.429 2.64734Z" fill="url(#paint0_linear_904_644)"/>
<defs>
<linearGradient id="paint0_linear_904_644" x1="214.308" y1="153.009" x2="218.635" y2="-1.04406" gradientUnits="userSpaceOnUse">
<stop stop-color="#222357"/>
<stop offset="1" stop-color="#254AA5"/>
</linearGradient>
</defs>
</svg>
