<svg width="49" height="34" viewBox="0 0 49 34" fill="none" xmlns="http://www.w3.org/2000/svg">
<rect x="0.5" y="0.5" width="48" height="33" rx="5.5" fill="#1F72CD" stroke="#D9D9D9"/>
<path fill-rule="evenodd" clip-rule="evenodd" d="M8.78449 12.0417L4.19995 22.3079H9.68829L10.3687 20.671H11.9239L12.6043 22.3079H18.6454V21.0586L19.1837 22.3079H22.3087L22.847 21.0322V22.3079H35.4109L36.9386 20.7136L38.3691 22.3079L44.8221 22.3211L40.2231 17.2035L44.8221 12.0417H38.4691L36.982 13.6066L35.5966 12.0417H21.9287L20.755 14.6915L19.5538 12.0417H14.077V13.2485L13.4677 12.0417H8.78449ZM27.5461 13.4995H34.7609L36.9675 15.9115L39.2453 13.4995H41.452L38.0992 17.202L41.452 20.8619H39.1452L36.9386 18.4219L34.6492 20.8619H27.5461V13.4995ZM29.3277 16.3696V15.0248V15.0235H33.8295L35.7939 17.1741L33.7425 19.3366H29.3277V17.8684H33.2637V16.3696H29.3277ZM9.84646 13.4995H12.5217L15.5627 20.4611V13.4995H18.4933L20.8421 18.4909L23.0067 13.4995H25.9227V20.8662H24.1484L24.1339 15.0937L21.5471 20.8662H19.9599L17.3586 15.0937V20.8662H13.7084L13.0164 19.2147H9.27777L8.58719 20.8647H6.63145L9.84646 13.4995ZM9.91614 17.6879L11.1479 14.7459L12.3782 17.6879H9.91614Z" fill="white"/>
</svg>
