<svg width="48" height="48" viewBox="0 0 48 48" fill="none" xmlns="http://www.w3.org/2000/svg">
<mask id="mask0_923_439" style="mask-type:alpha" maskUnits="userSpaceOnUse" x="0" y="0" width="48" height="48">
<rect width="48" height="48" fill="#D9D9D9"/>
</mask>
<g mask="url(#mask0_923_439)">
<path d="M24 43C13.5063 43 5 34.4937 5 24C5 13.5063 13.5063 5 24 5C34.4937 5 43 13.5063 43 24C43 34.4937 34.4937 43 24 43ZM24 39.2C28.0313 39.2 31.8975 37.5986 34.748 34.748C37.5986 31.8975 39.2 28.0313 39.2 24C39.2 19.9687 37.5986 16.1025 34.748 13.252C31.8975 10.4014 28.0313 8.8 24 8.8C19.9687 8.8 16.1025 10.4014 13.252 13.252C10.4014 16.1025 8.8 19.9687 8.8 24C8.8 28.0313 10.4014 31.8975 13.252 34.748C16.1025 37.5986 19.9687 39.2 24 39.2V39.2Z" fill="#2F353A"/>
</g>
</svg>
