<?xml version="1.0" encoding="UTF-8" standalone="no"?>
<!-- Created with Inkscape (http://www.inkscape.org/) -->

<svg
   version="1.1"
   id="svg4813"
   width="100"
   height="100"
   viewBox="0 0 100 100"
   xmlns="http://www.w3.org/2000/svg"
   xmlns:svg="http://www.w3.org/2000/svg">
   <defs
      id="defs4817" />
   <g
      id="g4819">
      <path
         fill="#2F353A"
         style="stroke:#2f353a;stroke-width:1;stroke-dasharray:none;stroke-opacity:1"
         d="m 67.069626,90.258063 c -5.204752,-3.173376 -6.100745,-5.83181 -6.114707,-18.14251 -0.01624,-14.316648 -0.479854,-16.79498 -3.80044,-20.315827 -2.407368,-2.552554 -3.215721,-2.88388 -7.03596,-2.88388 -3.518439,0 -4.794589,0.428761 -6.905085,2.319971 -3.404879,3.051102 -4.141993,6.627817 -4.166525,20.217335 -0.01854,10.273802 -0.152487,11.219196 -1.707378,12.051349 -1.198783,0.641568 -2.17572,0.641568 -3.374503,0 -1.63057,-0.872654 -1.687252,-1.766404 -1.687252,-26.603892 V 31.199707 h -7.984762 c -7.121349,0 -8.082405,-0.182446 -8.887752,-1.687252 -0.641569,-1.198783 -0.641569,-2.175719 0,-3.374503 0.804972,-1.504103 1.766403,-1.687251 8.857203,-1.687251 h 7.954213 l 0.241456,-8.22535 0.241455,-8.2253508 h 2.95269 2.95269 l 0.241456,8.2253508 0.241456,8.22535 h 7.954212 c 7.0908,0 8.052231,0.183148 8.857203,1.687251 0.641569,1.198784 0.641569,2.17572 0,3.374503 -0.805347,1.504806 -1.766403,1.687252 -8.887752,1.687252 H 39.026782 V 37.5269 c 0,3.479956 0.284724,6.31374 0.63272,6.297298 0.347994,-0.01644 1.581797,-0.572437 2.741782,-1.235544 1.192145,-0.681491 4.415977,-1.218647 7.415334,-1.235544 7.850942,-0.04423 13.119779,3.092599 16.529318,9.840813 1.061499,2.100937 1.36412,5.301393 1.36412,14.426655 0,6.449721 0.419563,12.930324 0.932361,14.401339 1.503756,4.313677 5.341343,5.487838 10.023228,3.066741 2.750687,-1.422436 4.721686,-0.973856 5.970043,1.35872 3.044432,5.688573 -10.446809,10.151351 -17.566062,5.810685 z"
         id="path5303" />
   </g>
</svg>