<svg width="48" height="48" viewBox="0 0 48 48" fill="none" xmlns="http://www.w3.org/2000/svg">
<mask id="mask0_752_17" style="mask-type:alpha" maskUnits="userSpaceOnUse" x="0" y="0" width="48" height="48">
<rect width="48" height="48" fill="#2F353A"/>
</mask>
<g mask="url(#mask0_752_17)">
<path d="M38.928 24.8497H38.9282C39.7021 24.8496 40.4612 25.0623 41.1224 25.4645C41.7836 25.8667 42.3215 26.4429 42.6774 27.1302C43.0332 27.8175 43.1932 28.5894 43.14 29.3615C43.0868 30.1336 42.8223 30.8762 42.3755 31.5081C41.9287 32.14 41.3168 32.637 40.6066 32.9446C39.8964 33.2523 39.1154 33.3587 38.3488 33.2524C37.5822 33.1461 36.8595 32.8311 36.2599 32.3418C35.6878 31.875 35.2486 31.2668 34.9854 30.5782H30.7854C30.4691 30.5782 30.1608 30.4787 29.9042 30.2937C29.6475 30.1088 29.4556 29.8478 29.3556 29.5477L29.3556 29.5477L28.1823 26.0263L24.0914 40.3425L24.0914 40.3425C24.0014 40.6572 23.8115 40.9339 23.5503 41.1311C23.2891 41.3282 22.9709 41.4349 22.6436 41.4352H22.6435H22.5663H22.5578L22.5578 41.435C22.2159 41.4156 21.8907 41.2803 21.6359 41.0513C21.3812 40.8225 21.212 40.5137 21.1562 40.1758L38.928 24.8497ZM38.928 24.8497C38.0554 24.8509 37.2046 25.122 36.4922 25.6258C35.8088 26.1091 35.2848 26.7839 34.9856 27.5639H31.8715L29.5011 20.4517L29.501 20.4516C29.3992 20.1463 29.2023 19.8817 28.9392 19.6964C28.6761 19.511 28.3606 19.4148 28.0388 19.4218C27.7171 19.4287 27.406 19.5385 27.1511 19.735C26.8963 19.9315 26.711 20.2044 26.6224 20.5138L26.6224 20.5139L23.0299 33.0858L18.7006 7.10842L18.7006 7.10831C18.6434 6.76682 18.4704 6.45542 18.2106 6.22648C17.9509 5.99754 17.6202 5.86502 17.2743 5.8512C16.9283 5.83738 16.5881 5.94311 16.3109 6.15061C16.0337 6.35811 15.8365 6.65472 15.7522 6.99057L15.7522 6.99067L10.6091 27.5639H6.35713C5.95741 27.5639 5.57407 27.7227 5.29143 28.0054C5.00879 28.288 4.85 28.6713 4.85 29.0711C4.85 29.4708 5.00879 29.8541 5.29143 30.1368C5.57407 30.4194 5.95741 30.5782 6.35713 30.5782H11.7856C12.1217 30.5781 12.4482 30.4657 12.7131 30.2589C12.9779 30.052 13.1661 29.7626 13.2476 29.4365L16.9184 14.7523M38.928 24.8497L16.9184 14.7523M16.9184 14.7523L21.1562 40.1756L16.9184 14.7523Z" fill="#2F353A" stroke="#2F353A" stroke-width="0.3"/>
</g>
</svg>
