<?xml version="1.0" encoding="UTF-8" standalone="no"?>
<!-- Created with Inkscape (http://www.inkscape.org/) -->

<svg
   version="1.1"
   id="svg214"
   width="100"
   height="100"
   viewBox="0 0 100 100"
   sodipodi:docname="solar.svg"
   inkscape:version="1.2.2 (b0a8486541, 2022-12-01, custom)"
   inkscape:export-filename="../9ea60ad6/sacral.svg"
   inkscape:export-xdpi="96"
   inkscape:export-ydpi="96"
   xmlns:inkscape="http://www.inkscape.org/namespaces/inkscape"
   xmlns:sodipodi="http://sodipodi.sourceforge.net/DTD/sodipodi-0.dtd"
   xmlns="http://www.w3.org/2000/svg"
   xmlns:svg="http://www.w3.org/2000/svg">
  <sodipodi:namedview
     id="namedview22925"
     pagecolor="#505050"
     bordercolor="#ffffff"
     borderopacity="1"
     inkscape:showpageshadow="0"
     inkscape:pageopacity="0"
     inkscape:pagecheckerboard="1"
     inkscape:deskcolor="#505050"
     showgrid="false"
     inkscape:zoom="1.7713025"
     inkscape:cx="39.80122"
     inkscape:cy="10.444292"
     inkscape:window-width="1366"
     inkscape:window-height="704"
     inkscape:window-x="0"
     inkscape:window-y="0"
     inkscape:window-maximized="1"
     inkscape:current-layer="svg214" />
  <defs
     id="defs218">
    <clipPath
       clipPathUnits="userSpaceOnUse"
       id="clipPath8875">
      <g
         id="g8881">
        <g
           id="g8879"
           transform="matrix(1.0363669,0,0,-1.0363669,-239.40204,422.21407)">
          <path
             d="M 0,500 H 750 V 0 H 0 Z"
             id="path8877" />
        </g>
      </g>
    </clipPath>
    <clipPath
       clipPathUnits="userSpaceOnUse"
       id="clipPath8890">
      <g
         id="g8896">
        <g
           id="g8894"
           transform="matrix(1.0363669,0,0,-1.0363669,-239.40204,422.21407)">
          <path
             d="M 0,500 H 750 V 0 H 0 Z"
             id="path8892" />
        </g>
      </g>
    </clipPath>
    <clipPath
       clipPathUnits="userSpaceOnUse"
       id="clipPath8905">
      <g
         id="g8911">
        <g
           id="g8909"
           transform="matrix(1.0363669,0,0,-1.0363669,-239.40204,422.21407)">
          <path
             d="M 0,500 H 750 V 0 H 0 Z"
             id="path8907" />
        </g>
      </g>
    </clipPath>
    <clipPath
       clipPathUnits="userSpaceOnUse"
       id="clipPath8920">
      <g
         id="g8926">
        <g
           id="g8924"
           transform="matrix(1.0363669,0,0,-1.0363669,-239.40204,422.21407)">
          <path
             d="M 0,500 H 750 V 0 H 0 Z"
             id="path8922" />
        </g>
      </g>
    </clipPath>
    <clipPath
       clipPathUnits="userSpaceOnUse"
       id="clipPath8935">
      <g
         id="g8941">
        <g
           id="g8939"
           transform="matrix(1.0363669,0,0,-1.0363669,-239.40204,422.21407)">
          <path
             d="M 0,500 H 750 V 0 H 0 Z"
             id="path8937" />
        </g>
      </g>
    </clipPath>
    <clipPath
       clipPathUnits="userSpaceOnUse"
       id="clipPath8950">
      <g
         id="g8956">
        <g
           id="g8954"
           transform="matrix(1.0363669,0,0,-1.0363669,-239.40204,422.21407)">
          <path
             d="M 0,500 H 750 V 0 H 0 Z"
             id="path8952" />
        </g>
      </g>
    </clipPath>
    <clipPath
       clipPathUnits="userSpaceOnUse"
       id="clipPath8965">
      <g
         id="g8971">
        <g
           id="g8969"
           transform="matrix(1.0363669,0,0,-1.0363669,-239.40204,422.21407)">
          <path
             d="M 0,500 H 750 V 0 H 0 Z"
             id="path8967" />
        </g>
      </g>
    </clipPath>
    <clipPath
       clipPathUnits="userSpaceOnUse"
       id="clipPath8980">
      <g
         id="g8986">
        <g
           id="g8984"
           transform="matrix(1.0363669,0,0,-1.0363669,-239.40204,422.21407)">
          <path
             d="M 0,500 H 750 V 0 H 0 Z"
             id="path8982" />
        </g>
      </g>
    </clipPath>
    <clipPath
       clipPathUnits="userSpaceOnUse"
       id="clipPath8995">
      <g
         id="g9001">
        <g
           id="g8999"
           transform="matrix(1.0363669,0,0,-1.0363669,-239.40204,422.21407)">
          <path
             d="M 0,500 H 750 V 0 H 0 Z"
             id="path8997" />
        </g>
      </g>
    </clipPath>
    <clipPath
       clipPathUnits="userSpaceOnUse"
       id="clipPath9010">
      <g
         id="g9016">
        <g
           id="g9014"
           transform="matrix(1.0363669,0,0,-1.0363669,-239.40204,422.21407)">
          <path
             d="M 0,500 H 750 V 0 H 0 Z"
             id="path9012" />
        </g>
      </g>
    </clipPath>
    <clipPath
       clipPathUnits="userSpaceOnUse"
       id="clipPath9025">
      <g
         id="g9031">
        <g
           id="g9029"
           transform="matrix(1.0363669,0,0,-1.0363669,-239.40204,422.21407)">
          <path
             d="M 0,500 H 750 V 0 H 0 Z"
             id="path9027" />
        </g>
      </g>
    </clipPath>
    <clipPath
       clipPathUnits="userSpaceOnUse"
       id="clipPath9040">
      <g
         id="g9046">
        <g
           id="g9044"
           transform="matrix(1.0363669,0,0,-1.0363669,-239.40204,422.21407)">
          <path
             d="M 0,500 H 750 V 0 H 0 Z"
             id="path9042" />
        </g>
      </g>
    </clipPath>
    <clipPath
       clipPathUnits="userSpaceOnUse"
       id="clipPath9055">
      <g
         id="g9061">
        <g
           id="g9059"
           transform="matrix(1.0363669,0,0,-1.0363669,-239.40204,422.21407)">
          <path
             d="M 0,500 H 750 V 0 H 0 Z"
             id="path9057" />
        </g>
      </g>
    </clipPath>
    <clipPath
       clipPathUnits="userSpaceOnUse"
       id="clipPath9070">
      <g
         id="g9076">
        <g
           id="g9074"
           transform="matrix(1.0363669,0,0,-1.0363669,-239.40204,422.21407)">
          <path
             d="M 0,500 H 750 V 0 H 0 Z"
             id="path9072" />
        </g>
      </g>
    </clipPath>
    <clipPath
       clipPathUnits="userSpaceOnUse"
       id="clipPath9085">
      <g
         id="g9091">
        <g
           id="g9089"
           transform="matrix(1.0363669,0,0,-1.0363669,-239.40204,422.21407)">
          <path
             d="M 0,500 H 750 V 0 H 0 Z"
             id="path9087" />
        </g>
      </g>
    </clipPath>
    <clipPath
       clipPathUnits="userSpaceOnUse"
       id="clipPath9100">
      <g
         id="g9106">
        <g
           id="g9104"
           transform="matrix(1.0363669,0,0,-1.0363669,-239.40204,422.21407)">
          <path
             d="M 0,500 H 750 V 0 H 0 Z"
             id="path9102" />
        </g>
      </g>
    </clipPath>
    <clipPath
       clipPathUnits="userSpaceOnUse"
       id="clipPath9115">
      <g
         id="g9121">
        <g
           id="g9119"
           transform="matrix(1.0363669,0,0,-1.0363669,-239.40204,422.21407)">
          <path
             d="M 0,500 H 750 V 0 H 0 Z"
             id="path9117" />
        </g>
      </g>
    </clipPath>
    <clipPath
       clipPathUnits="userSpaceOnUse"
       id="clipPath9130">
      <g
         id="g9136">
        <g
           id="g9134"
           transform="matrix(1.0363669,0,0,-1.0363669,-239.40204,422.21407)">
          <path
             d="M 0,500 H 750 V 0 H 0 Z"
             id="path9132" />
        </g>
      </g>
    </clipPath>
    <clipPath
       clipPathUnits="userSpaceOnUse"
       id="clipPath9145">
      <g
         id="g9151">
        <g
           id="g9149"
           transform="matrix(1.0363669,0,0,-1.0363669,-239.40204,422.21407)">
          <path
             d="M 0,500 H 750 V 0 H 0 Z"
             id="path9147" />
        </g>
      </g>
    </clipPath>
    <clipPath
       clipPathUnits="userSpaceOnUse"
       id="clipPath9160">
      <g
         id="g9166">
        <g
           id="g9164"
           transform="matrix(1.0363669,0,0,-1.0363669,-239.40204,422.21407)">
          <path
             d="M 0,500 H 750 V 0 H 0 Z"
             id="path9162" />
        </g>
      </g>
    </clipPath>
    <clipPath
       clipPathUnits="userSpaceOnUse"
       id="clipPath9175">
      <g
         id="g9181">
        <g
           id="g9179"
           transform="matrix(1.0363669,0,0,-1.0363669,-239.40204,422.21407)">
          <path
             d="M 0,500 H 750 V 0 H 0 Z"
             id="path9177" />
        </g>
      </g>
    </clipPath>
    <clipPath
       clipPathUnits="userSpaceOnUse"
       id="clipPath9190">
      <g
         id="g9196">
        <g
           id="g9194"
           transform="matrix(1.0363669,0,0,-1.0363669,-239.40204,422.21407)">
          <path
             d="M 0,500 H 750 V 0 H 0 Z"
             id="path9192" />
        </g>
      </g>
    </clipPath>
    <clipPath
       clipPathUnits="userSpaceOnUse"
       id="clipPath9205">
      <g
         id="g9211">
        <g
           id="g9209"
           transform="matrix(1.0363669,0,0,-1.0363669,-239.40204,422.21407)">
          <path
             d="M 0,500 H 750 V 0 H 0 Z"
             id="path9207" />
        </g>
      </g>
    </clipPath>
  </defs>
  <g
     id="g9236"
     style="display:none"
     sodipodi:insensitive="true">
    <path
       style="display:inline;fill:#efae1a;fill-opacity:1;fill-rule:nonzero;stroke:none;stroke-width:1.03637"
       d="m 50.344726,8.932597 c 0,0 -6.809351,3.235106 -11.708984,8.082031 -6.76762,-1.095431 -14.111328,0.181641 -14.111328,0.181641 0,0 -2.332315,4.75391 -3.574219,10.320312 -5.243054,2.522752 -9.458984,6.021485 -9.458984,6.021485 0,0 0.704314,10.843629 5.082031,17.474609 -3.710578,6.899759 -3.738281,17.300781 -3.738281,17.300781 0,0 4.028362,2.946758 9.082031,5.123047 1.293897,5.565184 3.679687,10.3125 3.679687,10.3125 0,0 7.503734,1.226115 14.316407,0.0059 4.669118,4.391046 10.492187,7.3125 10.492187,7.3125 0,0 6.179949,-3.197181 10.865235,-7.888671 6.138874,0.820027 12.191406,-0.01953 12.191406,-0.01953 0,0 2.234658,-4.197694 3.683594,-9.333984 5.484196,-2.194794 10.021484,-5.511719 10.021484,-5.511719 0,0 -0.02922,-10.399056 -3.738281,-17.298828 4.378242,-6.630856 5.080078,-17.476562 5.080078,-17.476562 0,0 -5.021875,-4.172284 -10.923828,-6.689454 -1.164862,-4.995699 -3.03711,-9.052734 -3.03711,-9.052734 0,0 -6.808966,-1.349956 -13.388672,-0.605469 C 56.565473,12.325581 50.344726,8.932597 50.344726,8.932597 Z"
       id="path9238" />
    <path
       id="path9381"
       style="color:#000000;fill:#121628;stroke-linecap:round;stroke-linejoin:round;stroke-miterlimit:10;-inkscape-stroke:none"
       d="m 50.369141,8.0000303 a 0.93282329,0.93282329 0 0 0 -0.425782,0.089844 c 0,0 -5.950732,2.8097047 -10.84375,7.2011717 -0.265451,0.238241 -0.526414,0.4828 -0.785156,0.730468 -0.31245,-0.04717 -0.624685,-0.09051 -0.9375,-0.126953 -1.632686,-0.190181 -3.262964,-0.26177 -4.789062,-0.261719 -4.578301,1.56e-4 -8.22461,0.642579 -8.22461,0.642579 a 0.93282329,0.93282329 0 0 0 -0.677734,0.507812 c 0,0 -2.250787,4.574833 -3.542969,10.089844 -5.189451,2.567077 -9.248047,5.947266 -9.248047,5.947265 a 0.93282329,0.93282329 0 0 0 -0.333984,0.777344 c 0,0 0.408874,6.571746 2.679687,12.744141 0.60355,1.64053 1.342389,3.256768 2.251954,4.724609 -0.697738,1.384877 -1.257151,2.867913 -1.705079,4.365235 -1.884362,6.299007 -1.886718,12.880859 -1.886718,12.880859 a 0.93282329,0.93282329 0 0 0 0.382812,0.753906 c 0,0 3.859864,2.829205 8.833985,5.035156 1.345177,5.506779 3.646484,10.066407 3.646484,10.066407 a 0.93282329,0.93282329 0 0 0 0.68164,0.5 c 0,0 6.494484,1.078143 13.019532,0.253906 0.385419,-0.04869 0.769726,-0.109152 1.154297,-0.173828 4.734034,4.333805 10.367187,7.152344 10.367187,7.152344 a 0.93282329,0.93282329 0 0 0 0.847656,-0.0039 c 0,0 5.854882,-3.01017 10.59961,-7.564453 0.05891,-0.05655 0.115237,-0.116796 0.173828,-0.173828 6.140517,0.742506 11.982422,-0.07617 11.982422,-0.07617 a 0.93282329,0.93282329 0 0 0 0.695312,-0.484375 c 0,0 2.150697,-4.02232 3.632813,-9.083984 5.431411,-2.246854 9.798828,-5.447266 9.798828,-5.447266 a 0.93282329,0.93282329 0 0 0 0.382812,-0.753906 c 0,0 -0.0025,-6.581847 -1.886718,-12.880859 -0.447996,-1.497657 -1.005847,-2.983527 -1.703125,-4.369141 0.908467,-1.466804 1.647024,-3.081638 2.25,-4.720703 2.270677,-6.172387 2.679687,-12.744141 2.679687,-12.744141 a 0.93282329,0.93282329 0 0 0 -0.333984,-0.777344 c 0,0 -4.847941,-4.038538 -10.722657,-6.638671 -1.194922,-4.902841 -2.988281,-8.777344 -2.988281,-8.777344 a 0.93282329,0.93282329 0 0 0 -0.666015,-0.523438 c 0,0 -3.630012,-0.728809 -8.207032,-0.83789 -0.381417,-0.0091 -0.769124,-0.01388 -1.162109,-0.01367 -1.178954,6.28e-4 -2.403297,0.04669 -3.630859,0.160156 -0.07227,0.0067 -0.144505,0.01614 -0.216797,0.02344 C 61.414145,16.112647 61.319273,16.00907 61.220703,15.910186 56.577605,11.252286 50.789062,8.1133116 50.789062,8.1133115 A 0.93282329,0.93282329 0 0 0 50.369141,8.0000303 Z M 50.3125,10.011749 c 0.62878,0.351252 5.470544,3.084394 9.587891,7.214843 2.1949,2.201895 4.054749,4.727361 4.791015,7.257813 0.07055,0.242471 0.127811,0.484407 0.177735,0.726563 -0.772459,0.410457 -1.506775,0.93417 -2.181641,1.58789 -4.002764,-2.360383 -8.663974,-3.720703 -13.642578,-3.720703 -4.504639,0 -8.749721,1.114677 -12.482422,3.074219 -0.563497,-0.445687 -1.156609,-0.819789 -1.775391,-1.117188 0.08632,-0.460021 0.212228,-0.918401 0.373047,-1.375 0.875302,-2.485169 2.872573,-4.90459 5.185547,-6.980468 4.337715,-3.893084 9.31746,-6.351222 9.966797,-6.667969 z m -17.707031,7.490234 c 1.314173,-7.18e-4 2.703145,0.05909 4.09375,0.201172 -1.425438,1.61787 -2.616764,3.39941 -3.298828,5.335937 -0.155428,0.441291 -0.275734,0.892293 -0.369141,1.34961 -0.528094,-0.13701 -1.067056,-0.230903 -1.611328,-0.283203 -0.38965,-0.03744 -0.781626,-0.05546 -1.175781,-0.05664 -2.649266,-0.008 -5.379679,0.769141 -7.933594,1.833984 1.111364,-4.12118 2.614435,-7.317807 2.857422,-7.826171 0.330456,-0.05391 1.379998,-0.235587 3.4375,-0.394532 1.173746,-0.09067 2.54066,-0.159358 4,-0.160157 z m 32.609375,0.388672 c 4.437233,-0.02522 8.096856,0.643208 8.666015,0.75 0.207453,0.461926 1.384696,3.127426 2.357422,6.677734 -2.122657,-0.763055 -4.329077,-1.275993 -6.482422,-1.269531 -0.394148,0.0012 -0.786147,0.0192 -1.175781,0.05664 -0.666432,0.06404 -1.321928,0.196977 -1.96289,0.388672 -0.04009,-0.178488 -0.08356,-0.355249 -0.134766,-0.53125 -0.62996,-2.165148 -1.881189,-4.176378 -3.396484,-6.003907 0.722333,-0.04253 1.435696,-0.06442 2.128906,-0.06836 z m -4.935547,0.09375 c 0.0035,0.02332 0.0035,0.04719 0.0078,0.07031 0.0034,0.01842 -3.12e-4,-0.03826 -0.0039,-0.05664 -0.0016,-0.0081 -0.0024,-0.0062 -0.0039,-0.01367 z m -11.234375,6.958984 c 8.557864,0 16.103203,4.282837 20.623047,10.820313 H 28.421875 c 4.519257,-6.537595 12.06509,-10.820313 20.623047,-10.820313 z m -18.804688,0.972657 c 0.339559,3.9e-5 0.674096,0.01537 1.001954,0.04687 1.303206,0.125226 2.50566,0.485736 3.589843,1.18164 -7.62601,4.755695 -12.708984,13.214803 -12.708984,22.855469 0,1.64219 0.155259,3.247177 0.4375,4.808594 -1.116338,-0.333391 -2.101158,-0.924711 -3.001953,-1.710938 -1.985439,-1.732912 -3.49294,-4.48255 -4.566406,-7.40039 -2.013794,-5.473772 -2.455847,-11.016665 -2.509766,-11.734375 0.558803,-0.454237 4.887323,-3.93756 10.246094,-6.234375 2.499637,-1.071369 5.134808,-1.812774 7.511718,-1.8125 z m 39.521485,0 c 2.37647,-2.73e-4 5.010184,0.741131 7.509765,1.8125 5.358651,2.296815 9.687291,5.780137 10.246094,6.234375 -0.05392,0.717711 -0.496088,6.260595 -2.509766,11.734375 -1.073405,2.917844 -2.581109,5.667485 -4.566406,7.40039 -1.393681,1.216504 -2.987261,1.970576 -4.96289,2.009766 0.318537,-1.654622 0.490234,-3.360492 0.490234,-5.107422 0,-9.201697 -4.630617,-17.327086 -11.683594,-22.183594 1.300451,-1.147953 2.805373,-1.693109 4.47461,-1.853515 0.327837,-0.03151 0.662457,-0.04684 1.001953,-0.04687 z M 28.703125,37.628936 H 69.466797 L 49.046875,73.537139 Z m -1.792969,0.619141 20.833985,36.775391 C 36.879798,74.469478 27.857593,67.009903 24.964844,56.943389 c 0.07762,-0.0013 0.154127,-8.25e-4 0.232422,-0.0039 -0.107292,-0.08777 -0.210384,-0.181219 -0.308594,-0.279297 l -0.002,-0.002 c -0.582201,-2.12056 -0.898438,-4.351451 -0.898438,-6.658203 0,-4.249266 1.059266,-8.247563 2.921875,-11.751953 z m 44.308594,0.07226 c 1.839241,3.487227 2.884766,7.459359 2.884766,11.679688 0,9.834268 -5.655129,18.330425 -13.890625,22.433594 -0.02778,-0.01209 -0.05657,-0.02251 -0.08398,-0.03516 0.01354,0.01932 0.02739,0.03746 0.04102,0.05664 -2.985109,1.480097 -6.304667,2.388549 -9.820313,2.56836 z M 16.726562,52.824249 c 0.492258,0.608619 1.025527,1.173506 1.605469,1.679687 1.304659,1.138721 2.869875,1.950074 4.65625,2.279297 1.877066,7.218996 6.678059,13.262051 13.060547,16.791016 -0.916592,0.565435 -1.929512,0.90752 -3.027344,1.082031 -2.602722,0.413729 -5.681467,-0.192514 -8.609375,-1.238281 -5.493544,-1.962141 -10.032964,-5.17416 -10.617187,-5.591797 0.0094,-0.720868 0.108523,-6.276308 1.779297,-11.861328 0.323029,-1.079821 0.707426,-2.138209 1.152343,-3.140625 z m 66.539063,0.0078 c 0.44625,1.000437 0.837157,2.053021 1.160156,3.132813 1.670661,5.585041 1.769882,11.140457 1.779297,11.861328 -0.584225,0.417639 -5.123752,3.629653 -10.617187,5.591797 -2.92785,1.045768 -6.004853,1.652006 -8.607422,1.238281 -1.45154,-0.230747 -2.761077,-0.745113 -3.888672,-1.693359 5.810371,-3.564136 10.166548,-9.270186 11.966797,-16.015625 2.616271,0.03997 4.847952,-0.905871 6.609375,-2.44336 0.577183,-0.503806 1.107323,-1.066529 1.597656,-1.671875 z m -16.076172,1.21875 -0.002,0.002 c 1.7e-5,0.02622 0.0015,0.06511 0.002,0.04883 5.08e-4,-0.01692 -3.03e-4,-0.03386 0,-0.05078 z M 61.414062,73.90628 c 1.063784,1.025982 2.286369,1.738146 3.591797,2.177734 -0.836509,2.428453 -2.694251,4.820375 -4.863281,6.902344 -4.207505,4.038623 -9.107827,6.664684 -9.74414,7.001953 -0.641721,-0.330755 -5.567289,-2.898474 -9.81836,-6.886719 -2.266645,-2.126503 -4.209039,-4.589732 -5.029297,-7.09375 -0.01301,-0.03971 -0.02271,-0.07943 -0.03516,-0.11914 0.839496,-0.338793 1.636621,-0.801812 2.375,-1.390625 3.400105,1.552297 7.175471,2.423828 11.154297,2.423828 4.459247,0 8.663562,-1.092836 12.36914,-3.015625 z m -38.146484,1.074219 c 0.172692,0.06476 0.343387,0.133096 0.517578,0.195312 3.096852,1.106109 6.43608,1.81396 9.529297,1.322266 0.139225,-0.02213 0.276052,-0.05245 0.414063,-0.08008 0.01752,0.05691 0.03028,0.115253 0.04883,0.171875 0.785675,2.398446 2.340523,4.578848 4.167968,6.513672 -5.679203,0.668826 -11.010276,-0.117371 -11.710937,-0.22461 -0.249995,-0.510102 -1.811852,-3.739375 -2.966797,-7.898437 z m 52.44336,0.365234 c -1.204168,3.688449 -2.624327,6.460639 -2.867188,6.927735 -0.614026,0.0791 -4.785146,0.592221 -9.611328,0.18164 1.575992,-1.794067 2.89334,-3.781674 3.597656,-5.9375 2.886299,0.423705 5.975194,-0.184185 8.88086,-1.171875 z" />
  </g>
  <g
     id="g284"
     style="display:inline">
    <path
       id="path280"
       style="display:inline;fill:#efae1a;fill-opacity:1;fill-rule:nonzero;stroke:none;stroke-width:1.03637"
       d="M 50.3125 10.011719 C 49.663164 10.328465 44.683414 12.786607 40.345703 16.679688 C 38.032731 18.755563 36.035457 21.17499 35.160156 23.660156 C 34.999337 24.116755 34.873429 24.575136 34.787109 25.035156 C 35.405891 25.332555 35.999004 25.706657 36.5625 26.152344 C 40.295197 24.192804 44.540287 23.078125 49.044922 23.078125 C 54.023521 23.078125 58.68474 24.438447 62.6875 26.798828 C 63.362365 26.145109 64.096682 25.621394 64.869141 25.210938 C 64.819217 24.968782 64.761956 24.726846 64.691406 24.484375 C 63.955141 21.953926 62.095288 19.428455 59.900391 17.226562 C 55.783048 13.096118 50.941279 10.36297 50.3125 10.011719 z M 32.605469 17.501953 C 31.14613 17.502752 29.779214 17.571439 28.605469 17.662109 C 26.547969 17.821054 25.498424 18.002731 25.167969 18.056641 C 24.924982 18.565004 23.42191 21.761637 22.310547 25.882812 C 24.864459 24.817971 27.594877 24.040828 30.244141 24.048828 C 30.638295 24.050008 31.030272 24.068029 31.419922 24.105469 C 31.964193 24.157769 32.503157 24.251662 33.03125 24.388672 C 33.124657 23.931355 33.244963 23.480353 33.400391 23.039062 C 34.082454 21.102537 35.273782 19.320993 36.699219 17.703125 C 35.308615 17.561043 33.91964 17.501235 32.605469 17.501953 z M 65.214844 17.890625 C 64.521634 17.894565 63.80827 17.916454 63.085938 17.958984 C 64.601231 19.786512 65.852463 21.797745 66.482422 23.962891 C 66.533628 24.138891 66.577098 24.315653 66.617188 24.494141 C 67.258149 24.302446 67.913647 24.169509 68.580078 24.105469 C 68.969712 24.068029 69.361712 24.050028 69.755859 24.048828 C 71.909202 24.042366 74.115626 24.555305 76.238281 25.318359 C 75.265556 21.768055 74.088312 19.102551 73.880859 18.640625 C 73.311701 18.533833 69.652072 17.865405 65.214844 17.890625 z M 60.279297 17.984375 C 60.280797 17.991845 60.281603 17.989947 60.283203 17.998047 C 60.286791 18.016427 60.290509 18.073107 60.287109 18.054688 C 60.282809 18.031568 60.282797 18.007695 60.279297 17.984375 z M 49.044922 24.943359 C 40.486973 24.943359 32.941127 29.226083 28.421875 35.763672 L 69.667969 35.763672 C 65.148129 29.226202 57.602777 24.943359 49.044922 24.943359 z M 30.240234 25.916016 C 27.863327 25.915742 25.22815 26.657148 22.728516 27.728516 C 17.36975 30.025328 13.041224 33.508654 12.482422 33.962891 C 12.536341 34.6806 12.978396 40.223499 14.992188 45.697266 C 16.065652 48.615103 17.573157 51.364746 19.558594 53.097656 C 20.459388 53.883882 21.44421 54.475203 22.560547 54.808594 C 22.278306 53.247178 22.123047 51.642188 22.123047 50 C 22.123047 40.359344 27.206029 31.900221 34.832031 27.144531 C 33.747849 26.448628 32.545392 26.088116 31.242188 25.962891 C 30.91433 25.931391 30.579793 25.916055 30.240234 25.916016 z M 69.761719 25.916016 C 69.422223 25.916046 69.087602 25.931381 68.759766 25.962891 C 67.09053 26.123296 65.585606 26.668454 64.285156 27.816406 C 71.338126 32.672909 75.96875 40.798312 75.96875 50 C 75.96875 51.746928 75.797052 53.452802 75.478516 55.107422 C 77.454143 55.068232 79.047727 54.314159 80.441406 53.097656 C 82.426701 51.364753 83.934409 48.615107 85.007812 45.697266 C 87.021488 40.223491 87.463658 34.680601 87.517578 33.962891 C 86.958776 33.508653 82.63013 30.025328 77.271484 27.728516 C 74.771906 26.657148 72.138186 25.915743 69.761719 25.916016 z M 28.703125 37.628906 L 49.046875 73.537109 L 69.466797 37.628906 L 28.703125 37.628906 z M 26.910156 38.248047 C 25.047549 41.752433 23.988281 45.750738 23.988281 50 C 23.988281 52.30675 24.304518 54.537645 24.886719 56.658203 L 24.888672 56.660156 C 24.986882 56.758234 25.089974 56.851683 25.197266 56.939453 C 25.118971 56.942528 25.042464 56.942059 24.964844 56.943359 C 27.85759 67.009863 36.879808 74.469448 47.744141 75.023438 L 26.910156 38.248047 z M 71.21875 38.320312 L 50.349609 75.023438 C 53.865252 74.843627 57.184816 73.935174 60.169922 72.455078 C 60.156292 72.435898 60.142446 72.417757 60.128906 72.398438 C 60.156316 72.411087 60.185111 72.421504 60.212891 72.433594 C 68.448378 68.330429 74.103516 59.834258 74.103516 50 C 74.103516 45.779675 73.057989 41.807536 71.21875 38.320312 z M 16.726562 52.824219 C 16.281646 53.826634 15.897247 54.885024 15.574219 55.964844 C 13.903446 61.549858 13.804322 67.105305 13.794922 67.826172 C 14.379144 68.243808 18.918571 71.45583 24.412109 73.417969 C 27.340014 74.463735 30.418765 75.069979 33.021484 74.65625 C 34.119315 74.481739 35.132237 74.139653 36.048828 73.574219 C 29.666347 70.045257 24.865345 64.002192 22.988281 56.783203 C 21.201908 56.45398 19.636689 55.642626 18.332031 54.503906 C 17.75209 53.997726 17.21882 53.432837 16.726562 52.824219 z M 83.265625 52.832031 C 82.775292 53.437377 82.245151 54.000101 81.667969 54.503906 C 79.906548 56.041394 77.674862 56.987236 75.058594 56.947266 C 73.258347 63.692698 68.902162 69.398758 63.091797 72.962891 C 64.219391 73.911136 65.52893 74.425503 66.980469 74.65625 C 69.583035 75.069975 72.660044 74.463736 75.587891 73.417969 C 81.08132 71.455827 85.620854 68.24381 86.205078 67.826172 C 86.195663 67.105302 86.096441 61.549879 84.425781 55.964844 C 84.102783 54.885053 83.711875 53.832467 83.265625 52.832031 z M 67.189453 54.050781 C 67.18915 54.067701 67.189961 54.084643 67.189453 54.101562 C 67.188953 54.117842 67.187517 54.078954 67.1875 54.052734 L 67.189453 54.050781 z M 61.414062 73.90625 C 57.708488 75.829037 53.504164 76.921875 49.044922 76.921875 C 45.0661 76.921875 41.290727 76.050342 37.890625 74.498047 C 37.152247 75.086859 36.35512 75.549879 35.515625 75.888672 C 35.528075 75.928382 35.537771 75.968103 35.550781 76.007812 C 36.371038 78.511828 38.313435 80.975062 40.580078 83.101562 C 44.831145 87.089804 49.756717 89.657527 50.398438 89.988281 C 51.03475 89.651013 55.935077 87.024947 60.142578 82.986328 C 62.311606 80.904361 64.169351 78.512435 65.005859 76.083984 C 63.700433 75.644397 62.477845 74.932231 61.414062 73.90625 z M 23.267578 74.980469 C 24.422522 79.139527 25.98438 82.368805 26.234375 82.878906 C 26.935035 82.986145 32.266115 83.772341 37.945312 83.103516 C 36.117869 81.168694 34.563018 78.988287 33.777344 76.589844 C 33.758794 76.533222 33.746036 76.474879 33.728516 76.417969 C 33.590505 76.445599 33.453678 76.475917 33.314453 76.498047 C 30.221239 76.98974 26.882005 76.281889 23.785156 75.175781 C 23.610965 75.113565 23.44027 75.045229 23.267578 74.980469 z M 75.710938 75.345703 C 72.805274 76.333392 69.716374 76.941283 66.830078 76.517578 C 66.125763 78.673402 64.808412 80.661013 63.232422 82.455078 C 68.058599 82.865659 72.229725 82.352537 72.84375 82.273438 C 73.086611 81.806342 74.506771 79.034148 75.710938 75.345703 z " />
  </g>
</svg>
