<?xml version="1.0" encoding="UTF-8" standalone="no"?>
<!-- Created with Inkscape (http://www.inkscape.org/) -->

<svg
   version="1.1"
   id="svg214"
   width="100"
   height="100"
   viewBox="0 0 100 100"
   sodipodi:docname="throat.svg"
   inkscape:version="1.2.2 (b0a8486541, 2022-12-01, custom)"
   inkscape:export-filename="throat.svg"
   inkscape:export-xdpi="96"
   inkscape:export-ydpi="96"
   xmlns:inkscape="http://www.inkscape.org/namespaces/inkscape"
   xmlns:sodipodi="http://sodipodi.sourceforge.net/DTD/sodipodi-0.dtd"
   xmlns="http://www.w3.org/2000/svg"
   xmlns:svg="http://www.w3.org/2000/svg">
  <sodipodi:namedview
     id="namedview22925"
     pagecolor="#505050"
     bordercolor="#ffffff"
     borderopacity="1"
     inkscape:showpageshadow="0"
     inkscape:pageopacity="0"
     inkscape:pagecheckerboard="1"
     inkscape:deskcolor="#505050"
     showgrid="false"
     inkscape:zoom="4"
     inkscape:cx="33.125"
     inkscape:cy="43.125"
     inkscape:window-width="1366"
     inkscape:window-height="704"
     inkscape:window-x="0"
     inkscape:window-y="0"
     inkscape:window-maximized="1"
     inkscape:current-layer="svg214" />
  <defs
     id="defs218">
    <clipPath
       clipPathUnits="userSpaceOnUse"
       id="clipPath990">
      <g
         id="g996">
        <g
           id="g994">
          <path
             d="M 0,500 H 750 V 0 H 0 Z"
             id="path992" />
        </g>
      </g>
    </clipPath>
    <clipPath
       clipPathUnits="userSpaceOnUse"
       id="clipPath1005">
      <g
         id="g1011">
        <g
           id="g1009">
          <path
             d="M 0,500 H 750 V 0 H 0 Z"
             id="path1007" />
        </g>
      </g>
    </clipPath>
    <clipPath
       clipPathUnits="userSpaceOnUse"
       id="clipPath1020">
      <g
         id="g1026">
        <g
           id="g1024">
          <path
             d="M 0,500 H 750 V 0 H 0 Z"
             id="path1022" />
        </g>
      </g>
    </clipPath>
    <clipPath
       clipPathUnits="userSpaceOnUse"
       id="clipPath1035">
      <g
         id="g1041">
        <g
           id="g1039">
          <path
             d="M 0,500 H 750 V 0 H 0 Z"
             id="path1037" />
        </g>
      </g>
    </clipPath>
    <clipPath
       clipPathUnits="userSpaceOnUse"
       id="clipPath1050">
      <g
         id="g1056">
        <g
           id="g1054">
          <path
             d="M 0,500 H 750 V 0 H 0 Z"
             id="path1052" />
        </g>
      </g>
    </clipPath>
    <clipPath
       clipPathUnits="userSpaceOnUse"
       id="clipPath1065">
      <g
         id="g1071">
        <g
           id="g1069">
          <path
             d="M 0,500 H 750 V 0 H 0 Z"
             id="path1067" />
        </g>
      </g>
    </clipPath>
    <clipPath
       clipPathUnits="userSpaceOnUse"
       id="clipPath1080">
      <g
         id="g1086">
        <g
           id="g1084">
          <path
             d="M 0,500 H 750 V 0 H 0 Z"
             id="path1082" />
        </g>
      </g>
    </clipPath>
    <clipPath
       clipPathUnits="userSpaceOnUse"
       id="clipPath1095">
      <g
         id="g1101">
        <g
           id="g1099">
          <path
             d="M 0,500 H 750 V 0 H 0 Z"
             id="path1097" />
        </g>
      </g>
    </clipPath>
    <clipPath
       clipPathUnits="userSpaceOnUse"
       id="clipPath1110">
      <g
         id="g1116">
        <g
           id="g1114">
          <path
             d="M 0,500 H 750 V 0 H 0 Z"
             id="path1112" />
        </g>
      </g>
    </clipPath>
    <clipPath
       clipPathUnits="userSpaceOnUse"
       id="clipPath1125">
      <g
         id="g1131">
        <g
           id="g1129">
          <path
             d="M 0,500 H 750 V 0 H 0 Z"
             id="path1127" />
        </g>
      </g>
    </clipPath>
    <clipPath
       clipPathUnits="userSpaceOnUse"
       id="clipPath1140">
      <g
         id="g1146">
        <g
           id="g1144">
          <path
             d="M 0,500 H 750 V 0 H 0 Z"
             id="path1142" />
        </g>
      </g>
    </clipPath>
    <clipPath
       clipPathUnits="userSpaceOnUse"
       id="clipPath1155">
      <g
         id="g1161">
        <g
           id="g1159">
          <path
             d="M 0,500 H 750 V 0 H 0 Z"
             id="path1157" />
        </g>
      </g>
    </clipPath>
    <clipPath
       clipPathUnits="userSpaceOnUse"
       id="clipPath1170">
      <g
         id="g1176">
        <g
           id="g1174">
          <path
             d="M 0,500 H 750 V 0 H 0 Z"
             id="path1172" />
        </g>
      </g>
    </clipPath>
    <clipPath
       clipPathUnits="userSpaceOnUse"
       id="clipPath1185">
      <g
         id="g1191">
        <g
           id="g1189">
          <path
             d="M 0,500 H 750 V 0 H 0 Z"
             id="path1187" />
        </g>
      </g>
    </clipPath>
    <clipPath
       clipPathUnits="userSpaceOnUse"
       id="clipPath1200">
      <g
         id="g1206">
        <g
           id="g1204">
          <path
             d="M 0,500 H 750 V 0 H 0 Z"
             id="path1202" />
        </g>
      </g>
    </clipPath>
    <clipPath
       clipPathUnits="userSpaceOnUse"
       id="clipPath1215">
      <g
         id="g1221">
        <g
           id="g1219">
          <path
             d="M 0,500 H 750 V 0 H 0 Z"
             id="path1217" />
        </g>
      </g>
    </clipPath>
    <clipPath
       clipPathUnits="userSpaceOnUse"
       id="clipPath1230">
      <g
         id="g1236">
        <g
           id="g1234">
          <path
             d="M 0,500 H 750 V 0 H 0 Z"
             id="path1232" />
        </g>
      </g>
    </clipPath>
    <clipPath
       clipPathUnits="userSpaceOnUse"
       id="clipPath1245">
      <g
         id="g1251">
        <g
           id="g1249">
          <path
             d="M 0,500 H 750 V 0 H 0 Z"
             id="path1247" />
        </g>
      </g>
    </clipPath>
    <clipPath
       clipPathUnits="userSpaceOnUse"
       id="clipPath1260">
      <g
         id="g1266">
        <g
           id="g1264">
          <path
             d="M 0,500 H 750 V 0 H 0 Z"
             id="path1262" />
        </g>
      </g>
    </clipPath>
    <clipPath
       clipPathUnits="userSpaceOnUse"
       id="clipPath1275">
      <g
         id="g1281">
        <g
           id="g1279">
          <path
             d="M 0,500 H 750 V 0 H 0 Z"
             id="path1277" />
        </g>
      </g>
    </clipPath>
    <clipPath
       clipPathUnits="userSpaceOnUse"
       id="clipPath1290">
      <g
         id="g1296">
        <g
           id="g1294">
          <path
             d="M 0,500 H 750 V 0 H 0 Z"
             id="path1292" />
        </g>
      </g>
    </clipPath>
    <clipPath
       clipPathUnits="userSpaceOnUse"
       id="clipPath1305">
      <g
         id="g1311">
        <g
           id="g1309">
          <path
             d="M 0,500 H 750 V 0 H 0 Z"
             id="path1307" />
        </g>
      </g>
    </clipPath>
    <clipPath
       clipPathUnits="userSpaceOnUse"
       id="clipPath1320">
      <g
         id="g1326">
        <g
           id="g1324">
          <path
             d="M 0,500 H 750 V 0 H 0 Z"
             id="path1322" />
        </g>
      </g>
    </clipPath>
    <clipPath
       clipPathUnits="userSpaceOnUse"
       id="clipPath1335">
      <g
         id="g1341">
        <g
           id="g1339">
          <path
             d="M 0,500 H 750 V 0 H 0 Z"
             id="path1337" />
        </g>
      </g>
    </clipPath>
    <clipPath
       clipPathUnits="userSpaceOnUse"
       id="clipPath1350">
      <g
         id="g1356">
        <g
           id="g1354">
          <path
             d="M 0,500 H 750 V 0 H 0 Z"
             id="path1352" />
        </g>
      </g>
    </clipPath>
    <clipPath
       clipPathUnits="userSpaceOnUse"
       id="clipPath1365">
      <g
         id="g1371">
        <g
           id="g1369">
          <path
             d="M 0,500 H 750 V 0 H 0 Z"
             id="path1367" />
        </g>
      </g>
    </clipPath>
    <clipPath
       clipPathUnits="userSpaceOnUse"
       id="clipPath1380">
      <g
         id="g1386">
        <g
           id="g1384">
          <path
             d="M 0,500 H 750 V 0 H 0 Z"
             id="path1382" />
        </g>
      </g>
    </clipPath>
    <clipPath
       clipPathUnits="userSpaceOnUse"
       id="clipPath1395">
      <g
         id="g1401">
        <g
           id="g1399">
          <path
             d="M 0,500 H 750 V 0 H 0 Z"
             id="path1397" />
        </g>
      </g>
    </clipPath>
    <clipPath
       clipPathUnits="userSpaceOnUse"
       id="clipPath1410">
      <g
         id="g1416">
        <g
           id="g1414">
          <path
             d="M 0,500 H 750 V 0 H 0 Z"
             id="path1412" />
        </g>
      </g>
    </clipPath>
    <clipPath
       clipPathUnits="userSpaceOnUse"
       id="clipPath1425">
      <g
         id="g1431">
        <g
           id="g1429">
          <path
             d="M 0,500 H 750 V 0 H 0 Z"
             id="path1427" />
        </g>
      </g>
    </clipPath>
    <clipPath
       clipPathUnits="userSpaceOnUse"
       id="clipPath1440">
      <g
         id="g1446">
        <g
           id="g1444">
          <path
             d="M 0,500 H 750 V 0 H 0 Z"
             id="path1442" />
        </g>
      </g>
    </clipPath>
    <clipPath
       clipPathUnits="userSpaceOnUse"
       id="clipPath1455">
      <g
         id="g1461">
        <g
           id="g1459">
          <path
             d="M 0,500 H 750 V 0 H 0 Z"
             id="path1457" />
        </g>
      </g>
    </clipPath>
    <clipPath
       clipPathUnits="userSpaceOnUse"
       id="clipPath1470">
      <g
         id="g1476">
        <g
           id="g1474">
          <path
             d="M 0,500 H 750 V 0 H 0 Z"
             id="path1472" />
        </g>
      </g>
    </clipPath>
    <clipPath
       clipPathUnits="userSpaceOnUse"
       id="clipPath1485">
      <g
         id="g1491">
        <g
           id="g1489">
          <path
             d="M 0,500 H 750 V 0 H 0 Z"
             id="path1487" />
        </g>
      </g>
    </clipPath>
    <clipPath
       clipPathUnits="userSpaceOnUse"
       id="clipPath1500">
      <g
         id="g1506">
        <g
           id="g1504">
          <path
             d="M 0,500 H 750 V 0 H 0 Z"
             id="path1502" />
        </g>
      </g>
    </clipPath>
    <clipPath
       clipPathUnits="userSpaceOnUse"
       id="clipPath1515">
      <g
         id="g1521">
        <g
           id="g1519">
          <path
             d="M 0,500 H 750 V 0 H 0 Z"
             id="path1517" />
        </g>
      </g>
    </clipPath>
    <clipPath
       clipPathUnits="userSpaceOnUse"
       id="clipPath939">
      <g
         id="g947">
        <g
           id="g945"
           transform="matrix(1.0363733,0,0,-1.0363733,-433.5366,422.21658)">
          <g
             id="g943">
            <path
               d="M 0,500 H 750 V 0 H 0 Z"
               id="path941" />
          </g>
        </g>
      </g>
    </clipPath>
    <clipPath
       clipPathUnits="userSpaceOnUse"
       id="clipPath949">
      <g
         id="g957">
        <g
           id="g955"
           transform="matrix(1.0363733,0,0,-1.0363733,-433.5366,422.21658)">
          <g
             id="g953">
            <path
               d="M 0,500 H 750 V 0 H 0 Z"
               id="path951" />
          </g>
        </g>
      </g>
    </clipPath>
    <clipPath
       clipPathUnits="userSpaceOnUse"
       id="clipPath972">
      <g
         id="g980">
        <g
           id="g978"
           transform="matrix(1.0363733,0,0,-1.0363733,-433.5366,422.21658)">
          <g
             id="g976">
            <path
               d="M 0,500 H 750 V 0 H 0 Z"
               id="path974" />
          </g>
        </g>
      </g>
    </clipPath>
    <clipPath
       clipPathUnits="userSpaceOnUse"
       id="clipPath982">
      <g
         id="g990">
        <g
           id="g988"
           transform="matrix(1.0363733,0,0,-1.0363733,-433.5366,422.21658)">
          <g
             id="g986">
            <path
               d="M 0,500 H 750 V 0 H 0 Z"
               id="path984" />
          </g>
        </g>
      </g>
    </clipPath>
    <clipPath
       clipPathUnits="userSpaceOnUse"
       id="clipPath1006">
      <g
         id="g1014">
        <g
           id="g1012"
           transform="matrix(1.0363733,0,0,-1.0363733,-433.5366,422.21658)">
          <g
             id="g1010">
            <path
               d="M 0,500 H 750 V 0 H 0 Z"
               id="path1008" />
          </g>
        </g>
      </g>
    </clipPath>
    <clipPath
       clipPathUnits="userSpaceOnUse"
       id="clipPath1016">
      <g
         id="g1025">
        <g
           id="g1022"
           transform="matrix(1.0363733,0,0,-1.0363733,-433.5366,422.21658)">
          <g
             id="g1020">
            <path
               d="M 0,500 H 750 V 0 H 0 Z"
               id="path1018" />
          </g>
        </g>
      </g>
    </clipPath>
    <clipPath
       clipPathUnits="userSpaceOnUse"
       id="clipPath1040">
      <g
         id="g1048">
        <g
           id="g1046"
           transform="matrix(1.0363733,0,0,-1.0363733,-433.5366,422.21658)">
          <g
             id="g1044">
            <path
               d="M 0,500 H 750 V 0 H 0 Z"
               id="path1042" />
          </g>
        </g>
      </g>
    </clipPath>
    <clipPath
       clipPathUnits="userSpaceOnUse"
       id="clipPath1051">
      <g
         id="g1059">
        <g
           id="g1057"
           transform="matrix(1.0363733,0,0,-1.0363733,-433.5366,422.21658)">
          <g
             id="g1055">
            <path
               d="M 0,500 H 750 V 0 H 0 Z"
               id="path1053" />
          </g>
        </g>
      </g>
    </clipPath>
    <clipPath
       clipPathUnits="userSpaceOnUse"
       id="clipPath1074">
      <g
         id="g1082">
        <g
           id="g1080"
           transform="matrix(1.0363733,0,0,-1.0363733,-433.5366,422.21658)">
          <g
             id="g1078">
            <path
               d="M 0,500 H 750 V 0 H 0 Z"
               id="path1076" />
          </g>
        </g>
      </g>
    </clipPath>
    <clipPath
       clipPathUnits="userSpaceOnUse"
       id="clipPath1084">
      <g
         id="g1092">
        <g
           id="g1090"
           transform="matrix(1.0363733,0,0,-1.0363733,-433.5366,422.21658)">
          <g
             id="g1088">
            <path
               d="M 0,500 H 750 V 0 H 0 Z"
               id="path1086" />
          </g>
        </g>
      </g>
    </clipPath>
    <clipPath
       clipPathUnits="userSpaceOnUse"
       id="clipPath1107">
      <g
         id="g1115">
        <g
           id="g1113"
           transform="matrix(1.0363733,0,0,-1.0363733,-433.5366,422.21658)">
          <g
             id="g1111">
            <path
               d="M 0,500 H 750 V 0 H 0 Z"
               id="path1109" />
          </g>
        </g>
      </g>
    </clipPath>
    <clipPath
       clipPathUnits="userSpaceOnUse"
       id="clipPath1117">
      <g
         id="g1125">
        <g
           id="g1123"
           transform="matrix(1.0363733,0,0,-1.0363733,-433.5366,422.21658)">
          <g
             id="g1121">
            <path
               d="M 0,500 H 750 V 0 H 0 Z"
               id="path1119" />
          </g>
        </g>
      </g>
    </clipPath>
    <clipPath
       clipPathUnits="userSpaceOnUse"
       id="clipPath1141">
      <g
         id="g1149">
        <g
           id="g1147"
           transform="matrix(1.0363733,0,0,-1.0363733,-433.5366,422.21658)">
          <g
             id="g1145">
            <path
               d="M 0,500 H 750 V 0 H 0 Z"
               id="path1143" />
          </g>
        </g>
      </g>
    </clipPath>
    <clipPath
       clipPathUnits="userSpaceOnUse"
       id="clipPath1151">
      <g
         id="g1160">
        <g
           id="g1157"
           transform="matrix(1.0363733,0,0,-1.0363733,-433.5366,422.21658)">
          <g
             id="g1155">
            <path
               d="M 0,500 H 750 V 0 H 0 Z"
               id="path1153" />
          </g>
        </g>
      </g>
    </clipPath>
    <clipPath
       clipPathUnits="userSpaceOnUse"
       id="clipPath1175">
      <g
         id="g1183">
        <g
           id="g1181"
           transform="matrix(1.0363733,0,0,-1.0363733,-433.5366,422.21658)">
          <g
             id="g1179">
            <path
               d="M 0,500 H 750 V 0 H 0 Z"
               id="path1177" />
          </g>
        </g>
      </g>
    </clipPath>
    <clipPath
       clipPathUnits="userSpaceOnUse"
       id="clipPath1186">
      <g
         id="g1194">
        <g
           id="g1192"
           transform="matrix(1.0363733,0,0,-1.0363733,-433.5366,422.21658)">
          <g
             id="g1190">
            <path
               d="M 0,500 H 750 V 0 H 0 Z"
               id="path1188" />
          </g>
        </g>
      </g>
    </clipPath>
    <clipPath
       clipPathUnits="userSpaceOnUse"
       id="clipPath1209">
      <g
         id="g1217">
        <g
           id="g1215"
           transform="matrix(1.0363733,0,0,-1.0363733,-433.5366,422.21658)">
          <g
             id="g1213">
            <path
               d="M 0,500 H 750 V 0 H 0 Z"
               id="path1211" />
          </g>
        </g>
      </g>
    </clipPath>
    <clipPath
       clipPathUnits="userSpaceOnUse"
       id="clipPath1219">
      <g
         id="g1227">
        <g
           id="g1225"
           transform="matrix(1.0363733,0,0,-1.0363733,-433.5366,422.21658)">
          <g
             id="g1223">
            <path
               d="M 0,500 H 750 V 0 H 0 Z"
               id="path1221" />
          </g>
        </g>
      </g>
    </clipPath>
  </defs>
  <g
     id="g5189"
     style="display:none"
     sodipodi:insensitive="true">
    <path
       style="display:inline;fill:#0cd7d8;fill-opacity:1;fill-rule:nonzero;stroke:none;stroke-width:1.82344;stroke-linecap:round;stroke-linejoin:round;stroke-dasharray:none;stroke-opacity:1"
       d="m 466.46236,398.76817 c 0,0 -5.83594,-2.9311 -10.38402,-7.30273 -2.32242,0.34823 -4.66258,0.44609 -6.67517,0.42026 -3.30636,-0.0424 -5.72723,-0.39199 -5.72723,-0.39199 0,0 -1.05108,-2.00534 -2.15407,-4.89802 -2.7617,-0.69696 -4.65868,-1.40777 -4.65868,-1.40777 0,0 -0.6668,-2.43822 -1.12509,-5.79319 -3.40745,-2.02817 -5.83088,-4.02358 -5.83088,-4.02358 0,0 0.29137,-4.43907 1.65654,-9.30227 -2.84139,-3.70553 -4.62286,-7.23489 -4.62286,-7.23489 0,0 2.06602,-3.97612 5.28247,-7.89637 -1.00646,-4.83094 -1.01956,-9.12324 -1.01956,-9.12324 0,0 1.90802,-1.39114 4.71521,-2.94371 0.31007,-3.32757 0.86125,-5.74984 0.86125,-5.74984 0,0 2.1874,-0.93307 5.29001,-1.81862 1.02957,-2.78749 1.99954,-4.71521 1.99954,-4.71521 0,0 7.11229,-1.12598 13.62925,0.0301 4.63904,-4.27341 10.53479,-7.08035 10.53479,-7.08035 0,0 5.3348,2.91249 9.66222,7.17647 5.66303,-0.81531 11.09262,-0.23934 11.09262,-0.23934 0,0 1.20353,2.10493 2.45372,5.13924 3.14033,0.84642 5.35974,1.75831 5.35974,1.75831 0,0 0.51861,2.17369 0.87633,5.21274 3.09473,1.66466 5.25043,3.23016 5.25043,3.23016 0,0 -0.0167,5.05592 -1.30225,10.37083 2.79287,3.47373 4.56445,6.70909 4.56445,6.70909 0,0 -1.44205,3.03269 -3.82946,6.45845 1.54485,5.13505 1.86196,10.0184 1.86196,10.0184 0,0 -2.98802,2.47817 -7.02382,4.71898 -0.42092,3.20071 -1.02521,5.50108 -1.02521,5.50108 0,0 -2.12111,0.81319 -5.12228,1.5774 -1.15203,2.85536 -2.2351,4.82828 -2.2351,4.82828 0,0 -2.42708,0.30368 -5.73477,0.28457 -2.03131,-0.0117 -4.39332,-0.15473 -6.72983,-0.55406 -4.43053,4.21246 -9.89025,7.04077 -9.89025,7.04077 z"
       transform="matrix(1.0363733,0,0,-1.0363733,-433.53656,422.21602)"
       id="path5185" />
    <path
       id="path5972"
       style="color:#000000;display:inline;fill:#121628;stroke-width:1.03637;stroke-linecap:round;stroke-linejoin:round;-inkscape-stroke:none"
       d="m 49.912042,8.009172 c -0.15206,-0.00668 -0.303497,0.023472 -0.441406,0.087891 0,0 -5.874819,2.931606 -10.669922,7.417968 -2.317853,-0.316445 -4.613329,-0.410282 -6.601563,-0.384765 -3.487237,0.04472 -6.058593,0.416015 -6.058593,0.416015 -0.298603,0.04362 -0.558416,0.22723 -0.699219,0.494141 0,0 -1.000301,1.908925 -2.099609,4.738281 -2.634603,0.69151 -4.458984,1.355469 -4.458985,1.355469 -0.282473,0.106859 -0.496172,0.341566 -0.576172,0.632813 0,0 -0.62807,2.375814 -1.107422,5.65039 -3.428679,2.075257 -5.794921,4.046875 -5.794921,4.046875 -0.04974,0.144232 -0.06381,0.298369 -0.04102,0.449219 -0.124714,0.08709 -0.226557,0.203006 -0.296875,0.337891 0,0 0.2765,4.408027 1.623047,9.394531 -2.8333844,3.774844 -4.5996097,7.259765 -4.5996096,7.259765 -0.1358962,0.269985 -0.134496,0.588689 0.00391,0.857422 0,0 2.0499356,3.950201 5.2968756,7.990235 -0.982759,4.94855 -0.984375,9.21289 -0.984375,9.21289 0.01332,0.282343 0.152333,0.543896 0.378906,0.712891 0.0028,0.017 0.0061,0.03395 0.0098,0.05078 0,0 1.83447,1.334466 4.568359,2.878906 0.333125,3.237 0.845703,5.580079 0.845703,5.580079 0.06768,0.294753 0.272562,0.539652 0.550781,0.658203 5e-6,0 2.117716,0.890965 5.140625,1.783203 1.022193,2.712438 1.94336,4.548827 1.94336,4.548828 0.137271,0.269145 0.394981,0.45644 0.693359,0.503906 0,0 3.65703,0.588844 8.236328,0.521485 1.526419,-0.02246 3.154804,-0.117731 4.785156,-0.332032 0.313136,-0.04116 0.624749,-0.104724 0.9375,-0.15625 4.889642,4.386343 10.826172,7.19336 10.826172,7.19336 0.273089,0.129819 0.591826,0.121111 0.857422,-0.02344 -10e-7,0 5.348836,-2.916793 9.892578,-7.28125 2.63341,0.350358 5.185362,0.449535 7.1875,0.419922 2.445352,-0.03623 4.082032,-0.21875 4.082032,-0.21875 0.299751,-0.03381 0.565348,-0.208709 0.714843,-0.470703 0,-10e-7 1.154853,-2.034269 2.408203,-5.017578 3.065617,-0.855511 5.232422,-1.726563 5.232422,-1.726563 0.278561,-0.115371 0.485381,-0.357401 0.556641,-0.65039 0,0 0.487792,-2.075903 0.861328,-5.011719 2.957574,-1.623413 4.963402,-3.086336 5.042969,-3.144531 h 0.002 l 0.002,-0.002 c 0.0015,-0.0011 0.08008,-0.05273 0.08008,-0.05273 0.102953,-0.07621 0.189342,-0.172567 0.253906,-0.283203 0.0071,-0.01803 0.01358,-0.03626 0.01953,-0.05469 0.05853,-0.116167 0.09244,-0.243167 0.09961,-0.373047 0.0051,-0.01744 0.0096,-0.03504 0.01367,-0.05274 0,0 -0.0017,-5.04713 -1.267578,-10.533203 2.785784,-3.533564 4.535156,-6.714844 4.535156,-6.714844 0.143886,-0.265075 0.152566,-0.582912 0.02344,-0.855468 0,0 -1.445374,-2.978232 -3.794922,-6.423828 1.512756,-5.205342 1.823122,-9.95229 1.832031,-10.087891 1e-4,-0.002 0.01172,-0.09961 0.01172,-0.09961 0.0069,-0.128194 -0.01235,-0.256456 -0.05664,-0.376954 -0.008,-0.01652 -0.01645,-0.0328 -0.02539,-0.04883 -0.05149,-0.118126 -0.126596,-0.224473 -0.220703,-0.3125 -0.0112,-0.01665 -0.02293,-0.03293 -0.03516,-0.04883 0,0 -2.945099,-2.452135 -7.023437,-4.765625 -0.438998,-3.116801 -1.007813,-5.339844 -1.007813,-5.339844 -0.07704,-0.29222 -0.288709,-0.530952 -0.570312,-0.640625 0,0 -2.05028,-0.770618 -4.958985,-1.539062 -1.150262,-2.801086 -2.183594,-4.677734 -2.183594,-4.677734 -0.14648,-0.263455 -0.409862,-0.441229 -0.708984,-0.478516 0,0 -2.576002,-0.322944 -6.064453,-0.302734 -2.012574,0.01161 -4.335603,0.147261 -6.675781,0.515625 C 55.836587,10.97691 50.49338,8.194986 50.390686,8.1419268 c -0.002,-0.00131 -0.0039,-0.00261 -0.0059,-0.00391 -7.3e-4,-4.15e-4 -0.05859,-0.035156 -0.05859,-0.035156 l 0.01953,0.033203 C 50.213417,8.0594317 50.064699,8.0158135 49.912042,8.009172 Z m -0.02734,2.025391 c 0.643079,0.341339 5.531728,2.966239 9.732422,7.001953 2.241154,2.153135 4.155504,4.637672 4.945313,7.148437 0.104122,0.330993 0.178522,0.662736 0.242187,0.994141 -0.659703,0.412996 -1.274088,0.941384 -1.853515,1.544922 -3.971262,-2.309264 -8.581462,-3.638672 -13.501954,-3.638672 -4.364393,0 -8.483945,1.048051 -12.130859,2.894531 -0.752484,-0.629083 -1.561906,-1.122127 -2.414062,-1.482422 0.04249,-0.166597 0.08204,-0.333369 0.136718,-0.5 0.820454,-2.500444 2.764374,-4.959463 5.03125,-7.083984 4.248522,-3.98175 9.164705,-6.54534 9.8125,-6.878906 z m 17.238282,6.574218 c 3.083995,-0.01782 4.961854,0.222405 5.330078,0.265625 0.276295,0.513157 1.927646,3.656516 3.232422,7.726563 -1.78814,-0.559542 -3.618161,-0.917291 -5.41211,-0.912109 -0.394475,0.0011 -0.787699,0.02112 -1.177734,0.05859 -0.871585,0.08374 -1.72737,0.277143 -2.550781,0.582032 -0.0558,-0.238204 -0.10817,-0.477387 -0.181641,-0.710938 -0.776061,-2.467072 -2.359517,-4.715002 -4.220703,-6.707031 1.739168,-0.205907 3.451199,-0.293921 4.980469,-0.302735 z m -34.898438,0.41211 c 1.492426,-0.01915 3.16944,0.05355 4.869141,0.216797 -1.687897,1.847255 -3.106916,3.912423 -3.847657,6.169922 -0.05668,0.172731 -0.09848,0.349363 -0.142578,0.52539 -0.38431,-0.08095 -0.772192,-0.147898 -1.164062,-0.185547 -0.390047,-0.03748 -0.783258,-0.05745 -1.177735,-0.05859 -2.309453,-0.0067 -4.679901,0.585409 -6.941406,1.441406 1.229073,-4.077805 2.816858,-7.232748 3.082031,-7.748047 0.367782,-0.05024 2.240135,-0.321838 5.322266,-0.361328 z m 44.6875,5.357422 c 1.525564,0.452454 2.705026,0.857619 2.958984,0.953125 0.07603,0.301809 0.360783,1.596058 0.646485,3.253906 -0.647361,-0.32321 -1.310302,-0.637155 -1.988281,-0.927734 -0.213233,-0.09139 -0.428793,-0.178304 -0.644532,-0.265625 -0.301456,-1.046715 -0.62918,-2.062404 -0.972656,-3.013672 z m -54.365234,0.58789 c -0.330983,0.973337 -0.642205,2.017768 -0.927735,3.089844 -0.801328,0.369416 -1.582108,0.760339 -2.330078,1.164063 0.323619,-1.830606 0.649802,-3.140073 0.734375,-3.460938 0.228526,-0.08307 1.237206,-0.41434 2.523438,-0.792969 z m 26.902343,1.982422 c 8.490683,0 15.98267,4.217027 20.513672,10.667969 H 28.93548 C 33.466267,29.165652 40.9578,24.948625 49.449151,24.948625 Z m -18.691406,0.632813 c 0.339207,2e-6 0.672543,0.01543 1,0.04687 1.386377,0.133195 2.658923,0.533499 3.794922,1.322265 -7.802854,4.716136 -13.023437,13.279876 -13.023437,23.054688 0,1.491565 0.127596,2.95303 0.361328,4.378906 -1.034091,-0.341173 -1.958225,-0.901823 -2.804688,-1.640625 -1.983009,-1.730796 -3.491379,-4.479739 -4.564453,-7.396484 -2.011491,-5.467527 -2.453303,-10.999591 -2.507812,-11.72461 0.566629,-0.460408 4.885106,-3.935048 10.236328,-6.228515 2.498703,-1.070918 5.133369,-1.81251 7.507812,-1.8125 z m 39.521485,0 c 2.374008,-1.2e-5 5.007204,0.741579 7.505859,1.8125 5.351118,2.29346 9.669696,5.768108 10.236328,6.228515 -0.05453,0.725032 -0.496545,6.257071 -2.507812,11.72461 -1.072941,2.916751 -2.579588,5.665696 -4.5625,7.396484 -1.402718,1.224367 -3.010222,1.974661 -5.003907,2.003906 0.274509,-1.540588 0.425782,-3.123269 0.425782,-4.742187 0,-9.264542 -4.691821,-17.441188 -11.826172,-22.285156 1.356464,-1.315199 2.951682,-1.920704 4.732422,-2.091797 0.327438,-0.03146 0.660855,-0.04687 1,-0.04687 z M 29.109308,37.479875 H 69.87298 L 49.451105,73.390031 Z m -1.753907,0.69336 20.882813,36.859375 C 34.951989,74.401078 24.392511,63.448342 24.392511,50.005266 c 0,-4.281903 1.073569,-8.308371 2.96289,-11.832031 z m 44.226563,0.07617 c 1.864358,3.505679 2.925781,7.504494 2.925781,11.75586 0,13.442382 -10.559417,24.394779 -23.84375,25.027344 z m -21.775391,0.445313 c -5.655784,0 -10.261718,4.605947 -10.261718,10.261719 0,5.655784 4.605934,10.257812 10.261718,10.257812 5.65484,0 10.259766,-4.601903 10.259766,-10.257812 0,-5.655897 -4.604926,-10.261719 -10.259766,-10.261719 z m 0,1.865234 c 4.646659,0 8.394532,3.748811 8.394532,8.396485 0,4.647686 -3.747873,8.392578 -8.394532,8.392578 -4.64781,0 -8.394531,-3.744767 -8.394531,-8.392578 0,-4.647799 3.746721,-8.396485 8.394531,-8.396485 z m -36.4375,4.351563 c 0.120631,0.363189 0.245781,0.726037 0.378907,1.08789 0.602893,1.638749 1.342082,3.25341 2.25,4.720704 -0.697023,1.384466 -1.257434,2.864951 -1.705079,4.361328 -0.127579,0.426381 -0.244559,0.854416 -0.355468,1.28125 -2.233502,-2.975991 -3.675979,-5.5975 -3.914063,-6.046875 0.25297,-0.490194 1.430194,-2.699917 3.345703,-5.404297 z m 74.017578,0.810547 c 1.468773,2.285138 2.383011,4.084181 2.591797,4.511718 -0.218018,0.390279 -1.407139,2.429696 -3.226562,4.88086 -0.0033,-0.01109 -0.0065,-0.02212 -0.0098,-0.0332 -0.447291,-1.495198 -1.00889,-2.973747 -1.705078,-4.357422 0.909008,-1.468274 1.648624,-3.084478 2.251953,-4.72461 0.034,-0.09244 0.06449,-0.184793 0.09766,-0.277343 z m -70.121093,6.802734 c 0.484023,0.594747 1.007641,1.146358 1.576172,1.642578 1.256446,1.096634 2.756911,1.886368 4.460937,2.240235 1.779837,7.282808 6.523903,13.403661 12.880859,17.015625 -0.816232,0.436565 -1.698752,0.724029 -2.648437,0.875 -2.599375,0.413222 -5.67482,-0.190958 -8.601563,-1.236329 -5.485737,-1.95939 -10.01506,-5.164574 -10.607421,-5.58789 0.0096,-0.728665 0.108554,-6.273181 1.777343,-11.851563 0.320515,-1.071417 0.721323,-2.103123 1.16211,-3.097656 z m 66.505859,0 c 0.44124,0.993476 0.8397,2.026436 1.160156,3.097656 1.668786,5.578383 1.768044,11.122875 1.777344,11.851563 -0.594318,0.424642 -5.122689,3.628941 -10.607422,5.58789 -2.926884,1.045383 -6.002079,1.649551 -8.601562,1.236329 -1.361615,-0.216446 -2.587893,-0.706083 -3.666016,-1.546875 5.73378,-3.63569 10.005954,-9.372402 11.716797,-16.128907 2.631029,0.04494 4.874844,-0.910408 6.644531,-2.455078 0.568511,-0.496222 1.092144,-1.047829 1.576172,-1.642578 z M 19.39837,72.704485 c 0.868449,0.441419 1.788274,0.877835 2.75,1.289062 0.293839,1.186928 0.616195,2.343486 0.966797,3.412109 -1.617644,-0.530717 -2.857189,-1.00553 -3.144531,-1.125 -0.06885,-0.317948 -0.3314,-1.746955 -0.572266,-3.576171 z m 61.65625,0.296875 c -0.241249,1.533049 -0.482678,2.719431 -0.548828,3.005859 -0.289043,0.11554 -1.540868,0.574332 -3.169922,1.083984 0.334016,-0.906666 0.653699,-1.861986 0.947266,-2.847656 0.96273,-0.393009 1.89483,-0.811661 2.771484,-1.242187 z M 62.140558,73.7455 c 1.131967,1.027478 2.42238,1.734623 3.802734,2.132813 -0.803318,2.402223 -2.574418,4.788664 -4.662109,6.880859 -4.114458,4.12334 -8.946021,6.848136 -9.582032,7.203125 -0.654214,-0.319532 -5.625257,-2.77502 -9.957031,-6.666016 -2.311182,-2.075997 -4.306554,-4.494069 -5.179687,-6.976562 -0.102876,-0.292489 -0.184358,-0.585034 -0.25586,-0.878906 0.623146,-0.272232 1.219832,-0.618567 1.78711,-1.029297 3.451653,1.610425 7.29794,2.515625 11.355468,2.515625 4.58833,0 8.908709,-1.153627 12.691407,-3.181641 z m -37.847657,1.09375 c 0.0014,4.89e-4 0.0025,0.0015 0.0039,0.002 3.0979,1.106495 6.440825,1.816426 9.537109,1.324219 0.227955,-0.03624 0.45506,-0.08001 0.679688,-0.130859 0.07496,0.307627 0.162249,0.612636 0.267578,0.912109 0.790483,2.247499 2.259676,4.288158 3.992187,6.103516 -2.901417,0.332691 -5.797919,0.298157 -8.009765,0.160156 h -0.002 c -2.052365,-0.12822 -3.097698,-0.294147 -3.433593,-0.34375 -0.257956,-0.520074 -1.858449,-3.8113 -3.035157,-8.027344 z m 51.765625,0.230469 c -1.380131,4.15694 -3.137223,7.378142 -3.419921,7.884766 -0.338242,0.03337 -1.388981,0.149041 -3.447266,0.177734 -1.551767,0.02165 -3.450525,-0.120925 -5.435547,-0.244141 1.789455,-1.987596 3.305714,-4.218241 4.060547,-6.642578 2.69424,0.290787 5.544299,-0.275506 8.242187,-1.175781 z"
       transform="translate(6.7362799e-5,-0.00526578)" />
  </g>
  <g
     id="g991"
     style="display:inline">
    <path
       id="path986"
       style="display:inline;fill:#0cd7d8;fill-opacity:1;fill-rule:nonzero;stroke:none;stroke-width:1.82344;stroke-linecap:round;stroke-linejoin:round;stroke-dasharray:none;stroke-opacity:1"
       d="M 466.45482 397.72032 C 465.82977 397.39846 461.08612 394.92484 456.98671 391.08284 C 454.7994 389.03289 452.9237 386.66017 452.13204 384.24748 C 452.07928 384.0867 452.04112 383.92578 452.00012 383.76503 C 452.82237 383.41738 453.60338 382.94164 454.32946 382.33464 C 457.84837 384.11631 461.82335 385.12758 466.03456 385.12758 C 470.78236 385.12758 475.23076 383.84483 479.06264 381.61661 C 479.62173 382.19897 480.21456 382.70881 480.85111 383.10731 C 480.78968 383.42709 480.71789 383.74719 480.61742 384.06656 C 479.85533 386.48921 478.00816 388.88655 475.84567 390.96411 C 471.79241 394.85818 467.07533 397.39096 466.45482 397.72032 z M 483.0881 391.37684 C 481.6125 391.36833 479.96056 391.28341 478.28243 391.08473 C 480.07829 389.16261 481.60618 386.99357 482.355 384.61309 C 482.42589 384.38774 482.47642 384.15695 482.53026 383.92711 C 483.32478 384.22129 484.15053 384.40791 484.99152 384.48871 C 485.36787 384.52486 485.74729 384.54419 486.12792 384.54525 C 487.85891 384.55025 489.6247 384.20505 491.35008 383.66515 C 490.0911 387.59235 488.49771 390.62539 488.23111 391.12053 C 487.87581 391.16224 486.06385 391.39403 483.0881 391.37684 z M 449.41448 390.97919 C 446.44053 390.94109 444.63388 390.67902 444.27901 390.63054 C 444.02314 390.13333 442.49108 387.08911 441.30515 383.15443 C 443.48728 383.98038 445.77454 384.55171 448.00293 384.54525 C 448.38357 384.54415 448.76298 384.52487 449.13933 384.48871 C 449.51745 384.45238 449.89172 384.38778 450.26254 384.30967 C 450.30509 384.47952 450.34542 384.64996 450.40012 384.81663 C 451.11486 386.99489 452.48408 388.98758 454.11273 390.77 C 452.47269 390.92752 450.85453 390.99767 449.41448 390.97919 z M 492.5336 385.8098 C 492.86502 384.89192 493.18124 383.91187 493.47212 382.9019 C 493.68028 382.81764 493.88828 382.73378 494.09403 382.64559 C 494.74821 382.36521 495.38789 382.06229 496.01253 381.75042 C 495.73685 383.35008 495.46209 384.59891 495.38873 384.89012 C 495.14369 384.98228 494.00562 385.37322 492.5336 385.8098 z M 440.0764 385.24254 C 438.83532 384.8772 437.86204 384.55756 437.64153 384.4774 C 437.55993 384.1678 437.24519 382.90429 436.93293 381.13793 C 437.65465 381.52749 438.40803 381.90469 439.18123 382.26114 C 439.45674 383.29559 439.75704 384.30336 440.0764 385.24254 z M 466.03456 383.32969 C 457.84124 383.32969 450.61262 379.26067 446.24085 373.03614 L 485.82827 373.03614 C 481.4563 379.26067 474.22724 383.32969 466.03456 383.32969 z M 447.99916 382.71909 C 445.70806 382.7191 443.16586 382.00354 440.75485 380.9702 C 435.59145 378.75723 431.42453 375.40454 430.87778 374.96029 C 430.93038 374.26072 431.35669 368.9228 433.29758 363.64718 C 434.33299 360.8328 435.78843 358.18033 437.70184 356.51028 C 438.51859 355.79741 439.41029 355.25644 440.40809 354.92724 C 440.18256 356.30307 440.05944 357.71325 440.05944 359.15246 C 440.05944 368.5842 445.09681 376.84739 452.6258 381.398 C 451.52967 382.15909 450.30179 382.54534 448.96407 382.67386 C 448.6481 382.70421 448.32647 382.71909 447.99916 382.71909 z M 486.13357 382.71909 C 485.80633 382.71909 485.48462 382.70422 485.16867 382.67386 C 483.45043 382.50877 481.9112 381.92452 480.60234 380.65548 C 487.48629 375.98152 492.01345 368.09184 492.01345 359.15246 C 492.01345 357.59036 491.86749 356.06322 491.60262 354.57671 C 493.52633 354.60493 495.07742 355.32889 496.4309 356.51028 C 498.34422 358.18032 499.79799 360.8328 500.83327 363.64718 C 502.77395 368.92282 503.20045 374.2607 503.25307 374.96029 C 502.70632 375.40454 498.53931 378.75724 493.376 380.9702 C 490.96504 382.00354 488.42426 382.7191 486.13357 382.71909 z M 446.40858 371.23825 L 466.03645 336.58842 L 485.74158 371.23825 L 446.40858 371.23825 z M 444.71623 370.56923 C 442.89322 367.16924 441.85733 363.28408 441.85733 359.15246 C 441.85733 346.1812 452.04622 335.61286 464.86613 335.00349 L 444.71623 370.56923 z M 487.39059 370.49573 L 467.20677 335.00349 C 480.02485 335.61386 490.21368 346.18187 490.21368 359.15246 C 490.21368 363.25461 489.18951 367.11309 487.39059 370.49573 z M 466.37944 370.06604 C 471.83581 370.06604 476.27912 365.62187 476.27912 360.16448 C 476.27912 354.70708 471.83581 350.26668 466.37944 350.26668 C 460.92216 350.26668 456.47788 354.7072 456.47788 360.16448 C 456.47788 365.62175 460.92216 370.06604 466.37944 370.06604 z M 466.37944 368.26627 C 461.89476 368.26627 458.27953 364.64915 458.27953 360.16448 C 458.27953 355.67979 461.89476 352.06645 466.37944 352.06645 C 470.86301 352.06645 474.47935 355.67991 474.47935 360.16448 C 474.47935 364.64903 470.86301 368.26627 466.37944 368.26627 z M 431.22078 364.06744 C 429.3725 361.45797 428.23659 359.3258 427.9925 358.85281 C 428.22223 358.41921 429.61408 355.8897 431.76919 353.01816 C 431.87621 353.43002 431.98908 353.84303 432.11218 354.25444 C 432.54412 355.6983 433.08486 357.12683 433.75742 358.4627 C 432.88137 359.8785 432.16812 361.43649 431.58639 363.01773 C 431.45793 363.36688 431.33718 363.71699 431.22078 364.06744 z M 502.64058 363.28534 C 502.60858 363.19603 502.57916 363.10692 502.54635 363.01773 C 501.9642 361.43516 501.25054 359.87568 500.37344 358.45894 C 501.04519 357.12382 501.58708 355.69716 502.01867 354.25444 C 502.02186 354.24375 502.02491 354.23311 502.02809 354.22241 C 503.78366 356.58754 504.93105 358.55538 505.14142 358.93196 C 504.93996 359.3445 504.0578 361.0804 502.64058 363.28534 z M 434.98051 356.72136 C 434.55519 355.76173 434.16845 354.76623 433.85919 353.73242 C 432.24897 348.34982 432.15348 342.9999 432.14422 342.29681 C 432.71579 341.88835 437.08616 338.79565 442.37936 336.90503 C 445.20338 335.89635 448.17089 335.31338 450.67903 335.71209 C 451.59539 335.85777 452.44693 336.13514 453.23452 336.55638 C 447.10068 340.04158 442.5231 345.94762 440.80574 352.97482 C 439.16152 353.31626 437.71371 354.07828 436.50136 355.13643 C 435.95279 355.61523 435.44754 356.14748 434.98051 356.72136 z M 499.15223 356.72136 C 498.68519 356.14748 498.17993 355.61523 497.63138 355.13643 C 495.9238 353.64597 493.75873 352.72415 491.22005 352.76751 C 489.56925 346.24815 485.44701 340.71276 479.91447 337.20468 C 480.95475 336.3934 482.138 335.92094 483.45182 335.71209 C 485.96007 335.31338 488.92734 335.89634 491.7515 336.90503 C 497.04373 338.79523 501.41318 341.88707 501.98663 342.29681 C 501.97766 342.99992 501.88188 348.34982 500.27167 353.73242 C 499.96246 354.76604 499.57798 355.76275 499.15223 356.72136 z M 437.03847 337.24991 C 437.27088 335.48489 437.52421 334.10604 437.59065 333.79925 C 437.8679 333.68397 439.06395 333.22582 440.62482 332.71373 C 440.28652 333.74485 439.97548 334.86082 439.69195 336.00609 C 438.76398 336.40288 437.87643 336.82398 437.03847 337.24991 z M 496.53078 336.96345 C 495.6849 336.54804 494.78551 336.14408 493.85657 335.76486 C 493.57331 334.81379 493.26484 333.89199 492.94255 333.01715 C 494.51443 333.50891 495.72232 333.95161 496.00122 334.06309 C 496.06505 334.33946 496.298 335.48421 496.53078 336.96345 z M 478.28054 336.24543 C 474.63061 334.28859 470.46185 333.17545 466.03456 333.17545 C 462.11945 333.17545 458.40814 334.04889 455.07763 335.60279 C 454.53027 335.20647 453.95452 334.87229 453.35325 334.60962 C 453.42224 334.32606 453.50086 334.04378 453.60013 333.76156 C 454.44261 331.36619 456.36796 329.03298 458.59802 327.02985 C 462.77776 323.27542 467.57434 320.90611 468.2056 320.59779 C 468.81928 320.94032 473.48128 323.56949 477.45133 327.54811 C 479.46575 329.56687 481.17469 331.86956 481.94981 334.18747 C 480.61791 334.57169 479.37278 335.25401 478.28054 336.24543 z M 441.76122 335.19007 C 442.89662 331.122 444.44095 327.94628 444.68985 327.44446 C 445.01395 327.39659 446.0226 327.23649 448.00293 327.11277 L 448.00482 327.11277 C 450.13903 326.97961 452.93388 326.94629 455.73347 327.26731 C 454.06176 329.01895 452.64413 330.98799 451.88139 333.15661 C 451.77976 333.44557 451.69553 333.73988 451.62321 334.03671 C 451.40646 333.98764 451.18733 333.94541 450.96737 333.91044 C 447.97976 333.43551 444.75416 334.12052 441.76498 335.18818 C 441.76363 335.18866 441.76257 335.18959 441.76122 335.19007 z M 491.71004 334.96769 C 489.10684 334.09901 486.3568 333.55259 483.75712 333.83317 C 483.02878 331.49392 481.56574 329.34156 479.83909 327.42373 C 481.75444 327.30483 483.58656 327.16726 485.08387 327.18815 C 487.06991 327.21584 488.08377 327.32745 488.41014 327.35965 C 488.68292 327.84849 490.37835 330.95665 491.71004 334.96769 z "
       transform="matrix(1.0363733,0,0,-1.0363733,-433.53656,422.21602)" />
  </g>
</svg>
