<?xml version="1.0" encoding="UTF-8" standalone="no"?>
<!-- Created with Inkscape (http://www.inkscape.org/) -->

<svg
   version="1.1"
   id="svg4628"
   width="100"
   height="100"
   viewBox="0 0 100 100"
   xmlns="http://www.w3.org/2000/svg"
   xmlns:svg="http://www.w3.org/2000/svg">
  <defs
     id="defs4632" />
  <g
     id="g4634">
    <path
       fill="#2F353A"
       style="stroke:#2f353a;stroke-width:1;stroke-dasharray:none;stroke-opacity:1"
       d="m 38.215695,89.401984 c -2.868569,-1.433441 -6.249256,-3.830442 -7.512639,-5.326667 -8.515767,-10.085238 -8.515767,-25.184918 0,-35.270156 2.395195,-2.836632 11.579672,-7.932922 14.296625,-7.932922 1.348765,0 1.568407,-0.716118 1.568407,-5.1136 v -5.1136 h -8.066546 c -7.194291,0 -8.165191,-0.184315 -8.978786,-1.704533 -0.648141,-1.211062 -0.648141,-2.198006 0,-3.409067 0.813595,-1.520217 1.784495,-1.704534 8.978786,-1.704534 h 8.066546 v -7.21428 c 0,-6.342023 0.20609,-7.3245769 1.704534,-8.1265194 1.211061,-0.6481403 2.198005,-0.6481403 3.409067,0 1.498442,0.8019425 1.704533,1.7844964 1.704533,8.1265194 v 7.21428 h 8.066547 c 7.194291,0 8.165191,0.184317 8.978786,1.704534 0.648141,1.211061 0.648141,2.198005 0,3.409067 -0.813595,1.520218 -1.784495,1.704533 -8.978786,1.704533 h -8.066547 v 5.1136 c 0,4.397482 0.219643,5.1136 1.568407,5.1136 2.716954,0 11.90143,5.09629 14.296624,7.932922 6.943563,8.223273 8.41332,19.939629 3.687647,29.396539 -4.593353,9.192113 -12.260935,13.784346 -23.038686,13.798214 -5.519602,0.0067 -7.234343,-0.374153 -11.684519,-2.59793 z m 22.099567,-8.072863 c 5.431202,-3.82544 7.762531,-8.849544 7.386168,-15.917486 -0.372383,-6.99322 -3.344861,-11.823133 -9.201608,-14.95149 -3.202164,-1.710423 -4.778693,-1.998316 -9.551271,-1.744181 -6.99322,0.372384 -11.823132,3.344862 -14.95149,9.201608 -1.710423,3.202164 -1.998316,4.778692 -1.74418,9.551271 0.372383,6.993219 3.344861,11.823133 9.201608,14.95149 3.202163,1.710423 4.778692,1.998316 9.55127,1.744181 4.672095,-0.248786 6.37237,-0.766638 9.309503,-2.835393 z"
       id="path4755" />
  </g>
</svg>
