<svg width="49" height="34" viewBox="0 0 49 34" fill="none" xmlns="http://www.w3.org/2000/svg">
<rect x="0.5" y="0.5" width="48" height="33" rx="5.5" fill="white" stroke="#D9D9D9"/>
<path fill-rule="evenodd" clip-rule="evenodd" d="M29.5457 23.8636C29.8215 23.1549 30.4355 21.5666 30.1435 21.1817H30.1457C29.855 20.796 28.2235 20.9984 27.4897 21.0894L27.4881 21.0896C27.2649 21.1174 27.2305 20.9166 27.4312 20.7713C28.7343 19.8252 30.8691 20.0958 31.117 20.4153C31.365 20.7347 31.0494 22.9463 29.8291 24.0022C29.6412 24.1642 29.462 24.0777 29.5457 23.8636ZM20.7777 24.9572C23.6155 24.9572 26.9203 24.0311 29.1968 22.2953V22.2986C29.5736 22.0058 29.2505 21.5755 28.8663 21.744C26.3813 22.8272 23.7139 23.3925 21.017 23.4078C17.2754 23.4078 13.6561 22.3474 10.7281 20.5872C10.4716 20.433 10.2805 20.7048 10.4952 20.9033C13.3141 23.5315 16.9811 24.9772 20.7777 24.9572Z" fill="#FF9900"/>
<path fill-rule="evenodd" clip-rule="evenodd" d="M39.3343 19.7599H40.5429H40.544C40.6704 19.7623 40.7754 19.6597 40.7801 19.5291V16.0675C40.7801 15.6327 40.8026 15.24 40.9722 14.8474C41.0886 14.5487 41.3629 14.3476 41.6742 14.3328C42.4473 14.3328 42.4398 15.2082 42.434 15.8959C42.4335 15.9539 42.433 16.0105 42.433 16.0652V19.5579C42.448 19.67 42.5383 19.755 42.6477 19.7599H43.867C43.9826 19.7623 44.0822 19.676 44.0999 19.5579V15.5107C44.0999 14.8884 44.0999 14.0222 43.7833 13.5075C43.4409 12.953 42.9107 12.75 42.3676 12.75C41.5304 12.75 41.0549 13.1693 40.7157 14.0488H40.6921V13.065C40.6676 12.9621 40.5799 12.8887 40.4774 12.8853H39.3526C39.2337 12.8823 39.1325 12.9739 39.1197 13.0961V19.5291C39.1212 19.6524 39.2151 19.7534 39.3343 19.7599ZM38.1966 16.3858C38.1966 14.356 37.2231 12.7589 35.4232 12.7589C33.6694 12.7589 32.6958 14.3294 32.6958 16.3181C32.6958 18.3068 33.6575 19.904 35.4232 19.904C37.1233 19.904 38.1966 18.3479 38.1966 16.3858ZM34.484 16.1151C34.484 15.3299 34.5409 14.0721 35.4349 14.0721C35.8192 14.0721 36.0907 14.2507 36.2271 14.6943C36.3859 15.2079 36.4085 15.8578 36.4085 16.3991C36.4085 17.2243 36.373 18.5775 35.4231 18.5775C34.4836 18.5775 34.4839 16.9368 34.484 16.1412L34.484 16.1151ZM11.8046 19.7732H13.0164H13.0175C13.0783 19.7746 13.1372 19.751 13.1811 19.7075C13.225 19.6639 13.2503 19.6041 13.2515 19.5413V16.1329L13.2514 16.0795C13.251 15.3384 13.2503 14.3582 14.0887 14.3582C14.8637 14.3582 14.8517 15.2195 14.8421 15.9149V15.9149V15.915V15.915V15.915C14.841 15.99 14.84 16.0631 14.84 16.1329V19.5424C14.8421 19.6655 14.9357 19.7661 15.0547 19.7732H16.2697C16.3303 19.7743 16.3889 19.7505 16.4326 19.7071C16.4763 19.6636 16.5015 19.6039 16.5026 19.5413V16.1329L16.5025 16.0519C16.5017 15.6907 16.5008 15.2034 16.6164 14.9006C16.7342 14.5911 17.0191 14.3839 17.3408 14.3738C17.6918 14.3738 17.9634 14.4958 18.0535 14.9283C18.0996 15.1365 18.0936 15.6191 18.0896 15.9392V15.9392L18.0896 15.9393L18.0896 15.9403C18.0887 16.0154 18.0879 16.0815 18.0879 16.1329V19.5424C18.0894 19.6657 18.1833 19.7667 18.3026 19.7732H19.5143C19.5752 19.7746 19.634 19.751 19.678 19.7075C19.7219 19.6639 19.7472 19.6041 19.7483 19.5413V15.4829C19.7483 15.384 19.75 15.2829 19.7517 15.1806C19.7616 14.5747 19.7721 13.9296 19.4424 13.4665C19.0428 12.9412 18.4 12.6794 17.761 12.7817C17.1219 12.8839 16.5859 13.3344 16.3588 13.9601C16.0185 13.1471 15.5323 12.7688 14.7853 12.7688C14.0382 12.7688 13.4833 13.1471 13.1892 13.9601H13.1667V13.1204C13.1603 13.0008 13.0678 12.9052 12.952 12.8986H11.8218C11.697 12.8973 11.594 12.9993 11.59 13.1282V19.5612C11.601 19.677 11.6922 19.7671 11.8046 19.7732ZM9.69553 19.8219C9.61571 19.8935 9.50101 19.9055 9.40895 19.8519C9.06553 19.5566 8.96199 19.397 8.80299 19.1519L8.80296 19.1519C8.77562 19.1097 8.74663 19.065 8.71451 19.0167C8.04797 19.7177 7.57678 19.9273 6.7149 19.9273C5.69416 19.9273 4.8999 19.2762 4.8999 17.9741C4.8999 16.957 5.43657 16.266 6.18789 15.9266C6.74269 15.675 7.48293 15.5969 8.1229 15.5294L8.12291 15.5294L8.12292 15.5294C8.2419 15.5169 8.35742 15.5047 8.46764 15.4918V15.3299C8.46764 15.299 8.46788 15.2676 8.46813 15.2358V15.2357V15.2357V15.2357V15.2356V15.2356C8.47025 14.9595 8.47261 14.652 8.3206 14.4204C8.17248 14.1897 7.89126 14.0954 7.64011 14.0954C7.1775 14.0954 6.76534 14.3405 6.66445 14.8474C6.65167 14.9657 6.56362 15.0603 6.44979 15.0781L5.28415 14.9461C5.22599 14.9375 5.17378 14.9046 5.1397 14.8552C5.10563 14.8057 5.09266 14.744 5.10383 14.6844C5.37324 13.2114 6.66123 12.7667 7.81506 12.7667C8.40539 12.7667 9.17604 12.9286 9.63971 13.39C10.184 13.9166 10.1807 14.606 10.177 15.3594C10.1767 15.4216 10.1764 15.4843 10.1764 15.5473V17.4983C10.1764 18.0237 10.365 18.2851 10.5638 18.5604C10.5874 18.5931 10.6111 18.626 10.6347 18.6595C10.712 18.7705 10.7291 18.9091 10.6347 18.9923C10.3868 19.2064 9.94669 19.6012 9.70519 19.8242L9.69553 19.8219ZM8.47298 16.7673L8.47302 16.8281C8.47345 17.2894 8.47381 17.6806 8.24651 18.0983C8.05331 18.451 7.74742 18.6684 7.4061 18.6684C6.94135 18.6684 6.6698 18.3024 6.6698 17.7589C6.6698 16.6919 7.59608 16.4978 8.47298 16.4978V16.7673ZM26.4553 18.5558C26.479 18.5885 26.5028 18.6215 26.5264 18.6551C26.608 18.7704 26.6251 18.9058 26.521 18.9823C26.2731 19.1964 25.833 19.5923 25.5915 19.8142C25.5112 19.8847 25.3969 19.8962 25.3049 19.843C24.96 19.5465 24.8579 19.3892 24.6966 19.1409C24.6697 19.0994 24.6411 19.0554 24.6094 19.0078C23.944 19.7088 23.4696 19.9184 22.6109 19.9184C21.5902 19.9184 20.7959 19.2673 20.7959 17.9663C20.7959 16.9481 21.3293 16.2571 22.0893 15.9177C22.6452 15.6652 23.3896 15.5875 24.0315 15.5205C24.1479 15.5083 24.261 15.4965 24.369 15.484V15.3254C24.369 15.2948 24.3692 15.2637 24.3695 15.2321L24.3695 15.2316C24.3716 14.9554 24.3739 14.6478 24.2209 14.4171C24.0771 14.1863 23.7905 14.091 23.5404 14.091C23.0778 14.091 22.6678 14.3361 22.5658 14.843C22.5527 14.961 22.4648 15.0555 22.3511 15.0737L21.1759 14.9428C21.1173 14.9345 21.0646 14.9016 21.0303 14.8518C20.9959 14.8021 20.983 14.7399 20.9945 14.6799C21.2649 13.2059 22.5529 12.7622 23.7068 12.7622C24.296 12.7622 25.0667 12.9241 25.5314 13.3855C26.0769 13.9094 26.073 14.5935 26.0688 15.3431V15.3436C26.0685 15.4095 26.0681 15.476 26.0681 15.5428V17.4949C26.0681 18.0193 26.2567 18.2805 26.4553 18.5558ZM23.3043 18.6617C23.6445 18.6617 23.9515 18.4443 24.1436 18.0927C24.3717 17.6728 24.3715 17.2797 24.3712 16.8126L24.3712 16.7629V16.4922C23.4942 16.4922 22.568 16.6852 22.568 17.7533C22.568 18.2957 22.8395 18.6617 23.3043 18.6617ZM27.5524 13.106V14.0222C27.5518 14.085 27.5761 14.1454 27.6197 14.1892C27.6633 14.233 27.7224 14.2564 27.7832 14.254H29.8697L27.4773 17.8033C27.3681 17.9936 27.3165 18.2134 27.3292 18.4344V19.3716C27.3292 19.5069 27.4741 19.6611 27.6125 19.5845C28.9321 18.8775 30.5012 18.8746 31.8232 19.5768C31.9745 19.6577 32.1173 19.5014 32.1173 19.366V18.3811C32.1132 18.2305 32.0313 18.0938 31.9026 18.0229C31.206 17.618 30.3957 17.4993 29.6293 17.5182L31.6944 14.4725C31.8865 14.1996 31.9939 14.0266 31.9939 13.8946V13.106C31.9945 13.0434 31.9703 12.9832 31.9269 12.9394C31.8836 12.8956 31.8248 12.8721 31.7642 12.8742H27.7789C27.7182 12.8707 27.659 12.8939 27.6158 12.9381C27.5726 12.9823 27.5496 13.0433 27.5524 13.106Z" fill="black"/>
</svg>
