<svg width="50" height="34" viewBox="0 0 50 34" fill="none" xmlns="http://www.w3.org/2000/svg">
<rect x="0.5" y="0.5" width="49" height="33" rx="5.5" fill="white" stroke="#D9D9D9"/>
<path d="M28.7069 17.1799C28.7069 22.5808 24.3425 26.9591 18.9587 26.9591C13.5749 26.9591 9.21045 22.5808 9.21045 17.1799C9.21045 11.7789 13.5749 7.40063 18.9587 7.40063C24.3425 7.40063 28.7069 11.7789 28.7069 17.1799Z" fill="#ED0006"/>
<path d="M41.3532 17.1799C41.3532 22.5808 36.9887 26.9591 31.6049 26.9591C26.2211 26.9591 21.8567 22.5808 21.8567 17.1799C21.8567 11.7789 26.2211 7.40063 31.6049 7.40063C36.9887 7.40063 41.3532 11.7789 41.3532 17.1799Z" fill="#0099DF"/>
<path fill-rule="evenodd" clip-rule="evenodd" d="M25.282 9.73682C27.3779 11.5305 28.707 14.1995 28.707 17.1799C28.707 20.1603 27.3779 22.8293 25.282 24.623C23.186 22.8293 21.8569 20.1603 21.8569 17.1799C21.8569 14.1995 23.186 11.5305 25.282 9.73682Z" fill="#6C6BBD"/>
</svg>
