<svg width="49" height="34" viewBox="0 0 49 34" fill="none" xmlns="http://www.w3.org/2000/svg">
<rect x="0.5" y="0.5" width="48" height="33" rx="5.5" fill="white" stroke="#D9D9D9"/>
<path fill-rule="evenodd" clip-rule="evenodd" d="M13.86 21.5913H11.6821C11.5331 21.5913 11.4064 21.7009 11.3831 21.8497L10.5023 27.5009C10.4848 27.6125 10.5701 27.713 10.6819 27.713H11.7216C11.8707 27.713 11.9974 27.6034 12.0207 27.4542L12.2582 25.93C12.2811 25.7808 12.4082 25.6713 12.5569 25.6713H13.2464C14.681 25.6713 15.5089 24.9688 15.7253 23.5767C15.8227 22.9677 15.7294 22.4892 15.4475 22.1539C15.138 21.7861 14.5889 21.5913 13.86 21.5913ZM14.1113 23.6553C13.9922 24.4461 13.3951 24.4461 12.8177 24.4461H12.4891L12.7197 22.9692C12.7333 22.88 12.8098 22.8143 12.8989 22.8143H13.0496C13.4429 22.8143 13.8139 22.8143 14.0056 23.0411C14.1198 23.1765 14.1549 23.3775 14.1113 23.6553ZM20.3702 23.63H19.3272C19.2384 23.63 19.1616 23.6957 19.1479 23.7851L19.1018 24.0802L19.0288 23.9733C18.8031 23.6416 18.2996 23.5308 17.7971 23.5308C16.6445 23.5308 15.6603 24.4141 15.4685 25.6531C15.3689 26.2711 15.5105 26.8621 15.857 27.2742C16.1749 27.6532 16.6297 27.8111 17.1706 27.8111C18.0992 27.8111 18.6143 27.2068 18.6143 27.2068L18.5677 27.5002C18.5502 27.6123 18.6355 27.7128 18.7466 27.7128H19.6861C19.8355 27.7128 19.9615 27.6032 19.9851 27.4541L20.5488 23.842C20.5666 23.7309 20.4816 23.63 20.3702 23.63ZM18.9164 25.684C18.8157 26.2869 18.3428 26.6916 17.7398 26.6916C17.4369 26.6916 17.1948 26.5933 17.0395 26.4071C16.8853 26.2222 16.8267 25.9588 16.8758 25.6657C16.9698 25.0678 17.4506 24.65 18.0445 24.65C18.3406 24.65 18.5814 24.7494 18.74 24.9373C18.8988 25.1272 18.9619 25.392 18.9164 25.684ZM24.8766 23.6298H25.9246C26.0714 23.6298 26.1571 23.7964 26.0736 23.9182L22.5879 29.0096C22.5315 29.0921 22.4385 29.1411 22.3392 29.1411H21.2924C21.145 29.1411 21.059 28.9732 21.1443 28.8511L22.2297 27.3008L21.0753 23.8727C21.0354 23.7536 21.1223 23.6298 21.2476 23.6298H22.2774C22.4112 23.6298 22.5293 23.7187 22.5679 23.8483L23.1805 25.9187L24.626 23.7642C24.6826 23.6801 24.7766 23.6298 24.8766 23.6298Z" fill="#253B80"/>
<path fill-rule="evenodd" clip-rule="evenodd" d="M36.2396 27.5008L37.1334 21.7463C37.1471 21.657 37.2236 21.5912 37.3125 21.5909H38.3187C38.4298 21.5909 38.5152 21.6917 38.4976 21.8033L37.6162 27.4542C37.5932 27.6033 37.4665 27.7129 37.3172 27.7129H36.4186C36.3074 27.7129 36.2221 27.6124 36.2396 27.5008ZM29.3945 21.5912H27.2163C27.0676 21.5912 26.9408 21.7008 26.9175 21.8497L26.0367 27.5008C26.0192 27.6124 26.1045 27.7129 26.2158 27.7129H27.3334C27.4373 27.7129 27.5262 27.6362 27.5424 27.5319L27.7923 25.93C27.8153 25.7807 27.9423 25.6713 28.091 25.6713H28.7801C30.2151 25.6713 31.0428 24.9687 31.2593 23.5767C31.357 22.9676 31.2631 22.4891 30.9814 22.1539C30.6721 21.786 30.1234 21.5912 29.3945 21.5912ZM29.6458 23.6553C29.527 24.4461 28.9299 24.4461 28.3522 24.4461H28.0238L28.2548 22.9691C28.2685 22.88 28.3442 22.8142 28.4337 22.8142H28.5843C28.9773 22.8142 29.3487 22.8142 29.5403 23.041C29.6546 23.1764 29.6894 23.3774 29.6458 23.6553ZM35.9041 23.6299H34.8619C34.7723 23.6299 34.6963 23.6957 34.6828 23.785L34.6367 24.0801L34.5635 23.9732C34.3377 23.6415 33.8346 23.5307 33.3321 23.5307C32.1795 23.5307 31.1955 24.414 31.0038 25.6531C30.9045 26.271 31.0455 26.862 31.392 27.2742C31.7104 27.6531 32.1646 27.811 32.7056 27.811C33.6342 27.811 34.1491 27.2068 34.1491 27.2068L34.1027 27.5001C34.0851 27.6122 34.1704 27.7127 34.2823 27.7127H35.2213C35.37 27.7127 35.4968 27.6031 35.52 27.454L36.084 23.842C36.1013 23.7309 36.0159 23.6299 35.9041 23.6299ZM34.4504 25.6839C34.3504 26.2868 33.8769 26.6916 33.2737 26.6916C32.9714 26.6916 32.7289 26.5933 32.5734 26.407C32.4193 26.2221 32.3613 25.9588 32.4098 25.6656C32.5043 25.0677 32.9846 24.6499 33.5785 24.6499C33.8747 24.6499 34.1153 24.7494 34.274 24.9373C34.4335 25.1271 34.4966 25.3919 34.4504 25.6839Z" fill="#179BD7"/>
<path d="M21.9197 19.5696L22.1875 17.8487L21.5911 17.8347H18.7432L20.7223 5.13597C20.7284 5.09763 20.7484 5.06188 20.7776 5.0365C20.8068 5.01112 20.8442 4.99713 20.8831 4.99713H25.6851C27.2794 4.99713 28.3795 5.33282 28.9539 5.99539C29.2231 6.30622 29.3947 6.63103 29.4777 6.98848C29.5646 7.36355 29.5662 7.81165 29.4812 8.35819L29.475 8.39808V8.74826L29.7444 8.90265C29.9712 9.02438 30.1513 9.16374 30.2895 9.3233C30.52 9.58905 30.669 9.92682 30.7319 10.3273C30.7969 10.7391 30.7754 11.2292 30.669 11.784C30.5461 12.4222 30.3474 12.9781 30.0792 13.4329C29.8324 13.852 29.518 14.1996 29.1449 14.469C28.7886 14.7249 28.3652 14.9192 27.8865 15.0436C27.4226 15.1657 26.8938 15.2275 26.3138 15.2275H25.9401C25.6729 15.2275 25.4132 15.3248 25.2096 15.4995C25.0053 15.6777 24.87 15.921 24.8286 16.1874L24.8005 16.3423L24.3274 19.3753L24.3059 19.4867C24.3003 19.5221 24.2906 19.5396 24.2763 19.5516C24.2635 19.5623 24.245 19.5696 24.227 19.5696H21.9197Z" fill="#253B80"/>
<path d="M29.9994 8.43866C29.9851 8.53138 29.9688 8.62618 29.9504 8.72357C29.317 12.0137 27.1505 13.1503 24.3834 13.1503H22.9745C22.6361 13.1503 22.351 13.3989 22.2982 13.7367L21.5769 18.3659L21.3726 19.6781C21.3383 19.8998 21.5073 20.0998 21.7284 20.0998H24.2273C24.5232 20.0998 24.7745 19.8822 24.821 19.587L24.8456 19.4584L25.3162 16.4372L25.3464 16.2715C25.3924 15.9752 25.6442 15.7576 25.9402 15.7576H26.3139C28.7349 15.7576 30.6302 14.763 31.1841 11.8847C31.4155 10.6823 31.2957 9.67834 30.6834 8.97224C30.4981 8.75932 30.2682 8.58267 29.9994 8.43866Z" fill="#179BD7"/>
<path d="M29.3366 8.17154C29.24 8.14304 29.14 8.11714 29.0376 8.09383C28.9348 8.07104 28.8292 8.05084 28.7208 8.03322C28.3409 7.97105 27.9247 7.94153 27.4787 7.94153H23.7149C23.6223 7.94153 23.5343 7.96276 23.4554 8.0011C23.2818 8.08554 23.1529 8.25184 23.1216 8.45542L22.3208 13.5872L22.2979 13.7369C22.3506 13.3991 22.6358 13.1504 22.9741 13.1504H24.383C27.1501 13.1504 29.3167 12.0133 29.95 8.72377C29.9688 8.62638 29.9848 8.53158 29.999 8.43885C29.8389 8.35285 29.6653 8.27929 29.4784 8.2166C29.4324 8.20106 29.3848 8.18605 29.3366 8.17154Z" fill="#222D65"/>
<path d="M23.1217 8.45532C23.153 8.25172 23.2821 8.08544 23.4555 8.00151C23.535 7.96317 23.6225 7.94194 23.7151 7.94194H27.479C27.9249 7.94194 28.3411 7.97146 28.7209 8.03363C28.8295 8.05124 28.935 8.07145 29.0379 8.09424C29.1403 8.11756 29.2401 8.14346 29.3369 8.17194C29.3849 8.18645 29.4325 8.20147 29.4791 8.2165C29.6659 8.27918 29.8396 8.35326 29.9997 8.43874C30.1882 7.22289 29.9983 6.39507 29.3487 5.64545C28.6325 4.82022 27.3397 4.46692 25.6857 4.46692H20.8835C20.5456 4.46692 20.2575 4.71557 20.2052 5.05385L18.2051 17.8832C18.1656 18.137 18.3591 18.366 18.612 18.366H21.5767L22.3211 13.587L23.1217 8.45532Z" fill="#253B80"/>
</svg>
