<svg width="48" height="48" viewBox="0 0 48 48" fill="none" xmlns="http://www.w3.org/2000/svg">
<mask id="mask0_884_438" style="mask-type:alpha" maskUnits="userSpaceOnUse" x="0" y="0" width="48" height="48">
<rect width="48" height="48" fill="#2F353A"/>
</mask>
<g mask="url(#mask0_884_438)">
<path d="M34.9881 32.343L43 40.3531L40.3531 43L32.343 34.9881C29.3626 37.3773 25.6555 38.6768 21.8357 38.6714C12.5424 38.6714 5 31.129 5 21.8357C5 12.5424 12.5424 5 21.8357 5C31.129 5 38.6714 12.5424 38.6714 21.8357C38.6768 25.6555 37.3773 29.3626 34.9881 32.343ZM31.2356 30.955C33.6096 28.5136 34.9355 25.241 34.9301 21.8357C34.9301 14.6001 29.0694 8.74126 21.8357 8.74126C14.6001 8.74126 8.74126 14.6001 8.74126 21.8357C8.74126 29.0694 14.6001 34.9301 21.8357 34.9301C25.241 34.9355 28.5136 33.6096 30.955 31.2356L31.2356 30.955Z" fill="#2F353A"/>
</g>
</svg>
