<?xml version="1.0" encoding="UTF-8" standalone="no"?>
<!-- Created with Inkscape (http://www.inkscape.org/) -->

<svg
   version="1.1"
   id="svg5747"
   width="100"
   height="100"
   viewBox="0 0 100 100"
   xmlns="http://www.w3.org/2000/svg"
   xmlns:svg="http://www.w3.org/2000/svg">
   <defs
      id="defs5751" />
   <g
      id="g5753">
      <path
         fill="#2F353A"
         style="stroke:#2f353a;stroke-width:1;stroke-dasharray:none;stroke-opacity:1"
         d="m 47.235846,91.599742 c -0.33037,-0.33037 -0.600673,-3.740461 -0.600673,-7.577979 v -6.977306 l -7.360559,-0.243052 -7.360559,-0.243052 v -2.944224 -2.944224 l 7.360559,-0.243052 7.360559,-0.243053 v -4.906977 -4.906977 l -3.196495,-0.51114 C 37.922147,58.976577 30.196787,54.50373 25.709308,49.593715 21.074403,44.522389 18.158527,37.958368 17.422326,30.938623 c -0.518181,-4.940912 0.511859,-6.955694 3.556041,-6.955694 2.609182,0 3.472816,1.378598 4.043021,6.453779 1.006489,8.958361 8.118669,18.02014 16.342455,20.822265 4.969471,1.693269 12.302844,1.693269 17.272315,0 8.223786,-2.802125 15.335966,-11.863904 16.342455,-20.822265 0.570205,-5.075181 1.433839,-6.453779 4.043021,-6.453779 3.044182,0 4.074222,2.014782 3.55604,6.955694 -0.7362,7.019745 -3.652077,13.583766 -8.286981,18.655092 -4.48748,4.910015 -12.212839,9.382862 -17.72937,10.264991 l -3.196495,0.51114 v 4.906977 4.906977 l 7.360559,0.243053 7.360559,0.243052 v 2.944224 2.944224 l -7.328279,0.242581 -7.32828,0.242581 -0.242581,7.32828 -0.242582,7.32828 -2.553853,0.250169 c -1.404619,0.137593 -2.824157,-0.02013 -3.154525,-0.350502 z M 42.008536,46.368411 C 31.720792,41.874165 27.056263,29.513461 31.802066,19.321916 35.29022,11.83115 41.448102,8 50.000001,8 c 8.774597,0 14.508231,3.580751 18.184122,11.356292 4.82041,10.196518 0.02901,22.68587 -10.375941,27.046091 -3.42065,1.433434 -12.485236,1.413943 -15.799646,-0.03397 z m 14.212584,-7.97505 c 10.840632,-6.105211 6.470081,-22.8225 -5.966691,-22.8225 -8.858225,0 -14.64906,7.577418 -12.154312,15.904148 1.145125,3.822089 3.962204,6.584498 8.244999,8.084994 3.541532,1.240792 6.147995,0.932893 9.876004,-1.166642 z"
         id="path5874" />
   </g>
</svg>