<?xml version="1.0" encoding="UTF-8" standalone="no"?>
<!-- Created with Inkscape (http://www.inkscape.org/) -->

<svg
   version="1.1"
   id="svg164"
   width="100"
   height="100"
   viewBox="0 0 100 100"
   xmlns="http://www.w3.org/2000/svg"
   xmlns:svg="http://www.w3.org/2000/svg">
   <defs
      id="defs168" />
   <g
      id="g170">
      <path
         id="path4144"
         fill="#2F353A"
         style="stroke:#2f353a;stroke-width:2;stroke-dasharray:none;stroke-opacity:1"
         d="m 50.103458,8.457409 c -47.8857051,0 -58.4814136,65.535162 -13.204246,81.667278 3.563389,1.26962 6.750065,1.566703 14.569099,1.355968 C 106.39997,90.000152 105.05946,8.457409 50.103458,8.457409 Z m 0,8.18912 c 35.967546,0 46.953155,47.492466 14.753922,63.78379 -6.391552,3.23383 -18.998128,4.04714 -25.599886,1.650974 C 3.1643652,68.980979 11.838738,16.646529 50.103458,16.646529 Z m -0.103075,25.99619 a 7.3576251,7.3576251 0 0 0 -7.357413,7.357413 7.3576251,7.3576251 0 0 0 7.357413,7.357413 7.3576251,7.3576251 0 0 0 7.357413,-7.357413 7.3576251,7.3576251 0 0 0 -7.357413,-7.357413 z" />
   </g>
</svg>