<?xml version="1.0" encoding="UTF-8" standalone="no"?>
<!-- Created with Inkscape (http://www.inkscape.org/) -->

<svg
   version="1.1"
   id="svg5546"
   width="100"
   height="100"
   viewBox="0 0 100 100"
   xmlns="http://www.w3.org/2000/svg"
   xmlns:svg="http://www.w3.org/2000/svg">
   <defs
      id="defs5550" />
   <g
      id="g5552">
      <path
         fill="#2F353A"
         style="stroke:#2f353a;stroke-width:1;stroke-dasharray:none;stroke-opacity:1"
         d="M 42.035891,90.163414 C 37.58517,87.449776 35.47491,83.33619 35.470927,77.366151 35.466827,71.2604 37.890797,67.042674 42.976941,64.305492 l 3.371176,-1.814247 0.0024,-10.658702 c 0.0023,-9.845466 -0.128267,-10.658701 -1.71084,-10.658701 -1.257778,0 -1.880857,0.893197 -2.343542,3.359519 -1.474889,7.861836 -7.757208,15.996608 -15.229526,19.720221 -5.721787,2.851287 -10.195665,3.046981 -11.55584,0.505471 -1.445468,-2.700882 0.310339,-5.191113 4.557293,-6.463532 8.634492,-2.586956 14.492302,-10.974208 14.492302,-20.750174 0,-9.804549 -5.85785,-18.16323 -14.555128,-20.768997 -6.24422,-1.870815 -6.676289,-8.2589562 -0.558604,-8.2589562 9.111763,0 20.836412,11.3092412 22.849503,22.0399382 0.462685,2.466323 1.085764,3.359521 2.343542,3.359521 1.594813,0 1.713293,-0.844655 1.713293,-12.214252 0,-11.285851 0.1379,-12.2880536 1.814247,-13.1852072 1.289013,-0.6898584 2.339482,-0.6898584 3.628494,0 1.676347,0.8971536 1.814247,1.8993562 1.814247,13.1852072 0,11.369597 0.11848,12.214252 1.713293,12.214252 1.257778,0 1.880857,-0.893198 2.343543,-3.359521 1.474937,-7.861835 7.757257,-15.996607 15.229574,-19.72022 5.374554,-2.6782529 10.162651,-3.0271807 11.392148,-0.830191 1.589574,2.840413 0.03419,4.900994 -5.64218,7.474782 -9.062542,4.109153 -13.243723,10.443454 -13.243723,20.063644 0,9.621819 4.180926,15.954375 13.247775,20.06548 5.920042,2.684275 7.280216,4.385819 5.766651,7.21394 C 83.093754,67.297348 78.5526,67.072202 72.896368,64.253582 65.424051,60.529969 59.141731,52.395198 57.666843,44.533362 57.204157,42.06704 56.581078,41.173842 55.3233,41.173842 c -1.582573,0 -1.713106,0.813236 -1.710842,10.658702 l 0.0025,10.658702 3.371175,1.814247 c 5.086144,2.737181 7.510088,6.954907 7.506014,13.060658 -0.004,5.970039 -2.114243,10.083625 -6.564964,12.797263 -4.016323,2.448781 -11.874921,2.448781 -15.891244,0 z m 12.48124,-8.169012 c 4.095228,-4.095228 1.015115,-10.885483 -4.937742,-10.885483 -2.199399,0 -3.541276,0.596466 -4.535618,2.016088 -3.229514,4.610777 -0.422771,10.683642 4.937742,10.683642 1.511873,0 3.527703,-0.806332 4.535618,-1.814247 z"
         id="path5689" />
   </g>
</svg>