<svg width="48" height="48" viewBox="0 0 48 48" fill="none" xmlns="http://www.w3.org/2000/svg">
<mask id="mask0_903_448" style="mask-type:alpha" maskUnits="userSpaceOnUse" x="0" y="0" width="48" height="48">
<rect width="48" height="48" fill="#D9D9D9"/>
</mask>
<g mask="url(#mask0_903_448)">
<path d="M42.9427 29.1339L29.1884 42.8596C29.1346 42.9151 29.0523 42.942 28.9968 42.9151L10.2092 37.8801C10.1269 37.8532 10.0715 37.7978 10.0715 37.744L5.01121 18.9849C4.98271 18.9009 5.01121 18.8471 5.06663 18.7917L18.8193 5.06595C18.8747 5.01053 18.957 4.98361 19.0109 5.01053L37.7985 10.0455C37.8808 10.0724 37.9362 10.1278 37.9362 10.1816L42.9712 28.9407C43.025 29.0247 42.9965 29.0785 42.9427 29.1339ZM24.5129 14.1985L6.0562 19.1226C6.02928 19.1226 6.00078 19.1764 6.02928 19.2049L19.535 32.6821C19.5619 32.709 19.6173 32.709 19.6173 32.6552L24.5683 14.2254C24.5952 14.2254 24.5398 14.17 24.5129 14.1985V14.1985Z" fill="#2F353A"/>
</g>
</svg>
