<?xml version="1.0" encoding="UTF-8" standalone="no"?>
<!-- Created with Inkscape (http://www.inkscape.org/) -->

<svg
   version="1.1"
   id="svg5932"
   width="100"
   height="100"
   viewBox="0 0 100 100"
   xmlns="http://www.w3.org/2000/svg"
   xmlns:svg="http://www.w3.org/2000/svg">
   <defs
      id="defs5936" />
   <g
      id="g5938">
      <path
         fill="#2F353A"
         style="stroke:#2f353a;stroke-width:1;stroke-dasharray:none;stroke-opacity:1"
         d="m 47.977622,91.133446 c -1.240796,-0.722697 -1.572961,-2.140488 -1.572961,-6.713927 v -5.797761 h -5.810799 c -4.890883,0 -5.963109,-0.284591 -6.772884,-1.797669 -0.683554,-1.277234 -0.683554,-2.318104 0,-3.595338 0.809775,-1.513077 1.882001,-1.797669 6.772884,-1.797669 h 5.810799 v -4.339799 -4.3398 L 41.848382,61.699769 C 32.268689,59.48851 22.918179,51.309902 19.48794,42.141768 17.918831,37.947949 17.641957,35.128121 17.641957,23.341343 c 0,-12.946676 0.119258,-13.9304185 1.797669,-14.8286766 1.212934,-0.6491424 2.341702,-0.6709257 3.470206,-0.066969 1.476393,0.7901418 1.724577,2.4013366 2.116291,13.7388506 0.517646,14.982391 2.154162,20.133066 8.105039,25.509325 3.456422,3.12267 9.817143,6.598626 12.149956,6.639613 0.869358,0.01527 1.123543,-5.056802 1.123543,-22.419498 0,-21.519321 0.0737,-22.4786802 1.797669,-23.401322 1.277234,-0.6835547 2.318104,-0.6835547 3.595338,0 1.723972,0.9226418 1.797669,1.882001 1.797669,23.401322 0,17.356851 0.254478,22.437249 1.123544,22.430458 2.702884,-0.02112 10.380288,-4.491323 13.169384,-7.667927 5.474584,-6.235208 6.606141,-10.141249 7.09309,-24.484767 0.385291,-11.349116 0.631736,-12.9555479 2.108813,-13.7460548 1.128503,-0.6039569 2.257272,-0.5821736 3.470205,0.066969 1.678411,0.8982581 1.79767,1.8820008 1.79767,14.8286768 0,11.786778 -0.276876,14.606606 -1.845984,18.800425 -3.43024,9.168134 -12.780749,17.346742 -22.360442,19.558001 l -4.55628,1.051714 v 4.3398 4.339799 h 5.8108 c 4.890884,0 5.96311,0.284592 6.772885,1.797669 0.683553,1.277234 0.683553,2.318104 0,3.595338 -0.809775,1.513078 -1.882001,1.797669 -6.772885,1.797669 h -5.8108 v 5.8108 c 0,4.825051 -0.294933,5.968644 -1.738577,6.741259 -2.069148,1.107374 -1.905657,1.109075 -3.879137,-0.04038 z"
         id="path6059" />
   </g>
</svg>