<svg width="48" height="48" viewBox="0 0 48 48" fill="none" xmlns="http://www.w3.org/2000/svg">
<mask id="mask0_752_8" style="mask-type:alpha" maskUnits="userSpaceOnUse" x="0" y="0" width="48" height="48">
<rect width="48" height="48" fill="#2F353A"/>
</mask>
<g mask="url(#mask0_752_8)">
<path d="M35.6857 14.5753C33.4516 11.0008 30.5472 7.9246 28.021 5.39834C27.8652 5.24392 27.6747 5.12902 27.4654 5.06325C27.2561 4.99748 27.0341 4.98274 26.818 5.02026C26.6003 5.05455 26.3943 5.14131 26.2176 5.27305C26.041 5.40479 25.899 5.57756 25.8041 5.77642L20.4938 16.9126L14.9601 13.2177C14.6566 13.0168 14.2864 12.9428 13.929 13.0115C13.7516 13.0465 13.5829 13.1161 13.4326 13.2164C13.2822 13.3166 13.153 13.4456 13.0525 13.5958C9.70135 18.6483 8 23.2196 8 27.1894C8 31.3827 9.66575 35.4041 12.6308 38.3692C15.5959 41.3342 19.6173 43 23.8106 43C28.0038 43 32.0253 41.3342 34.9903 38.3692C37.9554 35.4041 39.6211 31.3827 39.6211 27.1894C39.6211 22.9103 38.3322 18.7858 35.6857 14.5753ZM34.0015 28.7705C33.6764 30.9379 32.6646 32.944 31.1149 34.4937C29.5651 36.0435 27.5591 37.0553 25.3916 37.3804H25.1854C24.8405 37.3778 24.5091 37.2457 24.257 37.0102C24.005 36.7747 23.8507 36.453 23.8247 36.109C23.7987 35.7651 23.903 35.4239 24.1169 35.1533C24.3307 34.8826 24.6385 34.7022 24.9792 34.6479C26.5592 34.391 28.0183 33.6438 29.1502 32.5119C30.2821 31.38 31.0294 29.9208 31.2862 28.3409C31.3052 28.1557 31.3616 27.9763 31.4521 27.8136C31.5425 27.6508 31.665 27.5082 31.8122 27.3942C31.9593 27.2802 32.1281 27.1974 32.3083 27.1506C32.4885 27.1038 32.6763 27.0941 32.8603 27.122C33.0444 27.15 33.2208 27.215 33.379 27.3132C33.5371 27.4114 33.6737 27.5407 33.7804 27.6932C33.8871 27.8457 33.9617 28.0183 33.9997 28.2006C34.0377 28.3828 34.0383 28.5708 34.0015 28.7533V28.7705Z" fill="#2F353A"/>
</g>
</svg>
