<svg width="48" height="48" viewBox="0 0 48 48" fill="none" xmlns="http://www.w3.org/2000/svg">
<mask id="mask0_752_9" style="mask-type:alpha" maskUnits="userSpaceOnUse" x="0" y="0" width="48" height="48">
<rect width="48" height="48" fill="#2F353A"/>
</mask>
<g mask="url(#mask0_752_9)">
<path d="M24.4904 43C20.3919 43 16.7859 41.5723 13.6723 38.7169C10.5574 35.8602 9 31.9953 9 27.1223C9 24.0565 10.1618 20.7325 12.4854 17.1503C14.8089 13.5682 18.3265 9.69554 23.0382 5.53248C23.2318 5.37113 23.4578 5.24204 23.7159 5.14522C23.9741 5.04841 24.2323 5 24.4904 5C24.7486 5 25.0068 5.04841 25.265 5.14522C25.5231 5.24204 25.749 5.37113 25.9427 5.53248C30.6544 9.69554 34.172 13.5682 36.4955 17.1503C38.8191 20.7325 39.9809 24.0565 39.9809 27.1223C39.9809 31.9953 38.4235 35.8602 35.3086 38.7169C32.195 41.5723 28.589 43 24.4904 43ZM25.0229 37.1911C25.4102 37.1588 25.7413 37.0058 26.0163 36.7322C26.2899 36.4572 26.4268 36.1261 26.4268 35.7389C26.4268 35.287 26.2815 34.9243 25.9911 34.6506C25.7006 34.3757 25.3295 34.2544 24.8777 34.2866C23.5546 34.3834 22.1507 34.0207 20.6662 33.1984C19.1817 32.3748 18.2459 30.882 17.8586 28.7197C17.7941 28.3648 17.6243 28.0743 17.3494 27.8484C17.0757 27.6225 16.7614 27.5096 16.4064 27.5096C15.9546 27.5096 15.5834 27.6787 15.293 28.0169C15.0025 28.3564 14.9057 28.752 15.0025 29.2038C15.5512 32.1406 16.842 34.2382 18.8752 35.4968C20.9083 36.7554 22.9575 37.3202 25.0229 37.1911V37.1911Z" fill="#2F353A"/>
</g>
</svg>
