<?xml version="1.0" encoding="UTF-8" standalone="no"?>
<!-- Created with Inkscape (http://www.inkscape.org/) -->

<svg
   version="1.1"
   id="svg1846"
   width="100"
   height="100"
   viewBox="0 0 100 100"
   sodipodi:docname="leo.png"
   xmlns:inkscape="http://www.inkscape.org/namespaces/inkscape"
   xmlns:sodipodi="http://sodipodi.sourceforge.net/DTD/sodipodi-0.dtd"
   xmlns="http://www.w3.org/2000/svg"
   xmlns:svg="http://www.w3.org/2000/svg">
  <defs
     id="defs1850" />
  <sodipodi:namedview
     id="namedview1848"
     pagecolor="#505050"
     bordercolor="#ffffff"
     borderopacity="1"
     inkscape:showpageshadow="0"
     inkscape:pageopacity="0"
     inkscape:pagecheckerboard="1"
     inkscape:deskcolor="#505050"
     showgrid="false" />
  <g
     inkscape:groupmode="layer"
     inkscape:label="Image"
     id="g1852">
    <path
       fill="#2F353A"
       style="stroke:#2f353a;stroke-width:2;stroke-dasharray:none;stroke-opacity:1"
       d="m 64.28,91.393913 c -5.610614,-2.108234 -9.24,-7.902216 -9.24,-14.750812 0,-6.606077 1.841031,-10.927857 8.795809,-20.647972 8.321959,-11.63091 9.921485,-15.117148 10.353673,-22.566287 0.313249,-5.399139 0.10726,-6.489182 -1.860947,-9.847674 -1.354135,-2.310656 -3.658607,-4.62359 -5.937043,-5.958843 -9.337267,-5.472002 -23.486694,-0.21171 -25.290253,9.402085 -0.879337,4.687272 0.229721,16.119775 2.134244,22.000429 2.093067,6.462822 2.24176,14.331257 0.346306,18.325627 -2.263995,4.771018 -6.376846,7.308847 -12.474032,7.697087 C 21.289501,75.672732 15.472015,70.763779 14.872448,61.347757 14.248703,51.552039 19.159592,45.7118 28.521535,45.115676 l 5.199861,-0.331102 -0.365882,-9.558776 C 33.009475,26.185464 33.111562,25.417803 35.237731,21.07207 39.339402,12.688557 45.969921,8.7221187 56.80057,8.1729796 62.709358,7.8733903 64.700981,8.1076053 67.763247,9.4621913 72.9311,11.748178 76.96573,15.502844 79.422225,20.312149 81.222883,23.837463 81.5,25.500323 81.5,32.78 81.5,42.951329 80.033861,46.644418 70.938347,59.383969 64.173658,68.858871 62.6,72.132576 62.6,76.730362 c 0,7.386929 7.850087,10.35373 13.731664,5.189638 1.578567,-1.386 3.460285,-2.52 4.181597,-2.52 1.756932,0 3.919844,3.211212 3.3182,4.926434 -0.820466,2.339063 -3.885975,5.316613 -6.714481,6.521824 C 74.4485,91.985282 66.727246,92.313488 64.28,91.393913 Z M 35.338182,65.578182 C 36.855273,64.061091 37.4,62.608485 37.4,60.08 37.4,57.551515 36.855273,56.098909 35.338182,54.581818 33.821091,53.064727 32.368485,52.52 29.84,52.52 c -4.728479,0 -7.56,2.831521 -7.56,7.56 0,4.728479 2.831521,7.56 7.56,7.56 2.528485,0 3.981091,-0.544727 5.498182,-2.061818 z"
       id="path1973" />
  </g>
</svg>
