<svg width="48" height="48" viewBox="0 0 48 48" fill="none" xmlns="http://www.w3.org/2000/svg">
<mask id="mask0_922_440" style="mask-type:alpha" maskUnits="userSpaceOnUse" x="0" y="0" width="48" height="48">
<rect width="48" height="48" fill="#D9D9D9"/>
</mask>
<g mask="url(#mask0_922_440)">
<path fill-rule="evenodd" clip-rule="evenodd" d="M43.6751 25.0547C43.6955 24.6652 43.6095 24.2774 43.4262 23.9331C43.2429 23.5888 42.9693 23.301 42.6349 23.1005C42.3004 22.9001 41.9177 22.7946 41.5278 22.7953C41.1379 22.7961 40.7556 22.9032 40.422 23.105C38.2108 24.4434 35.645 25.0777 33.0649 24.9237C30.4849 24.7696 28.0125 23.8345 25.9757 22.2424C23.9389 20.6503 22.4339 18.4764 21.6603 16.009C20.8868 13.5416 20.8812 10.8974 21.6443 8.42692C21.7598 8.05408 21.7716 7.65676 21.6782 7.27773C21.5849 6.89869 21.39 6.55228 21.1145 6.27578C20.8391 5.99927 20.4935 5.80312 20.115 5.70845C19.7364 5.61378 19.3392 5.62416 18.9662 5.73848C14.3916 7.13835 10.5079 10.2031 8.08167 14.3279C5.65549 18.4527 4.8631 23.3377 5.86093 28.0187C6.85876 32.6998 9.57429 36.8368 13.4715 39.6131C17.3688 42.3894 22.1645 43.6033 26.9122 43.0151C31.3698 42.4677 35.4925 40.368 38.5575 37.0841C41.6225 33.8001 43.4342 29.5415 43.6751 25.0547V25.0547Z" fill="#2F353A"/>
</g>
</svg>
