<?xml version="1.0" encoding="UTF-8" standalone="no"?>
<!-- Created with Inkscape (http://www.inkscape.org/) -->

<svg
   version="1.1"
   id="svg1081"
   width="100"
   height="100"
   viewBox="0 0 100 100"
   sodipodi:docname="aquarius.png"
   inkscape:export-filename="aquarius.svg"
   inkscape:export-xdpi="96"
   inkscape:export-ydpi="96"
   xmlns:inkscape="http://www.inkscape.org/namespaces/inkscape"
   xmlns:sodipodi="http://sodipodi.sourceforge.net/DTD/sodipodi-0.dtd"
   xmlns="http://www.w3.org/2000/svg"
   xmlns:svg="http://www.w3.org/2000/svg">
  <defs
     id="defs1085" />
  <sodipodi:namedview
     id="namedview1083"
     pagecolor="#505050"
     bordercolor="#ffffff"
     borderopacity="1"
     inkscape:showpageshadow="0"
     inkscape:pageopacity="0"
     inkscape:pagecheckerboard="1"
     inkscape:deskcolor="#505050"
     showgrid="false" />
  <g
     inkscape:groupmode="layer"
     inkscape:label="Image"
     id="g1087">
    <path
       fill="#2F353A"
       style="stroke:#2f353a;stroke-width:2;stroke-dasharray:none;stroke-opacity:1"
       d="m 9.0356151,73.013867 c -0.577834,-0.233161 -1.0438113,-1.621621 -1.035506,-3.085465 0.01264,-2.22816 0.662708,-3.098513 3.9923059,-5.345179 2.187462,-1.476003 5.641546,-3.839868 7.675744,-5.253033 5.15768,-3.583063 9.163011,-3.524229 12.393734,0.182053 1.319122,1.513293 2.971931,3.627908 3.672908,4.699144 l 1.274505,1.947699 5.100763,-3.754968 c 6.78388,-4.994009 8.111547,-5.643319 11.539066,-5.643319 2.921038,0 5.512627,2.149921 8.981196,7.450588 l 1.274506,1.947699 5.100761,-3.754968 c 6.762564,-4.978315 8.114047,-5.643319 11.468887,-5.643319 2.029405,0 3.437807,0.659532 4.935754,2.311334 6.622804,7.30304 8.257809,11.883497 4.885969,13.68805 -2.268131,1.213867 -5.025423,-0.535855 -8.052362,-5.109869 -2.206349,-3.334018 -2.237731,-3.347909 -4.410964,-1.952393 -1.203844,0.773033 -3.51257,2.427661 -5.130505,3.676951 -4.315258,3.332031 -6.275465,4.195633 -9.523258,4.195633 -2.921039,0 -5.512627,-2.149921 -8.981196,-7.450588 l -1.274506,-1.9477 -5.100761,3.754967 c -6.783881,4.994009 -8.111547,5.643321 -11.539068,5.643321 -2.909614,0 -5.440969,-2.089522 -8.967417,-7.402208 l -1.260728,-1.899319 -6.663626,4.650763 c -6.341983,4.42628 -7.953845,5.063499 -10.3562019,4.094126 z m 0,-30.257471 c -0.577834,-0.23316 -1.0438113,-1.621621 -1.035506,-3.085465 0.01264,-2.22816 0.662708,-3.098514 3.9923059,-5.345179 2.187462,-1.476004 5.641546,-3.839869 7.675744,-5.253033 5.15768,-3.583064 9.163011,-3.52423 12.393734,0.182053 1.319122,1.513294 2.971931,3.627909 3.672908,4.699144 l 1.274505,1.947698 5.100763,-3.754967 c 6.78388,-4.994009 8.111547,-5.64332 11.539066,-5.64332 2.921038,0 5.512627,2.149921 8.981196,7.450589 l 1.274506,1.947698 5.100761,-3.754967 c 6.762564,-4.978316 8.114047,-5.64332 11.468887,-5.64332 2.029405,0 3.437807,0.659532 4.935754,2.311335 6.622804,7.30304 8.257809,11.883497 4.885969,13.688049 -2.268131,1.213868 -5.025423,-0.535855 -8.052362,-5.109869 -2.206349,-3.334018 -2.237731,-3.347908 -4.410964,-1.952392 -1.203844,0.773033 -3.51257,2.427661 -5.130505,3.676951 -4.315258,3.33203 -6.275465,4.195633 -9.523258,4.195633 -2.921039,0 -5.512627,-2.149921 -8.981196,-7.450589 l -1.274506,-1.947698 -5.100761,3.754967 c -6.783881,4.994008 -8.111547,5.64332 -11.539068,5.64332 -2.909614,0 -5.440969,-2.089523 -8.967417,-7.402208 l -1.260728,-1.899319 -6.663626,4.650763 c -6.341983,4.42628 -7.953845,5.063499 -10.3562019,4.094126 z"
       id="path1208" />
  </g>
</svg>
