<?xml version="1.0" encoding="UTF-8" standalone="no"?>
<!-- Created with Inkscape (http://www.inkscape.org/) -->

<svg
   version="1.1"
   id="svg1466"
   width="100"
   height="100"
   viewBox="0 0 100 100"
   sodipodi:docname="capricorn.png"
   xmlns:inkscape="http://www.inkscape.org/namespaces/inkscape"
   xmlns:sodipodi="http://sodipodi.sourceforge.net/DTD/sodipodi-0.dtd"
   xmlns="http://www.w3.org/2000/svg"
   xmlns:svg="http://www.w3.org/2000/svg">
   <defs
      id="defs1470" />
   <sodipodi:namedview
      id="namedview1468"
      pagecolor="#505050"
      bordercolor="#ffffff"
      borderopacity="1"
      inkscape:showpageshadow="0"
      inkscape:pageopacity="0"
      inkscape:pagecheckerboard="1"
      inkscape:deskcolor="#505050"
      showgrid="false" />
   <g
      inkscape:groupmode="layer"
      inkscape:label="Image"
      id="g1472">
      <path
         fill="#2F353A"
         style="stroke:#2f353a;stroke-width:2;stroke-dasharray:none;stroke-opacity:1"
         d="m 34.935138,90.423025 c -0.94361,-1.763151 -0.004,-5.119526 1.444417,-5.159665 0.330245,-0.0091 3.245559,-0.39887 6.478476,-0.866043 6.435243,-0.929924 11.03861,-3.391376 12.921219,-6.909063 1.044078,-1.950878 0.974,-2.40097 -0.706399,-4.536992 C 50.894613,67.640141 50.554993,65.77906 50.041497,45.38 49.629847,29.026879 49.324214,25.633414 48.051249,23.282117 46.356044,20.1509 39.716514,15.56 36.883238,15.56 34.704949,15.56 26.145593,23.065721 24.338255,26.560726 23.377447,28.418724 23.12,33.001928 23.12,48.248731 23.12,66.721189 23.04529,67.620875 21.44,68.48 20.282969,69.099224 19.259823,69.111422 18.153217,68.519184 16.648302,67.713779 16.525685,66.287323 16.219164,46.01963 16.011277,32.2738 15.538615,23.553367 14.923434,22.113913 14.39078,20.867564 12.588174,18.334943 10.917643,16.485865 8.6597364,13.986632 7.9495596,12.52036 8.150157,10.771952 8.3726968,8.8322952 8.8729724,8.3757664 11.003997,8.1676681 c 2.131959,-0.2081894 3.176433,0.3903848 5.970547,3.4216399 1.862603,2.020685 3.582052,4.213235 3.820999,4.872332 0.322091,0.888439 1.276259,0.417782 3.689453,-1.819877 6.362266,-5.8994781 8.382524,-6.8773695 13.356095,-6.4649223 5.614591,0.4656056 12.721922,4.8922323 16.137778,10.0510203 2.310781,3.489851 2.323412,3.588165 2.832515,22.048811 0.470697,17.06793 1.5214,25.683328 3.132247,25.683328 0.351382,0 1.138351,-1.4175 1.74882,-3.15 1.640286,-4.655099 4.933908,-8.623173 8.338099,-10.045535 4.367935,-1.825039 12.454765,-1.152589 15.934203,1.324989 8.038723,5.724077 8.019092,19.704687 -0.03573,25.449805 -3.38078,2.411348 -13.400999,3.156905 -18.706764,1.391883 l -3.357748,-1.116993 -2.558335,3.354202 c -3.863042,5.064785 -10.632324,8.181839 -18.79457,8.654345 -6.09518,0.352847 -6.698164,0.241446 -7.576464,-1.399671 z M 82.378182,72.298182 c 2.865229,-2.86523 2.865229,-8.131134 0,-10.996364 C 79.607231,58.530868 74.400916,58.235155 71.647604,60.692334 70.303513,61.891861 66.8,69.99096 66.8,71.898579 c 0,1.380775 3.486852,2.351725 8.648182,2.408177 4.089414,0.04473 5.198013,-0.276587 6.93,-2.008574 z"
         id="path1593" />
   </g>
</svg>